<?xml version="1.0" encoding="UTF-8"?>
<svg width="100px" height="90px" viewBox="0 0 100 90" version="1.1" xmlns="http://www.w3.org/2000/svg" xmlns:xlink="http://www.w3.org/1999/xlink">
    <!-- Generator: Sketch 44 (41411) - http://www.bohemiancoding.com/sketch -->
    <title>Page 1</title>
    <desc>Created with Sketch.</desc>
    <defs></defs>
    <g id="Page-1" stroke="none" stroke-width="1" fill="none" fill-rule="evenodd">
        <g id="Desktop-HD" transform="translate(-992.000000, -1595.000000)">
            <g id="Page-1" transform="translate(992.000000, 1595.000000)">
                <path d="M70.0489068,69.5374322 L37.3224661,88.496161 C36.4514492,89.001839 35.3363644,88.7043814 34.8322119,87.8333644 L0.887720339,29.2395508 C0.383567797,28.3685339 0.680262712,27.2542119 1.55127966,26.7492966 L34.2777203,7.7905678 C35.1487373,7.28565254 36.263822,7.58311017 36.7679746,8.45336441 L70.7124661,67.047178 C71.2166186,67.9181949 70.9199237,69.0332797 70.0489068,69.5374322" id="Fill-1" fill="#057C55"></path>
                <path d="M70.1557627,67.3691949 C70.4822034,67.9320763 70.2892373,68.6558898 69.7263559,68.9815678 L36.9999153,87.9402966 C36.4377966,88.2659746 35.7139831,88.0737712 35.3883051,87.5108898 L1.44457627,28.917839 C1.11813559,28.3549576 1.31033898,27.6311441 1.87322034,27.3062288 L34.599661,8.34673729 C35.1625424,8.02029661 35.8855932,8.21326271 36.2120339,8.77614407 L70.1557627,67.3691949 Z M33.9551695,7.23394068 L1.22872881,26.1934322 C0.0526271186,26.8745339 -0.349322034,28.3862288 0.331779661,29.5623305 L34.2755085,88.1553814 C34.9573729,89.3314831 36.4683051,89.7341949 37.6444068,89.0530932 L70.3708475,70.0936017 C71.5477119,69.4125 71.949661,67.9008051 71.2685593,66.7247034 L37.3248305,8.13165254 C36.6429661,6.95555085 35.1320339,6.55283898 33.9551695,7.23394068 L33.9551695,7.23394068 Z" id="Fill-3" fill="#182642"></path>
                <path d="M29.8337034,37.8446949 C24.1194661,41.1548644 22.1638729,48.4967288 25.4740424,54.2109661 C28.7849746,59.9252034 36.1260763,61.8807966 41.8403136,58.5706271 C47.5545508,55.2604576 49.5101441,47.9185932 46.1999746,42.2043559 C42.8898051,36.4901186 35.5479407,34.5345254 29.8337034,37.8446949 M42.4848051,59.6834237 C36.1573475,63.3482542 28.0276017,61.183678 24.3620085,54.8554576 C20.6964153,48.528 22.8617542,40.3982542 29.1892119,36.7318983 C35.5166695,33.0663051 43.647178,35.2316441 47.3127712,41.5598644 C50.9783644,47.887322 48.8130254,56.0170678 42.4848051,59.6834237" id="Fill-5" fill="#182642"></path>
                <path d="M46.1702288,42.2213644 C49.475822,47.9279746 47.5301441,55.2347542 41.8235339,58.5403475 C36.116161,61.8467034 28.8101441,59.9010254 25.5037881,54.1936525 C22.1981949,48.4870424 24.1446356,41.1810254 29.8512458,37.8746695 C35.5578559,34.5690763 42.8646356,36.5155169 46.1702288,42.2213644" id="Fill-7" fill="#13AD81"></path>
                <path d="M28.2256017,26.9462288 C29.3528898,28.8926695 28.6893305,31.3829237 26.7436525,32.5109746 C24.7979746,33.6375 22.3069576,32.9739407 21.1796695,31.0290254 C20.0523814,29.0833475 20.7159407,26.5915678 22.6616186,25.4650424 C24.6072966,24.3369915 27.0983136,25.0005508 28.2256017,26.9462288" id="Fill-9" fill="#13AD81"></path>
                <path d="M50.0861441,64.6810932 C51.2134322,66.6267712 50.5498729,69.1177881 48.6041949,70.2450763 C46.6577542,71.3723644 44.1667373,70.7088051 43.0394492,68.7631271 C41.9129237,66.8174492 42.5757203,64.3256695 44.522161,63.1991441 C46.467839,62.0718559 48.9588559,62.7354153 50.0861441,64.6810932" id="Fill-11" fill="#13AD81"></path>
                <path d="M35.8264831,83.313 L35.8280085,83.3122373 L35.8287712,83.3175763 L35.8264831,83.313 Z M65.126822,62.9646102 C64.8964831,63.097322 64.8179237,63.3932542 64.9513983,63.6228305 L66.1305508,65.6585085 C66.1275,65.6615593 66.1252119,65.6653729 66.1213983,65.6684237 C66.0664831,65.7294407 66.0153814,65.7912203 65.9696186,65.8560508 C65.9459746,65.8888475 65.9230932,65.9216441 65.9017373,65.9567288 C65.8590254,66.0246102 65.8216525,66.0947797 65.7743644,66.1924068 C65.7636864,66.2160508 65.7522458,66.2389322 65.7430932,66.2618136 C65.6973305,66.3731695 65.6622458,66.477661 65.6386017,66.5806271 L65.6317373,66.6218136 C65.6119068,66.718678 65.598178,66.8170678 65.5920763,66.9169831 C65.5905508,66.9429153 65.5905508,66.9688475 65.5905508,67.0252881 C65.5897881,67.1046102 65.592839,67.1839322 65.6019915,67.2632542 C65.6058051,67.3013898 65.6096186,67.3387627 65.6164831,67.3768983 C65.6279237,67.4478305 65.6447034,67.5195254 65.6683475,67.6041864 L37.9300424,83.673 C37.9300424,83.6722373 37.9300424,83.6722373 37.9292797,83.6722373 C37.8667373,83.6074068 37.8026695,83.5471525 37.7332627,83.4922373 C37.7012288,83.4663051 37.6691949,83.442661 37.6348729,83.4190169 C37.5654661,83.3702034 37.4937712,83.3267288 37.3908051,83.2718136 C37.367161,83.2588475 37.3450424,83.2466441 37.3213983,83.2359661 C37.2054661,83.1825763 37.0986864,83.1429153 36.9880932,83.1131695 C36.8805508,83.0841864 36.7661441,83.0651186 36.6372458,83.0544407 C36.612839,83.0521525 36.5876695,83.0521525 36.5266525,83.0506271 C36.4427542,83.0491017 36.3580932,83.0498644 36.2757203,83.0582542 C36.2330085,83.0620678 36.191822,83.0666441 36.1498729,83.0735085 C36.0682627,83.0864746 35.9874153,83.1055424 35.8859746,83.1337627 L34.7266525,81.1324068 C34.5939407,80.9028305 34.2980085,80.8242712 34.0684322,80.9569831 C33.8380932,81.0896949 33.7595339,81.3863898 33.8930085,81.6159661 L35.2620763,83.9803729 C35.3955508,84.2107119 35.6945339,84.2869831 35.9286864,84.1512203 C36.4389407,83.8552881 37.0963983,84.0307119 37.3923305,84.5417288 C37.5258051,84.7713051 37.8209746,84.8506271 38.0513136,84.7171525 L66.5141949,68.2280847 C66.7445339,68.0946102 66.8230932,67.798678 66.6896186,67.5691017 C66.4119915,67.0901186 66.5553814,66.4677458 67.0160593,66.1535085 C67.067161,66.1184237 67.1106356,66.0741864 67.1472458,66.0192712 C67.1617373,65.9971525 67.1693644,65.9765593 67.173178,65.9651186 C67.1876695,65.9353729 67.2059746,65.898 67.2158898,65.8507119 C67.2204661,65.8240169 67.2204661,65.8011356 67.2204661,65.7774915 C67.2219915,65.7507966 67.2242797,65.7149492 67.2174153,65.6722373 L67.196822,65.6066441 L67.0419915,65.6516441 L67.1937712,65.5982542 L67.0419915,65.6501186 L67.1914831,65.5891017 C67.1861441,65.5715593 67.1785169,65.543339 67.1609746,65.5128305 L65.7858051,63.1392712 C65.6530932,62.9096949 65.357161,62.8311356 65.126822,62.9646102 L65.126822,62.9646102 Z" id="Fill-13" fill="#182642"></path>
                <path d="M36.2158475,12.1202542 L36.0884746,12.2194068 L36.2089831,12.1126271 L36.0877119,12.2186441 L36.2028814,12.1065254 L36.1548305,12.0538983 C36.124322,12.0302542 36.095339,12.015 36.055678,11.9951695 L35.9992373,11.9677119 C35.9542373,11.9532203 35.9130508,11.9501695 35.8810169,11.9486441 L35.82,11.9448305 C35.7551695,11.9486441 35.6941525,11.964661 35.6392373,11.9913559 C35.1373729,12.234661 34.5264407,12.0485593 34.2480508,11.5695763 C34.115339,11.3407627 33.8194068,11.2614407 33.5898305,11.3941525 L5.12694915,27.8832203 C4.89661017,28.0166949 4.81805085,28.3126271 4.95076271,28.5422034 C5.24669492,29.0532203 5.0720339,29.710678 4.56101695,30.0066102 C4.32762712,30.1423729 4.24525424,30.4398305 4.3779661,30.6686441 L5.74855932,33.0338136 C5.88127119,33.2641525 6.17720339,33.3427119 6.40677966,33.2092373 C6.63711864,33.0765254 6.71567797,32.7805932 6.58220339,32.5502542 L5.42288136,30.5488983 C5.42440678,30.5473729 5.4259322,30.5458475 5.42745763,30.544322 C5.49152542,30.4825424 5.55177966,30.4177119 5.60669492,30.3498305 C5.63338983,30.3170339 5.65779661,30.285 5.68067797,30.2522034 C5.73025424,30.1820339 5.77372881,30.1088136 5.82635593,30.0119492 C5.84008475,29.9875424 5.85381356,29.9631356 5.86525424,29.9372034 C5.92016949,29.8205085 5.96059322,29.7114407 5.99033898,29.5985593 C6.01855932,29.4933051 6.03762712,29.3804237 6.04830508,29.2530508 C6.05059322,29.2271186 6.05135593,29.2011864 6.05288136,29.1424576 C6.0559322,29.059322 6.05288136,28.9754237 6.04525424,28.8915254 C6.04220339,28.8511017 6.03762712,28.8091525 6.03076271,28.7679661 C6.01932203,28.6894068 6.00101695,28.6100847 5.97279661,28.5078814 L33.7111017,12.4383051 C33.7652542,12.4947458 33.8216949,12.5481356 33.8811864,12.5969492 C33.9109322,12.6213559 33.9422034,12.6442373 33.9727119,12.6663559 C34.0375424,12.7128814 34.1038983,12.7555932 34.1992373,12.8082203 C34.2221186,12.8219492 34.2457627,12.835678 34.2686441,12.8471186 C34.3578814,12.8913559 34.4501695,12.9287288 34.5439831,12.9592373 L34.5828814,12.9729661 C34.6850847,13.0034746 34.7918644,13.0263559 34.914661,13.0423729 L35.0161017,13.05 C35.0954237,13.0568644 35.1747458,13.0591525 35.2540678,13.0561017 C35.2952542,13.0545763 35.3364407,13.0515254 35.375339,13.0477119 C35.4508475,13.0400847 35.5255932,13.0278814 35.6277966,13.005 L36.8069492,15.040678 C36.9404237,15.2710169 37.2355932,15.3495763 37.4659322,15.2168644 C37.6962712,15.0833898 37.7748305,14.7874576 37.6413559,14.5571186 L36.2661864,12.1835593 C36.2486441,12.1538136 36.2288136,12.1339831 36.2158475,12.1202542 L36.2158475,12.1202542 Z" id="Fill-15" fill="#182642"></path>
                <path d="M44.3285847,43.1427203 C47.0659576,47.8669576 45.4543475,53.9160254 40.7301102,56.6533983 C36.0051102,59.3907712 29.9560424,57.7783983 27.2186695,53.054161 C24.4820593,48.3299237 26.0929068,42.2808559 30.8179068,39.5434831 C35.5421441,36.8061102 41.5919746,38.4177203 44.3285847,43.1427203" id="Fill-17" fill="#26BF8C"></path>
                <path d="M71.0741441,69.3504915 L36.6689746,85.0585424 C35.7529576,85.4765085 34.6714322,85.0730339 34.2542288,84.1570169 L6.13151695,22.5573559 C5.71278814,21.6421017 6.11626271,20.5605763 7.03227966,20.1426102 L41.4374492,4.43608475 C42.3527034,4.01735593 43.4342288,4.42083051 43.8521949,5.33608475 L71.9749068,66.9365085 C72.3928729,67.8517627 71.9893983,68.9325254 71.0741441,69.3504915" id="Fill-19" fill="#048C62"></path>
                <path d="M71.3899831,67.2031525 C71.6599831,67.7942542 71.3983729,68.4959492 70.8072712,68.7659492 L36.401339,84.474 C35.8102373,84.744 35.1093051,84.4816271 34.8385424,83.8905254 L6.71583051,22.2908644 C6.44583051,21.699 6.70744068,20.9980678 7.29930508,20.7273051 L41.7044746,5.02077966 C42.2955763,4.75001695 42.9972712,5.01162712 43.2672712,5.60349153 L71.3899831,67.2031525 Z M41.1705763,3.85077966 L6.76540678,19.5580678 C5.52828814,20.1224746 4.98218644,21.5884068 5.54659322,22.8247627 L33.6693051,84.4244237 C34.2337119,85.6607797 35.6988814,86.2076441 36.9352373,85.6432373 L71.3411695,69.9359492 C72.5775254,69.3715424 73.1243898,67.9056102 72.5599831,66.6692542 L44.4372712,5.06959322 C43.8728644,3.83323729 42.4069322,3.28561017 41.1705763,3.85077966 L41.1705763,3.85077966 Z" id="Fill-21" fill="#182642"></path>
                <path d="M34.1101525,33.9193983 C28.1030339,36.6628729 25.4465085,43.7805 28.1892203,49.7883814 C30.9319322,55.7962627 38.050322,58.4512627 44.0574407,55.7085508 C50.0645593,52.9666017 52.7210847,45.8482119 49.9783729,39.8403305 C47.235661,33.8332119 40.1172712,31.1766864 34.1101525,33.9193983 M44.591339,56.8785508 C37.9397288,59.9156695 30.0571017,56.9746525 27.0199831,50.3222797 C23.9828644,43.6699068 26.9238814,35.7872797 33.5762542,32.750161 C40.2278644,29.7130424 48.1104915,32.6540593 51.1476102,39.3064322 C54.1847288,45.9588051 51.2437119,53.8414322 44.591339,56.8785508" id="Fill-23" fill="#182642"></path>
                <path d="M49.9468729,39.8549746 C52.6857712,45.8544661 50.0429746,52.9385339 44.0434831,55.6774322 C38.0439915,58.4163305 30.959161,55.7735339 28.2210254,49.7740424 C25.4813644,43.7745508 28.1249237,36.6904831 34.1244153,33.9515847 C40.1239068,31.2119237 47.2079746,33.8554831 49.9468729,39.8549746" id="Fill-25" fill="#13AD81"></path>
                <path d="M33.5627542,22.9174322 C34.4970763,24.9630254 33.5955508,27.3785339 31.5499576,28.3120932 C29.5043644,29.2464153 27.0888559,28.3448898 26.1552966,26.2992966 C25.2209746,24.2537034 26.1225,21.8381949 28.1680932,20.9038729 C30.2136864,19.9710763 32.6284322,20.8710763 33.5627542,22.9174322" id="Fill-27" fill="#13AD81"></path>
                <path d="M51.6738051,62.5873729 C52.6081271,64.6337288 51.7066017,67.0492373 49.6610085,67.9820339 C47.6154153,68.9163559 45.1999068,68.0148305 44.2663475,65.97 C43.3320254,63.9244068 44.2335508,61.5088983 46.2791441,60.5745763 C48.3247373,59.6410169 50.7402458,60.5417797 51.6738051,62.5873729" id="Fill-29" fill="#13AD81"></path>
                <path d="M35.6808051,79.7553305 L35.6823305,79.7545678 L35.6823305,79.7591441 L35.6808051,79.7553305 Z M66.8101271,62.3319407 C66.5683475,62.4425339 66.4615678,62.7293136 66.572161,62.9710932 L67.5491949,65.1112627 C67.5461441,65.1135508 67.5430932,65.1173644 67.5385169,65.1204153 C67.4782627,65.1753305 67.421822,65.2325339 67.3699576,65.2920254 C67.3432627,65.3225339 67.3165678,65.3538051 67.292161,65.3866017 C67.2433475,65.4499068 67.1998729,65.5162627 67.1434322,65.6085508 C67.1297034,65.6306695 67.1159746,65.6520254 67.1052966,65.6741441 C67.0480932,65.780161 67.0038559,65.880839 66.9702966,65.9815169 L66.9596186,66.0219407 C66.9298729,66.1165169 66.9077542,66.2126186 66.8917373,66.3125339 C66.887161,66.3377034 66.8848729,66.3621102 66.8795339,66.4185508 C66.8703814,66.4978729 66.8665678,66.5771949 66.8680932,66.6580424 C66.8680932,66.6954153 66.8680932,66.7327881 66.8711441,66.7716864 C66.8764831,66.8441441 66.8856356,66.9166017 66.9008898,67.0027881 L37.7393644,80.3159237 C37.7393644,80.315161 37.7393644,80.315161 37.7386017,80.315161 C37.6829237,80.2442288 37.6249576,80.1778729 37.5616525,80.1160932 C37.5319068,80.0886356 37.502161,80.061178 37.4701271,80.0344831 C37.4060593,79.9803305 37.3389407,79.9284661 37.2413136,79.8643983 C37.2191949,79.8499068 37.1986017,79.8346525 37.1764831,79.8224492 C37.0658898,79.7583814 36.9629237,79.7072797 36.8553814,79.6676186 C36.7516525,79.6294831 36.6395339,79.5989746 36.5129237,79.5753305 C36.4877542,79.5715169 36.4641102,79.5692288 36.4030932,79.560839 C36.3191949,79.5509237 36.2352966,79.5440593 36.152161,79.5440593 C36.1094492,79.5432966 36.0682627,79.5440593 36.0255508,79.5471102 C35.943178,79.5524492 35.8608051,79.5631271 35.7570763,79.5814322 L34.796822,77.4771102 C34.6869915,77.2360932 34.4002119,77.1285508 34.1584322,77.2391441 C33.9158898,77.3497373 33.8091102,77.6365169 33.9197034,77.8782966 L35.0546186,80.3647373 C35.1652119,80.6057542 35.4550424,80.7110085 35.7006356,80.5988898 C36.2383475,80.3532966 36.8752119,80.5912627 37.1208051,81.1289746 C37.2306356,81.3699915 37.5174153,81.4775339 37.7591949,81.3669407 L67.6826695,67.7060085 C67.9244492,67.5954153 68.0312288,67.3078729 67.9206356,67.0668559 C67.6910593,66.5634661 67.8939407,65.9578729 68.3820763,65.6886356 C68.4362288,65.6596525 68.4842797,65.6192288 68.5254661,65.5681271 C68.5430085,65.5475339 68.552161,65.5277034 68.5567373,65.5170254 C68.5742797,65.4895678 68.5956356,65.4537203 68.6108898,65.4064322 C68.6177542,65.3805 68.6200424,65.3591441 68.6223305,65.3347373 C68.6269068,65.3080424 68.6322458,65.2721949 68.6299576,65.2302458 L68.6154661,65.1623644 L68.456822,65.1921102 L68.613178,65.1539746 L68.456822,65.1905847 L68.6116525,65.1440593 C68.607839,65.1257542 68.6032627,65.0975339 68.5887712,65.0662627 L67.4492797,62.5699068 C67.3394492,62.3288898 67.0526695,62.2213475 66.8101271,62.3319407 L66.8101271,62.3319407 Z" id="Fill-31" fill="#182642"></path>
                <path d="M42.9478475,8.93265254 L42.811322,9.01883898 L42.9417458,8.92502542 L42.811322,9.01807627 L42.9371695,8.91739831 L42.8936949,8.86095763 C42.8662373,8.83426271 42.8380169,8.81595763 42.8006441,8.79231356 L42.7472542,8.75951695 C42.7045424,8.74197458 42.6633559,8.73434746 42.631322,8.72900847 L42.5710678,8.71909322 C42.5062373,8.71680508 42.4444576,8.72672034 42.3864915,8.74807627 C41.8632712,8.94104237 41.2729322,8.6985 41.0433559,8.19434746 C40.9327627,7.95333051 40.6467458,7.84578814 40.4042034,7.95561864 L10.4807288,21.6180763 C10.2389492,21.7279068 10.1321695,22.0146864 10.2427627,22.2557034 C10.4883559,22.794178 10.2503898,23.4302797 9.71267797,23.6766356 C9.46708475,23.7879915 9.35725424,24.0762966 9.46708475,24.3180763 L10.602,26.8037542 C10.7125932,27.0455339 10.9993729,27.1523136 11.2411525,27.0424831 C11.4829322,26.9318898 11.5897119,26.6451102 11.4791186,26.4033305 L10.5188644,24.2990085 C10.5203898,24.2974831 10.5219153,24.2967203 10.5234407,24.2951949 C10.5936102,24.2402797 10.6599661,24.1815508 10.7202203,24.1190085 C10.7499661,24.0892627 10.7774237,24.0587542 10.8041186,24.0282458 C10.8597966,23.9634153 10.9101356,23.8955339 10.9719153,23.8032458 C10.9879322,23.7796017 11.0039492,23.7567203 11.017678,23.733839 C11.0832712,23.6217203 11.1343729,23.5172288 11.1747966,23.408161 C11.2136949,23.3059576 11.242678,23.1953644 11.266322,23.0695169 C11.2708983,23.0443475 11.2739492,23.0176525 11.2808136,22.9604492 C11.2922542,22.8773136 11.2975932,22.7934153 11.2983559,22.7095169 C11.2991186,22.6683305 11.2983559,22.6271441 11.2960678,22.5851949 C11.2914915,22.5058729 11.2808136,22.4257881 11.2625085,22.3205339 L40.4240339,9.00739831 C40.4728475,9.06841525 40.5231864,9.12714407 40.5788644,9.18129661 C40.6055593,9.20875424 40.6345424,9.23392373 40.6627627,9.25909322 C40.7222542,9.31248305 40.7847966,9.3605339 40.8740339,9.42231356 C40.8961525,9.43833051 40.9182712,9.45358475 40.9396271,9.46807627 C41.0242881,9.51994068 41.112,9.5664661 41.2027627,9.60612712 L41.2401356,9.62366949 C41.3385254,9.66409322 41.4437797,9.69688983 41.5642881,9.72511017 L41.6642034,9.74188983 C41.7427627,9.75638136 41.821322,9.7655339 41.9006441,9.77087288 C41.9418305,9.77316102 41.9830169,9.77392373 42.0219153,9.77392373 C42.0974237,9.77392373 42.1729322,9.76858475 42.2774237,9.75714407 L43.2544576,11.8965508 C43.3650508,12.1383305 43.6518305,12.2451102 43.8936102,12.1352797 C44.1353898,12.0246864 44.2421695,11.7379068 44.1315763,11.4961271 L42.9920847,9.0005339 C42.9783559,8.96926271 42.9600508,8.94714407 42.9478475,8.93265254 L42.9478475,8.93265254 Z" id="Fill-33" fill="#182642"></path>
                <path d="M48.0252203,40.5931271 C50.2927627,45.5606695 48.1045424,51.425161 43.137,53.6934661 C38.1702203,55.9602458 32.3057288,53.7720254 30.0374237,48.8060085 C27.7698814,43.8384661 29.9581017,37.9732119 34.9256441,35.7056695 C39.8924237,33.4381271 45.757678,35.6263475 48.0252203,40.5931271" id="Fill-35" fill="#26BF8C"></path>
                <path d="M70.8998644,68.9930085 L34.7160508,80.0019915 C33.7527458,80.2941102 32.7345254,79.7510593 32.4416441,78.7885169 L12.7324068,14.0045339 C12.4402881,13.0419915 12.9825763,12.0237712 13.9458814,11.7308898 L50.1296949,0.72190678 C51.093,0.429025424 52.1104576,0.972076271 52.4041017,1.93538136 L72.1125763,66.7193644 C72.4062203,67.6819068 71.8624068,68.7001271 70.8998644,68.9930085" id="Fill-37" fill="#009B74"></path>
                <path d="M71.4979831,66.9059237 C71.6871356,67.5282966 71.3347627,68.1888051 70.7123898,68.3787203 L34.5285763,79.386178 C33.9062034,79.5753305 33.2464576,79.2229576 33.0573051,78.6013475 L13.3480678,13.8181271 C13.1589153,13.1949915 13.5105254,12.5352458 14.1328983,12.3453305 L50.3167119,1.33711017 C50.9390847,1.14795763 51.5995932,1.50033051 51.7887458,2.12270339 L71.4979831,66.9059237 Z M49.9422203,0.107618644 L13.7584068,11.115839 C12.4579831,11.5109237 11.7219661,12.8914322 12.1178136,14.1918559 L31.8270508,78.9750763 C32.2221356,80.2755 33.6026441,81.0122797 34.9030678,80.6171949 L71.0868814,69.6082119 C72.3880678,69.2123644 73.123322,67.8326186 72.7282373,66.5321949 L53.019,1.74821186 C52.6231525,0.447788136 51.2434068,-0.288991525 49.9422203,0.107618644 L49.9422203,0.107618644 Z" id="Fill-39" fill="#182642"></path>
                <path d="M38.9587119,28.9751949 C32.6411695,30.8972288 29.0648136,37.6007034 30.9868475,43.9190085 C32.9088814,50.2365508 39.6123559,53.8121441 45.930661,51.8908729 C52.2482034,49.9680763 55.8245593,43.2646017 53.9025254,36.9470593 C51.9797288,30.6287542 45.2762542,27.0523983 38.9587119,28.9751949 M46.3043898,53.1203644 C39.3080339,55.2490932 31.885322,51.2890932 29.7565932,44.2927373 C27.6286271,37.2963814 31.5878644,29.8736695 38.5842203,27.7449407 C45.5805763,25.6169746 53.0040508,29.5762119 55.1327797,36.5725678 C57.2607458,43.5689237 53.3007458,50.9916356 46.3043898,53.1203644" id="Fill-41" fill="#182642"></path>
                <path d="M53.8691949,36.956822 C55.7889407,43.2667373 52.2301271,49.938178 45.9202119,51.857161 C39.6102966,53.7776695 32.9396186,50.2188559 31.0198729,43.908178 C29.1001271,37.5990254 32.6589407,30.9275847 38.9688559,29.007839 C45.2780085,27.0888559 51.9494492,30.6476695 53.8691949,36.956822" id="Fill-43" fill="#13AD81"></path>
                <path d="M39.8745,17.9970254 C40.5289068,20.1478729 39.3161949,22.4230424 37.1645847,23.0774492 C35.0129746,23.7326186 32.7385678,22.5183814 32.084161,20.3667712 C31.4297542,18.2159237 32.6432288,15.9415169 34.7940763,15.2863475 C36.9456864,14.6327034 39.2200932,15.846178 39.8745,17.9970254" id="Fill-45" fill="#13AD81"></path>
                <path d="M52.5676271,59.7182797 C53.2220339,61.8691271 52.0085593,64.1442966 49.8569492,64.7987034 C47.705339,65.4531102 45.4316949,64.2396356 44.7765254,62.0880254 C44.1221186,59.937178 45.3355932,57.6627712 47.4872034,57.0076017 C49.6388136,56.3531949 51.9132203,57.5674322 52.5676271,59.7182797" id="Fill-47" fill="#13AD81"></path>
                <path d="M34.4397966,74.6138898 L34.441322,74.6138898 L34.4405593,74.6177034 L34.4397966,74.6138898 Z M67.6040339,61.4716017 C67.3500508,61.5493983 67.2058983,61.8186356 67.2836949,62.0726186 L67.9678475,64.3233814 C67.9647966,64.3256695 67.9609831,64.3287203 67.9564068,64.3317712 C67.8892881,64.3782966 67.8252203,64.4263475 67.7664915,64.4782119 C67.7359831,64.5064322 67.7054746,64.5338898 67.6772542,64.5628729 C67.6200508,64.6185508 67.5681864,64.6780424 67.4995424,64.7619407 C67.4835254,64.7825339 67.4675085,64.8023644 67.4537797,64.8229576 C67.3828475,64.9213475 67.3256441,65.015161 67.2791186,65.1097373 L67.2631017,65.1478729 C67.2211525,65.2386356 67.1860678,65.3309237 67.1570847,65.4270254 C67.1494576,65.4514322 67.1441186,65.475839 67.1303898,65.5307542 C67.111322,65.6085508 67.0968305,65.6863475 67.087678,65.7664322 C67.0831017,65.8038051 67.0777627,65.841178 67.0762373,65.8793136 C67.071661,65.9517712 67.0708983,66.0249915 67.0754746,66.1127034 L36.4060678,75.4429576 C36.4060678,75.4421949 36.4060678,75.4421949 36.4053051,75.4414322 C36.3595424,75.3643983 36.3107288,75.2904153 36.2558136,75.2210085 C36.2306441,75.1897373 36.2039492,75.1592288 36.1764915,75.1279576 C36.1200508,75.0654153 36.0605593,75.0059237 35.9720847,74.9296525 C35.9522542,74.9113475 35.9331864,74.8945678 35.9133559,74.8785508 C35.812678,74.8007542 35.717339,74.7374492 35.6158983,74.6832966 C35.5182712,74.6306695 35.4107288,74.5856695 35.2879322,74.5467712 C35.2642881,74.5391441 35.2406441,74.5330424 35.1811525,74.5177881 C35.0995424,74.4964322 35.0171695,74.4788898 34.9347966,74.4674492 C34.8928475,74.4613475 34.851661,74.4560085 34.8089492,74.4537203 C34.7265763,74.4476186 34.6434407,74.4476186 34.5389492,74.4529576 L33.8654746,72.2395678 C33.7884407,71.9855847 33.5184407,71.8414322 33.2636949,71.9184661 C33.0097119,71.9962627 32.8655593,72.2662627 32.9433559,72.5202458 L33.7388644,75.134822 C33.8158983,75.3888051 34.0897119,75.5321949 34.3475085,75.4528729 C34.912678,75.2812627 35.5129322,75.600839 35.6845424,76.1667712 C35.7615763,76.4207542 36.0315763,76.5649068 36.286322,76.4878729 L67.7565763,66.9135508 C68.0105593,66.8357542 68.1547119,66.5657542 68.077678,66.3117712 C67.9159831,65.7816864 68.1974237,65.2081271 68.7175932,65.0075339 C68.7747966,64.9846525 68.8274237,64.9518559 68.8754746,64.9068559 C68.8953051,64.8885508 68.9067458,64.8694831 68.9136102,64.8595678 C68.9342034,64.8343983 68.9601356,64.8016017 68.9814915,64.7581271 C68.9921695,64.7321949 68.9967458,64.710839 69.0020847,64.6879576 C69.0097119,64.6627881 69.0203898,64.6277034 69.0234407,64.5842288 L69.0181017,64.5155847 L68.8571695,64.5239746 L69.0165763,64.5079576 L68.8571695,64.5232119 L69.0165763,64.4972797 C69.0158136,64.4782119 69.0150508,64.4499915 69.0043729,64.4171949 L68.2058136,61.7927034 C68.1287797,61.5379576 67.8587797,61.3938051 67.6040339,61.4716017 L67.6040339,61.4716017 Z" id="Fill-49" fill="#182642"></path>
                <path d="M51.0310678,5.37940678 L50.8838644,5.44728814 L51.0264915,5.37101695 L50.8838644,5.44576271 L51.0219153,5.36338983 L50.9868305,5.30237288 C50.9631864,5.27110169 50.9372542,5.24974576 50.9036949,5.22152542 L50.8548814,5.18186441 C50.8144576,5.15822034 50.7747966,5.14525424 50.7435254,5.13610169 L50.6855593,5.11855932 C50.6214915,5.10788136 50.5589492,5.10940678 50.4994576,5.12237288 C49.9548814,5.24440678 49.4019153,4.92559322 49.2409831,4.39550847 C49.1639492,4.14152542 48.8939492,3.99813559 48.6392034,4.07516949 L17.1689492,13.6494915 C16.9142034,13.7257627 16.7708136,13.9965254 16.8478475,14.2505085 C17.0202203,14.815678 16.7006441,15.4159322 16.1347119,15.5875424 C15.8769153,15.6661017 15.7289492,15.9368644 15.8059831,16.1916102 L16.6014915,18.8061864 C16.6785254,19.0601695 16.9485254,19.204322 17.2032712,19.1272881 C17.4572542,19.0494915 17.6014068,18.7787288 17.5243729,18.5247458 L16.8508983,16.3113559 C16.8524237,16.3105932 16.8547119,16.3098305 16.8562373,16.3083051 C16.9325085,16.2633051 17.0064915,16.2137288 17.0743729,16.160339 C17.1079322,16.1344068 17.1399661,16.1077119 17.1689492,16.0810169 C17.2330169,16.0238136 17.2925085,15.9635593 17.3657288,15.8811864 C17.3847966,15.8598305 17.4038644,15.8392373 17.4198814,15.8178814 C17.4999661,15.715678 17.5647966,15.6188136 17.6189492,15.5158475 C17.6708136,15.4197458 17.7150508,15.3144915 17.7547119,15.1916949 C17.7631017,15.1672881 17.7692034,15.1428814 17.7836949,15.0864407 C17.8058136,15.0048305 17.8225932,14.9232203 17.8340339,14.839322 C17.8401356,14.799661 17.8454746,14.7577119 17.8485254,14.7157627 C17.8546271,14.6372034 17.8546271,14.5555932 17.8508136,14.4495763 L48.5194576,5.11932203 C48.5591186,5.18644068 48.6018305,5.25050847 48.6491186,5.31228814 C48.6727627,5.34279661 48.6979322,5.37101695 48.7231017,5.40076271 C48.7749661,5.46101695 48.8306441,5.51745763 48.9107288,5.59067797 C48.9297966,5.60974576 48.9496271,5.62728814 48.9694576,5.6440678 C49.0464915,5.70737288 49.127339,5.76457627 49.212,5.81491525 L49.2470847,5.83855932 C49.3393729,5.89118644 49.4385254,5.93771186 49.5544576,5.98194915 L49.651322,6.01169492 C49.7268305,6.03610169 49.8038644,6.05669492 49.8824237,6.07118644 C49.9220847,6.07957627 49.9625085,6.08567797 50.0014068,6.09101695 C50.0761525,6.1009322 50.1524237,6.10550847 50.2569153,6.10779661 L50.9418305,8.35855932 C51.0188644,8.61254237 51.2888644,8.75669492 51.5436102,8.67889831 C51.7975932,8.60262712 51.9417458,8.33186441 51.8647119,8.07788136 L51.0661525,5.45338983 C51.0562373,5.41983051 51.0409831,5.39618644 51.0310678,5.37940678 L51.0310678,5.37940678 Z" id="Fill-51" fill="#182642"></path>
                <path d="M51.8663136,37.4342797 C53.4550424,42.6588559 50.5094492,48.1816525 45.2856356,49.7703814 C40.0610593,51.3598729 34.5382627,48.4135169 32.9487712,43.1897034 C31.3592797,37.9651271 34.3063983,32.4423305 39.5302119,30.852839 C44.7540254,29.2641102 50.276822,32.2104661 51.8663136,37.4342797" id="Fill-53" fill="#26BF8C"></path>
                <path d="M98.0748305,64.9805339 C98.0748305,77.9801949 87.5364407,88.517822 74.5375424,88.517822 C61.5378814,88.517822 50.9994915,77.9801949 50.9994915,64.9805339 C50.9994915,51.9816356 61.5378814,41.4432458 74.5375424,41.4432458 C87.5364407,41.4432458 98.0748305,51.9816356 98.0748305,64.9805339" id="Fill-55" fill="#FFFFFF"></path>
                <path d="M98.0748305,64.9805339 C98.0748305,77.9801949 87.5364407,88.517822 74.5375424,88.517822 C61.5378814,88.517822 50.9994915,77.9801949 50.9994915,64.9805339 C50.9994915,51.9816356 61.5378814,41.4432458 74.5375424,41.4432458 C87.5364407,41.4432458 98.0748305,51.9816356 98.0748305,64.9805339 Z" id="Stroke-57" stroke="#182642" stroke-width="2" stroke-linecap="round" stroke-linejoin="round" stroke-dasharray="0.994,3.976"></path>
                <polyline id="Stroke-59" stroke="#182642" stroke-width="5" stroke-linecap="round" stroke-linejoin="round" points="62.5211695 65.4706525 70.2054915 73.1542119 86.5534576 56.8070085"></polyline>
            </g>
        </g>
    </g>
</svg>