<?xml version="1.0" encoding="UTF-8"?>
<svg width="111px" height="112px" viewBox="0 0 111 112" version="1.1" xmlns="http://www.w3.org/2000/svg" xmlns:xlink="http://www.w3.org/1999/xlink">
    <!-- Generator: Sketch 44 (41411) - http://www.bohemiancoding.com/sketch -->
    <title>Page 1</title>
    <desc>Created with Sketch.</desc>
    <defs>
        <polygon id="path-1" points="1.35525272e-20 0.1642 1.35525272e-20 100.9997 106.0839 100.9997 106.0839 0.1642 0 0.1642"></polygon>
    </defs>
    <g id="Page-1" stroke="none" stroke-width="1" fill="none" fill-rule="evenodd">
        <g id="Desktop-HD" transform="translate(-664.000000, -477.000000)">
            <g id="Page-1" transform="translate(664.000000, 476.000000)">
                <polygon id="Fill-1" fill="#393C5B" points="16.269 70.2324 16.497 70.2324 17.445 67.7744 17.215 67.7744"></polygon>
                <g id="Group-225" transform="translate(0.000000, 0.059000)">
                    <path d="M25.2568,81.9864 C25.5618,81.4574 25.5468,81.0234 25.1158,80.7764 C24.8078,80.5994 24.4368,80.7084 24.2728,80.9954 C24.0948,81.3034 24.1938,81.6684 24.4358,81.8074 C24.4908,81.8394 24.5528,81.8604 24.6148,81.8524 L24.6318,81.8764 C24.3418,82.2524 24.0028,82.3064 23.5818,82.1964 L23.4848,82.5954 C24.1668,82.9144 24.9348,82.5484 25.2568,81.9864" id="Fill-2" fill="#393C5B"></path>
                    <path d="M26.6074,78.3335 C26.9494,78.5295 27.3944,78.4185 27.5974,78.0665 C27.7944,77.7245 27.6654,77.2845 27.3234,77.0875 C26.9814,76.8915 26.5374,77.0025 26.3404,77.3445 C26.1374,77.6965 26.2654,78.1375 26.6074,78.3335" id="Fill-4" fill="#393C5B"></path>
                    <polygon id="Fill-6" fill="#393C5B" points="25.1767 93.0874 29.9587 95.2864 30.5787 93.9384 25.7967 91.7394"></polygon>
                    <polygon id="Fill-8" fill="#393C5B" points="23.8877 95.8921 28.6697 98.0911 29.2887 96.7431 24.5067 94.5441"></polygon>
                    <path d="M39.9873,106.335 L39.8383,106.256 L39.2063,107.45 L39.3703,107.537 C40.0413,107.893 40.2993,108.45 39.8893,109.226 C39.7213,109.543 39.4613,109.83 39.1623,110.112 C39.6753,110.282 40.1933,110.444 40.7143,110.6 C40.9263,110.357 41.1253,110.105 41.2723,109.825 C42.0873,108.288 41.3893,107.078 39.9873,106.335" id="Fill-10" fill="#393C5B"></path>
                    <path d="M38.8887,79.6045 L38.9687,79.5615 L38.6277,78.9175 C38.6277,78.9175 38.6007,78.9425 38.5357,78.9775 C38.1657,79.1735 37.8327,79.0705 37.6327,78.6925 C37.3227,78.1055 37.4877,77.1725 37.1087,76.4565 C36.8737,76.0145 36.4987,75.8525 36.0987,75.9715 L36.0907,75.9555 C36.4017,75.6665 36.4817,75.2735 36.2517,74.8395 C35.8717,74.1235 35.0037,73.7285 34.6967,73.1485 C34.4747,72.7305 34.6147,72.4295 34.9767,72.2385 L35.0657,72.1915 L34.7247,71.5475 L34.6437,71.5895 C33.8877,71.9905 33.5117,72.6435 33.9507,73.4715 C34.3557,74.2365 35.3247,74.7225 35.5967,75.2375 C35.7807,75.5835 35.5937,75.7955 35.2877,75.9575 L35.6417,76.6255 C35.9477,76.4635 36.2277,76.4285 36.4107,76.7745 C36.6837,77.2895 36.5417,78.3645 36.9477,79.1285 C37.3857,79.9575 38.1167,80.0135 38.8887,79.6045" id="Fill-12" fill="#393C5B"></path>
                    <path d="M10.6167,88.6006 C10.7517,87.9616 10.7287,87.2786 10.9297,86.8996 C11.1137,86.5536 11.3937,86.5886 11.6997,86.7506 L12.0527,86.0826 C11.7467,85.9206 11.5607,85.7086 11.7437,85.3626 C12.0167,84.8476 12.9857,84.3616 13.3897,83.5966 C13.8287,82.7676 13.4537,82.1156 12.6977,81.7146 L12.6167,81.6726 L12.2757,82.3156 L12.3647,82.3626 C12.7267,82.5546 12.8657,82.8556 12.6447,83.2736 C12.3377,83.8526 11.4687,84.2486 11.0897,84.9646 C10.8597,85.3986 10.9397,85.7916 11.2507,86.0796 L11.2417,86.0966 C10.8417,85.9766 10.4677,86.1396 10.2327,86.5816 C10.0547,86.9176 9.9977,87.3026 9.9537,87.6756 C8.2007,85.1786 6.6267,82.5466 5.2447,79.8016 C10.8157,91.8566 20.4607,101.6426 32.4157,107.3896 C23.7807,102.8756 16.3187,96.4216 10.6167,88.6006" id="Fill-14" fill="#D85959"></path>
                    <polygon id="Fill-16" fill="#393C5B" points="16.0513 67.7159 15.1063 70.1739 15.3333 70.1739 16.2813 67.7159"></polygon>
                    <path d="M4.9067,72.6597 C4.8667,72.7067 4.8177,72.7667 4.7577,72.8387 L5.5027,74.7137 L5.4777,74.7447 L3.4977,74.3547 L3.1997,74.7127 L5.7077,75.1407 L5.9347,74.8677 L5.0557,72.4807 C4.9957,72.5527 4.9467,72.6117 4.9067,72.6597" id="Fill-18" fill="#393C5B"></path>
                    <path d="M2.9248,71.7559 C3.1218,71.7949 3.3528,71.8399 3.6198,71.8929 L3.9178,71.5349 L2.0908,71.2229 C2.1278,71.3529 2.1618,71.4829 2.1988,71.6129 C2.2448,71.6219 2.2938,71.6309 2.3348,71.6389 C2.5318,71.6779 2.7278,71.7169 2.9248,71.7559" id="Fill-20" fill="#393C5B"></path>
                    <path d="M42.6494,64.23 C42.6254,64.259 42.5934,64.297 42.5564,64.342 L43.0224,65.516 L43.0064,65.535 L41.7674,65.291 L41.5824,65.515 L43.1504,65.783 L43.2934,65.612 L42.7434,64.118 C42.7054,64.163 42.6744,64.2 42.6494,64.23" id="Fill-22" fill="#393C5B"></path>
                    <polygon id="Fill-24" fill="#393C5B" points="44.7148 72.8741 47.7248 74.2581 48.1138 73.4091 45.1058 72.0261"></polygon>
                    <polygon id="Fill-26" fill="#393C5B" points="43.9043 74.6387 46.9133 76.0227 47.3023 75.1747 44.2943 73.7907"></polygon>
                    <g id="Group-30" transform="translate(0.000000, 12.000000)">
                        <mask id="mask-2" fill="white">
                            <use xlink:href="#path-1"></use>
                        </mask>
                        <g id="Clip-29"></g>
                        <path d="M100.8369,75.5767 C99.2999,77.1147 96.7829,77.1147 95.2449,75.5767 C93.7079,74.0387 93.7079,71.5227 95.2449,69.9847 L84.1869,81.0347 C84.1849,81.0367 84.1819,81.0387 84.1799,81.0407 L99.8209,65.3987 C101.3589,63.8607 101.3589,61.3447 99.8209,59.8067 C98.2829,58.2687 95.7679,58.2687 94.2299,59.8067 L88.3919,65.6447 C86.8529,67.1637 84.3519,67.1597 82.8199,65.6287 C81.2819,64.0907 81.2819,61.5747 82.8199,60.0357 L82.8159,60.0327 L95.0289,47.8197 C96.5659,46.2817 96.5659,43.7647 95.0289,42.2277 C93.4909,40.6897 90.9749,40.6897 89.4379,42.2277 L81.5429,50.1217 C81.5329,50.0977 81.5219,50.0737 81.5119,50.0487 L78.4619,53.0987 C76.9249,54.6367 74.4079,54.6367 72.8699,53.0987 C71.3329,51.5607 71.3329,49.0447 72.8699,47.5067 L91.0849,29.2917 C92.1659,27.7517 92.0279,25.6017 90.6539,24.2277 C89.1159,22.6897 86.6009,22.6897 85.0629,24.2277 L66.0579,43.2327 C66.0889,43.1997 66.1099,43.1597 66.1429,43.1277 C64.6039,44.6427 62.1059,44.6377 60.5759,43.1077 C59.0379,41.5697 59.0379,39.0537 60.5759,37.5157 L60.6869,37.4057 C59.1489,38.9397 56.6339,38.9397 55.0979,37.4027 C53.5599,35.8647 53.5599,33.3487 55.0979,31.8107 L49.9529,36.9347 C48.4149,38.4727 45.8989,38.4727 44.3609,36.9347 C42.9439,35.5177 42.8499,33.2787 44.0449,31.7307 L68.8659,6.9097 C70.4039,5.3717 70.4039,2.8547 68.8659,1.3177 C67.3289,-0.2203 64.8129,-0.2203 63.2739,1.3177 L61.8009,2.7907 C61.8969,2.6697 61.9829,2.5427 62.0949,2.4307 L59.8069,4.6747 C59.7689,4.7157 59.7419,4.7627 59.7019,4.8027 L47.9859,16.5177 C46.4479,18.0557 43.9329,18.0557 42.3949,16.5177 C40.8569,14.9807 40.8569,12.4637 42.3949,10.9267 L44.1739,9.1337 C44.1409,9.1667 44.1009,9.1887 44.0659,9.2217 C45.5049,7.6757 45.4829,5.2417 43.9789,3.7367 C42.4409,2.1997 39.9249,2.1997 38.3869,3.7367 L25.0979,17.0257 C23.5619,18.0707 21.4389,17.9177 20.0789,16.5577 C18.6479,15.1267 18.5659,12.8577 19.7999,11.3087 L23.5799,7.5287 C25.1179,5.9907 25.1179,3.4747 23.5799,1.9367 C22.4179,0.7747 20.6969,0.4937 19.2619,1.0887 C7.4489,11.5557 -0.0001,26.8387 -0.0001,43.8637 C-0.0001,45.9777 0.1189,48.0637 0.3419,50.1177 C1.7289,50.3567 3.0399,50.8167 4.2219,51.4857 C4.3989,51.1627 4.6209,50.8577 4.8939,50.5847 C6.4399,49.0397 8.9449,49.0397 10.4899,50.5847 C10.5769,50.6717 10.6569,50.7627 10.7339,50.8547 C12.5639,50.1807 15.4839,50.3657 18.4829,51.5047 C20.2739,52.1857 21.8179,53.1027 22.9679,54.0967 C23.9219,53.5067 25.0589,53.3347 26.1209,53.5787 C27.7659,51.9587 30.4119,51.9647 32.0479,53.6007 C32.1869,53.7397 32.3099,53.8887 32.4259,54.0417 L54.3199,37.2547 L63.6929,46.6687 L49.5599,65.6067 C51.1579,67.7137 51.3239,70.5587 50.0589,72.8207 C51.6039,74.4697 51.5749,77.0577 49.9649,78.6677 C49.5779,79.0547 49.1339,79.3467 48.6599,79.5517 C49.2269,82.1267 49.0529,84.4217 48.2059,85.7177 C49.1719,86.7867 49.4509,88.2527 49.0429,89.5537 C49.7419,89.7387 50.4039,90.1007 50.9529,90.6497 C52.6059,92.3017 52.6079,94.9787 50.9619,96.6347 C51.3649,97.3487 51.5989,98.1727 51.5989,99.0517 C51.5989,99.6347 51.4859,100.1877 51.2989,100.7057 C53.2189,100.8997 55.1659,100.9997 57.1369,100.9997 C75.8459,100.9997 92.4539,92.0067 102.8769,78.1077 C104.1209,75.6097 105.2009,73.0147 106.0839,70.3297 L100.8369,75.5767 Z" id="Fill-28" fill="#393C5B" mask="url(#mask-2)"></path>
                    </g>
                    <polygon id="Fill-31" fill="#393C5B" points="38.9629 97.6011 39.1909 97.6011 40.1389 95.1431 39.9079 95.1431"></polygon>
                    <path d="M38.3447,89.4092 L36.9797,88.9602 L36.9747,88.9312 C37.1247,88.8102 37.2557,88.7042 37.3667,88.6152 C37.4777,88.5252 37.5887,88.4352 37.6997,88.3462 C37.8107,88.2562 37.9417,88.1502 38.0917,88.0282 L38.0327,87.7022 L36.6537,88.8762 L36.6987,89.1252 L38.4047,89.7352 L38.3447,89.4092 Z" id="Fill-33" fill="#393C5B"></path>
                    <polygon id="Fill-35" fill="#393C5B" points="38.7451 95.1431 37.8001 97.6011 38.0261 97.6011 38.9751 95.1431"></polygon>
                    <path d="M39.0683,87.5132 C39.0803,87.5782 39.0903,87.6332 39.0983,87.6762 C39.1063,87.7192 39.1163,87.7732 39.1283,87.8392 L40.4923,88.2882 L40.4973,88.3162 L39.3803,89.2202 L39.4403,89.5462 L40.8193,88.3722 L40.7733,88.1232 L39.0683,87.5132 Z" id="Fill-37" fill="#393C5B"></path>
                    <path d="M41.04,63.5914 L41.409,63.6644 C41.532,63.6884 41.678,63.7164 41.845,63.7504 L42.03,63.5264 L40.461,63.2584 L40.319,63.4284 L40.869,64.9234 L41.056,64.6984 L40.59,63.5254 L40.605,63.5064 C40.772,63.5384 40.917,63.5674 41.04,63.5914" id="Fill-39" fill="#393C5B"></path>
                    <path d="M38.918,110.3345 C39.002,110.2605 39.083,110.1865 39.162,110.1115 C36.845,109.3445 34.592,108.4355 32.416,107.3895 C34.518,108.4875 36.686,109.4745 38.918,110.3345" id="Fill-41" fill="#D85959"></path>
                    <path d="M47.7246,74.2579 L44.7146,72.8739 L45.1056,72.0259 L48.1146,73.4089 L47.7246,74.2579 Z M46.9126,76.0229 L43.9046,74.6389 L44.2936,73.7909 L47.3026,75.1749 L46.9126,76.0229 Z M43.1506,65.7829 L41.5816,65.5149 L41.7676,65.2909 L43.0066,65.5349 L43.0226,65.5159 L42.5566,64.3419 C42.5936,64.2969 42.6246,64.2589 42.6496,64.2299 C42.6746,64.1999 42.7046,64.1629 42.7436,64.1179 L43.2926,65.6119 L43.1506,65.7829 Z M41.0556,64.6989 L40.8696,64.9229 L40.3196,63.4289 L40.4606,63.2579 L42.0306,63.5259 L41.8446,63.7499 C41.6776,63.7169 41.5326,63.6889 41.4096,63.6649 L41.0396,63.5909 C40.9166,63.5679 40.7726,63.5389 40.6056,63.5059 L40.5896,63.5259 L41.0556,64.6989 Z M39.4406,89.5459 L39.3806,89.2199 L40.4966,88.3169 L40.4926,88.2889 L39.1276,87.8389 C39.1166,87.7739 39.1066,87.7189 39.0986,87.6759 C39.0906,87.6329 39.0796,87.5789 39.0686,87.5129 L40.7736,88.1229 L40.8196,88.3719 L39.4406,89.5459 Z M39.1906,97.6009 L38.9626,97.6009 L39.9086,95.1429 L40.1386,95.1429 L39.1906,97.6009 Z M37.7996,97.6009 L38.7456,95.1429 L38.9756,95.1429 L38.0266,97.6009 L37.7996,97.6009 Z M36.6536,88.8769 L38.0326,87.7029 L38.0916,88.0289 C37.9416,88.1499 37.8106,88.2559 37.7006,88.3459 C37.5886,88.4349 37.4776,88.5249 37.3676,88.6149 C37.2556,88.7039 37.1246,88.8099 36.9746,88.9319 L36.9796,88.9599 L38.3446,89.4089 L38.4046,89.7359 L36.6986,89.1259 L36.6536,88.8769 Z M35.6416,76.6259 L35.2876,75.9579 C35.5936,75.7959 35.7806,75.5839 35.5966,75.2379 C35.3246,74.7229 34.3556,74.2369 33.9506,73.4719 C33.5116,72.6429 33.8876,71.9909 34.6436,71.5899 L34.7246,71.5479 L35.0656,72.1919 L34.9766,72.2379 C34.6146,72.4299 34.4746,72.7309 34.6966,73.1489 C35.0036,73.7279 35.8716,74.1229 36.2516,74.8399 C36.4816,75.2739 36.4016,75.6669 36.0906,75.9549 L36.0986,75.9709 C36.4986,75.8519 36.8736,76.0139 37.1086,76.4569 C37.4876,77.1729 37.3226,78.1059 37.6326,78.6929 C37.8326,79.0709 38.1656,79.1739 38.5366,78.9769 C38.6006,78.9429 38.6276,78.9179 38.6276,78.9179 L38.9686,79.5619 L38.8886,79.6049 C38.1166,80.0129 37.3856,79.9569 36.9476,79.1289 C36.5416,78.3639 36.6836,77.2899 36.4116,76.7749 C36.2276,76.4289 35.9476,76.4639 35.6416,76.6259 L35.6416,76.6259 Z M29.9586,95.2859 L25.1766,93.0879 L25.7966,91.7389 L30.5786,93.9379 L29.9586,95.2859 Z M28.6696,98.0909 L23.8876,95.8919 L24.5066,94.5439 L29.2886,96.7429 L28.6696,98.0909 Z M23.5816,82.1969 C24.0026,82.3069 24.3416,82.2529 24.6316,81.8759 L24.6156,81.8519 C24.5526,81.8599 24.4916,81.8399 24.4356,81.8079 C24.1936,81.6689 24.0946,81.3039 24.2726,80.9949 C24.4366,80.7089 24.8076,80.5989 25.1166,80.7769 C25.5466,81.0239 25.5616,81.4569 25.2566,81.9869 C24.9346,82.5489 24.1666,82.9139 23.4846,82.5959 L23.5816,82.1969 Z M26.3406,77.3439 C26.5376,77.0029 26.9816,76.8909 27.3236,77.0879 C27.6646,77.2839 27.7936,77.7239 27.5976,78.0669 C27.3946,78.4189 26.9496,78.5299 26.6076,78.3339 C26.2656,78.1369 26.1376,77.6969 26.3406,77.3439 L26.3406,77.3439 Z M16.4966,70.1739 L16.2686,70.1739 L17.2146,67.7159 L17.4456,67.7159 L16.4966,70.1739 Z M15.1056,70.1739 L16.0516,67.7159 L16.2816,67.7159 L15.3326,70.1739 L15.1056,70.1739 Z M5.7076,75.1409 L3.1996,74.7129 L3.4976,74.3549 L5.4776,74.7449 L5.5026,74.7139 L4.7576,72.8389 C4.8176,72.7669 4.8676,72.7069 4.9066,72.6599 C4.9466,72.6119 4.9956,72.5519 5.0556,72.4809 L5.9346,74.8679 L5.7076,75.1409 Z M50.9616,108.6339 C52.6076,106.9789 52.6056,104.3019 50.9536,102.6499 C50.4046,102.1009 49.7426,101.7379 49.0426,101.5529 C49.4516,100.2529 49.1716,98.7869 48.2056,97.7169 C49.0526,96.4219 49.2266,94.1269 48.6606,91.5509 C49.1336,91.3469 49.5786,91.0539 49.9646,90.6679 C51.5756,89.0579 51.6036,86.4699 50.0586,84.8209 C51.3246,82.5589 51.1586,79.7139 49.5596,77.6069 L63.6936,58.6689 L54.3206,49.2549 L32.4256,66.0419 C32.3096,65.8889 32.1866,65.7399 32.0476,65.6009 C30.4126,63.9649 27.7656,63.9589 26.1206,65.5789 C25.0586,65.3349 23.9216,65.5069 22.9676,66.0969 C21.8186,65.1029 20.2736,64.1859 18.4826,63.5049 C15.4836,62.3649 12.5636,62.1809 10.7346,62.8549 C10.6576,62.7619 10.5776,62.6719 10.4906,62.5849 C8.9446,61.0399 6.4396,61.0399 4.8936,62.5849 C4.6206,62.8579 4.3986,63.1629 4.2216,63.4859 C3.0396,62.8169 1.7286,62.3569 0.3426,62.1179 C0.6816,65.2349 1.2706,68.2769 2.0906,71.2229 L3.9176,71.5349 L3.6206,71.8929 C3.3526,71.8399 3.1216,71.7949 2.9246,71.7559 C2.7276,71.7169 2.5316,71.6779 2.3346,71.6389 C2.2936,71.6319 2.2456,71.6219 2.1996,71.6129 C3.0076,74.4389 4.0306,77.1729 5.2456,79.8009 C6.6266,82.5469 8.2006,85.1779 9.9536,87.6759 C9.9976,87.3019 10.0546,86.9179 10.2326,86.5819 C10.4676,86.1389 10.8416,85.9769 11.2426,86.0959 L11.2506,86.0799 C10.9396,85.7919 10.8596,85.3989 11.0896,84.9649 C11.4686,84.2489 12.3376,83.8529 12.6446,83.2739 C12.8656,82.8559 12.7266,82.5549 12.3646,82.3629 L12.2756,82.3159 L12.6166,81.6729 L12.6976,81.7149 C13.4536,82.1159 13.8286,82.7679 13.3906,83.5969 C12.9856,84.3619 12.0166,84.8479 11.7446,85.3629 C11.5606,85.7089 11.7466,85.9209 12.0526,86.0829 L11.6996,86.7509 C11.3936,86.5889 11.1136,86.5539 10.9296,86.8999 C10.7286,87.2789 10.7516,87.9619 10.6166,88.6009 C16.3186,96.4219 23.7806,102.8759 32.4156,107.3899 C34.5916,108.4349 36.8446,109.3439 39.1616,110.1119 C39.4606,109.8299 39.7216,109.5429 39.8896,109.2259 C40.2996,108.4499 40.0406,107.8929 39.3706,107.5369 L39.2056,107.4499 L39.8376,106.2559 L39.9876,106.3349 C41.3896,107.0779 42.0866,108.2879 41.2726,109.8249 C41.1246,110.1049 40.9266,110.3579 40.7136,110.5999 C44.1206,111.6209 47.6586,112.3359 51.2986,112.7059 C51.4866,112.1879 51.5986,111.6339 51.5986,111.0519 C51.5986,110.1729 51.3656,109.3489 50.9616,108.6339 L50.9616,108.6339 Z" id="Fill-43" fill="#D85959"></path>
                    <path d="M25.2568,81.9864 C25.5618,81.4574 25.5468,81.0234 25.1158,80.7764 C24.8078,80.5994 24.4368,80.7084 24.2728,80.9954 C24.0948,81.3034 24.1938,81.6684 24.4358,81.8074 C24.4908,81.8394 24.5528,81.8604 24.6148,81.8524 L24.6318,81.8764 C24.3418,82.2524 24.0028,82.3064 23.5818,82.1964 L23.4848,82.5954 C24.1668,82.9144 24.9348,82.5484 25.2568,81.9864" id="Fill-45" fill="#C64242"></path>
                    <path d="M26.6074,78.3335 C26.9494,78.5295 27.3944,78.4185 27.5974,78.0665 C27.7944,77.7245 27.6654,77.2845 27.3234,77.0875 C26.9814,76.8915 26.5374,77.0025 26.3404,77.3445 C26.1374,77.6965 26.2654,78.1375 26.6074,78.3335" id="Fill-47" fill="#C64242"></path>
                    <path d="M41.2724,109.8252 C42.0864,108.2882 41.3894,107.0782 39.9874,106.3352 L39.8374,106.2562 L39.2064,107.4502 L39.3704,107.5362 C40.0414,107.8922 40.2994,108.4502 39.8894,109.2262 C39.6764,109.6272 39.3194,109.9802 38.9184,110.3342 C39.4244,110.5302 39.9344,110.7182 40.4484,110.9002 C40.7694,110.5732 41.0634,110.2212 41.2724,109.8252" id="Fill-49" fill="#C64242"></path>
                    <path d="M38.8887,79.6045 L38.9687,79.5615 L38.6277,78.9175 C38.6277,78.9175 38.6007,78.9425 38.5357,78.9775 C38.1657,79.1735 37.8327,79.0705 37.6327,78.6925 C37.3227,78.1055 37.4877,77.1725 37.1087,76.4565 C36.8737,76.0145 36.4987,75.8525 36.0987,75.9715 L36.0907,75.9555 C36.4017,75.6665 36.4817,75.2735 36.2517,74.8395 C35.8717,74.1235 35.0037,73.7285 34.6967,73.1485 C34.4747,72.7305 34.6147,72.4295 34.9767,72.2385 L35.0657,72.1915 L34.7247,71.5475 L34.6437,71.5895 C33.8877,71.9905 33.5117,72.6435 33.9507,73.4715 C34.3557,74.2365 35.3247,74.7225 35.5967,75.2375 C35.7807,75.5835 35.5937,75.7955 35.2877,75.9575 L35.6417,76.6255 C35.9477,76.4635 36.2277,76.4285 36.4107,76.7745 C36.6837,77.2895 36.5417,78.3645 36.9477,79.1285 C37.3857,79.9575 38.1167,80.0135 38.8887,79.6045" id="Fill-51" fill="#C64242"></path>
                    <path d="M10.9302,86.8995 C11.1132,86.5535 11.3932,86.5885 11.6992,86.7505 L12.0532,86.0825 C11.7472,85.9205 11.5602,85.7085 11.7442,85.3625 C12.0162,84.8475 12.9852,84.3615 13.3902,83.5965 C13.8292,82.7685 13.4532,82.1155 12.6972,81.7155 L12.6172,81.6725 L12.2762,82.3165 L12.3642,82.3635 C12.7262,82.5545 12.8662,82.8555 12.6442,83.2745 C12.3372,83.8535 11.4692,84.2485 11.0892,84.9645 C10.8592,85.3995 10.9392,85.7925 11.2502,86.0805 L11.2422,86.0965 C10.8422,85.9775 10.4672,86.1395 10.2332,86.5815 C10.0552,86.9185 9.9972,87.3025 9.9532,87.6755 C10.1722,87.9865 10.3932,88.2945 10.6172,88.6005 C10.7522,87.9615 10.7292,87.2785 10.9302,86.8995" id="Fill-53" fill="#C64242"></path>
                    <polygon id="Fill-55" fill="#C64242" points="23.8877 95.8921 28.6697 98.0911 29.2887 96.7431 24.5067 94.5441"></polygon>
                    <polygon id="Fill-57" fill="#C64242" points="25.1767 93.0874 29.9587 95.2864 30.5787 93.9384 25.7967 91.7394"></polygon>
                    <polygon id="Fill-59" fill="#C64242" points="44.7158 72.8741 47.7248 74.2581 48.1138 73.4091 45.1058 72.0261"></polygon>
                    <polygon id="Fill-61" fill="#C64242" points="43.9043 74.6387 46.9133 76.0227 47.3023 75.1747 44.2943 73.7907"></polygon>
                    <path d="M38.3447,89.4092 L36.9797,88.9602 L36.9747,88.9312 C37.1247,88.8102 37.2557,88.7042 37.3667,88.6152 C37.4777,88.5252 37.5887,88.4352 37.6997,88.3462 C37.8107,88.2562 37.9417,88.1502 38.0917,88.0282 L38.0327,87.7022 L36.6537,88.8762 L36.6987,89.1252 L38.4047,89.7352 L38.3447,89.4092 Z" id="Fill-63" fill="#C64242"></path>
                    <path d="M39.0683,87.5132 C39.0803,87.5782 39.0903,87.6332 39.0983,87.6762 C39.1063,87.7192 39.1163,87.7732 39.1283,87.8392 L40.4923,88.2882 L40.4973,88.3162 L39.3803,89.2202 L39.4403,89.5462 L40.8193,88.3722 L40.7733,88.1232 L39.0683,87.5132 Z" id="Fill-65" fill="#C64242"></path>
                    <path d="M2.3349,71.6392 C2.5319,71.6782 2.7289,71.7172 2.9249,71.7562 C3.1219,71.7942 3.3529,71.8402 3.6199,71.8922 L3.9179,71.5352 L2.0909,71.2222 L2.1989,71.6132 L2.3349,71.6392 Z" id="Fill-67" fill="#C64242"></path>
                    <path d="M4.9067,72.6597 C4.8667,72.7067 4.8177,72.7667 4.7577,72.8387 L5.5027,74.7137 L5.4777,74.7447 L3.4977,74.3547 L3.1997,74.7127 L5.7077,75.1407 L5.9347,74.8677 L5.0557,72.4807 C4.9957,72.5527 4.9467,72.6117 4.9067,72.6597" id="Fill-69" fill="#C64242"></path>
                    <path d="M41.04,63.5914 L41.409,63.6644 C41.532,63.6884 41.678,63.7164 41.845,63.7504 L42.03,63.5264 L40.462,63.2584 L40.319,63.4294 L40.869,64.9234 L41.056,64.6984 L40.59,63.5254 L40.605,63.5064 C40.772,63.5384 40.917,63.5674 41.04,63.5914" id="Fill-71" fill="#C64242"></path>
                    <path d="M42.6494,64.23 C42.6254,64.259 42.5934,64.297 42.5564,64.342 L43.0224,65.516 L43.0064,65.535 L41.7674,65.291 L41.5824,65.515 L43.1504,65.783 L43.2934,65.612 L42.7434,64.118 C42.7054,64.163 42.6744,64.2 42.6494,64.23" id="Fill-73" fill="#C64242"></path>
                    <polygon id="Fill-75" fill="#C64242" points="38.7451 95.1431 37.8001 97.6011 38.0261 97.6011 38.9751 95.1431"></polygon>
                    <polygon id="Fill-77" fill="#C64242" points="38.9629 97.6011 39.1909 97.6011 40.1389 95.1431 39.9079 95.1431"></polygon>
                    <polygon id="Fill-79" fill="#C64242" points="16.0513 67.7159 15.1063 70.1739 15.3333 70.1739 16.2813 67.7159"></polygon>
                    <polygon id="Fill-81" fill="#C64242" points="16.269 70.1734 16.497 70.1734 17.445 67.7154 17.215 67.7154"></polygon>
                    <path d="M84.0644,70.7837 C82.5264,72.3217 80.0104,72.3217 78.4724,70.7837 C76.9344,69.2457 76.9344,66.7297 78.4724,65.1917 L83.3884,60.2757" id="Fill-83" fill="#393C5B"></path>
                    <path d="M98.0127,23.2627 C98.0137,23.2617 98.0147,23.2607 98.0157,23.2597 C98.0077,23.2667 97.9977,23.2717 97.9907,23.2797 L95.1457,26.1247 C95.1467,26.1257 95.1467,26.1267 95.1477,26.1277 L98.0127,23.2627 Z" id="Fill-85" fill="#FFFFFF"></path>
                    <path d="M95.1474,26.1275 C95.1464,26.1265 95.1464,26.1255 95.1454,26.1255 L66.1464,55.1245 C66.1444,55.1255 66.1444,55.1265 66.1424,55.1275 C66.1504,55.1205 66.1604,55.1155 66.1684,55.1075 L95.1474,26.1275 Z" id="Fill-87" fill="#FFFFFF"></path>
                    <path d="M83.3887,60.2759 C83.4097,60.2559 83.4337,60.2429 83.4537,60.2229" id="Fill-89" fill="#FFFFFF"></path>
                    <path d="M88.3994,77.6382 C88.4034,77.6342 88.4084,77.6322 88.4124,77.6282" id="Fill-91" fill="#FFFFFF"></path>
                    <path d="M80.4746,5.6661 C80.4746,7.8541 78.7016,9.6281 76.5126,9.6281 C74.3246,9.6281 72.5506,7.8541 72.5506,5.6661 C72.5506,3.4781 74.3246,1.7041 76.5126,1.7041 C78.7016,1.7041 80.4746,3.4781 80.4746,5.6661" id="Fill-93" fill="#393C5B"></path>
                    <path d="M111.0156,64.5396 C111.0156,66.7276 109.2426,68.5016 107.0536,68.5016 C104.8656,68.5016 103.0916,66.7276 103.0916,64.5396 C103.0916,62.3516 104.8656,60.5776 107.0536,60.5776 C109.2426,60.5776 111.0156,62.3516 111.0156,64.5396" id="Fill-95" fill="#393C5B"></path>
                    <path d="M36.3574,4.9039 C36.3574,7.0919 34.5844,8.8659 32.3954,8.8659 C30.2074,8.8659 28.4324,7.0919 28.4324,4.9039 C28.4324,2.7159 30.2074,0.9419 32.3954,0.9419 C34.5844,0.9419 36.3574,2.7159 36.3574,4.9039" id="Fill-97" fill="#393C5B"></path>
                    <polygon id="Fill-99" fill="#262C4F" points="69.4277 30.3672 70.1987 28.3612 70.3877 28.3612 69.6137 30.3672"></polygon>
                    <polygon id="Fill-101" fill="#262C4F" points="70.3769 30.3672 71.1489 28.3612 71.3369 28.3612 70.5629 30.3672"></polygon>
                    <path d="M93.2558,17.9151 C93.0368,18.0921 92.8468,18.2461 92.6858,18.3761 C92.5238,18.5071 92.3618,18.6371 92.2008,18.7681 C92.0398,18.8981 91.8498,19.0521 91.6308,19.2291 L91.6388,19.2701 L93.6228,19.9241 L93.7088,20.3981 L91.2298,19.5111 L91.1628,19.1481 L93.1688,17.4411 L93.2558,17.9151 Z" id="Fill-103" fill="#454F87"></path>
                    <path d="M94.7627,17.6397 C94.7447,17.5447 94.7307,17.4657 94.7197,17.4027 C94.7077,17.3397 94.6937,17.2607 94.6757,17.1657 L97.1567,18.0527 L97.2227,18.4147 L95.2167,20.1217 L95.1297,19.6477 L96.7547,18.3337 L96.7467,18.2937 L94.7627,17.6397 Z" id="Fill-105" fill="#454F87"></path>
                    <path d="M75.0283,63.2803 C75.0283,64.3003 74.2023,65.1263 73.1823,65.1263 C72.1633,65.1263 71.3373,64.3003 71.3373,63.2803 C71.3373,62.2603 72.1633,61.4343 73.1823,61.4343 C74.2023,61.4343 75.0283,62.2603 75.0283,63.2803" id="Fill-107" fill="#262C4F"></path>
                    <path d="M79.8076,47.9854 L76.2726,47.9854 C75.9796,47.9854 75.7396,47.7454 75.7396,47.4524 C75.7396,47.1594 75.9796,46.9194 76.2726,46.9194 L79.8076,46.9194 C80.1006,46.9194 80.3396,47.1594 80.3396,47.4524 C80.3396,47.7454 80.1006,47.9854 79.8076,47.9854" id="Fill-109" fill="#454F87"></path>
                    <path d="M78.5723,45.6851 L78.5723,49.2201 C78.5723,49.5131 78.3333,49.7531 78.0403,49.7531 C77.7473,49.7531 77.5073,49.5131 77.5073,49.2201 L77.5073,45.6851 C77.5073,45.3921 77.7473,45.1521 78.0403,45.1521 C78.3333,45.1521 78.5723,45.3921 78.5723,45.6851" id="Fill-111" fill="#454F87"></path>
                    <path d="M97.2568,27.4854 C97.2898,27.3214 97.3218,27.1574 97.3538,26.9914 L97.3348,26.9874 C97.5608,26.2144 97.9388,23.3144 98.0378,22.1934 C98.3428,18.7684 98.0618,16.5974 97.2038,15.7394 C95.2488,13.7854 86.8958,15.3994 85.9408,15.5914 L85.5508,15.6804 C85.5408,15.6824 85.5298,15.6844 85.5208,15.6874 C86.5198,18.3624 89.6978,25.0054 97.2568,27.4854" id="Fill-113" fill="#FFFFFF"></path>
                    <polygon id="Fill-115" fill="#A2C7F4" points="75.914 54.6475 72.781 57.7805 78.057 63.0565"></polygon>
                    <polygon id="Fill-117" fill="#A2C7F4" points="72.3359 40.606 57.6319 36.819 54.7259 39.725 71.8429 56.843 75.5329 53.152"></polygon>
                    <polygon id="Fill-119" fill="#A2C7F4" points="49.8027 34.8023 53.7867 38.7873 56.1397 36.4343"></polygon>
                    <path d="M78.7109,63.7564 L76.2929,54.2684 L76.1039,54.4584 L78.4869,63.8134 L72.6169,57.9444 L72.4539,58.1074 L78.3239,63.9764 C78.3979,64.0504 78.5109,64.0654 78.6019,64.0144 C78.6909,63.9624 78.7359,63.8574 78.7109,63.7564" id="Fill-121" fill="#101338"></path>
                    <path d="M72.5264,40.4165 L75.7224,52.9625 L75.9124,52.7725 L72.7504,40.3595 C72.7284,40.2785 72.6654,40.2145 72.5844,40.1935 L58.0104,36.4395 L57.8214,36.6295 L72.5264,40.4165 Z" id="Fill-123" fill="#101338"></path>
                    <path d="M49.042,34.3682 L56.329,36.2452 L56.519,36.0552 L49.1,34.1442 C48.999,34.1182 48.894,34.1632 48.842,34.2542 C48.79,34.3442 48.806,34.4582 48.879,34.5312 L53.461,39.1142 L53.624,38.9502 L49.042,34.3682 Z" id="Fill-125" fill="#101338"></path>
                    <polygon id="Fill-127" fill="#101338" points="54.5625 39.8887 54.3995 40.0517 71.5165 57.1687 71.6795 57.0057"></polygon>
                    <polygon id="Fill-129" fill="#101338" points="78.0566 63.0562 72.7816 57.7812 72.6176 57.9442 78.4876 63.8132 76.1036 54.4582 75.9136 54.6472"></polygon>
                    <polygon id="Fill-131" fill="#101338" points="49.8027 34.8023 56.1397 36.4343 56.3287 36.2453 49.0417 34.3683 53.6237 38.9503 53.7867 38.7873"></polygon>
                    <polygon id="Fill-133" fill="#101338" points="54.5625 39.8887 71.6795 57.0057 71.8425 56.8427 54.7255 39.7247"></polygon>
                    <polygon id="Fill-135" fill="#101338" points="72.3359 40.606 75.5329 53.152 75.7229 52.963 72.5259 40.417 57.8209 36.629 57.6319 36.819"></polygon>
                    <polygon id="Fill-137" fill="#82AEDB" points="75.5332 53.1524 71.8432 56.8424 72.7812 57.7804 75.9142 54.6474"></polygon>
                    <polygon id="Fill-139" fill="#06091C" points="75.5332 53.1524 75.9142 54.6474 76.1032 54.4584 76.2932 54.2684 75.9122 52.7734 75.7222 52.9634"></polygon>
                    <polygon id="Fill-141" fill="#06091C" points="72.7812 57.7808 71.8432 56.8428 71.6792 57.0058 71.5162 57.1688 72.4542 58.1068 72.6172 57.9438"></polygon>
                    <polygon id="Fill-143" fill="#82AEDB" points="53.7871 38.7872 54.7251 39.7252 57.6321 36.8192 56.1401 36.4342"></polygon>
                    <polygon id="Fill-145" fill="#06091C" points="53.7871 38.7872 53.6241 38.9502 53.4611 39.1142 54.3991 40.0522 54.5621 39.8892 54.7251 39.7252"></polygon>
                    <polygon id="Fill-147" fill="#06091C" points="56.5185 36.0557 56.3295 36.2447 56.1395 36.4347 57.6315 36.8187 57.8215 36.6297 58.0105 36.4397"></polygon>
                    <path d="M94.6123,33.7203 C96.1033,32.0433 96.7083,30.1013 97.1643,27.9393 C94.1293,26.9533 91.7773,25.3163 89.9813,23.5193 C87.1443,20.6823 85.6843,17.4563 85.0673,15.7903 C82.9403,16.2773 80.9353,16.8103 79.2223,18.3303 C79.1893,18.3463 79.1583,18.3683 79.1303,18.3963 L51.4563,46.0713 C51.3203,46.2063 51.3203,46.4253 51.4563,46.5603 L66.3833,61.4873 C66.5173,61.6223 66.7373,61.6223 66.8723,61.4873 L94.5463,33.8133 C94.5743,33.7853 94.5963,33.7543 94.6123,33.7203" id="Fill-149" fill="#FFFFFF"></path>
                    <path d="M82.8369,16.375 C82.8369,16.375 86.1659,26.767 96.5959,30.134 L97.2469,27.856 C97.2469,27.856 90.0009,26.602 85.0669,15.79 L82.8369,16.375 Z" id="Fill-151" fill="#A2C7F4"></path>
                    <path d="M97.2724,26.9102 L97.2534,26.9062 C97.4794,26.1332 97.8584,23.2332 97.9584,22.1122 C98.2614,18.6882 97.9804,16.5162 97.1234,15.6582 C96.9304,15.4672 96.6764,15.3102 96.3754,15.1822 C96.8494,16.2992 96.9714,18.2082 96.7344,20.8882 C96.6344,22.0102 96.2554,24.9102 96.0304,25.6832 L96.0484,25.6862 C95.9394,26.2582 95.8254,26.8152 95.6974,27.3592 C96.3634,27.6352 96.8514,27.7702 97.0884,27.8272 C97.1524,27.5252 97.2124,27.2202 97.2724,26.9102" id="Fill-153" fill="#EDEDED"></path>
                    <path d="M94.5312,33.6397 C95.4852,32.5657 96.0762,31.3837 96.4982,30.1057 C95.9912,29.9387 95.5022,29.7557 95.0292,29.5577 C94.6282,30.5787 94.0922,31.5347 93.3072,32.4157 C93.2922,32.4497 93.2692,32.4807 93.2422,32.5087 L65.5672,60.1827 C65.4322,60.3177 65.2132,60.3177 65.0782,60.1827 L66.3022,61.4067 C66.4362,61.5417 66.6562,61.5417 66.7912,61.4067 L94.4662,33.7317 C94.4932,33.7037 94.5152,33.6727 94.5312,33.6397" id="Fill-155" fill="#EDEDED"></path>
                    <path d="M96.6025,30.1407 L97.2535,27.8627 C97.2535,27.8627 97.1955,27.8517 97.0885,27.8267 C96.9235,28.6167 96.7385,29.3767 96.4985,30.1057 C96.5335,30.1167 96.5675,30.1287 96.6025,30.1407" id="Fill-157" fill="#589ADB"></path>
                    <path d="M97.0889,27.8267 C96.8519,27.7697 96.3629,27.6357 95.6969,27.3587 C95.5169,28.1217 95.3059,28.8557 95.0289,29.5577 C95.5019,29.7557 95.9909,29.9387 96.4979,30.1057 C96.7379,29.3767 96.9239,28.6167 97.0889,27.8267" id="Fill-159" fill="#589ADB"></path>
                    <path d="M86.001,35.3121 C83.689,37.6241 79.942,37.6241 77.631,35.3121 C75.319,33.0001 75.319,29.2531 77.631,26.9421 C79.942,24.6301 83.689,24.6301 86.001,26.9421 C88.313,29.2531 88.313,33.0001 86.001,35.3121" id="Fill-161" fill="#A2C7F4"></path>
                    <path d="M86.042,26.9825 C85.876,26.8165 85.702,26.6645 85.523,26.5225 C87.361,28.8455 87.209,32.2285 85.063,34.3745 C82.917,36.5195 79.535,36.6715 77.212,34.8345 C77.354,35.0135 77.506,35.1875 77.672,35.3535 C79.983,37.6645 83.73,37.6645 86.042,35.3535 C88.354,33.0415 88.354,29.2945 86.042,26.9825" id="Fill-163" fill="#589ADB"></path>
                    <path d="M85.8379,27.105 C83.6199,24.887 80.0119,24.887 77.7939,27.105 C75.5759,29.323 75.5759,32.931 77.7939,35.149 C80.0119,37.367 83.6199,37.367 85.8379,35.149 C88.0559,32.931 88.0559,29.323 85.8379,27.105 M77.4679,35.475 C75.0699,33.078 75.0699,29.176 77.4679,26.779 C79.8649,24.381 83.7669,24.381 86.1639,26.779 C88.5619,29.176 88.5619,33.078 86.1639,35.475 C83.7669,37.873 79.8649,37.873 77.4679,35.475" id="Fill-165" fill="#101338"></path>
                    <path d="M57.9385,34.2813 C59.2005,33.0203 59.2005,30.9743 57.9385,29.7133 C56.6765,28.4523 54.6315,28.4523 53.3705,29.7133 L45.5405,37.5443 L50.1075,42.1123 L57.9385,34.2813 Z" id="Fill-167" fill="#FFFFFF"></path>
                    <polygon id="Fill-169" fill="#A2C7F4" points="50.0937 42.126 45.5267 37.558 47.4837 35.6 52.0517 40.168"></polygon>
                    <path d="M45.8662,37.5445 L50.1072,41.7865 L57.7752,34.1185 C58.9452,32.9485 58.9452,31.0455 57.7752,29.8765 C56.6062,28.7075 54.7032,28.7075 53.5332,29.8765 L45.8662,37.5445 Z M49.9442,42.2755 L45.3762,37.7075 C45.2862,37.6175 45.2862,37.4715 45.3762,37.3815 L53.2072,29.5505 C54.5562,28.2005 56.7522,28.2005 58.1012,29.5505 C59.4512,30.8995 59.4512,33.0955 58.1012,34.4445 L50.2702,42.2755 C50.1802,42.3655 50.0342,42.3655 49.9442,42.2755 L49.9442,42.2755 Z" id="Fill-171" fill="#101338"></path>
                    <path d="M83.1426,59.4849 C84.4036,58.2239 84.4036,56.1779 83.1426,54.9169 C81.8806,53.6559 79.8356,53.6559 78.5746,54.9169 L70.7436,62.7479 L75.3116,67.3159 L83.1426,59.4849 Z" id="Fill-173" fill="#FFFFFF"></path>
                    <polygon id="Fill-175" fill="#A2C7F4" points="75.2978 67.3296 70.7298 62.7616 72.6878 60.8036 77.2548 65.3716"></polygon>
                    <path d="M71.0693,62.7481 L75.3113,66.9901 L82.9793,59.3221 C84.1483,58.1521 84.1483,56.2491 82.9793,55.0801 C81.8093,53.9111 79.9073,53.9111 78.7373,55.0801 L71.0693,62.7481 Z M75.1483,67.4791 L70.5803,62.9111 C70.4903,62.8211 70.4903,62.6751 70.5803,62.5851 L78.4113,54.7541 C79.7603,53.4041 81.9563,53.4041 83.3053,54.7541 C84.6543,56.1031 84.6543,58.2991 83.3053,59.6481 L75.4743,67.4791 C75.3843,67.5691 75.2383,67.5691 75.1483,67.4791 L75.1483,67.4791 Z" id="Fill-177" fill="#101338"></path>
                    <path d="M50.2236,51.7398 C49.7976,52.1908 49.8056,52.9048 50.2466,53.3458 L59.7136,62.8128 C60.1556,63.2538 60.8696,63.2618 61.3206,62.8368 L62.4966,60.5388 L52.5216,50.5628 L50.2236,51.7398 Z" id="Fill-179" fill="#A2C7F4"></path>
                    <path d="M61.5088,62.9756 C60.9698,63.5146 60.0888,63.5146 59.5508,62.9756 L50.0838,53.5096 C49.5458,52.9706 49.5458,52.0896 50.0838,51.5516 L52.3498,50.3916 L52.1788,50.2196 L49.9798,51.3466 C49.9578,51.3566 49.9388,51.3716 49.9208,51.3886 C49.2918,52.0176 49.2908,53.0426 49.9208,53.6726 L59.3878,63.1386 C60.0178,63.7686 61.0418,63.7686 61.6718,63.1386 C61.6888,63.1216 61.7028,63.1026 61.7138,63.0806 L62.8398,60.8816 L62.6688,60.7096 L61.5088,62.9756 Z" id="Fill-181" fill="#101338"></path>
                    <path d="M61.3203,62.837 C60.8693,63.262 60.1553,63.254 59.7143,62.813 L50.2473,53.346 C49.8053,52.905 49.7983,52.191 50.2233,51.74 L52.5213,50.563 L52.3493,50.391 L50.0843,51.552 C49.5463,52.09 49.5463,52.971 50.0843,53.509 L59.5503,62.976 C60.0893,63.514 60.9693,63.514 61.5083,62.976 L62.6693,60.71 L62.4973,60.539 L61.3203,62.837 Z" id="Fill-183" fill="#101338"></path>
                    <path d="M52.5215,50.5625 L62.4975,60.5385 L63.0165,59.5255 C63.1585,59.2045 63.2565,58.9515 63.3065,58.7375 L54.3175,49.7485 C54.0995,49.7945 53.8435,49.8935 53.5305,50.0455 L52.5215,50.5625 Z" id="Fill-185" fill="#82AEDB"></path>
                    <path d="M63.6797,59.1104 L63.4927,58.9234 C63.4317,59.1334 63.3397,59.3644 63.2217,59.6314 L62.6687,60.7104 L62.8397,60.8814 L63.4327,59.7244 C63.5287,59.5084 63.6147,59.3044 63.6797,59.1104" id="Fill-187" fill="#06091C"></path>
                    <path d="M53.4287,49.8384 C53.6807,49.7154 53.9117,49.6224 54.1297,49.5604 L53.9417,49.3724 C53.7317,49.4424 53.5237,49.5364 53.3237,49.6334 L52.1787,50.2194 L52.3497,50.3914 L53.4287,49.8384 Z" id="Fill-189" fill="#06091C"></path>
                    <path d="M53.5303,50.0459 C53.8433,49.8929 54.0993,49.7949 54.3173,49.7479 L54.1303,49.5609 C53.9123,49.6219 53.6803,49.7159 53.4283,49.8379 L52.3493,50.3909 L52.5213,50.5629 L53.5303,50.0459 Z" id="Fill-191" fill="#06091C"></path>
                    <path d="M63.0166,59.5259 L62.4966,60.5389 L62.6686,60.7099 L63.2216,59.6309 C63.3396,59.3639 63.4316,59.1339 63.4936,58.9239 L63.3066,58.7379 C63.2566,58.9509 63.1586,59.2049 63.0166,59.5259" id="Fill-193" fill="#06091C"></path>
                    <path d="M97.164,27.9395 C97.195,27.7895 97.226,27.6375 97.257,27.4855 C89.698,25.0055 86.519,18.3625 85.52,15.6875 C85.369,15.7215 85.218,15.7555 85.067,15.7905 C85.685,17.4565 87.144,20.6825 89.981,23.5195 C91.777,25.3155 94.129,26.9535 97.164,27.9395" id="Fill-195" fill="#101338"></path>
                    <path d="M87.3584,15.5655 C87.1994,15.5925 87.0444,15.6195 86.8914,15.6465 C87.6724,17.4155 89.0574,19.9205 91.3184,22.1825 C92.8654,23.7295 94.8244,25.1575 97.2764,26.1535 C97.3024,26.0085 97.3294,25.8535 97.3554,25.6875 C91.5964,23.3045 88.6594,18.4675 87.3584,15.5655" id="Fill-197" fill="#101338"></path>
                    <path d="M97.2764,26.1539 C97.4214,26.2129 97.5674,26.2689 97.7144,26.3249 C97.7414,26.1819 97.7674,26.0259 97.7944,25.8619 C97.6464,25.8059 97.5004,25.7469 97.3554,25.6879 C97.3294,25.8539 97.3024,26.0079 97.2764,26.1539" id="Fill-199" fill="#101338"></path>
                    <path d="M87.3584,15.5655 C87.2904,15.4145 87.2274,15.2695 87.1694,15.1295 C87.0034,15.1585 86.8474,15.1855 86.7044,15.2115 C86.7614,15.3505 86.8254,15.4965 86.8914,15.6465 C87.0444,15.6195 87.1994,15.5925 87.3584,15.5655" id="Fill-201" fill="#101338"></path>
                    <path d="M86.8037,16.75 C86.6907,16.863 86.5067,16.863 86.3937,16.75 C86.2807,16.637 86.2807,16.453 86.3937,16.339 C86.5067,16.226 86.6907,16.226 86.8037,16.339 C86.9177,16.453 86.9177,16.637 86.8037,16.75" id="Fill-203" fill="#589ADB"></path>
                    <path d="M87.7148,18.5787 C87.6018,18.6917 87.4178,18.6917 87.3048,18.5787 C87.1918,18.4657 87.1918,18.2817 87.3048,18.1677 C87.4178,18.0547 87.6018,18.0547 87.7148,18.1677 C87.8278,18.2817 87.8278,18.4657 87.7148,18.5787" id="Fill-205" fill="#589ADB"></path>
                    <path d="M88.7959,20.2374 C88.6829,20.3504 88.4979,20.3504 88.3849,20.2374 C88.2719,20.1244 88.2719,19.9404 88.3849,19.8264 C88.4979,19.7134 88.6829,19.7134 88.7959,19.8264 C88.9089,19.9404 88.9089,20.1244 88.7959,20.2374" id="Fill-207" fill="#589ADB"></path>
                    <path d="M89.9853,21.7867 C89.8723,21.8997 89.6883,21.8997 89.5753,21.7867 C89.4623,21.6737 89.4623,21.4897 89.5753,21.3757 C89.6883,21.2627 89.8723,21.2627 89.9853,21.3757 C90.0983,21.4897 90.0983,21.6737 89.9853,21.7867" id="Fill-209" fill="#589ADB"></path>
                    <path d="M91.3291,23.1817 C91.2161,23.2947 91.0321,23.2947 90.9191,23.1817 C90.8061,23.0687 90.8061,22.8847 90.9191,22.7707 C91.0321,22.6577 91.2161,22.6577 91.3291,22.7707 C91.4431,22.8847 91.4431,23.0687 91.3291,23.1817" id="Fill-211" fill="#589ADB"></path>
                    <path d="M92.7773,24.4732 C92.6643,24.5862 92.4803,24.5862 92.3673,24.4732 C92.2533,24.3602 92.2533,24.1762 92.3673,24.0622 C92.4803,23.9492 92.6643,23.9492 92.7773,24.0622 C92.8903,24.1762 92.8903,24.3602 92.7773,24.4732" id="Fill-213" fill="#589ADB"></path>
                    <path d="M94.4551,25.5152 C94.3821,25.6572 94.2071,25.7132 94.0641,25.6392 C93.9221,25.5652 93.8661,25.3902 93.9391,25.2482 C94.0141,25.1052 94.1881,25.0502 94.3311,25.1232 C94.4741,25.1972 94.5291,25.3722 94.4551,25.5152" id="Fill-215" fill="#589ADB"></path>
                    <path d="M96.2383,26.4707 C96.1653,26.6137 95.9903,26.6687 95.8473,26.5957 C95.7053,26.5217 95.6493,26.3457 95.7223,26.2037 C95.7973,26.0617 95.9713,26.0057 96.1143,26.0797 C96.2573,26.1537 96.3123,26.3287 96.2383,26.4707" id="Fill-217" fill="#589ADB"></path>
                    <path d="M97.04,15.9024 C97.596,16.4574 98.18,17.9964 97.809,22.1724 C97.739,22.9534 97.542,24.5274 97.355,25.6874 C97.5,25.7474 97.646,25.8054 97.794,25.8624 C97.991,24.6674 98.197,23.0154 98.269,22.2134 C98.583,18.6694 98.288,16.4974 97.367,15.5764 C95.706,13.9154 89.962,14.6524 87.169,15.1304 C87.227,15.2694 87.29,15.4144 87.358,15.5654 C90.828,14.9834 95.71,14.5714 97.04,15.9024" id="Fill-219" fill="#101338"></path>
                    <path d="M94.8037,33.8531 C96.5347,31.8931 97.0727,29.5971 97.5677,27.0271 C97.5717,27.0041 97.5837,26.9891 97.5797,26.9661 C97.6217,26.8051 97.6667,26.5831 97.7147,26.3251 C97.5677,26.2691 97.4207,26.2121 97.2767,26.1541 C97.2177,26.4861 97.1607,26.7591 97.1137,26.9231 C97.1037,26.9561 97.0857,26.9881 97.0937,27.0211 C96.6147,29.5011 96.0907,31.7091 94.4407,33.5671 C94.4257,33.5821 94.4137,33.6001 94.4057,33.6191 C94.3997,33.6301 94.3927,33.6411 94.3827,33.6501 L66.7087,61.3241 C66.6637,61.3691 66.5907,61.3691 66.5457,61.3241 L51.6187,46.3971 C51.5747,46.3521 51.5747,46.2791 51.6187,46.2341 L79.2927,18.5601 C79.3017,18.5501 79.3127,18.5431 79.3247,18.5381 C79.3427,18.5281 79.3607,18.5171 79.3757,18.5021 C81.1727,16.9081 83.3247,16.4211 85.6017,15.9051 L85.9857,15.8181 C86.2697,15.7611 86.5737,15.7031 86.8917,15.6461 C86.8247,15.4961 86.7617,15.3511 86.7037,15.2111 C86.3567,15.2741 86.0757,15.3291 85.8887,15.3671 L85.4987,15.4551 C83.1707,15.9821 80.9717,16.4801 79.0907,18.1391 C79.0447,18.1651 79.0037,18.1961 78.9667,18.2331 L51.2917,45.9081 C51.0677,46.1331 51.0677,46.4991 51.2917,46.7231 L66.2197,61.6501 C66.4447,61.8751 66.8107,61.8751 67.0347,61.6501 L94.7087,33.9761 C94.7457,33.9391 94.7777,33.8981 94.8037,33.8531" id="Fill-221" fill="#101338"></path>
                    <path d="M40.4482,110.9004 C40.4482,110.9004 48.7842,112.8604 51.2992,112.7054 L40.7142,110.6004 L40.4482,110.9004 Z" id="Fill-223" fill="#D85959"></path>
                </g>
            </g>
        </g>
    </g>
</svg>