<?xml version="1.0" encoding="UTF-8"?>
<svg width="206px" height="50px" viewBox="0 0 206 50" version="1.1" xmlns="http://www.w3.org/2000/svg" xmlns:xlink="http://www.w3.org/1999/xlink">
    <!-- Generator: Sketch 44 (41411) - http://www.bohemiancoding.com/sketch -->
    <title>Page 1</title>
    <desc>Created with Sketch.</desc>
    <defs>
        <polygon id="path-1" points="5.99669343e-21 0.0726548673 5.99669343e-21 44.6901327 46.9397788 44.6901327 46.9397788 0.0726548673 0 0.0726548673"></polygon>
    </defs>
    <g id="Page-1" stroke="none" stroke-width="1" fill="none" fill-rule="evenodd">
        <g id="Desktop-HD" transform="translate(-54.000000, -15.000000)">
            <g id="Page-1" transform="translate(54.000000, 15.000000)">
                <path d="M61.992148,15.9431059 L61.992148,35.4970295 L66.7066053,35.4970295 C68.0985064,35.4970295 69.3327795,35.2439043 70.4085617,34.7376538 C71.7581794,34.1048408 72.4335635,32.712652 72.4335635,30.5610876 L72.4335635,21.6384235 C72.4335635,19.719274 71.8798521,18.2899794 70.7721416,17.351115 C69.6650063,16.4128258 68.3516316,15.9431059 66.8331679,15.9431059 L61.992148,15.9431059 Z M60.5683186,14.6141985 L66.5164737,14.6141985 C68.9001655,14.6141985 70.719503,15.2682971 71.974774,16.575919 C73.2294697,17.8841161 73.8573929,19.6243521 73.8573929,21.7966267 L73.8573929,30.4661657 C73.8573929,34.6853029 71.6212616,36.7942963 67.1495744,36.7942963 L60.5683186,36.7942963 L60.5683186,14.6141985 Z" id="Fill-1" fill="#C64242"></path>
                <polygon id="Fill-3" fill="#C64242" points="78.9830061 14.6459254 89.5509842 14.6459254 89.5509842 15.9748328 80.4068355 15.9748328 80.4068355 23.7265052 86.7982474 23.7265052 86.3236376 25.1189816 80.4068355 25.1189816 80.4068355 35.4971158 89.4877029 35.4971158 89.4877029 36.7943826 78.9830061 36.7943826"></polygon>
                <polygon id="Fill-5" fill="#C64242" points="91.7974131 14.6459254 93.3161644 14.6459254 99.3595291 35.022506 105.402894 14.6459254 106.921645 14.6459254 100.340389 36.7943826 98.4103095 36.7943826"></polygon>
                <path d="M123.232143,18.0787925 C123.115936,18.3112074 122.981319,18.4743006 122.828868,18.5692226 C122.675555,18.6641445 122.493765,18.7116055 122.282923,18.7116055 C122.071794,18.7116055 121.834489,18.6302027 121.571009,18.4665343 C121.307241,18.3028658 120.996012,18.1210759 120.637322,17.9205892 C120.278632,17.7203902 119.859537,17.5386002 119.37975,17.3749317 C118.899675,17.2112633 118.333019,17.1295729 117.678921,17.1295729 C117.088391,17.1295729 116.574374,17.2006205 116.136583,17.3430035 C115.699079,17.4853864 115.329746,17.6832843 115.02916,17.9364095 C114.728861,18.1895347 114.5045,18.4927097 114.35694,18.8462221 C114.209092,19.1994469 114.135455,19.5871887 114.135455,20.0088723 C114.135455,20.5467634 114.285605,20.9951977 114.586191,21.3536001 C114.886777,21.71229 115.284874,22.0180538 115.780769,22.271179 C116.276089,22.5243042 116.840443,22.751254 117.473257,22.951453 C118.106357,23.1519397 118.752114,23.3656579 119.41139,23.5923201 C120.070666,23.8192699 120.716711,24.0827502 121.349524,24.3833364 C121.98205,24.6839226 122.546404,25.0633228 123.042299,25.5223999 C123.537619,25.9811894 123.936004,26.5426672 124.23659,27.2071209 C124.537176,27.8715746 124.687613,28.6786989 124.687613,29.6276308 C124.687613,30.6614173 124.510713,31.6287583 124.157488,32.5308046 C123.803976,33.4325632 123.28737,34.2181143 122.607096,34.8880332 C121.926822,35.5579521 121.096399,36.0852005 120.115539,36.4700659 C119.134678,36.8546436 118.011435,37.047364 116.745809,37.047364 C116.018074,37.047364 115.300694,36.9760287 114.594245,36.8339334 C113.887508,36.6915504 113.209822,36.488475 112.561189,36.224707 C111.912556,35.9612266 111.305918,35.6448201 110.741851,35.2754874 C110.177497,34.9064423 109.673836,34.4951138 109.231154,34.0415019 L110.464852,32.0006798 C110.581059,31.8531193 110.720566,31.7294331 110.884234,31.6287583 C111.047903,31.5289464 111.229405,31.478609 111.430179,31.478609 C111.69366,31.478609 111.978426,31.5870502 112.284189,31.8030695 C112.590241,32.0193766 112.95152,32.2592702 113.368026,32.5227506 C113.784532,32.7865186 114.274962,33.0266999 114.839316,33.2427193 C115.403383,33.4590263 116.081355,33.5668921 116.872372,33.5668921 C118.084784,33.5668921 119.023936,33.2798251 119.68839,32.7048282 C120.352556,32.1301188 120.68507,31.3045854 120.68507,30.2288032 C120.68507,29.6276308 120.534634,29.1372007 120.234047,28.7575129 C119.933461,28.3781127 119.535077,28.0588297 119.039756,27.8005269 C118.543861,27.5419365 117.979507,27.3233284 117.346982,27.1441272 C116.714168,26.9649261 116.070713,26.7696169 115.416902,26.5584875 C114.762803,26.3476457 114.119347,26.0945205 113.486822,25.7991118 C112.854009,25.5039908 112.289655,25.1191254 111.793759,24.644228 C111.298152,24.1696182 110.900055,23.5762121 110.599468,22.8645851 C110.298882,22.1526704 110.148733,21.2744984 110.148733,20.2303569 C110.148733,19.3973448 110.314703,18.5850429 110.646929,17.7940266 C110.979156,17.0030103 111.464121,16.3017383 112.102687,15.6899232 C112.74039,15.0783956 113.52364,14.5879655 114.451862,14.2186328 C115.379796,13.8495877 116.439758,13.6649214 117.63146,13.6649214 C118.981653,13.6649214 120.226281,13.8760508 121.365344,14.2977344 C122.504408,14.7197057 123.474625,15.3102353 124.276285,16.0698986 L123.232143,18.0787925 Z" id="Fill-7" fill="#C64242"></path>
                <polygon id="Fill-9" fill="#C64242" points="144.700269 13.9181041 144.700269 17.4143963 137.818427 17.4143963 137.818427 36.7942963 133.562759 36.7942963 133.562759 17.4143963 126.649276 17.4143963 126.649276 13.9181041"></polygon>
                <path d="M151.012378,28.156398 L158.30526,28.156398 L155.521171,20.5468209 C155.394608,20.2094165 155.254526,19.8110319 155.102076,19.3525301 C154.94905,18.8937406 154.798613,18.3952565 154.651053,17.8573654 C154.503204,18.3952565 154.35852,18.8963294 154.216137,19.3602964 C154.073755,19.8245511 153.933673,20.2304144 153.796755,20.5784616 L151.012378,28.156398 Z M165.819916,36.7942963 L162.529575,36.7942963 C162.160243,36.7942963 161.857068,36.7022507 161.619763,36.5172967 C161.382745,36.3332057 161.211023,36.1036671 161.105746,35.8292564 L159.397151,31.16226 L149.920775,31.16226 L148.21218,35.8292564 C148.127613,36.0720265 147.961643,36.293511 147.713696,36.4937101 C147.466036,36.6941968 147.162573,36.7942963 146.804171,36.7942963 L143.497722,36.7942963 L152.483668,13.9181041 L156.834258,13.9181041 L165.819916,36.7942963 Z" id="Fill-11" fill="#C64242"></path>
                <path d="M173.208037,24.8024312 L175.865564,24.8024312 C176.666935,24.8024312 177.365906,24.7023317 177.961901,24.501845 C178.557896,24.301646 179.048326,24.0249341 179.433479,23.6711341 C179.818057,23.318197 180.105412,22.8988145 180.295543,22.4135619 C180.485387,21.928597 180.580309,21.3958835 180.580309,20.8159966 C180.580309,19.6556475 180.197745,18.7645317 179.433479,18.1420738 C178.668351,17.5201911 177.500523,17.2089621 175.929133,17.2089621 L173.208037,17.2089621 L173.208037,24.8024312 Z M173.208037,27.8557543 L173.208037,36.7942388 L168.952369,36.7942388 L168.952369,13.9180466 L175.929133,13.9180466 C177.48988,13.9180466 178.826554,14.0791263 179.939442,14.4007104 C181.05233,14.7225821 181.964444,15.1733176 182.676358,15.7532045 C183.388561,16.3336666 183.910344,17.0268846 184.242571,17.8334336 C184.575085,18.6405579 184.741055,19.5290849 184.741055,20.4993024 C184.741055,21.2693209 184.627436,21.9970559 184.400774,22.6825075 C184.173824,23.3682467 183.847063,23.990417 183.419914,24.549306 C182.993053,25.1084826 182.465517,25.5992004 181.837881,26.0205964 C181.210246,26.4425676 180.495742,26.7799721 179.694371,27.0330973 C180.232262,27.3391487 180.696229,27.7766526 181.086559,28.3461844 L186.813518,36.7942388 L182.984711,36.7942388 C182.615666,36.7942388 182.301848,36.72089 182.043545,36.5727542 C181.784955,36.4251937 181.566347,36.2143519 181.387146,35.9399411 L176.577766,28.6151299 C176.398278,28.3410068 176.20038,28.1459853 175.98436,28.0297778 C175.768053,27.913858 175.449058,27.8557543 175.027087,27.8557543 L173.208037,27.8557543 Z" id="Fill-13" fill="#C64242"></path>
                <polygon id="Fill-15" fill="#C64242" points="205.402344 13.9181041 205.402344 17.4143963 198.520502 17.4143963 198.520502 36.7942963 194.264834 36.7942963 194.264834 17.4143963 187.351351 17.4143963 187.351351 13.9181041"></polygon>
                <polygon id="Fill-17" fill="#393C5B" points="7.19867257 30.6338053 7.29955752 30.6338053 7.71902655 29.5461947 7.61725664 29.5461947"></polygon>
                <path d="M11.1755752,35.8607965 C11.310531,35.6267257 11.3038938,35.4346903 11.1131858,35.3253982 C10.9769027,35.2470796 10.8127434,35.2953097 10.740177,35.4223009 C10.6614159,35.5585841 10.7052212,35.7200885 10.8123009,35.7815929 C10.8366372,35.7957522 10.8640708,35.8050442 10.8915044,35.8015044 L10.8990265,35.8121239 C10.770708,35.9784956 10.620708,36.0023894 10.4344248,35.9537168 L10.3915044,36.1302655 C10.6932743,36.2714159 11.0330973,36.109469 11.1755752,35.8607965" id="Fill-19" fill="#393C5B"></path>
                <path d="M11.7731858,34.244469 C11.9245133,34.3311947 12.1214159,34.2820796 12.2112389,34.1263274 C12.2984071,33.975 12.2413274,33.7803097 12.09,33.6931416 C11.9386726,33.6064159 11.7422124,33.655531 11.6550442,33.8068584 C11.5652212,33.9626106 11.6218584,34.1577434 11.7731858,34.244469" id="Fill-21" fill="#393C5B"></path>
                <polygon id="Fill-23" fill="#393C5B" points="11.1401327 40.7727434 13.2560619 41.7457522 13.5303982 41.149292 11.414469 40.1762832"></polygon>
                <polygon id="Fill-25" fill="#393C5B" points="10.5697788 42.0137611 12.685708 42.9867699 12.9596018 42.3903097 10.8436726 41.4173009"></polygon>
                <path d="M17.6934956,46.6345133 L17.6275664,46.5995575 L17.3479204,47.1278761 L17.4204867,47.1663717 C17.7173894,47.3238938 17.8315487,47.570354 17.6501327,47.9137168 C17.5757965,48.0539823 17.4607522,48.1809735 17.3284513,48.3057522 C17.5554425,48.3809735 17.784646,48.4526549 18.015177,48.5216814 C18.1089823,48.4141593 18.1970354,48.3026549 18.2620796,48.1787611 C18.6226991,47.4986726 18.3138496,46.9632743 17.6934956,46.6345133" id="Fill-27" fill="#393C5B"></path>
                <path d="M17.2073894,34.8068584 L17.2427876,34.7878319 L17.0919027,34.5028761 C17.0919027,34.5028761 17.0799558,34.5139381 17.0511947,34.5294248 C16.8874779,34.6161504 16.7401327,34.5705752 16.6516372,34.4033186 C16.514469,34.1435841 16.5874779,33.7307522 16.4197788,33.4139381 C16.3157965,33.2183628 16.1498673,33.1466814 15.9728761,33.1993363 L15.9693363,33.1922566 C16.1069469,33.0643805 16.1423451,32.8904867 16.0405752,32.6984513 C15.8724336,32.3816372 15.4883628,32.2068584 15.3525221,31.9502212 C15.254292,31.7652655 15.3162389,31.6320796 15.4764159,31.5475664 L15.5157965,31.5267699 L15.3649115,31.2418142 L15.3290708,31.2603982 C14.9945575,31.4378319 14.8281858,31.7267699 15.0224336,32.0931416 C15.2016372,32.4316372 15.6303982,32.6466814 15.7507522,32.8745575 C15.8321681,33.0276549 15.7494248,33.1214602 15.6140265,33.1931416 L15.7706637,33.4887168 C15.9060619,33.4170354 16.0299558,33.4015487 16.1109292,33.554646 C16.2317257,33.7825221 16.1688938,34.2581858 16.3485398,34.5962389 C16.5423451,34.9630531 16.8657965,34.9878319 17.2073894,34.8068584" id="Fill-29" fill="#393C5B"></path>
                <path d="M4.69765487,38.7874336 C4.75738938,38.5046903 4.74721239,38.2024779 4.83615044,38.0347788 C4.91756637,37.8816814 5.04146018,37.8971681 5.17685841,37.9688496 L5.3330531,37.6732743 C5.19765487,37.6015929 5.11535398,37.5077876 5.19632743,37.3546903 C5.31712389,37.1268142 5.74588496,36.9117699 5.92464602,36.5732743 C6.11889381,36.2064602 5.9529646,35.9179646 5.61845133,35.740531 L5.58261062,35.7219469 L5.43172566,36.0064602 L5.47110619,36.0272566 C5.63128319,36.1122124 5.69278761,36.2453982 5.595,36.430354 C5.45915929,36.6865487 5.07464602,36.8617699 4.9069469,37.1785841 C4.80517699,37.3706195 4.84057522,37.5445133 4.97818584,37.6719469 L4.97420354,37.679469 C4.79721239,37.6263717 4.63172566,37.6984956 4.52774336,37.8940708 C4.4489823,38.0427434 4.42376106,38.2130973 4.40429204,38.3781416 C3.62862832,37.2732743 2.93216814,36.1086726 2.32066372,34.8940708 C4.78570796,40.2281416 9.05340708,44.5582301 14.3432301,47.1011504 C10.5224336,45.1038053 7.22066372,42.2480531 4.69765487,38.7874336" id="Fill-31" fill="#D85959"></path>
                <polygon id="Fill-33" fill="#393C5B" points="7.10234513 29.5464159 6.68420354 30.6340265 6.78464602 30.6340265 7.20411504 29.5464159"></polygon>
                <path d="M2.17110619,31.7339381 C2.15340708,31.7547345 2.13172566,31.7812832 2.10517699,31.8131416 L2.43482301,32.6427876 L2.42376106,32.6565044 L1.54765487,32.4839381 L1.41579646,32.6423451 L2.52553097,32.8317257 L2.62597345,32.7109292 L2.2370354,31.6547345 C2.21048673,31.6865929 2.18880531,31.7126991 2.17110619,31.7339381" id="Fill-35" fill="#393C5B"></path>
                <path d="M18.8714159,28.0039823 C18.8607965,28.0168142 18.8466372,28.0336283 18.8302655,28.0535398 L19.0364602,28.5730088 L19.0293805,28.5814159 L18.4811504,28.4734513 L18.399292,28.5725664 L19.0930973,28.6911504 L19.1563717,28.6154867 L18.9130088,27.9544248 C18.8961947,27.9743363 18.8824779,27.990708 18.8714159,28.0039823" id="Fill-39" fill="#393C5B"></path>
                <polygon id="Fill-41" fill="#393C5B" points="19.7853097 31.8288053 21.1171681 32.4411947 21.289292 32.065531 19.9583186 31.4535841"></polygon>
                <polygon id="Fill-43" fill="#393C5B" points="19.4266814 32.6096018 20.7580973 33.2219912 20.9302212 32.8467699 19.5992478 32.2343805"></polygon>
                <g id="Group-47" transform="translate(0.000000, 4.893363)">
                    <mask id="mask-2" fill="white">
                        <use xlink:href="#path-1"></use>
                    </mask>
                    <g id="Clip-46"></g>
                    <path d="M44.6180973,33.4410177 C43.9380088,34.1215487 42.824292,34.1215487 42.1437611,33.4410177 C41.4636726,32.7604867 41.4636726,31.6472124 42.1437611,30.9666814 L37.2508407,35.8560619 C37.2499558,35.8569469 37.2486283,35.8578319 37.2477434,35.8587168 L44.1685398,28.9374779 C44.8490708,28.2569469 44.8490708,27.1436726 44.1685398,26.4631416 C43.4880088,25.7826106 42.375177,25.7826106 41.694646,26.4631416 L39.1114602,29.0463274 C38.4304867,29.7184513 37.3238496,29.7166814 36.6459735,29.0392478 C35.9654425,28.3587168 35.9654425,27.2454425 36.6459735,26.564469 L36.6442035,26.5631416 L42.0481858,21.1591593 C42.7282743,20.4786283 42.7282743,19.3649115 42.0481858,18.684823 C41.3676549,18.004292 40.2543805,18.004292 39.574292,18.684823 L36.0809292,22.1777434 C36.0765044,22.1671239 36.0716372,22.1565044 36.0672124,22.1454425 L34.7176549,23.495 C34.0375664,24.175531 32.9238496,24.175531 32.2433186,23.495 C31.5632301,22.814469 31.5632301,21.7011947 32.2433186,21.0206637 L40.3030531,12.9609292 C40.7813717,12.2795133 40.7203097,11.3281858 40.1123451,10.7202212 C39.4318142,10.0396903 38.3189823,10.0396903 37.6384513,10.7202212 L29.2291593,19.1295133 C29.2428761,19.1149115 29.2521681,19.0972124 29.2667699,19.0830531 C28.5857965,19.7534071 27.4804867,19.7511947 26.8034956,19.0742035 C26.1229646,18.3936726 26.1229646,17.2803982 26.8034956,16.5998673 L26.8526106,16.5511947 C26.1720796,17.2299558 25.0592478,17.2299558 24.3796018,16.5498673 C23.6990708,15.8693363 23.6990708,14.7560619 24.3796018,14.075531 L22.1030531,16.3427876 C21.4225221,17.0233186 20.3092478,17.0233186 19.6287168,16.3427876 C19.0017257,15.7157965 18.9601327,14.7250885 19.4888938,14.0401327 L30.4716372,3.05738938 C31.1521681,2.37685841 31.1521681,1.26314159 30.4716372,0.583053097 C29.7915487,-0.0974778761 28.6782743,-0.0974778761 27.9973009,0.583053097 L27.345531,1.23482301 C27.3880088,1.18128319 27.4260619,1.1250885 27.4756195,1.07553097 L26.4632301,2.06845133 C26.4464159,2.08659292 26.434469,2.10738938 26.4167699,2.1250885 L21.2326991,7.30871681 C20.5521681,7.98924779 19.4393363,7.98924779 18.7588053,7.30871681 C18.0782743,6.62862832 18.0782743,5.5149115 18.7588053,4.83482301 L19.5459735,4.04146018 C19.5313717,4.05606195 19.5136726,4.06579646 19.4981858,4.08039823 C20.1349115,3.39632743 20.125177,2.31933628 19.4596903,1.65340708 C18.7791593,0.973318584 17.665885,0.973318584 16.985354,1.65340708 L11.1052655,7.53349558 C10.4256195,7.99588496 9.48623894,7.92818584 8.88446903,7.32641593 C8.25128319,6.69323009 8.215,5.68924779 8.7610177,5.00384956 L10.4335841,3.33128319 C11.114115,2.65075221 11.114115,1.53747788 10.4335841,0.856946903 C9.91942478,0.342787611 9.15792035,0.218451327 8.5229646,0.481725664 C3.29597345,5.11314159 -4.42477876e-05,11.875531 -4.42477876e-05,19.4087168 C-4.42477876e-05,20.344115 0.0526106195,21.2671239 0.151283186,22.1759735 C0.765,22.2817257 1.3450885,22.4852655 1.86809735,22.7812832 C1.94641593,22.6383628 2.04464602,22.5034071 2.16544248,22.3826106 C2.84951327,21.6989823 3.95792035,21.6989823 4.64154867,22.3826106 C4.68004425,22.4211062 4.71544248,22.4613717 4.74951327,22.5020796 C5.55924779,22.2038496 6.85128319,22.285708 8.17827434,22.7896903 C8.97075221,23.0910177 9.65393805,23.4967699 10.1627876,23.9365929 C10.5849115,23.675531 11.0880088,23.5994248 11.5579204,23.7073894 C12.2857965,22.9905752 13.4565929,22.9932301 14.1804867,23.7171239 C14.2419912,23.7786283 14.2964159,23.8445575 14.3477434,23.9122566 L24.035354,16.4843805 L28.1826991,20.6498673 L21.9291593,29.0295133 C22.6362389,29.9618142 22.7096903,31.2206637 22.1499558,32.2215487 C22.8335841,32.9511947 22.8207522,34.0963274 22.1083628,34.8087168 C21.9371239,34.9799558 21.7406637,35.1091593 21.5309292,35.1998673 C21.7818142,36.3392478 21.704823,37.3547345 21.3300442,37.9281858 C21.7574779,38.4011947 21.8809292,39.0498673 21.7003982,39.625531 C22.0096903,39.7073894 22.3026106,39.8675664 22.545531,40.1104867 C23.2769469,40.8414602 23.2778319,42.0259735 22.5495133,42.7587168 C22.7278319,43.074646 22.8313717,43.4392478 22.8313717,43.8281858 C22.8313717,44.0861504 22.7813717,44.3308407 22.6986283,44.5600442 C23.5481858,44.645885 24.4096903,44.6901327 25.2818142,44.6901327 C33.5601327,44.6901327 40.9088053,40.7109292 45.5207522,34.5609292 C46.0711947,33.4556195 46.5490708,32.3073894 46.9397788,31.1193363 L44.6180973,33.4410177 Z" id="Fill-45" fill="#393C5B" mask="url(#mask-2)"></path>
                </g>
                <polygon id="Fill-48" fill="#393C5B" points="17.2402212 42.7699558 17.3411062 42.7699558 17.7605752 41.6823451 17.6583628 41.6823451"></polygon>
                <path d="M16.9666814,39.1452212 L16.3626991,38.9465487 L16.3604867,38.9337168 C16.4268584,38.880177 16.484823,38.8332743 16.5339381,38.7938938 C16.5830531,38.7540708 16.6321681,38.7142478 16.6812832,38.6748673 C16.7303982,38.6350442 16.7883628,38.5881416 16.8547345,38.5341593 L16.8286283,38.3899115 L16.2184513,38.9093805 L16.2383628,39.0195575 L16.9932301,39.289469 L16.9666814,39.1452212 Z" id="Fill-50" fill="#393C5B"></path>
                <polygon id="Fill-52" fill="#393C5B" points="17.1438496 41.6823451 16.725708 42.7699558 16.825708 42.7699558 17.2456195 41.6823451"></polygon>
                <path d="M17.2868584,38.3062832 C17.2921681,38.3350442 17.2965929,38.3593805 17.3001327,38.3784071 C17.3036726,38.3974336 17.3080973,38.4213274 17.3134071,38.450531 L17.9169469,38.6492035 L17.9191593,38.6615929 L17.4249115,39.0615929 L17.4514602,39.2058407 L18.0616372,38.6863717 L18.0412832,38.5761947 L17.2868584,38.3062832 Z" id="Fill-54" fill="#393C5B"></path>
                <path d="M18.159292,27.7214159 L18.3225664,27.7537168 C18.3769912,27.7643363 18.4415929,27.7767257 18.5154867,27.7917699 L18.5973451,27.6926549 L17.9030973,27.5740708 L17.8402655,27.649292 L18.0836283,28.3107965 L18.1663717,28.2112389 L17.960177,27.6922124 L17.9668142,27.6838053 C18.040708,27.6979646 18.1048673,27.7107965 18.159292,27.7214159" id="Fill-56" fill="#393C5B"></path>
                <path d="M17.220354,48.4042035 C17.2575221,48.3714602 17.2933628,48.3387168 17.3283186,48.305531 C16.3030973,47.9661504 15.3061947,47.5639381 14.3433628,47.1011062 C15.2734513,47.5869469 16.2327434,48.0236726 17.220354,48.4042035" id="Fill-58" fill="#D85959"></path>
                <path d="M21.1170796,32.4411062 L19.7852212,31.8287168 L19.9582301,31.4534956 L21.289646,32.0654425 L21.1170796,32.4411062 Z M20.7577876,33.2220796 L19.4268142,32.6096903 L19.5989381,32.234469 L20.930354,32.8468584 L20.7577876,33.2220796 Z M19.0931858,28.6911062 L18.3989381,28.5725221 L18.4812389,28.4734071 L19.029469,28.5813717 L19.0365487,28.5729646 L18.830354,28.0534956 C18.8467257,28.0335841 18.8604425,28.0167699 18.8715044,28.0039381 C18.8825664,27.9906637 18.8958407,27.974292 18.9130973,27.9543805 L19.1560177,28.6154425 L19.0931858,28.6911062 Z M18.1661947,28.2114602 L18.0838938,28.3105752 L17.840531,27.6495133 L17.9029204,27.5738496 L18.5976106,27.6924336 L18.5153097,27.7915487 C18.4414159,27.7769469 18.3772566,27.7645575 18.3228319,27.7539381 L18.159115,27.7211947 C18.1046903,27.7110177 18.0409735,27.6981858 17.9670796,27.6835841 L17.96,27.6924336 L18.1661947,28.2114602 Z M17.4515929,39.205708 L17.4250442,39.0614602 L17.9188496,38.6619027 L17.9170796,38.6495133 L17.3130973,38.4503982 C17.3082301,38.4216372 17.3038053,38.3973009 17.3002655,38.3782743 C17.2967257,38.3592478 17.2918584,38.335354 17.2869912,38.3061504 L18.0414159,38.5760619 L18.0617699,38.6862389 L17.4515929,39.205708 Z M17.3409735,42.7698673 L17.2400885,42.7698673 L17.6586726,41.6822566 L17.7604425,41.6822566 L17.3409735,42.7698673 Z M16.7254867,42.7698673 L17.1440708,41.6822566 L17.2458407,41.6822566 L16.8259292,42.7698673 L16.7254867,42.7698673 Z M16.2184071,38.9096903 L16.8285841,38.3902212 L16.8546903,38.534469 C16.7883186,38.5880088 16.730354,38.6349115 16.6816814,38.6747345 C16.6321239,38.714115 16.5830088,38.7539381 16.5343363,38.7937611 C16.4847788,38.8331416 16.4268142,38.8800442 16.3604425,38.9340265 L16.3626549,38.9464159 L16.9666372,39.1450885 L16.9931858,39.2897788 L16.2383186,39.0198673 L16.2184071,38.9096903 Z M15.7706195,33.4888938 L15.6139823,33.1933186 C15.7493805,33.1216372 15.8321239,33.0278319 15.750708,32.8747345 C15.630354,32.6468584 15.2015929,32.4318142 15.0223894,32.0933186 C14.8281416,31.7265044 14.9945133,31.4380088 15.3290265,31.2605752 L15.3648673,31.2419912 L15.5157522,31.5269469 L15.4763717,31.5473009 C15.3161947,31.6322566 15.2542478,31.7654425 15.3524779,31.9503982 C15.4883186,32.2065929 15.8723894,32.3813717 16.040531,32.6986283 C16.1423009,32.8906637 16.1069027,33.0645575 15.969292,33.1919912 L15.9728319,33.1990708 C16.149823,33.1464159 16.3157522,33.2180973 16.4197345,33.414115 C16.5874336,33.7309292 16.5144248,34.1437611 16.6515929,34.4034956 C16.7400885,34.5707522 16.8874336,34.6163274 17.0515929,34.5291593 C17.0799115,34.514115 17.0918584,34.5030531 17.0918584,34.5030531 L17.2427434,34.7880088 L17.2073451,34.8070354 C16.8657522,34.9875664 16.5423009,34.9627876 16.3484956,34.5964159 C16.1688496,34.2579204 16.2316814,33.7826991 16.1113274,33.554823 C16.0299115,33.4017257 15.9060177,33.4172124 15.7706195,33.4888938 L15.7706195,33.4888938 Z M13.2560177,41.745531 L11.1400885,40.7729646 L11.4144248,40.1760619 L13.530354,41.1490708 L13.2560177,41.745531 Z M12.6856637,42.9866814 L10.5697345,42.0136726 L10.8436283,41.4172124 L12.9595575,42.3902212 L12.6856637,42.9866814 Z M10.4343363,35.9539381 C10.6206195,36.0026106 10.7706195,35.9787168 10.8989381,35.8119027 L10.8918584,35.8012832 C10.8639823,35.804823 10.8369912,35.7959735 10.8122124,35.7818142 C10.7051327,35.7203097 10.6613274,35.5588053 10.7400885,35.4220796 C10.8126549,35.295531 10.9768142,35.2468584 11.1135398,35.3256195 C11.3038053,35.4349115 11.3104425,35.6265044 11.1754867,35.8610177 C11.0330088,36.1096903 10.6931858,36.2711947 10.3914159,36.1304867 L10.4343363,35.9539381 Z M11.6551327,33.8065929 C11.7423009,33.655708 11.9387611,33.6061504 12.0900885,33.6933186 C12.2409735,33.7800442 12.2980531,33.9747345 12.2113274,34.1265044 C12.1215044,34.2822566 11.9246018,34.3313717 11.7732743,34.244646 C11.6219469,34.1574779 11.5653097,33.9627876 11.6551327,33.8065929 L11.6551327,33.8065929 Z M7.29938053,30.6340265 L7.19849558,30.6340265 L7.61707965,29.5464159 L7.71929204,29.5464159 L7.29938053,30.6340265 Z M6.68389381,30.6340265 L7.10247788,29.5464159 L7.20424779,29.5464159 L6.78433628,30.6340265 L6.68389381,30.6340265 Z M2.52548673,32.8318142 L1.41575221,32.6424336 L1.54761062,32.4840265 L2.42371681,32.6565929 L2.43477876,32.6428761 L2.10513274,31.8132301 C2.13168142,31.7813717 2.15380531,31.754823 2.17106195,31.7340265 C2.18876106,31.7127876 2.21044248,31.6862389 2.23699115,31.654823 L2.6259292,32.7110177 L2.52548673,32.8318142 Z M22.5493805,47.6517257 C23.2776991,46.9194248 23.2768142,45.7349115 22.5458407,45.0039381 C22.3029204,44.7610177 22.01,44.6003982 21.7002655,44.5185398 C21.8812389,43.9433186 21.7573451,43.294646 21.3299115,42.8211947 C21.7046903,42.2481858 21.7816814,41.2326991 21.5312389,40.0928761 C21.740531,40.0026106 21.9374336,39.8729646 22.1082301,39.7021681 C22.8210619,38.9897788 22.8334513,37.844646 22.149823,37.115 C22.71,36.114115 22.6365487,34.8552655 21.9290265,33.9229646 L28.1830088,25.5433186 L24.0356637,21.3778319 L14.3476106,28.805708 C14.2962832,28.7380088 14.2418584,28.6720796 14.180354,28.6105752 C13.4569027,27.8866814 12.2856637,27.8840265 11.5577876,28.6008407 C11.0878761,28.4928761 10.5847788,28.5689823 10.1626549,28.8300442 C9.65424779,28.3902212 8.97061947,27.984469 8.17814159,27.6831416 C6.85115044,27.1787168 5.55911504,27.0973009 4.74982301,27.395531 C4.71575221,27.3543805 4.68035398,27.3145575 4.64185841,27.2760619 C3.95778761,26.5924336 2.84938053,26.5924336 2.16530973,27.2760619 C2.04451327,27.3968584 1.94628319,27.5318142 1.8679646,27.6747345 C1.34495575,27.3787168 0.764867257,27.175177 0.15159292,27.0694248 C0.30159292,28.4486283 0.562212389,29.794646 0.925044248,31.0981858 L1.73345133,31.2362389 L1.6020354,31.394646 C1.48345133,31.3711947 1.38123894,31.3512832 1.2940708,31.3340265 C1.20690265,31.3167699 1.12017699,31.2995133 1.03300885,31.2822566 C1.01486726,31.2791593 0.993628319,31.2747345 0.973274336,31.2707522 C1.33079646,32.5211947 1.78345133,33.7309292 2.32106195,34.8937611 C2.93212389,36.1088053 3.62858407,37.2729646 4.40424779,38.3782743 C4.42371681,38.2127876 4.44893805,38.0428761 4.52769912,37.8942035 C4.63168142,37.6981858 4.79716814,37.6265044 4.97460177,37.6791593 L4.97814159,37.6720796 C4.84053097,37.544646 4.80513274,37.3707522 4.90690265,37.1787168 C5.07460177,36.8619027 5.45911504,36.6866814 5.59495575,36.4304867 C5.69274336,36.245531 5.63123894,36.1123451 5.47106195,36.0273894 L5.43168142,36.0065929 L5.58256637,35.7220796 L5.61840708,35.7406637 C5.95292035,35.9180973 6.11884956,36.2065929 5.92504425,36.5734071 C5.74584071,36.9119027 5.31707965,37.1269469 5.19672566,37.354823 C5.11530973,37.5079204 5.19761062,37.6017257 5.33300885,37.6734071 L5.17681416,37.9689823 C5.04141593,37.8973009 4.91752212,37.8818142 4.83610619,38.0349115 C4.74716814,38.2026106 4.75734513,38.504823 4.69761062,38.7875664 C7.22061947,42.2481858 10.5223894,45.1039381 14.3431858,47.1012832 C15.3060177,47.5636726 16.3029204,47.965885 17.3281416,48.305708 C17.4604425,48.1809292 17.5759292,48.0539381 17.6502655,47.9136726 C17.8316814,47.5703097 17.7170796,47.3238496 17.4206195,47.1663274 L17.3476106,47.1278319 L17.6272566,46.5995133 L17.6936283,46.634469 C18.3139823,46.9632301 18.6223894,47.4986283 18.2622124,48.1787168 C18.1967257,48.3026106 18.109115,48.4145575 18.0148673,48.5216372 C19.5223894,48.9734071 21.0878761,49.2897788 22.6984956,49.4534956 C22.7816814,49.224292 22.8312389,48.9791593 22.8312389,48.7216372 C22.8312389,48.3326991 22.7281416,47.9680973 22.5493805,47.6517257 L22.5493805,47.6517257 Z" id="Fill-60" fill="#D85959"></path>
                <path d="M11.1755752,35.8607965 C11.310531,35.6267257 11.3038938,35.4346903 11.1131858,35.3253982 C10.9769027,35.2470796 10.8127434,35.2953097 10.740177,35.4223009 C10.6614159,35.5585841 10.7052212,35.7200885 10.8123009,35.7815929 C10.8366372,35.7957522 10.8640708,35.8050442 10.8915044,35.8015044 L10.8990265,35.8121239 C10.770708,35.9784956 10.620708,36.0023894 10.4344248,35.9537168 L10.3915044,36.1302655 C10.6932743,36.2714159 11.0330973,36.109469 11.1755752,35.8607965" id="Fill-62" fill="#C64242"></path>
                <path d="M11.7731858,34.244469 C11.9245133,34.3311947 12.1214159,34.2820796 12.2112389,34.1263274 C12.2984071,33.975 12.2413274,33.7803097 12.09,33.6931416 C11.9386726,33.6064159 11.7422124,33.655531 11.6550442,33.8068584 C11.5652212,33.9626106 11.6218584,34.1577434 11.7731858,34.244469" id="Fill-64" fill="#C64242"></path>
                <path d="M18.2621239,48.1788496 C18.6223009,47.4987611 18.3138938,46.9633628 17.6935398,46.6346018 L17.6271681,46.599646 L17.3479646,47.1279646 L17.420531,47.1660177 C17.7174336,47.3235398 17.8315929,47.5704425 17.650177,47.9138053 C17.5559292,48.0912389 17.3979646,48.2474336 17.220531,48.4040708 C17.4444248,48.4907965 17.6700885,48.5739823 17.8975221,48.6545133 C18.0395575,48.509823 18.169646,48.3540708 18.2621239,48.1788496" id="Fill-66" fill="#C64242"></path>
                <path d="M17.2073894,34.8068584 L17.2427876,34.7878319 L17.0919027,34.5028761 C17.0919027,34.5028761 17.0799558,34.5139381 17.0511947,34.5294248 C16.8874779,34.6161504 16.7401327,34.5705752 16.6516372,34.4033186 C16.514469,34.1435841 16.5874779,33.7307522 16.4197788,33.4139381 C16.3157965,33.2183628 16.1498673,33.1466814 15.9728761,33.1993363 L15.9693363,33.1922566 C16.1069469,33.0643805 16.1423451,32.8904867 16.0405752,32.6984513 C15.8724336,32.3816372 15.4883628,32.2068584 15.3525221,31.9502212 C15.254292,31.7652655 15.3162389,31.6320796 15.4764159,31.5475664 L15.5157965,31.5267699 L15.3649115,31.2418142 L15.3290708,31.2603982 C14.9945575,31.4378319 14.8281858,31.7267699 15.0224336,32.0931416 C15.2016372,32.4316372 15.6303982,32.6466814 15.7507522,32.8745575 C15.8321681,33.0276549 15.7494248,33.1214602 15.6140265,33.1931416 L15.7706637,33.4887168 C15.9060619,33.4170354 16.0299558,33.4015487 16.1109292,33.554646 C16.2317257,33.7825221 16.1688938,34.2581858 16.3485398,34.5962389 C16.5423451,34.9630531 16.8657965,34.9878319 17.2073894,34.8068584" id="Fill-68" fill="#C64242"></path>
                <path d="M4.83637168,38.0347345 C4.91734513,37.8816372 5.04123894,37.8971239 5.17663717,37.9688053 L5.33327434,37.6732301 C5.19787611,37.6015487 5.11513274,37.5077434 5.19654867,37.354646 C5.31690265,37.1267699 5.74566372,36.9117257 5.92486726,36.5732301 C6.11911504,36.2068584 5.95274336,35.9179204 5.61823009,35.7409292 L5.58283186,35.7219027 L5.4319469,36.0068584 L5.47088496,36.0276549 C5.63106195,36.1121681 5.69300885,36.245354 5.59477876,36.4307522 C5.45893805,36.6869469 5.07486726,36.8617257 4.90672566,37.1785398 C4.80495575,37.3710177 4.84035398,37.5449115 4.9779646,37.6723451 L4.97442478,37.6794248 C4.79743363,37.6267699 4.63150442,37.6984513 4.5279646,37.8940265 C4.44920354,38.0431416 4.42353982,38.2130531 4.4040708,38.3780973 C4.50097345,38.515708 4.59876106,38.6519912 4.69787611,38.7873894 C4.75761062,38.504646 4.74743363,38.2024336 4.83637168,38.0347345" id="Fill-70" fill="#C64242"></path>
                <polygon id="Fill-72" fill="#C64242" points="10.5697788 42.0137611 12.685708 42.9867699 12.9596018 42.3903097 10.8436726 41.4173009"></polygon>
                <polygon id="Fill-74" fill="#C64242" points="11.1401327 40.7727434 13.2560619 41.7457522 13.5303982 41.149292 11.414469 40.1762832"></polygon>
                <polygon id="Fill-76" fill="#C64242" points="19.7857522 31.8288053 21.1171681 32.4411947 21.289292 32.065531 19.9583186 31.4535841"></polygon>
                <polygon id="Fill-78" fill="#C64242" points="19.4266814 32.6096018 20.7580973 33.2219912 20.9302212 32.8467699 19.5992478 32.2343805"></polygon>
                <path d="M16.9666814,39.1452212 L16.3626991,38.9465487 L16.3604867,38.9337168 C16.4268584,38.880177 16.484823,38.8332743 16.5339381,38.7938938 C16.5830531,38.7540708 16.6321681,38.7142478 16.6812832,38.6748673 C16.7303982,38.6350442 16.7883628,38.5881416 16.8547345,38.5341593 L16.8286283,38.3899115 L16.2184513,38.9093805 L16.2383628,39.0195575 L16.9932301,39.289469 L16.9666814,39.1452212 Z" id="Fill-80" fill="#C64242"></path>
                <path d="M17.2868584,38.3062832 C17.2921681,38.3350442 17.2965929,38.3593805 17.3001327,38.3784071 C17.3036726,38.3974336 17.3080973,38.4213274 17.3134071,38.450531 L17.9169469,38.6492035 L17.9191593,38.6615929 L17.4249115,39.0615929 L17.4514602,39.2058407 L18.0616372,38.6863717 L18.0412832,38.5761947 L17.2868584,38.3062832 Z" id="Fill-82" fill="#C64242"></path>
                <path d="M2.17110619,31.7339381 C2.15340708,31.7547345 2.13172566,31.7812832 2.10517699,31.8131416 L2.43482301,32.6427876 L2.42376106,32.6565044 L1.54765487,32.4839381 L1.41579646,32.6423451 L2.52553097,32.8317257 L2.62597345,32.7109292 L2.2370354,31.6547345 C2.21048673,31.6865929 2.18880531,31.7126991 2.17110619,31.7339381" id="Fill-86" fill="#C64242"></path>
                <path d="M18.159292,27.7214159 L18.3225664,27.7537168 C18.3769912,27.7643363 18.4415929,27.7767257 18.5154867,27.7917699 L18.5973451,27.6926549 L17.9035398,27.5740708 L17.8402655,27.6497345 L18.0836283,28.3107965 L18.1663717,28.2112389 L17.960177,27.6922124 L17.9668142,27.6838053 C18.040708,27.6979646 18.1048673,27.7107965 18.159292,27.7214159" id="Fill-88" fill="#C64242"></path>
                <path d="M18.8714159,28.0039823 C18.8607965,28.0168142 18.8466372,28.0336283 18.8302655,28.0535398 L19.0364602,28.5730088 L19.0293805,28.5814159 L18.4811504,28.4734513 L18.399292,28.5725664 L19.0930973,28.6911504 L19.1563717,28.6154867 L18.9130088,27.9544248 C18.8961947,27.9743363 18.8824779,27.990708 18.8714159,28.0039823" id="Fill-90" fill="#C64242"></path>
                <polygon id="Fill-92" fill="#C64242" points="17.1438496 41.6823451 16.725708 42.7699558 16.825708 42.7699558 17.2456195 41.6823451"></polygon>
                <polygon id="Fill-94" fill="#C64242" points="17.2402212 42.7699558 17.3411062 42.7699558 17.7605752 41.6823451 17.6583628 41.6823451"></polygon>
                <polygon id="Fill-96" fill="#C64242" points="7.10234513 29.5464159 6.68420354 30.6340265 6.78464602 30.6340265 7.20411504 29.5464159"></polygon>
                <polygon id="Fill-98" fill="#C64242" points="7.19867257 30.6338053 7.29955752 30.6338053 7.71902655 29.5461947 7.61725664 29.5461947"></polygon>
                <path d="M37.1966372,30.9038496 C36.5161062,31.5843805 35.4028319,31.5843805 34.7223009,30.9038496 C34.0417699,30.2233186 34.0417699,29.1100442 34.7223009,28.4295133 L36.8975221,26.254292" id="Fill-100" fill="#393C5B"></path>
                <path d="M43.3684513,9.87685841 C43.3688938,9.87641593 43.3693363,9.87597345 43.3697788,9.87553097 C43.3662389,9.87862832 43.3618142,9.88084071 43.3587168,9.88438053 L42.0998673,11.1432301 C42.1003097,11.1436726 42.1003097,11.144115 42.1007522,11.1445575 L43.3684513,9.87685841 Z" id="Fill-102" fill="#FFFFFF"></path>
                <path d="M42.1006195,11.144469 C42.100177,11.1440265 42.100177,11.1435841 42.0997345,11.1435841 L29.2683186,23.975 C29.2674336,23.9754425 29.2674336,23.975885 29.2665487,23.9763274 C29.2700885,23.9732301 29.2745133,23.9710177 29.2780531,23.9674779 L42.1006195,11.144469 Z" id="Fill-104" fill="#FFFFFF"></path>
                <path d="M35.6082301,2.09075221 C35.6082301,3.05889381 34.8237168,3.84384956 33.8551327,3.84384956 C32.8869912,3.84384956 32.1020354,3.05889381 32.1020354,2.09075221 C32.1020354,1.12261062 32.8869912,0.337654867 33.8551327,0.337654867 C34.8237168,0.337654867 35.6082301,1.12261062 35.6082301,2.09075221" id="Fill-110" fill="#393C5B"></path>
                <path d="M49.1219469,28.1409735 C49.1219469,29.109115 48.3374336,29.8940708 47.3688496,29.8940708 C46.400708,29.8940708 45.6157522,29.109115 45.6157522,28.1409735 C45.6157522,27.1728319 46.400708,26.3878761 47.3688496,26.3878761 C48.3374336,26.3878761 49.1219469,27.1728319 49.1219469,28.1409735" id="Fill-112" fill="#393C5B"></path>
                <path d="M16.0873451,1.75349558 C16.0873451,2.72163717 15.3028319,3.50659292 14.3342478,3.50659292 C13.3661062,3.50659292 12.580708,2.72163717 12.580708,1.75349558 C12.580708,0.785353982 13.3661062,0.000398230088 14.3342478,0.000398230088 C15.3028319,0.000398230088 16.0873451,0.785353982 16.0873451,1.75349558" id="Fill-114" fill="#393C5B"></path>
                <path d="M41.2636283,7.51066372 C41.1667257,7.5889823 41.0826549,7.65712389 41.0114159,7.71464602 C40.9397345,7.77261062 40.8680531,7.83013274 40.7968142,7.88809735 C40.7255752,7.94561947 40.6415044,8.01376106 40.5446018,8.09207965 L40.5481416,8.11022124 L41.4260177,8.39960177 L41.4640708,8.60933628 L40.3671681,8.21685841 L40.3375221,8.05623894 L41.2251327,7.3009292 L41.2636283,7.51066372 Z" id="Fill-120" fill="#454F87"></path>
                <path d="M41.9303982,7.38880531 C41.9224336,7.34676991 41.9162389,7.31181416 41.9113717,7.28393805 C41.9060619,7.25606195 41.8998673,7.22110619 41.8919027,7.1790708 L42.9896903,7.57154867 L43.0188938,7.73172566 L42.1312832,8.4870354 L42.0927876,8.27730088 L42.8118142,7.69588496 L42.8082743,7.67818584 L41.9303982,7.38880531 Z" id="Fill-122" fill="#454F87"></path>
                <path d="M33.1983628,27.5837611 C33.1983628,28.0350885 32.8328761,28.4005752 32.3815487,28.4005752 C31.9306637,28.4005752 31.565177,28.0350885 31.565177,27.5837611 C31.565177,27.1324336 31.9306637,26.7669469 32.3815487,26.7669469 C32.8328761,26.7669469 33.1983628,27.1324336 33.1983628,27.5837611" id="Fill-124" fill="#262C4F"></path>
                <path d="M43.0339823,11.7453097 C43.0485841,11.6727434 43.0627434,11.600177 43.0769027,11.5267257 L43.0684956,11.5249558 C43.1684956,11.1829204 43.3357522,9.89973451 43.3795575,9.40371681 C43.5145133,7.88823009 43.390177,6.92761062 43.010531,6.5479646 C42.1454867,5.68336283 38.449469,6.39752212 38.0269027,6.48247788 L37.8543363,6.52185841 C37.8499115,6.52274336 37.8450442,6.52362832 37.8410619,6.52495575 C38.2830973,7.70858407 39.689292,10.6479646 43.0339823,11.7453097" id="Fill-130" fill="#FFFFFF"></path>
                <polygon id="Fill-132" fill="#A2C7F4" points="33.5902655 23.7639381 32.2039823 25.1502212 34.5384956 27.4847345"></polygon>
                <polygon id="Fill-134" fill="#A2C7F4" points="32.0070354 17.550885 25.5008407 15.8752212 24.215 17.1610619 31.7888938 24.7353982 33.4216372 23.1022124"></polygon>
                <polygon id="Fill-136" fill="#A2C7F4" points="22.0365929 14.9828761 23.7994248 16.7461504 24.8405752 15.705"></polygon>
                <path d="M34.8278319,27.7944248 L33.7579204,23.5961947 L33.674292,23.6802655 L34.7287168,27.819646 L32.1313717,25.2227434 L32.0592478,25.2948673 L34.6565929,27.8917699 C34.6893363,27.9245133 34.7393363,27.9311504 34.7796018,27.9085841 C34.8189823,27.8855752 34.8388938,27.839115 34.8278319,27.7944248" id="Fill-138" fill="#101338"></path>
                <path d="M32.0913274,17.4670354 L33.5054867,23.0183628 L33.5895575,22.934292 L32.1904425,17.4418142 C32.180708,17.4059735 32.1528319,17.3776549 32.1169912,17.3683628 L25.6683186,15.7073009 L25.5846903,15.7913717 L32.0913274,17.4670354 Z" id="Fill-140" fill="#101338"></path>
                <path d="M21.7,14.7907965 L24.9243363,15.6213274 L25.0084071,15.5372566 L21.7256637,14.6916814 C21.6809735,14.680177 21.6345133,14.7000885 21.6115044,14.740354 C21.5884956,14.780177 21.5955752,14.8306195 21.6278761,14.8629204 L23.6553097,16.8907965 L23.7274336,16.8182301 L21.7,14.7907965 Z" id="Fill-142" fill="#101338"></path>
                <polygon id="Fill-144" fill="#101338" points="24.1426991 17.2334956 24.0705752 17.3056195 31.644469 24.8795133 31.7165929 24.8073894"></polygon>
                <polygon id="Fill-146" fill="#101338" points="34.5383186 27.4846018 32.2042478 25.150531 32.1316814 25.2226549 34.7290265 27.8195575 33.6741593 23.680177 33.5900885 23.7638053"></polygon>
                <polygon id="Fill-148" fill="#101338" points="22.0365929 14.9828761 24.8405752 15.705 24.9242035 15.6213717 21.6998673 14.7908407 23.7273009 16.8182743 23.7994248 16.7461504"></polygon>
                <polygon id="Fill-150" fill="#101338" points="24.1426991 17.2334956 31.7165929 24.8073894 31.7887168 24.7352655 24.214823 17.1609292"></polygon>
                <polygon id="Fill-152" fill="#101338" points="32.0070354 17.550885 33.4216372 23.1022124 33.505708 23.0185841 32.0911062 17.4672566 25.584469 15.7911504 25.5008407 15.8752212"></polygon>
                <polygon id="Fill-154" fill="#82AEDB" points="33.4217699 23.1023894 31.7890265 24.7351327 32.2040708 25.150177 33.590354 23.7638938"></polygon>
                <polygon id="Fill-158" fill="#06091C" points="32.2040708 25.150354 31.7890265 24.7353097 31.7164602 24.8074336 31.6443363 24.8795575 32.0593805 25.2946018 32.1315044 25.2224779"></polygon>
                <polygon id="Fill-160" fill="#82AEDB" points="23.7996018 16.7461062 24.214646 17.1611504 25.5009292 15.8753097 24.8407522 15.7049558"></polygon>
                <polygon id="Fill-162" fill="#06091C" points="23.7996018 16.7461062 23.7274779 16.8182301 23.655354 16.8907965 24.0703982 17.3058407 24.1425221 17.2337168 24.214646 17.1611504"></polygon>
                <path d="M41.8638496,14.504115 C42.5235841,13.7620796 42.7912832,12.9027876 42.9930531,11.9461504 C41.6501327,11.5098673 40.6094248,10.785531 39.8147345,9.99039823 C38.5594248,8.7350885 37.9134071,7.30765487 37.6403982,6.57048673 C36.6992478,6.78597345 35.8120796,7.02181416 35.054115,7.69438053 C35.0395133,7.70146018 35.0257965,7.71119469 35.0134071,7.72358407 L22.7682743,19.9691593 C22.7080973,20.0288938 22.7080973,20.1257965 22.7682743,20.185531 L29.3731416,26.7903982 C29.4324336,26.8501327 29.5297788,26.8501327 29.5895133,26.7903982 L41.834646,14.5452655 C41.8470354,14.5328761 41.8567699,14.5191593 41.8638496,14.504115" id="Fill-166" fill="#FFFFFF"></path>
                <path d="M36.6534956,6.82920354 C36.6534956,6.82920354 38.1265044,11.4274336 42.7415487,12.9172566 L43.0296018,11.909292 C43.0296018,11.909292 39.8234071,11.3544248 37.6402212,6.57035398 L36.6534956,6.82920354 Z" id="Fill-168" fill="#A2C7F4"></path>
                <path d="M43.040885,11.4907965 L43.0324779,11.4890265 C43.1324779,11.1469912 43.300177,9.86380531 43.3444248,9.36778761 C43.4784956,7.85274336 43.3541593,6.89168142 42.9749558,6.5120354 C42.8895575,6.42752212 42.7771681,6.3580531 42.6439823,6.30141593 C42.8537168,6.79566372 42.9076991,7.64035398 42.8028319,8.82619469 C42.7585841,9.32265487 42.590885,10.6058407 42.4913274,10.9478761 L42.499292,10.9492035 C42.4510619,11.2023009 42.4006195,11.4487611 42.3439823,11.689469 C42.6386726,11.8115929 42.8546018,11.8713274 42.959469,11.8965487 C42.9877876,11.7629204 43.0143363,11.6279646 43.040885,11.4907965" id="Fill-170" fill="#EDEDED"></path>
                <path d="M41.8279646,14.4684513 C42.2500885,13.9932301 42.5115929,13.4702212 42.6983186,12.9047345 C42.4739823,12.8308407 42.2576106,12.7498673 42.0483186,12.6622566 C41.870885,13.1140265 41.6337168,13.5370354 41.2863717,13.9268584 C41.2797345,13.9419027 41.2695575,13.9556195 41.2576106,13.9680088 L29.0120354,26.2131416 C28.9523009,26.2728761 28.8553982,26.2728761 28.7956637,26.2131416 L29.3372566,26.7547345 C29.3965487,26.814469 29.4938938,26.814469 29.5536283,26.7547345 L41.7992035,14.5091593 C41.8111504,14.4967699 41.820885,14.4830531 41.8279646,14.4684513" id="Fill-172" fill="#EDEDED"></path>
                <path d="M42.9596903,11.8963274 C42.854823,11.8711062 42.6384513,11.8118142 42.3437611,11.6892478 C42.264115,12.0268584 42.1707522,12.3516372 42.0481858,12.6622566 C42.2574779,12.7498673 42.4738496,12.8308407 42.6981858,12.9047345 C42.8043805,12.5821681 42.8866814,12.245885 42.9596903,11.8963274" id="Fill-176" fill="#589ADB"></path>
                <path d="M38.0535398,15.2084513 C37.030531,16.2314602 35.3725664,16.2314602 34.35,15.2084513 C33.3269912,14.1854425 33.3269912,12.5274779 34.35,11.5049115 C35.3725664,10.4819027 37.030531,10.4819027 38.0535398,11.5049115 C39.0765487,12.5274779 39.0765487,14.1854425 38.0535398,15.2084513" id="Fill-178" fill="#A2C7F4"></path>
                <path d="M38.0716814,11.5227876 C37.9982301,11.4493363 37.9212389,11.3820796 37.8420354,11.3192478 C38.6553097,12.3471239 38.5880531,13.8440265 37.6384956,14.7935841 C36.6889381,15.7426991 35.1924779,15.8099558 34.1646018,14.9971239 C34.2274336,15.0763274 34.2946903,15.1533186 34.3681416,15.2267699 C35.390708,16.2493363 37.0486726,16.2493363 38.0716814,15.2267699 C39.0946903,14.2037611 39.0946903,12.5457965 38.0716814,11.5227876" id="Fill-180" fill="#589ADB"></path>
                <path d="M37.9813717,11.5769912 C36.9999558,10.5955752 35.4034956,10.5955752 34.4220796,11.5769912 C33.4406637,12.5584071 33.4406637,14.1548673 34.4220796,15.1362832 C35.4034956,16.1176991 36.9999558,16.1176991 37.9813717,15.1362832 C38.9627876,14.1548673 38.9627876,12.5584071 37.9813717,11.5769912 M34.2778319,15.280531 C33.2167699,14.2199115 33.2167699,12.4933628 34.2778319,11.4327434 C35.3384513,10.3716814 37.065,10.3716814 38.1256195,11.4327434 C39.1866814,12.4933628 39.1866814,14.2199115 38.1256195,15.280531 C37.065,16.3415929 35.3384513,16.3415929 34.2778319,15.280531" id="Fill-182" fill="#101338"></path>
                <path d="M25.6365044,14.7523451 C26.1949115,14.1943805 26.1949115,13.2890708 25.6365044,12.7311062 C25.0780973,12.1731416 24.1732301,12.1731416 23.6152655,12.7311062 L20.1506637,16.1961504 L22.1714602,18.2173894 L25.6365044,14.7523451 Z" id="Fill-184" fill="#FFFFFF"></path>
                <polygon id="Fill-186" fill="#A2C7F4" points="22.165354 18.2234513 20.1445575 16.2022124 21.0104867 15.3358407 23.0317257 17.3570796"></polygon>
                <path d="M20.2947788,16.1962389 L22.1713274,18.0732301 L25.5642478,14.6803097 C26.0819469,14.1626106 26.0819469,13.3205752 25.5642478,12.8033186 C25.0469912,12.2860619 24.2049558,12.2860619 23.6872566,12.8033186 L20.2947788,16.1962389 Z M22.0992035,18.2896018 L20.0779646,16.2683628 C20.0381416,16.2285398 20.0381416,16.1639381 20.0779646,16.124115 L23.5430088,12.6590708 C24.1399115,12.0617257 25.1115929,12.0617257 25.7084956,12.6590708 C26.3058407,13.2559735 26.3058407,14.2276549 25.7084956,14.8245575 L22.2434513,18.2896018 C22.2036283,18.3294248 22.1390265,18.3294248 22.0992035,18.2896018 L22.0992035,18.2896018 Z" id="Fill-188" fill="#101338"></path>
                <path d="M36.7887611,25.9043805 C37.3467257,25.3464159 37.3467257,24.4411062 36.7887611,23.8831416 C36.230354,23.325177 35.3254867,23.325177 34.7675221,23.8831416 L31.3024779,27.3481858 L33.3237168,29.3694248 L36.7887611,25.9043805 Z" id="Fill-190" fill="#FFFFFF"></path>
                <polygon id="Fill-192" fill="#A2C7F4" points="33.3176106 29.3754867 31.2963717 27.3542478 32.1627434 26.4878761 34.1835398 28.509115"></polygon>
                <path d="M31.4465929,27.3482743 L33.3235841,29.2252655 L36.7165044,25.8323451 C37.2337611,25.314646 37.2337611,24.4726106 36.7165044,23.955354 C36.1988053,23.4380973 35.3572124,23.4380973 34.8395133,23.955354 L31.4465929,27.3482743 Z M33.2514602,29.4416372 L31.2302212,27.4203982 C31.1903982,27.3805752 31.1903982,27.3159735 31.2302212,27.2761504 L34.6952655,23.8111062 C35.2921681,23.2137611 36.2638496,23.2137611 36.8607522,23.8111062 C37.4576549,24.4080088 37.4576549,25.3796903 36.8607522,25.9765929 L33.395708,29.4416372 C33.355885,29.4814602 33.2912832,29.4814602 33.2514602,29.4416372 L33.2514602,29.4416372 Z" id="Fill-194" fill="#101338"></path>
                <path d="M22.2228319,22.4773451 C22.0343363,22.6769027 22.0378761,22.9928319 22.2330088,23.1879646 L26.4219469,27.3769027 C26.6175221,27.5720354 26.9334513,27.5755752 27.1330088,27.3875221 L27.6533628,26.370708 L23.239646,21.9565487 L22.2228319,22.4773451 Z" id="Fill-196" fill="#A2C7F4"></path>
                <path d="M27.2162832,27.4489381 C26.9777876,27.6874336 26.5879646,27.6874336 26.3499115,27.4489381 L22.1609735,23.2604425 C21.9229204,23.0219469 21.9229204,22.6321239 22.1609735,22.3940708 L23.1636283,21.8807965 L23.0879646,21.8046903 L22.1149558,22.3033628 C22.1052212,22.3077876 22.0968142,22.3144248 22.0888496,22.3219469 C21.810531,22.6002655 21.8100885,23.0538053 22.0888496,23.3325664 L26.2777876,27.5210619 C26.5565487,27.799823 27.009646,27.799823 27.2884071,27.5210619 C27.2959292,27.5135398 27.3021239,27.5051327 27.3069912,27.4953982 L27.8052212,26.5223894 L27.7295575,26.4462832 L27.2162832,27.4489381 Z" id="Fill-198" fill="#101338"></path>
                <path d="M27.1328761,27.3876106 C26.9333186,27.5756637 26.6173894,27.5721239 26.4222566,27.3769912 L22.2333186,23.1880531 C22.0377434,22.9929204 22.034646,22.6769912 22.2226991,22.4774336 L23.2395133,21.9566372 L23.1634071,21.880531 L22.1611947,22.3942478 C21.9231416,22.6323009 21.9231416,23.0221239 22.1611947,23.260177 L26.3496903,27.449115 C26.5881858,27.6871681 26.9775664,27.6871681 27.2160619,27.449115 L27.7297788,26.4464602 L27.6536726,26.3707965 L27.1328761,27.3876106 Z" id="Fill-200" fill="#101338"></path>
                <path d="M23.2396018,21.9564159 L27.6537611,26.3705752 L27.8834071,25.9223451 C27.9462389,25.7803097 27.9896018,25.6683628 28.0117257,25.5736726 L24.034292,21.5962389 C23.9378319,21.6165929 23.8245575,21.6603982 23.6860619,21.7276549 L23.2396018,21.9564159 Z" id="Fill-202" fill="#82AEDB"></path>
                <path d="M42.9929204,11.9462389 C43.0066372,11.8798673 43.020354,11.8126106 43.0340708,11.745354 C39.6893805,10.6480088 38.2827434,7.70862832 37.840708,6.525 C37.7738938,6.54004425 37.7070796,6.5550885 37.6402655,6.57057522 C37.9137168,7.30774336 38.559292,8.73517699 39.8146018,9.99048673 C40.609292,10.785177 41.65,11.5099558 42.9929204,11.9462389" id="Fill-212" fill="#101338"></path>
                <path d="M38.6541593,6.4710177 C38.5838053,6.4829646 38.5152212,6.4949115 38.4475221,6.50685841 C38.7930973,7.28960177 39.4059292,8.39800885 40.4063717,9.39889381 C41.090885,10.0834071 41.9576991,10.7152655 43.0426549,11.1559735 C43.0541593,11.0918142 43.0661062,11.0232301 43.0776106,10.9497788 C40.5293805,9.89535398 39.229823,7.7550885 38.6541593,6.4710177" id="Fill-214" fill="#101338"></path>
                <path d="M42.9380531,6.6200885 C43.1840708,6.86566372 43.4424779,7.54663717 43.2783186,9.39442478 C43.2473451,9.74 43.160177,10.4364602 43.0774336,10.9497345 C43.1415929,10.9762832 43.2061947,11.0019469 43.2716814,11.0271681 C43.3588496,10.4984071 43.45,9.76743363 43.4818584,9.41256637 C43.6207965,7.84442478 43.4902655,6.88336283 43.0827434,6.47584071 C42.3477876,5.74088496 39.8061947,6.06699115 38.570354,6.27849558 C38.5960177,6.34 38.6238938,6.40415929 38.6539823,6.47097345 C40.1893805,6.21345133 42.3495575,6.03115044 42.9380531,6.6200885" id="Fill-236" fill="#101338"></path>
                <path d="M41.9485398,14.5628761 C42.714469,13.6956195 42.9525221,12.6796903 43.1715487,11.5425221 C43.1733186,11.5323451 43.1786283,11.525708 43.1768584,11.515531 C43.1954425,11.444292 43.215354,11.3460619 43.2365929,11.2319027 C43.1715487,11.2071239 43.1065044,11.1819027 43.0427876,11.1562389 C43.0166814,11.3031416 42.9914602,11.4239381 42.9706637,11.4965044 C42.9662389,11.5111062 42.9582743,11.5252655 42.9618142,11.5398673 C42.7498673,12.6372124 42.5180088,13.6142035 41.7879204,14.4363274 C41.7812832,14.4429646 41.7759735,14.4509292 41.7724336,14.4593363 C41.7697788,14.4642035 41.7666814,14.4690708 41.7622566,14.4730531 L29.5171239,26.7181858 C29.4972124,26.7380973 29.4649115,26.7380973 29.445,26.7181858 L22.8401327,20.1133186 C22.8206637,20.0934071 22.8206637,20.0611062 22.8401327,20.0411947 L35.0852655,7.79606195 C35.0892478,7.79163717 35.094115,7.78853982 35.0994248,7.78632743 C35.1073894,7.78190265 35.115354,7.7770354 35.1219912,7.77039823 C35.9171239,7.0650885 36.8693363,6.84960177 37.8768584,6.62128319 L38.0467699,6.58278761 C38.1724336,6.55756637 38.3069469,6.53190265 38.4476549,6.50668142 C38.4180088,6.44030973 38.3901327,6.37615044 38.364469,6.31420354 C38.2109292,6.34207965 38.0865929,6.36641593 38.0038496,6.38323009 L37.8312832,6.42216814 C36.8011947,6.65535398 35.8281858,6.87570796 34.995885,7.60977876 C34.975531,7.62128319 34.9573894,7.635 34.9410177,7.65137168 L22.6954425,19.8969469 C22.5963274,19.9965044 22.5963274,20.1584513 22.6954425,20.2575664 L29.3007522,26.8624336 C29.4003097,26.9619912 29.5622566,26.9619912 29.6613717,26.8624336 L41.9065044,14.6173009 C41.9228761,14.6009292 41.9370354,14.5827876 41.9485398,14.5628761" id="Fill-238" fill="#101338"></path>
                <path d="M17.8974336,48.6546018 C17.8974336,48.6546018 21.5859292,49.5218584 22.6987611,49.4532743 L18.0151327,48.5218584 L17.8974336,48.6546018 Z" id="Fill-240" fill="#D85959"></path>
            </g>
        </g>
    </g>
</svg>