<?xml version="1.0" encoding="utf-8"?>
<!-- Generator: Adobe Illustrator 21.0.0, SVG Export Plug-In . SVG Version: 6.00 Build 0)  -->
<svg version="1.1" id="Layer_1" xmlns="http://www.w3.org/2000/svg" xmlns:xlink="http://www.w3.org/1999/xlink" x="0px" y="0px"
	 viewBox="0 0 140 78" style="enable-background:new 0 0 140 78;" xml:space="preserve">
<style type="text/css">
	.st0{fill:#D85959;}
	.st1{fill:#CE4141;}
	.st2{fill:#1B2635;}
</style>
<title>Page 1</title>
<desc>Created with Sketch.</desc>
<g id="Page-1_1_">
	<g id="Desktop-HD" transform="translate(-657.000000, -1602.000000)">
		<g id="Page-1" transform="translate(658.000000, 1603.000000)">
			<path id="Fill-1" class="st0" d="M30.2,39.3V61h0c0,0.1,0,0.2,0,0.3c0,5.4,16.6,9.7,37,9.7s37-4.3,37-9.7c0-0.1,0-0.2,0-0.3h0
				V40.3L68.7,53L30.2,39.3z"/>
			<polygon id="Fill-3" class="st1" points="30.2,21.9 30.2,39.3 68.7,53 104.2,40.3 104.2,21.9 			"/>
			<path id="Fill-5" class="st2" d="M31.6,60.7c0,0.1,0,0.3,0,0.4l0,0.2c0,3.5,13.6,8.3,35.7,8.3c22.1,0,35.7-4.9,35.7-8.4
				c0,0,0-0.2,0-0.2c0-0.2,0-0.3,0-0.5V23.2H31.6V60.7z M67.2,72.3c-19.1,0-38.3-3.8-38.3-11c0-0.1,0-0.1,0-0.2c0,0,0-0.1,0-0.1
				V21.9c0-0.7,0.6-1.3,1.3-1.3h74c0.7,0,1.3,0.6,1.3,1.3V61c0,0,0,0.1,0,0.1c0,0.1,0,0.1,0,0.2C105.6,68.5,86.3,72.3,67.2,72.3
				L67.2,72.3z"/>
			<polygon id="Fill-7" class="st0" points="68.7,47.6 0.1,23.2 68.7,0.1 137.2,23.2 			"/>
			<path class="st2" d="M68.7,48.7c-0.1,0-0.3,0-0.4-0.1L-0.3,24.3C-0.7,24.1-1,23.7-1,23.2c0-0.5,0.3-0.9,0.8-1.1L68.3-0.9
				C68.5-1,68.8-1,69-0.9l68.5,23.1c0.5,0.2,0.8,0.6,0.8,1.1s-0.3,0.9-0.7,1.1L69,48.7C68.9,48.7,68.8,48.7,68.7,48.7z M3.6,23.2
				l65.1,23.2l65.1-23.2L68.7,1.3L3.6,23.2z"/>
			<path id="Fill-11" class="st1" d="M73.8,23c0,1.4-2.2,2.5-4.8,2.5c-2.7,0-4.8-1.1-4.8-2.5c0-1.4,2.2-2.5,4.8-2.5
				C71.7,20.5,73.8,21.7,73.8,23"/>
			<path class="st2" d="M20.9,72.6c-0.3,0-0.5-0.2-0.5-0.5V30.8c0-0.2,0.2-0.5,0.4-0.5l48.1-7.7c0.3,0,0.5,0.1,0.6,0.4
				c0,0.3-0.1,0.5-0.4,0.6l-47.7,7.7v40.9C21.4,72.4,21.1,72.6,20.9,72.6z"/>
			<path class="st2" d="M20.9,76.1c-1.4,0-2.5-1.1-2.5-2.5V32.3c0-1.4,1.1-2.5,2.5-2.5s2.5,1.1,2.5,2.5v41.3
				C23.4,75,22.2,76.1,20.9,76.1z"/>
			<path id="Fill-17" class="st0" d="M27,60.4c0,3.4-2.7,6.1-6.1,6.1s-6.1-2.7-6.1-6.1c0-3.4,2.7-6.1,6.1-6.1S27,57,27,60.4"/>
			<path class="st2" d="M20.9,67.4c-3.9,0-7.1-3.2-7.1-7.1s3.2-7.1,7.1-7.1c3.9,0,7.1,3.2,7.1,7.1S24.8,67.4,20.9,67.4z M20.9,55.2
				c-2.8,0-5.1,2.3-5.1,5.1s2.3,5.1,5.1,5.1c2.8,0,5.1-2.3,5.1-5.1S23.7,55.2,20.9,55.2z"/>
		</g>
	</g>
</g>
</svg>
