<?xml version="1.0" encoding="UTF-8"?>
<svg width="208px" height="184px" viewBox="0 0 208 184" version="1.1" xmlns="http://www.w3.org/2000/svg" xmlns:xlink="http://www.w3.org/1999/xlink">
    <!-- Generator: Sketch 44 (41411) - http://www.bohemiancoding.com/sketch -->
    <title>Page 1</title>
    <desc>Created with Sketch.</desc>
    <defs>
        <polygon id="path-1" points="0 183.5 208 183.5 208 0 0 0"></polygon>
    </defs>
    <g id="Page-1" stroke="none" stroke-width="1" fill="none" fill-rule="evenodd">
        <g id="Desktop-HD" transform="translate(-355.000000, -1042.000000)">
            <g id="Page-1" transform="translate(355.000000, 1042.000000)">
                <path d="M127.8962,15.5936 C133.9012,15.5936 138.8132,20.5056 138.8132,26.5096 C138.8132,32.5136 133.9012,37.4266 127.8962,37.4266 L81.3962,37.4266 C75.3922,37.4266 70.4802,32.5136 70.4802,26.5096 C70.4802,20.5056 75.3922,15.5936 81.3962,15.5936 L92.7652,15.5936 L93.3012,15.5936 C86.4682,2.5196 101.6982,0.9996 101.6982,0.9996 C99.5942,13.9996 119.2022,15.5936 119.2022,15.5936 L127.8962,15.5936 Z" id="Fill-1" fill="#755444"></path>
                <path d="M127.8962,15.5936 L119.2022,15.5936 C119.2022,15.5936 99.5942,13.9996 101.6982,0.9996 C101.6982,0.9996 86.4682,2.5196 93.3012,15.5936 L92.7652,15.5936 L81.3962,15.5936 C75.3922,15.5936 70.4802,20.5056 70.4802,26.5096 C70.4802,32.5136 75.3922,37.4266 81.3962,37.4266 L127.8962,37.4266 C133.9012,37.4266 138.8132,32.5136 138.8132,26.5096 C138.8132,20.5056 133.9012,15.5936 127.8962,15.5936 Z" id="Stroke-3" stroke="#1B2635" stroke-width="2" stroke-linecap="round" stroke-linejoin="round"></path>
                <path d="M1.4997,181.9998 L206.4997,181.9998" id="Stroke-5" stroke="#1B2635" stroke-width="3" stroke-linecap="round" stroke-linejoin="round"></path>
                <path d="M151.7917,119.0828 C151.7917,133.1208 130.3947,144.4998 103.9997,144.4998 C77.6037,144.4998 56.2067,133.1208 56.2067,119.0828 C56.2067,105.0458 77.6037,93.6668 103.9997,93.6668 C130.3947,93.6668 151.7917,105.0458 151.7917,119.0828" id="Fill-7" fill="#2A62BC"></path>
                <path d="M151.7917,119.0828 C151.7917,133.1208 130.3947,144.4998 103.9997,144.4998 C77.6037,144.4998 56.2067,133.1208 56.2067,119.0828 C56.2067,105.0458 77.6037,93.6668 103.9997,93.6668 C130.3947,93.6668 151.7917,105.0458 151.7917,119.0828 Z" id="Stroke-9" stroke="#1B2635" stroke-width="2" stroke-linecap="round" stroke-linejoin="round"></path>
                <g id="Group-14" transform="translate(65.000000, 47.500000)">
                    <path d="M8.6305,15.4998 C4.3965,15.4998 0.9635,12.0668 0.9635,7.8328 C0.9635,3.5998 4.3965,0.1668 8.6305,0.1668" id="Fill-11" fill="#FCE7DB"></path>
                    <path d="M8.6305,15.4998 C4.3965,15.4998 0.9635,12.0668 0.9635,7.8328 C0.9635,3.5998 4.3965,0.1668 8.6305,0.1668" id="Stroke-13" stroke="#1B2635" stroke-width="2" stroke-linecap="round" stroke-linejoin="round"></path>
                </g>
                <g id="Group-18" transform="translate(135.000000, 47.500000)">
                    <path d="M0.3053,0.1668 C4.5393,0.1668 7.9723,3.5998 7.9723,7.8328 C7.9723,12.0668 4.5393,15.4998 0.3053,15.4998" id="Fill-15" fill="#F9D6BF"></path>
                    <path d="M0.3053,0.1668 C4.5393,0.1668 7.9723,3.5998 7.9723,7.8328 C7.9723,12.0668 4.5393,15.4998 0.3053,15.4998" id="Stroke-17" stroke="#1B2635" stroke-width="2" stroke-linecap="round" stroke-linejoin="round"></path>
                </g>
                <path d="M112.1413,93.4812 L112.4753,93.4812 L112.4753,88.2712 L95.4423,88.2712 L95.4423,93.4812 L95.7773,93.4812 C94.8413,94.4052 94.2923,95.4952 94.2923,96.6672 C94.2923,99.9802 98.6203,102.6672 103.9583,102.6672 C109.2973,102.6672 113.6253,99.9802 113.6253,96.6672 C113.6253,95.4952 113.0763,94.4052 112.1413,93.4812" id="Fill-19" fill="#F9D6BF"></path>
                <path d="M112.1413,93.4812 L112.4753,93.4812 L112.4753,88.2712 L95.4423,88.2712 L95.4423,93.4812 L95.7773,93.4812 C94.8413,94.4052 94.2923,95.4952 94.2923,96.6672 C94.2923,99.9802 98.6203,102.6672 103.9583,102.6672 C109.2973,102.6672 113.6253,99.9802 113.6253,96.6672 C113.6253,95.4952 113.0763,94.4052 112.1413,93.4812 Z" id="Stroke-21" stroke="#1B2635" stroke-width="2" stroke-linecap="round" stroke-linejoin="round"></path>
                <polygon id="Fill-23" fill="#F1F1F1" points="165.7497 110.9998 42.2497 110.9998 48.2507 181.9998 160.7497 181.9998"></polygon>
                <polygon id="Stroke-25" stroke="#1B2635" stroke-width="3" stroke-linecap="round" stroke-linejoin="round" points="165.7497 110.9998 42.2497 110.9998 48.2507 181.9998 160.7497 181.9998"></polygon>
                <path d="M134.6393,32.6668 L134.6393,61.3328 L134.4953,61.3328 C133.0213,76.6718 120.1003,88.6658 104.3743,88.6658 C88.6503,88.6658 75.7293,76.6718 74.2543,61.3328 L74.1113,61.3328 L74.1113,32.6668 C74.1113,32.6668 100.4773,13.9998 134.6393,32.6668" id="Fill-27" fill="#FCE7DB"></path>
                <path d="M134.6393,32.6668 L134.6393,61.3328 L134.4953,61.3328 C133.0213,76.6718 120.1003,88.6658 104.3743,88.6658 C88.6503,88.6658 75.7293,76.6718 74.2543,61.3328 L74.1113,61.3328 L74.1113,32.6668 C74.1113,32.6668 100.4773,13.9998 134.6393,32.6668 Z" id="Stroke-29" stroke="#1B2635" stroke-width="2" stroke-linecap="round" stroke-linejoin="round"></path>
                <mask id="mask-2" fill="white">
                    <use xlink:href="#path-1"></use>
                </mask>
                <g id="Clip-32"></g>
                <polygon id="Stroke-31" stroke="#1B2635" stroke-width="2" stroke-linecap="round" stroke-linejoin="round" mask="url(#mask-2)" points="83.731 55 101.698 55 101.698 40.333 83.731 40.333"></polygon>
                <polygon id="Stroke-33" stroke="#1B2635" stroke-width="2" stroke-linecap="round" stroke-linejoin="round" mask="url(#mask-2)" points="106.982 55 124.948 55 124.948 40.333 106.982 40.333"></polygon>
                <path d="M101.6979,47.6668 L106.9819,47.6668" id="Stroke-34" stroke="#1B2635" stroke-width="2" stroke-linecap="round" stroke-linejoin="round" mask="url(#mask-2)"></path>
                <path d="M113.9909,72.3426 C113.9909,76.3996 108.7029,78.6876 104.6459,78.6876 C100.5909,78.6876 95.3019,76.3996 95.3019,72.3426" id="Stroke-35" stroke="#1B2635" stroke-width="2" stroke-linecap="round" stroke-linejoin="round" mask="url(#mask-2)"></path>
                <path d="M89.8844,47.6649 L95.6474,47.6649" id="Stroke-36" stroke="#1B2635" stroke-width="2" stroke-linecap="round" stroke-linejoin="round" mask="url(#mask-2)"></path>
                <path d="M113.4382,47.6649 L119.2022,47.6649" id="Stroke-37" stroke="#1B2635" stroke-width="2" stroke-linecap="round" stroke-linejoin="round" mask="url(#mask-2)"></path>
                <path d="M109.9801,62.033 C109.9801,64.039 107.5921,65.665 104.6461,65.665 C101.7011,65.665 99.3131,64.039 99.3131,62.033" id="Stroke-38" stroke="#1B2635" stroke-width="2" mask="url(#mask-2)"></path>
                <path d="M72.7067,30.5262 C72.7067,30.5262 74.2347,42.7972 105.3757,30.5262 L126.3647,22.9172 L94.1317,19.5832 L82.2277,24.2872 L72.7067,30.5262 Z" id="Fill-39" fill="#755444" mask="url(#mask-2)"></path>
                <path d="M97.529,33.5799 L115.634,33.5799" id="Stroke-40" stroke="#EDC7B2" stroke-linecap="round" stroke-linejoin="round" mask="url(#mask-2)"></path>
                <path d="M87.528,35.577 L105.633,35.577" id="Stroke-41" stroke="#EDC7B2" stroke-linecap="round" stroke-linejoin="round" mask="url(#mask-2)"></path>
                <g id="Group-44" mask="url(#mask-2)">
                    <g transform="translate(93.000000, 15.500000)">
                        <path d="M4.3014,4.0828 C4.3014,4.0828 1.4814,2.8458 0.3014,0.0938" id="Fill-42" stroke="none" fill="#755444" fill-rule="evenodd"></path>
                        <path d="M4.3014,4.0828 C4.3014,4.0828 1.4814,2.8458 0.3014,0.0938" id="Stroke-43" stroke="#1B2635" stroke-width="2" fill="none" stroke-linecap="round" stroke-linejoin="round"></path>
                    </g>
                </g>
                <g id="Group-47" mask="url(#mask-2)">
                    <g transform="translate(74.000000, 22.500000)">
                        <path d="M0.111,12.1053 C0.111,12.1053 10.634,21.1673 50.948,0.2703" id="Fill-45" stroke="none" fill="#755444" fill-rule="evenodd"></path>
                        <path d="M0.111,12.1053 C0.111,12.1053 10.634,21.1673 50.948,0.2703" id="Stroke-46" stroke="#1B2635" stroke-width="2" fill="none" stroke-linecap="round" stroke-linejoin="round"></path>
                    </g>
                </g>
                <g id="Group-50" mask="url(#mask-2)">
                    <g transform="translate(128.000000, 27.500000)">
                        <polyline id="Fill-48" stroke="none" fill="#755444" fill-rule="evenodd" points="0.2575 0.8748 4.3015 22.3328 6.6395 23.8328 8.7595 4.6878"></polyline>
                        <polyline id="Stroke-49" stroke="#1B2635" stroke-width="2" fill="none" stroke-linecap="round" stroke-linejoin="round" points="0.2575 0.8748 4.3015 22.3328 6.6395 23.8328 8.7595 4.6878"></polyline>
                    </g>
                </g>
                <path d="M124.9479,45.6668 L134.6389,42.8328" id="Stroke-51" stroke="#1B2635" stroke-width="2" stroke-linecap="round" stroke-linejoin="round" mask="url(#mask-2)"></path>
                <g id="Group-54" mask="url(#mask-2)">
                    <g transform="translate(74.000000, 32.500000)">
                        <polyline id="Fill-52" stroke="none" fill="#755444" fill-rule="evenodd" points="4.7585 3.7547 2.8845 16.8747 0.1115 17.8747 0.1115 0.1667"></polyline>
                        <polyline id="Stroke-53" stroke="#1B2635" stroke-width="2" fill="none" stroke-linecap="round" stroke-linejoin="round" points="4.7585 3.7547 2.8845 16.8747 0.1115 17.8747 0.1115 0.1667"></polyline>
                    </g>
                </g>
                <path d="M83.2819,45.909 L74.1109,43.667" id="Stroke-55" stroke="#1B2635" stroke-width="2" stroke-linecap="round" stroke-linejoin="round" mask="url(#mask-2)"></path>
                <polygon id="Fill-56" fill="#393C5B" mask="url(#mask-2)" points="95.2917 152.3309 95.3487 152.3309 95.5837 151.7199 95.5267 151.7199"></polygon>
                <path d="M97.526,155.2684 C97.602,155.1364 97.598,155.0294 97.491,154.9674 C97.415,154.9224 97.322,154.9504 97.282,155.0214 C97.237,155.0984 97.261,155.1894 97.322,155.2234 C97.336,155.2314 97.351,155.2374 97.367,155.2354 L97.371,155.2414 C97.298,155.3334 97.214,155.3474 97.11,155.3204 L97.086,155.4194 C97.255,155.4984 97.446,155.4084 97.526,155.2684" id="Fill-57" fill="#393C5B" mask="url(#mask-2)"></path>
                <path d="M97.862,154.3602 C97.947,154.4092 98.058,154.3812 98.108,154.2942 C98.157,154.2092 98.125,154.0982 98.04,154.0492 C97.955,154.0012 97.844,154.0292 97.796,154.1142 C97.745,154.2022 97.777,154.3112 97.862,154.3602" id="Fill-58" fill="#393C5B" mask="url(#mask-2)"></path>
                <polygon id="Fill-59" fill="#393C5B" mask="url(#mask-2)" points="97.5065 158.0281 98.6945 158.5751 98.8495 158.2401 97.6605 157.6931"></polygon>
                <polygon id="Fill-60" fill="#393C5B" mask="url(#mask-2)" points="97.1852 158.7254 98.3742 159.2724 98.5292 158.9374 97.3392 158.3904"></polygon>
                <path d="M101.1891,161.3221 L101.1521,161.3021 L100.9951,161.5991 L101.0361,161.6211 C101.2031,161.7101 101.2671,161.8481 101.1651,162.0411 C101.1231,162.1201 101.0581,162.1911 100.9841,162.2611 C101.1121,162.3031 101.2401,162.3441 101.3701,162.3831 C101.4221,162.3231 101.4711,162.2591 101.5081,162.1901 C101.7101,161.8081 101.5381,161.5081 101.1891,161.3221" id="Fill-61" fill="#393C5B" mask="url(#mask-2)"></path>
                <path d="M100.9157,154.6756 L100.9367,154.6646 L100.8517,154.5056 C100.8517,154.5056 100.8447,154.5116 100.8277,154.5206 C100.7357,154.5686 100.6527,154.5426 100.6037,154.4486 C100.5257,154.3036 100.5667,154.0716 100.4737,153.8936 C100.4147,153.7826 100.3217,153.7426 100.2227,153.7726 L100.2207,153.7686 C100.2977,153.6966 100.3167,153.5996 100.2607,153.4906 C100.1657,153.3136 99.9497,153.2146 99.8737,153.0716 C99.8177,152.9666 99.8537,152.8926 99.9427,152.8446 L99.9657,152.8326 L99.8807,152.6726 L99.8597,152.6836 C99.6727,152.7826 99.5787,152.9456 99.6877,153.1516 C99.7887,153.3406 100.0297,153.4616 100.0977,153.5896 C100.1437,153.6766 100.0967,153.7296 100.0197,153.7696 L100.1077,153.9356 C100.1847,153.8956 100.2547,153.8866 100.2997,153.9726 C100.3677,154.1006 100.3327,154.3666 100.4337,154.5576 C100.5417,154.7636 100.7237,154.7776 100.9157,154.6756" id="Fill-62" fill="#393C5B" mask="url(#mask-2)"></path>
                <path d="M93.8864,156.9129 C93.9194,156.7539 93.9134,156.5839 93.9634,156.4899 C94.0094,156.4039 94.0784,156.4129 94.1554,156.4529 L94.2424,156.2869 C94.1664,156.2469 94.1204,156.1939 94.1664,156.1069 C94.2344,155.9789 94.4754,155.8579 94.5754,155.6689 C94.6854,155.4629 94.5914,155.3009 94.4034,155.2009 L94.3834,155.1899 L94.2984,155.3509 L94.3214,155.3619 C94.4104,155.4099 94.4454,155.4839 94.3904,155.5889 C94.3144,155.7319 94.0974,155.8309 94.0034,156.0089 C93.9464,156.1169 93.9664,156.2149 94.0434,156.2859 L94.0414,156.2899 C93.9424,156.2609 93.8484,156.3009 93.7904,156.4109 C93.7454,156.4939 93.7324,156.5899 93.7214,156.6829 C93.2844,156.0609 92.8944,155.4069 92.5504,154.7249 C93.9354,157.7229 96.3334,160.1559 99.3064,161.5849 C97.1584,160.4629 95.3034,158.8569 93.8864,156.9129" id="Fill-63" fill="#D85959" mask="url(#mask-2)"></path>
                <polygon id="Fill-64" fill="#393C5B" mask="url(#mask-2)" points="95.237 151.7195 95.003 152.3305 95.058 152.3305 95.295 151.7195"></polygon>
                <path d="M92.4665,152.949 C92.4565,152.961 92.4445,152.975 92.4295,152.994 L92.6145,153.46 L92.6085,153.468 L92.1155,153.371 L92.0415,153.46 L92.6655,153.566 L92.7215,153.498 L92.5035,152.904 C92.4875,152.923 92.4765,152.937 92.4665,152.949" id="Fill-65" fill="#393C5B" mask="url(#mask-2)"></path>
                <path d="M91.9733,152.7244 C92.0223,152.7344 92.0793,152.7454 92.1463,152.7584 L92.2203,152.6694 L91.7663,152.5914 L91.7923,152.6884 C91.8043,152.6914 91.8163,152.6934 91.8273,152.6954 L91.9733,152.7244 Z" id="Fill-66" fill="#393C5B" mask="url(#mask-2)"></path>
                <path d="M101.8512,150.8533 C101.8442,150.8603 101.8372,150.8703 101.8282,150.8803 L101.9442,151.1723 L101.9402,151.1773 L101.6312,151.1173 L101.5852,151.1723 L101.9752,151.2393 L102.0112,151.1963 L101.8732,150.8253 C101.8652,150.8363 101.8572,150.8453 101.8512,150.8533" id="Fill-67" fill="#393C5B" mask="url(#mask-2)"></path>
                <polygon id="Fill-68" fill="#393C5B" mask="url(#mask-2)" points="102.3649 153.0027 103.1129 153.3467 103.2099 153.1357 102.4619 152.7917"></polygon>
                <polygon id="Fill-69" fill="#393C5B" mask="url(#mask-2)" points="102.1628 153.4412 102.9108 153.7852 103.0088 153.5742 102.2598 153.2302"></polygon>
                <path d="M116.319,156.658 C115.937,157.041 115.311,157.041 114.929,156.658 C114.547,156.276 114.547,155.65 114.929,155.267 L112.179,158.015 C112.178,158.015 112.178,158.016 112.177,158.016 L116.067,154.128 C116.449,153.745 116.449,153.119 116.067,152.737 C115.684,152.354 115.058,152.354 114.676,152.737 L113.225,154.188 C112.842,154.566 112.22,154.565 111.84,154.184 C111.457,153.803 111.457,153.177 111.84,152.794 L111.839,152.793 L114.875,149.757 C115.257,149.374 115.257,148.748 114.875,148.366 C114.493,147.983 113.867,147.983 113.485,148.366 L111.522,150.329 C111.519,150.323 111.516,150.317 111.514,150.31 L110.756,151.069 C110.374,151.451 109.748,151.451 109.365,151.069 C108.983,150.686 108.983,150.061 109.365,149.678 L113.894,145.149 C114.163,144.766 114.129,144.232 113.788,143.89 C113.405,143.508 112.779,143.508 112.397,143.89 L107.672,148.616 C107.679,148.607 107.684,148.597 107.693,148.59 C107.31,148.967 106.689,148.966 106.308,148.585 C105.925,148.202 105.925,147.577 106.308,147.194 L106.336,147.167 C105.954,147.549 105.328,147.549 104.946,147.166 C104.564,146.784 104.564,146.158 104.946,145.776 L103.667,147.05 C103.285,147.432 102.659,147.432 102.277,147.05 C101.924,146.697 101.901,146.14 102.198,145.756 L108.37,139.584 C108.753,139.202 108.753,138.576 108.37,138.193 C107.987,137.811 107.362,137.811 106.979,138.193 L106.613,138.56 C106.636,138.53 106.658,138.498 106.686,138.47 L106.117,139.028 C106.108,139.039 106.101,139.051 106.091,139.06 L103.178,141.973 C102.796,142.355 102.17,142.355 101.788,141.973 C101.405,141.591 101.405,140.966 101.788,140.583 L102.23,140.137 C102.221,140.145 102.212,140.151 102.203,140.159 C102.561,139.774 102.555,139.17 102.181,138.796 C101.799,138.413 101.173,138.413 100.791,138.796 L97.487,142.099 C97.104,142.359 96.577,142.321 96.239,141.983 C95.882,141.628 95.863,141.063 96.17,140.678 L97.109,139.738 C97.492,139.355 97.492,138.73 97.109,138.347 C96.82,138.058 96.392,137.989 96.036,138.137 C93.098,140.739 91.246,144.54 91.246,148.772 C91.246,149.299 91.276,149.817 91.331,150.328 C91.676,150.387 92.002,150.502 92.296,150.668 C92.34,150.588 92.395,150.512 92.464,150.444 C92.847,150.059 93.47,150.059 93.854,150.444 C93.876,150.466 93.896,150.488 93.915,150.511 C94.37,150.344 95.096,150.389 95.841,150.673 C96.287,150.842 96.672,151.07 96.957,151.317 C97.194,151.171 97.477,151.128 97.741,151.188 C98.15,150.786 98.808,150.787 99.215,151.194 C99.25,151.228 99.28,151.265 99.309,151.303 L104.753,147.13 L107.084,149.47 L103.569,154.179 C103.966,154.703 104.007,155.411 103.693,155.972 C104.078,156.383 104.07,157.026 103.67,157.427 C103.574,157.523 103.464,157.595 103.345,157.646 C103.486,158.287 103.443,158.857 103.233,159.179 C103.472,159.446 103.543,159.81 103.441,160.134 C103.615,160.179 103.779,160.269 103.916,160.406 C104.327,160.817 104.327,161.482 103.918,161.894 C104.018,162.072 104.076,162.276 104.076,162.495 C104.076,162.64 104.048,162.778 104.002,162.906 C104.479,162.955 104.964,162.979 105.453,162.979 C110.105,162.979 114.235,160.744 116.827,157.288 C117.135,156.667 117.404,156.021 117.624,155.353 L116.319,156.658 Z" id="Fill-70" fill="#393C5B" mask="url(#mask-2)"></path>
                <polygon id="Fill-71" fill="#393C5B" mask="url(#mask-2)" points="100.9342 159.1512 100.9912 159.1512 101.2262 158.5402 101.1692 158.5402"></polygon>
                <path d="M100.78,157.1141 L100.441,157.0021 L100.44,156.9951 C100.477,156.9651 100.509,156.9381 100.538,156.9161 C100.565,156.8941 100.593,156.8721 100.62,156.8491 C100.648,156.8271 100.68,156.8011 100.718,156.7701 L100.703,156.6891 L100.36,156.9811 L100.371,157.0431 L100.796,157.1951 L100.78,157.1141 Z" id="Fill-72" fill="#393C5B" mask="url(#mask-2)"></path>
                <polygon id="Fill-73" fill="#393C5B" mask="url(#mask-2)" points="100.8805 158.5399 100.6455 159.1509 100.7015 159.1509 100.9375 158.5399"></polygon>
                <path d="M100.9606,156.6424 C100.9636,156.6594 100.9656,156.6714 100.9676,156.6824 C100.9696,156.6934 100.9726,156.7064 100.9756,156.7234 L101.3146,156.8344 L101.3156,156.8424 L101.0376,157.0674 L101.0536,157.1484 L101.3966,156.8564 L101.3846,156.7934 L100.9606,156.6424 Z" id="Fill-74" fill="#393C5B" mask="url(#mask-2)"></path>
                <path d="M101.4509,150.6941 C101.4809,150.7001 101.5129,150.7061 101.5429,150.7131 C101.5729,150.7181 101.6089,150.7251 101.6509,150.7331 L101.6969,150.6771 L101.3069,150.6111 L101.2709,150.6541 L101.4079,151.0251 L101.4549,150.9691 L101.3389,150.6771 L101.3429,150.6731 C101.3849,150.6811 101.4209,150.6881 101.4509,150.6941" id="Fill-75" fill="#393C5B" mask="url(#mask-2)"></path>
                <path d="M100.9235,162.3172 C100.9445,162.2982 100.9635,162.2802 100.9845,162.2612 C100.4075,162.0712 99.8475,161.8442 99.3065,161.5852 C99.8285,161.8572 100.3675,162.1032 100.9235,162.3172" id="Fill-76" fill="#D85959" mask="url(#mask-2)"></path>
                <path d="M103.113,153.3465 L102.365,153.0025 L102.462,152.7915 L103.21,153.1355 L103.113,153.3465 Z M102.911,153.7845 L102.163,153.4415 L102.259,153.2305 L103.009,153.5745 L102.911,153.7845 Z M101.975,151.2395 L101.586,151.1725 L101.632,151.1165 L101.94,151.1775 L101.944,151.1725 L101.828,150.8805 C101.838,150.8695 101.844,150.8605 101.851,150.8535 C101.857,150.8455 101.865,150.8365 101.874,150.8255 L102.011,151.1965 L101.975,151.2395 Z M101.455,150.9695 L101.408,151.0255 L101.271,150.6545 L101.307,150.6115 L101.697,150.6775 L101.651,150.7335 C101.609,150.7255 101.573,150.7185 101.543,150.7125 C101.512,150.7055 101.481,150.7005 101.451,150.6945 C101.421,150.6885 101.384,150.6815 101.342,150.6725 L101.339,150.6775 L101.455,150.9695 Z M101.053,157.1485 L101.038,157.0675 L101.316,156.8425 L101.314,156.8345 L100.975,156.7235 C100.972,156.7065 100.969,156.6935 100.967,156.6825 C100.966,156.6715 100.964,156.6595 100.961,156.6425 L101.384,156.7935 L101.396,156.8565 L101.053,157.1485 Z M100.991,159.1515 L100.934,159.1515 L101.17,158.5395 L101.226,158.5395 L100.991,159.1515 Z M100.645,159.1515 L100.881,158.5395 L100.937,158.5395 L100.702,159.1515 L100.645,159.1515 Z M100.36,156.9815 L100.703,156.6895 L100.717,156.7705 C100.68,156.8005 100.648,156.8265 100.62,156.8495 C100.592,156.8715 100.565,156.8945 100.538,156.9155 C100.509,156.9385 100.477,156.9645 100.44,156.9945 L100.441,157.0015 L100.78,157.1145 L100.796,157.1955 L100.371,157.0425 L100.36,156.9815 Z M100.108,153.9355 L100.02,153.7695 C100.096,153.7295 100.143,153.6765 100.097,153.5895 C100.03,153.4615 99.789,153.3405 99.688,153.1515 C99.579,152.9455 99.673,152.7835 99.86,152.6835 L99.881,152.6725 L99.966,152.8325 L99.943,152.8445 C99.853,152.8925 99.818,152.9665 99.874,153.0715 C99.95,153.2145 100.166,153.3135 100.26,153.4915 C100.317,153.5995 100.298,153.6975 100.22,153.7685 L100.222,153.7725 C100.322,153.7425 100.415,153.7835 100.473,153.8935 C100.567,154.0715 100.526,154.3035 100.603,154.4495 C100.653,154.5425 100.736,154.5685 100.828,154.5205 C100.844,154.5115 100.851,154.5055 100.851,154.5055 L100.936,154.6645 L100.916,154.6755 C100.723,154.7775 100.542,154.7635 100.433,154.5575 C100.333,154.3675 100.368,154.1005 100.3,153.9725 C100.255,153.8865 100.184,153.8955 100.108,153.9355 L100.108,153.9355 Z M98.695,158.5755 L97.507,158.0285 L97.661,157.6935 L98.849,158.2405 L98.695,158.5755 Z M98.375,159.2725 L97.185,158.7255 L97.34,158.3905 L98.529,158.9375 L98.375,159.2725 Z M97.11,155.3205 C97.215,155.3475 97.299,155.3335 97.371,155.2415 L97.367,155.2355 C97.351,155.2375 97.336,155.2315 97.322,155.2235 C97.261,155.1895 97.237,155.0985 97.282,155.0215 C97.322,154.9505 97.415,154.9225 97.491,154.9675 C97.598,155.0295 97.602,155.1365 97.526,155.2685 C97.446,155.4085 97.256,155.4985 97.086,155.4195 L97.11,155.3205 Z M97.796,154.1145 C97.844,154.0295 97.955,154.0005 98.04,154.0495 C98.125,154.0985 98.157,154.2085 98.108,154.2935 C98.058,154.3805 97.947,154.4085 97.862,154.3605 C97.777,154.3115 97.745,154.2015 97.796,154.1145 L97.796,154.1145 Z M95.348,152.3305 L95.292,152.3305 L95.527,151.7195 L95.584,151.7195 L95.348,152.3305 Z M95.003,152.3305 L95.237,151.7195 L95.295,151.7195 L95.058,152.3305 L95.003,152.3305 Z M92.666,153.5665 L92.042,153.4595 L92.116,153.3705 L92.608,153.4675 L92.615,153.4595 L92.429,152.9935 C92.444,152.9755 92.457,152.9605 92.467,152.9495 C92.476,152.9375 92.488,152.9225 92.504,152.9045 L92.721,153.4975 L92.666,153.5665 Z M103.918,161.8945 C104.327,161.4825 104.327,160.8175 103.916,160.4065 C103.779,160.2695 103.615,160.1795 103.441,160.1335 C103.543,159.8105 103.472,159.4465 103.233,159.1795 C103.443,158.8575 103.486,158.2865 103.345,157.6465 C103.464,157.5955 103.574,157.5235 103.67,157.4265 C104.07,157.0265 104.078,156.3825 103.693,155.9725 C104.008,155.4105 103.967,154.7025 103.569,154.1795 L107.084,149.4705 L104.753,147.1295 L99.309,151.3035 C99.28,151.2655 99.25,151.2285 99.215,151.1945 C98.808,150.7865 98.15,150.7855 97.741,151.1885 C97.477,151.1275 97.194,151.1705 96.957,151.3175 C96.672,151.0705 96.287,150.8415 95.842,150.6725 C95.096,150.3895 94.37,150.3435 93.915,150.5105 C93.896,150.4885 93.876,150.4655 93.854,150.4445 C93.47,150.0595 92.847,150.0595 92.464,150.4445 C92.395,150.5115 92.34,150.5875 92.296,150.6675 C92.002,150.5015 91.676,150.3875 91.331,150.3275 C91.416,151.1035 91.562,151.8595 91.766,152.5915 L92.22,152.6695 L92.146,152.7585 C92.08,152.7445 92.022,152.7345 91.973,152.7245 L91.827,152.6955 C91.816,152.6935 91.804,152.6915 91.793,152.6885 C91.994,153.3915 92.249,154.0715 92.55,154.7245 C92.894,155.4075 93.285,156.0615 93.721,156.6825 C93.732,156.5895 93.746,156.4935 93.791,156.4105 C93.848,156.3005 93.942,156.2605 94.042,156.2895 L94.044,156.2855 C93.967,156.2145 93.946,156.1175 94.004,156.0085 C94.097,155.8305 94.314,155.7325 94.39,155.5885 C94.445,155.4845 94.411,155.4095 94.321,155.3625 L94.299,155.3505 L94.384,155.1905 L94.403,155.2005 C94.592,155.3005 94.685,155.4625 94.576,155.6685 C94.475,155.8585 94.234,155.9795 94.167,156.1075 C94.121,156.1945 94.167,156.2465 94.243,156.2865 L94.155,156.4525 C94.079,156.4125 94.009,156.4045 93.964,156.4905 C93.914,156.5835 93.92,156.7535 93.886,156.9125 C95.303,158.8575 97.159,160.4625 99.306,161.5845 C99.847,161.8445 100.408,162.0715 100.984,162.2615 C101.058,162.1915 101.123,162.1195 101.165,162.0405 C101.267,161.8485 101.203,161.7095 101.036,161.6205 L100.995,161.5995 L101.152,161.3025 L101.189,161.3225 C101.538,161.5075 101.711,161.8085 101.509,162.1905 C101.471,162.2595 101.423,162.3235 101.37,162.3825 C102.217,162.6365 103.096,162.8145 104.002,162.9065 C104.049,162.7785 104.076,162.6405 104.076,162.4945 C104.076,162.2765 104.018,162.0725 103.918,161.8945 L103.918,161.8945 Z" id="Fill-77" fill="#D85959" mask="url(#mask-2)"></path>
                <path d="M97.526,155.2684 C97.602,155.1364 97.598,155.0294 97.491,154.9674 C97.415,154.9234 97.322,154.9504 97.282,155.0214 C97.237,155.0984 97.261,155.1894 97.322,155.2234 C97.336,155.2314 97.351,155.2374 97.367,155.2354 L97.371,155.2414 C97.298,155.3334 97.214,155.3474 97.11,155.3204 L97.086,155.4194 C97.255,155.4984 97.446,155.4084 97.526,155.2684" id="Fill-78" fill="#C64242" mask="url(#mask-2)"></path>
                <path d="M97.862,154.3602 C97.947,154.4092 98.058,154.3812 98.108,154.2942 C98.157,154.2092 98.125,154.0982 98.04,154.0492 C97.955,154.0012 97.844,154.0292 97.796,154.1142 C97.745,154.2022 97.777,154.3112 97.862,154.3602" id="Fill-79" fill="#C64242" mask="url(#mask-2)"></path>
                <path d="M101.5085,162.1902 C101.7105,161.8082 101.5375,161.5072 101.1895,161.3222 L101.1525,161.3022 L100.9945,161.5992 L101.0355,161.6212 C101.2025,161.7102 101.2675,161.8482 101.1645,162.0412 C101.1125,162.1412 101.0235,162.2292 100.9235,162.3172 C101.0495,162.3652 101.1765,162.4122 101.3035,162.4582 C101.3835,162.3762 101.4565,162.2892 101.5085,162.1902" id="Fill-80" fill="#C64242" mask="url(#mask-2)"></path>
                <path d="M100.9157,154.6756 L100.9367,154.6646 L100.8517,154.5056 C100.8517,154.5056 100.8447,154.5116 100.8277,154.5206 C100.7357,154.5686 100.6527,154.5426 100.6037,154.4486 C100.5257,154.3036 100.5667,154.0716 100.4737,153.8936 C100.4147,153.7826 100.3217,153.7426 100.2227,153.7726 L100.2207,153.7686 C100.2977,153.6966 100.3167,153.5996 100.2607,153.4906 C100.1657,153.3136 99.9497,153.2146 99.8737,153.0716 C99.8177,152.9666 99.8537,152.8926 99.9427,152.8446 L99.9657,152.8326 L99.8807,152.6726 L99.8597,152.6836 C99.6727,152.7826 99.5787,152.9456 99.6877,153.1516 C99.7887,153.3406 100.0297,153.4616 100.0977,153.5896 C100.1437,153.6766 100.0967,153.7296 100.0197,153.7696 L100.1077,153.9356 C100.1847,153.8956 100.2547,153.8866 100.2997,153.9726 C100.3677,154.1006 100.3327,154.3666 100.4337,154.5576 C100.5417,154.7636 100.7237,154.7776 100.9157,154.6756" id="Fill-81" fill="#C64242" mask="url(#mask-2)"></path>
                <path d="M93.9635,156.4901 C94.0095,156.4041 94.0785,156.4131 94.1545,156.4531 L94.2425,156.2871 C94.1665,156.2471 94.1205,156.1941 94.1665,156.1071 C94.2345,155.9791 94.4755,155.8581 94.5755,155.6691 C94.6855,155.4631 94.5915,155.3011 94.4025,155.2011 L94.3835,155.1901 L94.2985,155.3501 L94.3205,155.3621 C94.4105,155.4101 94.4445,155.4841 94.3905,155.5891 C94.3145,155.7321 94.0975,155.8311 94.0035,156.0091 C93.9455,156.1171 93.9665,156.2151 94.0435,156.2861 L94.0415,156.2901 C93.9425,156.2611 93.8485,156.3011 93.7905,156.4111 C93.7455,156.4951 93.7325,156.5901 93.7215,156.6821 C93.7755,156.7601 93.8305,156.8371 93.8865,156.9131 C93.9195,156.7541 93.9135,156.5841 93.9635,156.4901" id="Fill-82" fill="#C64242" mask="url(#mask-2)"></path>
                <polygon id="Fill-83" fill="#C64242" mask="url(#mask-2)" points="97.1852 158.7254 98.3742 159.2724 98.5292 158.9374 97.3392 158.3904"></polygon>
                <polygon id="Fill-84" fill="#C64242" mask="url(#mask-2)" points="97.5065 158.0281 98.6945 158.5751 98.8495 158.2401 97.6605 157.6931"></polygon>
                <polygon id="Fill-85" fill="#C64242" mask="url(#mask-2)" points="102.3649 153.0027 103.1129 153.3467 103.2099 153.1357 102.4619 152.7917"></polygon>
                <polygon id="Fill-86" fill="#C64242" mask="url(#mask-2)" points="102.1628 153.4412 102.9108 153.7852 103.0088 153.5742 102.2598 153.2302"></polygon>
                <path d="M100.78,157.1141 L100.441,157.0021 L100.44,156.9951 C100.477,156.9651 100.509,156.9381 100.538,156.9161 C100.565,156.8941 100.593,156.8721 100.62,156.8491 C100.648,156.8271 100.68,156.8011 100.718,156.7701 L100.703,156.6891 L100.36,156.9811 L100.372,157.0431 L100.796,157.1951 L100.78,157.1141 Z" id="Fill-87" fill="#C64242" mask="url(#mask-2)"></path>
                <path d="M100.9606,156.6424 C100.9636,156.6594 100.9656,156.6714 100.9676,156.6824 C100.9696,156.6934 100.9726,156.7064 100.9756,156.7234 L101.3146,156.8344 L101.3156,156.8424 L101.0376,157.0674 L101.0536,157.1484 L101.3966,156.8564 L101.3846,156.7934 L100.9606,156.6424 Z" id="Fill-88" fill="#C64242" mask="url(#mask-2)"></path>
                <path d="M91.8268,152.6951 L91.9728,152.7241 C92.0218,152.7341 92.0798,152.7451 92.1458,152.7581 L92.2208,152.6701 L91.7658,152.5911 L91.7928,152.6881 L91.8268,152.6951 Z" id="Fill-89" fill="#C64242" mask="url(#mask-2)"></path>
                <path d="M92.4665,152.949 C92.4565,152.961 92.4445,152.975 92.4295,152.994 L92.6145,153.46 L92.6085,153.468 L92.1155,153.371 L92.0415,153.46 L92.6655,153.566 L92.7215,153.498 L92.5035,152.904 C92.4875,152.923 92.4765,152.937 92.4665,152.949" id="Fill-90" fill="#C64242" mask="url(#mask-2)"></path>
                <path d="M101.4509,150.6941 C101.4809,150.7001 101.5129,150.7061 101.5429,150.7131 C101.5729,150.7181 101.6089,150.7251 101.6509,150.7331 L101.6969,150.6771 L101.3069,150.6111 L101.2709,150.6541 L101.4079,151.0251 L101.4549,150.9691 L101.3389,150.6771 L101.3429,150.6731 C101.3849,150.6811 101.4209,150.6881 101.4509,150.6941" id="Fill-91" fill="#C64242" mask="url(#mask-2)"></path>
                <path d="M101.8512,150.8533 C101.8442,150.8603 101.8372,150.8703 101.8282,150.8803 L101.9442,151.1723 L101.9402,151.1773 L101.6312,151.1173 L101.5852,151.1723 L101.9752,151.2393 L102.0112,151.1973 L101.8732,150.8253 C101.8652,150.8363 101.8572,150.8453 101.8512,150.8533" id="Fill-92" fill="#C64242" mask="url(#mask-2)"></path>
                <polygon id="Fill-93" fill="#C64242" mask="url(#mask-2)" points="100.8805 158.5399 100.6455 159.1509 100.7015 159.1509 100.9375 158.5399"></polygon>
                <polygon id="Fill-94" fill="#C64242" mask="url(#mask-2)" points="100.9342 159.1512 100.9912 159.1512 101.2262 158.5402 101.1692 158.5402"></polygon>
                <polygon id="Fill-95" fill="#C64242" mask="url(#mask-2)" points="95.237 151.7195 95.003 152.3305 95.058 152.3305 95.295 151.7195"></polygon>
                <polygon id="Fill-96" fill="#C64242" mask="url(#mask-2)" points="95.2917 152.3309 95.3487 152.3309 95.5837 151.7199 95.5267 151.7199"></polygon>
                <path d="M112.1491,152.4822 C111.7661,152.8652 111.1401,152.8652 110.7581,152.4822 C110.3761,152.1002 110.3761,151.4742 110.7581,151.0922 L111.9811,149.8702" id="Fill-97" fill="#393C5B" mask="url(#mask-2)"></path>
                <path d="M115.6169,140.6668 C115.6169,140.6658 115.6179,140.6658 115.6179,140.6658 C115.6159,140.6678 115.6129,140.6688 115.6119,140.6708 L114.9039,141.3778 C114.9039,141.3788 114.9039,141.3788 114.9049,141.3788 L115.6169,140.6668 Z" id="Fill-98" fill="#FFFFFF" mask="url(#mask-2)"></path>
                <path d="M114.905,141.3787 C114.904,141.3787 114.904,141.3787 114.904,141.3777 L107.693,148.5887 L107.693,148.5897 C107.695,148.5877 107.697,148.5867 107.699,148.5847 L114.905,141.3787 Z" id="Fill-99" fill="#FFFFFF" mask="url(#mask-2)"></path>
                <path d="M111.9811,149.8699 C111.9861,149.8649 111.9921,149.8619 111.9971,149.8559" id="Fill-100" fill="#FFFFFF" mask="url(#mask-2)"></path>
                <path d="M113.2262,154.1873 C113.2272,154.1863 113.2292,154.1853 113.2302,154.1843" id="Fill-101" fill="#FFFFFF" mask="url(#mask-2)"></path>
                <path d="M111.2565,136.2908 C111.2565,136.8348 110.8155,137.2758 110.2715,137.2758 C109.7275,137.2758 109.2855,136.8348 109.2855,136.2908 C109.2855,135.7468 109.7275,135.3058 110.2715,135.3058 C110.8155,135.3058 111.2565,135.7468 111.2565,136.2908" id="Fill-102" fill="#393C5B" mask="url(#mask-2)"></path>
                <path d="M118.8503,150.9305 C118.8503,151.4745 118.4093,151.9145 117.8653,151.9145 C117.3213,151.9145 116.8793,151.4745 116.8793,150.9305 C116.8793,150.3855 117.3213,149.9455 117.8653,149.9455 C118.4093,149.9455 118.8503,150.3855 118.8503,150.9305" id="Fill-103" fill="#393C5B" mask="url(#mask-2)"></path>
                <path d="M100.2868,136.1014 C100.2868,136.6454 99.8458,137.0864 99.3018,137.0864 C98.7578,137.0864 98.3158,136.6454 98.3158,136.1014 C98.3158,135.5574 98.7578,135.1164 99.3018,135.1164 C99.8458,135.1164 100.2868,135.5574 100.2868,136.1014" id="Fill-104" fill="#393C5B" mask="url(#mask-2)"></path>
                <polygon id="Fill-105" fill="#262C4F" mask="url(#mask-2)" points="108.5094 142.4334 108.7004 141.9344 108.7474 141.9344 108.5554 142.4334"></polygon>
                <polygon id="Fill-106" fill="#262C4F" mask="url(#mask-2)" points="108.7458 142.4334 108.9368 141.9344 108.9838 141.9344 108.7918 142.4334"></polygon>
                <path d="M114.4342,139.3367 C114.3792,139.3807 114.3322,139.4187 114.2922,139.4517 C114.2522,139.4837 114.2112,139.5167 114.1712,139.5487 C114.1312,139.5807 114.0842,139.6197 114.0302,139.6637 L114.0322,139.6737 L114.5252,139.8367 L114.5462,139.9537 L113.9302,139.7327 L113.9132,139.6437 L114.4132,139.2187 L114.4342,139.3367 Z" id="Fill-107" fill="#454F87" mask="url(#mask-2)"></path>
                <path d="M114.8092,139.2684 C114.8042,139.2454 114.8012,139.2254 114.7982,139.2094 C114.7952,139.1944 114.7912,139.1734 114.7882,139.1504 L115.4042,139.3714 L115.4202,139.4604 L114.9212,139.8854 L114.9002,139.7674 L115.3042,139.4414 L115.3022,139.4304 L114.8092,139.2684 Z" id="Fill-108" fill="#454F87" mask="url(#mask-2)"></path>
                <path d="M109.902,150.617 C109.902,150.87 109.697,151.076 109.443,151.076 C109.189,151.076 108.984,150.87 108.984,150.617 C108.984,150.363 109.189,150.158 109.443,150.158 C109.697,150.158 109.902,150.363 109.902,150.617" id="Fill-109" fill="#262C4F" mask="url(#mask-2)"></path>
                <path d="M111.0905,146.8143 L110.2115,146.8143 C110.1385,146.8143 110.0785,146.7533 110.0785,146.6813 C110.0785,146.6083 110.1385,146.5483 110.2115,146.5483 L111.0905,146.5483 C111.1625,146.5483 111.2225,146.6083 111.2225,146.6813 C111.2225,146.7533 111.1625,146.8143 111.0905,146.8143" id="Fill-110" fill="#454F87" mask="url(#mask-2)"></path>
                <path d="M110.7829,146.242 L110.7829,147.121 C110.7829,147.194 110.7229,147.254 110.6509,147.254 C110.5779,147.254 110.5179,147.194 110.5179,147.121 L110.5179,146.242 C110.5179,146.169 110.5779,146.109 110.6509,146.109 C110.7229,146.109 110.7829,146.169 110.7829,146.242" id="Fill-111" fill="#454F87" mask="url(#mask-2)"></path>
                <path d="M115.4294,141.7166 L115.4524,141.5936 L115.4494,141.5926 C115.5044,141.4006 115.5984,140.6796 115.6234,140.4006 C115.6994,139.5486 115.6294,139.0096 115.4154,138.7956 C114.9304,138.3106 112.8524,138.7106 112.6154,138.7586 L112.5184,138.7806 C112.5154,138.7816 112.5134,138.7816 112.5104,138.7826 C112.7594,139.4476 113.5494,141.0996 115.4294,141.7166" id="Fill-112" fill="#FFFFFF" mask="url(#mask-2)"></path>
                <polygon id="Fill-113" fill="#A2C7F4" mask="url(#mask-2)" points="110.1217 148.4705 109.3437 149.2495 110.6547 150.5615"></polygon>
                <polygon id="Fill-114" fill="#A2C7F4" mask="url(#mask-2)" points="109.2321 144.9793 105.5761 144.0373 104.8531 144.7593 109.1101 149.0163 110.0271 148.0983"></polygon>
                <polygon id="Fill-115" fill="#A2C7F4" mask="url(#mask-2)" points="103.6296 143.5359 104.6206 144.5269 105.2056 143.9409"></polygon>
                <path d="M110.818,150.7352 L110.216,148.3762 L110.17,148.4232 L110.762,150.7502 L109.302,149.2902 L109.262,149.3312 L110.721,150.7902 C110.74,150.8082 110.768,150.8122 110.791,150.7992 C110.813,150.7872 110.824,150.7602 110.818,150.7352" id="Fill-116" fill="#101338" mask="url(#mask-2)"></path>
                <path d="M109.28,144.9314 L110.075,148.0514 L110.122,148.0044 L109.336,144.9174 C109.33,144.8974 109.314,144.8814 109.294,144.8764 L105.671,143.9434 L105.624,143.9904 L109.28,144.9314 Z" id="Fill-117" fill="#101338" mask="url(#mask-2)"></path>
                <path d="M103.4401,143.4275 L105.2521,143.8945 L105.2991,143.8475 L103.4551,143.3715 C103.4291,143.3655 103.4031,143.3765 103.3901,143.3995 C103.3781,143.4215 103.3811,143.4495 103.4001,143.4685 L104.5391,144.6085 L104.5801,144.5675 L103.4401,143.4275 Z" id="Fill-118" fill="#101338" mask="url(#mask-2)"></path>
                <polygon id="Fill-119" fill="#101338" mask="url(#mask-2)" points="104.8132 144.8006 104.7722 144.8406 109.0292 149.0976 109.0692 149.0566"></polygon>
                <polygon id="Fill-120" fill="#101338" mask="url(#mask-2)" points="110.655 150.5613 109.343 149.2493 109.302 149.2903 110.762 150.7493 110.17 148.4233 110.122 148.4703"></polygon>
                <polygon id="Fill-121" fill="#101338" mask="url(#mask-2)" points="103.6296 143.5359 105.2056 143.9409 105.2526 143.8939 103.4406 143.4279 104.5796 144.5669 104.6206 144.5269"></polygon>
                <polygon id="Fill-122" fill="#101338" mask="url(#mask-2)" points="104.8132 144.8006 109.0692 149.0566 109.1102 149.0166 104.8532 144.7596"></polygon>
                <polygon id="Fill-123" fill="#101338" mask="url(#mask-2)" points="109.2321 144.9793 110.0271 148.0983 110.0751 148.0513 109.2801 144.9313 105.6241 143.9903 105.5761 144.0373"></polygon>
                <polygon id="Fill-124" fill="#82AEDB" mask="url(#mask-2)" points="110.027 148.0984 109.11 149.0164 109.343 149.2494 110.122 148.4704"></polygon>
                <polygon id="Fill-125" fill="#06091C" mask="url(#mask-2)" points="110.027 148.0984 110.122 148.4704 110.17 148.4234 110.216 148.3754 110.122 148.0044 110.075 148.0514"></polygon>
                <polygon id="Fill-126" fill="#06091C" mask="url(#mask-2)" points="109.3434 149.2498 109.1104 149.0168 109.0694 149.0568 109.0294 149.0978 109.2624 149.3308 109.3024 149.2898"></polygon>
                <polygon id="Fill-127" fill="#82AEDB" mask="url(#mask-2)" points="104.6208 144.5271 104.8528 144.7591 105.5758 144.0371 105.2058 143.9411"></polygon>
                <polygon id="Fill-128" fill="#06091C" mask="url(#mask-2)" points="104.6208 144.5271 104.5798 144.5671 104.5388 144.6081 104.7718 144.8401 104.8128 144.8001 104.8528 144.7591"></polygon>
                <polygon id="Fill-129" fill="#06091C" mask="url(#mask-2)" points="105.2995 143.8475 105.2525 143.8945 105.2055 143.9415 105.5755 144.0365 105.6235 143.9905 105.6705 143.9435"></polygon>
                <path d="M114.7712,143.2664 C115.1422,142.8494 115.2922,142.3674 115.4062,141.8294 C114.6512,141.5834 114.0672,141.1764 113.6202,140.7304 C112.9152,140.0254 112.5512,139.2224 112.3982,138.8084 C111.8702,138.9294 111.3712,139.0624 110.9452,139.4404 C110.9362,139.4444 110.9282,139.4504 110.9212,139.4564 L104.0412,146.3374 C104.0062,146.3704 104.0062,146.4254 104.0412,146.4594 L107.7522,150.1704 C107.7862,150.2044 107.8402,150.2044 107.8742,150.1704 L114.7552,143.2894 C114.7622,143.2834 114.7672,143.2754 114.7712,143.2664" id="Fill-130" fill="#FFFFFF" mask="url(#mask-2)"></path>
                <path d="M111.8434,138.9539 C111.8434,138.9539 112.6714,141.5379 115.2644,142.3749 L115.4264,141.8079 C115.4264,141.8079 113.6244,141.4969 112.3984,138.8079 L111.8434,138.9539 Z" id="Fill-131" fill="#A2C7F4" mask="url(#mask-2)"></path>
                <path d="M115.4333,141.573 L115.4283,141.572 C115.4843,141.381 115.5793,140.659 115.6033,140.381 C115.6793,139.529 115.6093,138.989 115.3953,138.775 C115.3483,138.728 115.2853,138.689 115.2093,138.657 C115.3283,138.935 115.3583,139.41 115.2993,140.076 C115.2743,140.355 115.1803,141.076 115.1233,141.268 L115.1283,141.269 C115.1013,141.411 115.0733,141.55 115.0413,141.685 C115.2063,141.754 115.3283,141.787 115.3873,141.802 C115.4033,141.726 115.4183,141.65 115.4333,141.573" id="Fill-132" fill="#EDEDED" mask="url(#mask-2)"></path>
                <path d="M114.7516,143.2469 C114.9886,142.9789 115.1356,142.6849 115.2396,142.3679 C115.1146,142.3269 114.9926,142.2809 114.8756,142.2319 C114.7746,142.4859 114.6426,142.7239 114.4466,142.9419 C114.4426,142.9509 114.4376,142.9589 114.4306,142.9659 L107.5496,149.8469 C107.5166,149.8809 107.4616,149.8809 107.4276,149.8469 L107.7316,150.1509 C107.7656,150.1839 107.8196,150.1839 107.8546,150.1509 L114.7346,143.2689 C114.7416,143.2629 114.7476,143.2549 114.7516,143.2469" id="Fill-133" fill="#EDEDED" mask="url(#mask-2)"></path>
                <path d="M115.2663,142.3768 L115.4283,141.8108 C115.4283,141.8108 115.4133,141.8078 115.3873,141.8018 C115.3463,141.9978 115.3003,142.1868 115.2403,142.3678 L115.2663,142.3768 Z" id="Fill-134" fill="#589ADB" mask="url(#mask-2)"></path>
                <path d="M115.3874,141.8016 C115.3274,141.7866 115.2064,141.7536 115.0414,141.6856 C114.9964,141.8746 114.9444,142.0576 114.8754,142.2326 C114.9924,142.2806 115.1154,142.3266 115.2404,142.3676 C115.3004,142.1866 115.3464,141.9976 115.3874,141.8016" id="Fill-135" fill="#589ADB" mask="url(#mask-2)"></path>
                <path d="M112.6305,143.6629 C112.0555,144.2369 111.1235,144.2369 110.5495,143.6629 C109.9745,143.0879 109.9745,142.1559 110.5495,141.5809 C111.1235,141.0069 112.0555,141.0069 112.6305,141.5809 C113.2045,142.1559 113.2045,143.0879 112.6305,143.6629" id="Fill-136" fill="#A2C7F4" mask="url(#mask-2)"></path>
                <path d="M112.6403,141.5916 C112.5993,141.5506 112.5563,141.5126 112.5113,141.4776 C112.9683,142.0546 112.9303,142.8956 112.3973,143.4296 C111.8643,143.9626 111.0223,144.0006 110.4453,143.5436 C110.4803,143.5886 110.5183,143.6316 110.5593,143.6726 C111.1333,144.2476 112.0663,144.2476 112.6403,143.6726 C113.2153,143.0986 113.2153,142.1656 112.6403,141.5916" id="Fill-137" fill="#589ADB" mask="url(#mask-2)"></path>
                <path d="M112.5895,141.6219 C112.0385,141.0699 111.1415,141.0699 110.5895,141.6219 C110.0375,142.1739 110.0375,143.0699 110.5895,143.6219 C111.1415,144.1739 112.0385,144.1739 112.5895,143.6219 C113.1415,143.0699 113.1415,142.1739 112.5895,141.6219 M110.5085,143.7029 C109.9125,143.1069 109.9125,142.1369 110.5085,141.5409 C111.1045,140.9439 112.0745,140.9439 112.6705,141.5409 C113.2675,142.1369 113.2675,143.1069 112.6705,143.7029 C112.0745,144.2999 111.1045,144.2999 110.5085,143.7029" id="Fill-138" fill="#101338" mask="url(#mask-2)"></path>
                <path d="M105.653,143.4061 C105.966,143.0931 105.966,142.5841 105.653,142.2701 C105.339,141.9571 104.831,141.9571 104.516,142.2701 L102.57,144.2181 L103.706,145.3531 L105.653,143.4061 Z" id="Fill-139" fill="#FFFFFF" mask="url(#mask-2)"></path>
                <polygon id="Fill-140" fill="#A2C7F4" mask="url(#mask-2)" points="103.7018 145.3572 102.5658 144.2212 103.0538 143.7342 104.1888 144.8702"></polygon>
                <path d="M102.651,144.2176 L103.706,145.2726 L105.612,143.3656 C105.903,143.0746 105.903,142.6016 105.612,142.3116 C105.321,142.0206 104.848,142.0206 104.557,142.3116 L102.651,144.2176 Z M103.665,145.3946 L102.529,144.2586 C102.506,144.2366 102.506,144.1986 102.529,144.1766 L104.476,142.2306 C104.811,141.8946 105.358,141.8946 105.693,142.2306 C106.029,142.5656 106.029,143.1116 105.693,143.4466 L103.746,145.3946 C103.723,145.4166 103.687,145.4166 103.665,145.3946 L103.665,145.3946 Z" id="Fill-141" fill="#101338" mask="url(#mask-2)"></path>
                <path d="M111.9196,149.6736 C112.2326,149.3596 112.2326,148.8516 111.9196,148.5366 C111.6066,148.2236 111.0976,148.2236 110.7836,148.5366 L108.8366,150.4846 L109.9726,151.6196 L111.9196,149.6736 Z" id="Fill-142" fill="#FFFFFF" mask="url(#mask-2)"></path>
                <polygon id="Fill-143" fill="#A2C7F4" mask="url(#mask-2)" points="109.9684 151.6238 108.8324 150.4878 109.3204 150.0008 110.4554 151.1368"></polygon>
                <path d="M108.9176,150.4842 L109.9726,151.5392 L111.8786,149.6322 C112.1696,149.3412 112.1696,148.8692 111.8786,148.5782 C111.5886,148.2872 111.1146,148.2872 110.8236,148.5782 L108.9176,150.4842 Z M109.9316,151.6612 L108.7956,150.5252 C108.7726,150.5032 108.7726,150.4662 108.7956,150.4442 L110.7426,148.4972 C111.0786,148.1612 111.6246,148.1612 111.9596,148.4972 C112.2956,148.8322 112.2956,149.3792 111.9596,149.7132 L110.0126,151.6612 C109.9906,151.6832 109.9536,151.6832 109.9316,151.6612 L109.9316,151.6612 Z" id="Fill-144" fill="#101338" mask="url(#mask-2)"></path>
                <path d="M103.7341,147.7469 C103.6291,147.8589 103.6301,148.0369 103.7401,148.1459 L106.0941,150.5009 C106.2041,150.6099 106.3811,150.6119 106.4941,150.5069 L106.7861,149.9349 L104.3051,147.4549 L103.7341,147.7469 Z" id="Fill-145" fill="#A2C7F4" mask="url(#mask-2)"></path>
                <path d="M106.5407,150.5408 C106.4057,150.6748 106.1867,150.6748 106.0537,150.5408 L103.6997,148.1868 C103.5657,148.0538 103.5657,147.8348 103.6997,147.7008 L104.2637,147.4118 L104.2207,147.3688 L103.6737,147.6488 C103.6677,147.6518 103.6637,147.6558 103.6587,147.6598 C103.5027,147.8158 103.5027,148.0708 103.6587,148.2278 L106.0127,150.5818 C106.1697,150.7378 106.4247,150.7378 106.5807,150.5818 C106.5847,150.5778 106.5887,150.5728 106.5917,150.5668 L106.8717,150.0198 L106.8287,149.9778 L106.5407,150.5408 Z" id="Fill-146" fill="#101338" mask="url(#mask-2)"></path>
                <path d="M106.4938,150.5066 C106.3818,150.6116 106.2038,150.6106 106.0948,150.5006 L103.7398,148.1466 C103.6308,148.0366 103.6288,147.8596 103.7338,147.7466 L104.3058,147.4546 L104.2638,147.4116 L103.6998,147.7006 C103.5658,147.8346 103.5658,148.0536 103.6998,148.1876 L106.0538,150.5406 C106.1868,150.6746 106.4058,150.6746 106.5408,150.5406 L106.8288,149.9776 L106.7858,149.9356 L106.4938,150.5066 Z" id="Fill-147" fill="#101338" mask="url(#mask-2)"></path>
                <path d="M104.3053,147.4549 L106.7853,149.9349 L106.9143,149.6839 C106.9513,149.6029 106.9753,149.5409 106.9873,149.4869 L104.7523,147.2519 C104.6983,147.2639 104.6343,147.2879 104.5563,147.3259 L104.3053,147.4549 Z" id="Fill-148" fill="#82AEDB" mask="url(#mask-2)"></path>
                <path d="M107.0798,149.5799 L107.0338,149.5339 C107.0178,149.5859 106.9958,149.6429 106.9668,149.7099 L106.8288,149.9769 L106.8718,150.0199 L107.0178,149.7329 C107.0428,149.6789 107.0638,149.6289 107.0798,149.5799" id="Fill-149" fill="#06091C" mask="url(#mask-2)"></path>
                <path d="M104.5309,147.2742 C104.5929,147.2442 104.6509,147.2202 104.7059,147.2062 L104.6589,147.1592 C104.6059,147.1762 104.5539,147.1992 104.5049,147.2232 L104.2199,147.3692 L104.2629,147.4122 L104.5309,147.2742 Z" id="Fill-150" fill="#06091C" mask="url(#mask-2)"></path>
                <path d="M104.5563,147.326 C104.6343,147.288 104.6983,147.264 104.7523,147.252 L104.7053,147.206 C104.6513,147.221 104.5933,147.244 104.5313,147.274 L104.2633,147.412 L104.3053,147.455 L104.5563,147.326 Z" id="Fill-151" fill="#06091C" mask="url(#mask-2)"></path>
                <path d="M106.9147,149.6834 L106.7857,149.9354 L106.8287,149.9774 L106.9667,149.7094 C106.9957,149.6434 107.0187,149.5854 107.0337,149.5344 L106.9867,149.4874 C106.9757,149.5404 106.9507,149.6034 106.9147,149.6834" id="Fill-152" fill="#06091C" mask="url(#mask-2)"></path>
                <path d="M115.4059,141.8299 C115.4139,141.7919 115.4219,141.7549 115.4289,141.7169 C113.5499,141.0999 112.7599,139.4479 112.5099,138.7829 C112.4729,138.7909 112.4349,138.7999 112.3979,138.8089 C112.5519,139.2229 112.9149,140.0249 113.6199,140.7299 C114.0669,141.1769 114.6509,141.5839 115.4059,141.8299" id="Fill-153" fill="#101338" mask="url(#mask-2)"></path>
                <path d="M112.9675,138.7527 C112.9285,138.7597 112.8895,138.7667 112.8515,138.7727 C113.0465,139.2127 113.3905,139.8357 113.9525,140.3987 C114.3365,140.7817 114.8235,141.1377 115.4345,141.3857 C115.4405,141.3497 115.4465,141.3107 115.4535,141.2697 C114.0215,140.6767 113.2915,139.4747 112.9675,138.7527" id="Fill-154" fill="#101338" mask="url(#mask-2)"></path>
                <path d="M115.4342,141.3855 C115.4692,141.4005 115.5062,141.4135 115.5422,141.4275 C115.5492,141.3925 115.5562,141.3535 115.5632,141.3135 C115.5262,141.2985 115.4902,141.2835 115.4542,141.2695 C115.4472,141.3105 115.4402,141.3495 115.4342,141.3855" id="Fill-155" fill="#101338" mask="url(#mask-2)"></path>
                <path d="M112.9675,138.7527 C112.9505,138.7147 112.9355,138.6797 112.9205,138.6447 C112.8795,138.6507 112.8405,138.6577 112.8055,138.6647 C112.8195,138.6987 112.8345,138.7347 112.8515,138.7727 C112.8895,138.7667 112.9285,138.7597 112.9675,138.7527" id="Fill-156" fill="#101338" mask="url(#mask-2)"></path>
                <path d="M112.8298,139.0467 C112.8018,139.0747 112.7568,139.0747 112.7278,139.0467 C112.6998,139.0197 112.6998,138.9737 112.7278,138.9447 C112.7568,138.9167 112.8018,138.9167 112.8298,138.9447 C112.8578,138.9737 112.8578,139.0197 112.8298,139.0467" id="Fill-157" fill="#589ADB" mask="url(#mask-2)"></path>
                <path d="M113.0563,139.5018 C113.0283,139.5298 112.9823,139.5298 112.9543,139.5018 C112.9263,139.4738 112.9263,139.4278 112.9543,139.3998 C112.9823,139.3718 113.0283,139.3718 113.0563,139.3998 C113.0843,139.4278 113.0843,139.4738 113.0563,139.5018" id="Fill-158" fill="#589ADB" mask="url(#mask-2)"></path>
                <path d="M113.3249,139.9139 C113.2969,139.9419 113.2519,139.9419 113.2229,139.9139 C113.1949,139.8859 113.1949,139.8409 113.2229,139.8119 C113.2519,139.7839 113.2969,139.7839 113.3249,139.8119 C113.3529,139.8409 113.3529,139.8859 113.3249,139.9139" id="Fill-159" fill="#589ADB" mask="url(#mask-2)"></path>
                <path d="M113.6208,140.2996 C113.5928,140.3276 113.5478,140.3276 113.5188,140.2996 C113.4908,140.2716 113.4908,140.2256 113.5188,140.1966 C113.5478,140.1686 113.5928,140.1686 113.6208,140.1966 C113.6488,140.2256 113.6488,140.2716 113.6208,140.2996" id="Fill-160" fill="#589ADB" mask="url(#mask-2)"></path>
                <path d="M113.9548,140.6463 C113.9278,140.6743 113.8818,140.6743 113.8528,140.6463 C113.8248,140.6183 113.8248,140.5723 113.8528,140.5443 C113.8818,140.5163 113.9278,140.5163 113.9548,140.5443 C113.9828,140.5723 113.9828,140.6183 113.9548,140.6463" id="Fill-161" fill="#589ADB" mask="url(#mask-2)"></path>
                <path d="M114.3151,140.9676 C114.2871,140.9956 114.2411,140.9956 114.2131,140.9676 C114.1851,140.9396 114.1851,140.8936 114.2131,140.8646 C114.2411,140.8366 114.2871,140.8366 114.3151,140.8646 C114.3431,140.8936 114.3431,140.9396 114.3151,140.9676" id="Fill-162" fill="#589ADB" mask="url(#mask-2)"></path>
                <path d="M114.7321,141.2264 C114.7141,141.2614 114.6701,141.2764 114.6351,141.2574 C114.6001,141.2394 114.5861,141.1954 114.6041,141.1604 C114.6231,141.1244 114.6661,141.1114 114.7021,141.1294 C114.7371,141.1474 114.7511,141.1914 114.7321,141.2264" id="Fill-163" fill="#589ADB" mask="url(#mask-2)"></path>
                <path d="M115.1755,141.4646 C115.1575,141.4996 115.1135,141.5136 115.0785,141.4946 C115.0435,141.4766 115.0295,141.4336 115.0475,141.3986 C115.0665,141.3616 115.1095,141.3486 115.1455,141.3666 C115.1805,141.3856 115.1945,141.4286 115.1755,141.4646" id="Fill-164" fill="#589ADB" mask="url(#mask-2)"></path>
                <path d="M115.3757,138.8367 C115.5137,138.9747 115.6587,139.3577 115.5657,140.3957 C115.5497,140.5897 115.4997,140.9817 115.4537,141.2697 C115.4897,141.2837 115.5257,141.2987 115.5627,141.3137 C115.6117,141.0157 115.6627,140.6057 115.6807,140.4047 C115.7587,139.5237 115.6857,138.9837 115.4567,138.7557 C115.0437,138.3427 113.6147,138.5247 112.9207,138.6447 C112.9357,138.6797 112.9507,138.7147 112.9677,138.7527 C113.8307,138.6077 115.0447,138.5057 115.3757,138.8367" id="Fill-165" fill="#101338" mask="url(#mask-2)"></path>
                <path d="M114.819,143.2996 C115.25,142.8126 115.383,142.2416 115.506,141.6026 C115.507,141.5966 115.51,141.5926 115.509,141.5876 C115.52,141.5476 115.531,141.4916 115.543,141.4276 C115.506,141.4136 115.469,141.4006 115.434,141.3856 C115.42,141.4676 115.405,141.5356 115.393,141.5766 C115.391,141.5846 115.386,141.5926 115.388,141.6016 C115.269,142.2176 115.139,142.7666 114.728,143.2286 C114.725,143.2326 114.722,143.2376 114.72,143.2416 C114.718,143.2436 114.716,143.2466 114.715,143.2486 L107.834,150.1306 C107.822,150.1416 107.804,150.1416 107.793,150.1306 L104.081,146.4186 C104.07,146.4076 104.07,146.3896 104.081,146.3786 L110.963,139.4966 C110.965,139.4946 110.967,139.4926 110.97,139.4916 C110.974,139.4886 110.979,139.4866 110.983,139.4836 C111.43,139.0866 111.965,138.9656 112.531,138.8366 L112.627,138.8156 C112.697,138.8016 112.772,138.7866 112.851,138.7726 C112.835,138.7356 112.819,138.6986 112.805,138.6646 C112.718,138.6806 112.649,138.6946 112.602,138.7026 L112.506,138.7256 C111.926,138.8566 111.38,138.9806 110.912,139.3926 C110.901,139.3996 110.89,139.4066 110.881,139.4156 L104,146.2966 C103.944,146.3536 103.944,146.4446 104,146.4996 L107.712,150.2116 C107.767,150.2676 107.858,150.2676 107.915,150.2116 L114.796,143.3306 C114.804,143.3206 114.812,143.3116 114.819,143.2996" id="Fill-166" fill="#101338" mask="url(#mask-2)"></path>
                <path d="M101.3034,162.4578 C101.3034,162.4578 103.3764,162.9448 104.0014,162.9058 L101.3694,162.3828 L101.3034,162.4578 Z" id="Fill-167" fill="#D85959" mask="url(#mask-2)"></path>
            </g>
        </g>
    </g>
</svg>