<?xml version="1.0" encoding="UTF-8"?>
<svg width="193px" height="179px" viewBox="0 0 193 179" version="1.1" xmlns="http://www.w3.org/2000/svg" xmlns:xlink="http://www.w3.org/1999/xlink">
    <!-- Generator: Sketch 44 (41411) - http://www.bohemiancoding.com/sketch -->
    <title>Page 1</title>
    <desc>Created with Sketch.</desc>
    <defs>
        <polygon id="path-1" points="0.530693264 0.314409326 58.4237451 0.314409326 58.4237451 26.4815197 0.530693264 26.4815197 0.530693264 0.314409326"></polygon>
    </defs>
    <g id="Page-1" stroke="none" stroke-width="1" fill="none" fill-rule="evenodd">
        <g id="Desktop-HD" transform="translate(-886.000000, -1047.000000)">
            <g id="Page-1" transform="translate(886.000000, 1047.000000)">
                <path d="M118.619034,22.959115 L110.554759,22.959115 C110.554759,22.959115 92.369101,21.480742 94.3204793,9.42374715 C94.3204793,9.42374715 80.1961736,10.8334881 86.5335155,22.959115 L86.0363964,22.959115 L75.4920907,22.959115 C69.923614,22.959115 65.3669974,27.5148041 65.3669974,33.0832808 C65.3669974,38.6517575 69.923614,43.2083741 75.4920907,43.2083741 L118.619034,43.2083741 C124.18751,43.2083741 128.744127,38.6517575 128.744127,33.0832808 C128.744127,27.5148041 124.18751,22.959115 118.619034,22.959115" id="Fill-1" fill="#282524"></path>
                <path d="M75.4920907,23.8865762 C70.4207332,23.8865762 66.2944585,28.0119233 66.2944585,33.0832808 C66.2944585,38.1546383 70.4207332,42.280913 75.4920907,42.280913 L118.619034,42.280913 C123.690391,42.280913 127.816666,38.1546383 127.816666,33.0832808 C127.816666,28.0119233 123.690391,23.8865762 118.619034,23.8865762 L110.554759,23.8865762 C110.045583,23.8485503 99.8156865,22.9544777 95.3165725,17.2144207 C93.8085207,15.2880839 93.1203446,13.0482653 93.2650285,10.5404104 C91.4305104,10.9243793 87.9005933,11.9900321 86.4667383,14.654628 C85.3806813,16.6727834 85.6793238,19.3225399 87.3552461,22.5297005 C87.5054948,22.8172135 87.4943653,23.162229 87.3264948,23.4404674 C87.1586244,23.7168508 86.8571995,23.8865762 86.5335155,23.8865762 L75.4920907,23.8865762 Z M118.619034,44.1358352 L75.4920907,44.1358352 C69.3977435,44.1358352 64.4395363,39.177628 64.4395363,33.0832808 C64.4395363,26.9898611 69.3977435,22.0316539 75.4920907,22.0316539 L85.0644171,22.0316539 C83.6843549,18.8217109 83.6073756,16.0476746 84.8371891,13.7679751 C87.2782668,9.24381969 93.945785,8.52874715 94.2286606,8.50092332 C94.517101,8.47402694 94.7981218,8.57883005 94.995671,8.78843627 C95.1932202,8.99804249 95.281329,9.28833782 95.2358834,9.57214093 C94.8333653,12.0623741 95.3508886,14.2474725 96.7745415,16.0671513 C100.767262,21.1681876 110.531573,22.0260891 110.629883,22.0344363 L118.619034,22.0316539 C124.713381,22.0316539 129.671588,26.9898611 129.671588,33.0832808 C129.671588,39.177628 124.713381,44.1358352 118.619034,44.1358352 L118.619034,44.1358352 Z" id="Fill-3" fill="#1B2635"></path>
                <path d="M191.520725,178.685591 L1.39119171,178.685591 C0.622326425,178.685591 0,178.062337 0,177.294399 C0,176.526461 0.622326425,175.903207 1.39119171,175.903207 L191.520725,175.903207 C192.289591,175.903207 192.911917,176.526461 192.911917,177.294399 C192.911917,178.062337 192.289591,178.685591 191.520725,178.685591" id="Fill-5" fill="#1B2635"></path>
                <path d="M140.780718,118.941326 C140.780718,131.961026 120.935832,142.514606 96.4554948,142.514606 C71.9742306,142.514606 52.130272,131.961026 52.130272,118.941326 C52.130272,105.922554 71.9742306,95.3689741 96.4554948,95.3689741 C120.935832,95.3689741 140.780718,105.922554 140.780718,118.941326" id="Fill-7" fill="#52DB72"></path>
                <path d="M96.4550311,96.2964352 C72.5256062,96.2964352 53.0572694,106.454917 53.0572694,118.941326 C53.0572694,131.428663 72.5256062,141.587145 96.4550311,141.587145 C120.384456,141.587145 139.852793,131.428663 139.852793,118.941326 C139.852793,106.454917 120.384456,96.2964352 96.4550311,96.2964352 M96.4550311,143.442067 C71.5026166,143.442067 51.2023472,132.450725 51.2023472,118.941326 C51.2023472,105.432855 71.5026166,94.441513 96.4550311,94.441513 C121.407446,94.441513 141.707715,105.432855 141.707715,118.941326 C141.707715,132.450725 121.407446,143.442067 96.4550311,143.442067" id="Fill-9" fill="#1B2635"></path>
                <path d="M68.2893347,66.9265233 C64.3624642,66.9265233 61.1784902,63.7425492 61.1784902,59.8156788 C61.1784902,55.8897358 64.3624642,52.7057617 68.2893347,52.7057617" id="Fill-11" fill="#FCE7DB"></path>
                <path d="M68.2893347,67.8539845 C63.8569979,67.8539845 60.251029,64.2480155 60.251029,59.8156788 C60.251029,55.3842694 63.8569979,51.7783005 68.2893347,51.7783005 C68.8012933,51.7783005 69.2167959,52.1928756 69.2167959,52.7057617 C69.2167959,53.2186477 68.8012933,53.6332228 68.2893347,53.6332228 C64.8799876,53.6332228 62.1059513,56.4063316 62.1059513,59.8156788 C62.1059513,63.2250259 64.8799876,65.9990622 68.2893347,65.9990622 C68.8012933,65.9990622 69.2167959,66.4136373 69.2167959,66.9265233 C69.2167959,67.4394093 68.8012933,67.8539845 68.2893347,67.8539845" id="Fill-13" fill="#1B2635"></path>
                <path d="M125.490315,52.7057617 C129.417185,52.7057617 132.60116,55.8897358 132.60116,59.8156788 C132.60116,63.7425492 129.417185,66.9265233 125.490315,66.9265233" id="Fill-15" fill="#F9D6BF"></path>
                <path d="M125.490315,67.8539845 C124.978356,67.8539845 124.562854,67.4394093 124.562854,66.9265233 C124.562854,66.4136373 124.978356,65.9990622 125.490315,65.9990622 C128.899662,65.9990622 131.673698,63.2250259 131.673698,59.8156788 C131.673698,56.4063316 128.899662,53.6332228 125.490315,53.6332228 C124.978356,53.6332228 124.562854,53.2186477 124.562854,52.7057617 C124.562854,52.1928756 124.978356,51.7783005 125.490315,51.7783005 C129.922652,51.7783005 133.528621,55.3842694 133.528621,59.8156788 C133.528621,64.2480155 129.922652,67.8539845 125.490315,67.8539845" id="Fill-17" fill="#1B2635"></path>
                <path d="M104.006049,95.1968373 L104.315821,95.1968373 L104.315821,90.3647648 L88.5193026,90.3647648 L88.5193026,95.1968373 L88.8290746,95.1968373 C87.9618984,96.0538114 87.4517948,97.064744 87.4517948,98.1517285 C87.4517948,101.224407 91.4658466,103.716495 96.4175617,103.716495 C101.369277,103.716495 105.383328,101.224407 105.383328,98.1517285 C105.383328,97.064744 104.874152,96.0538114 104.006049,95.1968373" id="Fill-19" fill="#F9D6BF"></path>
                <path d="M89.4465782,94.5049513 C89.5495264,94.5967699 89.6329979,94.7117751 89.6867907,94.8444021 C89.8305472,95.1922 89.7489306,95.5928632 89.4808943,95.8562622 C88.9791378,96.3533813 88.3799979,97.1537803 88.3799979,98.1517285 C88.3799979,100.665148 92.0601637,102.789034 96.4183036,102.789034 C100.774589,102.789034 104.455682,100.665148 104.455682,98.1517285 C104.455682,97.1537803 103.856542,96.3524539 103.354785,95.8571896 C103.086749,95.5928632 103.005133,95.1922 103.147962,94.8444021 C103.202682,94.7117751 103.286153,94.5967699 103.389102,94.5049513 L103.389102,91.2922259 L89.4465782,91.2922259 L89.4465782,94.5049513 Z M96.4183036,104.643956 C90.8702311,104.643956 86.5250756,101.791086 86.5250756,98.1517285 C86.5250756,97.1138995 86.8914228,96.1066767 87.591656,95.1968373 L87.591656,90.3647648 C87.591656,89.8518788 88.0071585,89.4373036 88.5191171,89.4373036 L104.316563,89.4373036 C104.828521,89.4373036 105.244024,89.8518788 105.244024,90.3647648 L105.244024,95.1968373 C105.944257,96.1057492 106.310604,97.1138995 106.310604,98.1517285 C106.310604,101.791086 101.965449,104.643956 96.4183036,104.643956 L96.4183036,104.643956 Z" id="Fill-21" fill="#1B2635"></path>
                <polygon id="Fill-23" fill="#F1F1F1" points="153.726684 109.779958 39.1852332 109.779958 44.75 175.629699 149.089378 175.629699"></polygon>
                <path d="M46.0284124,174.238507 L147.792231,174.238507 L152.233842,111.17115 L40.6982933,111.17115 L46.0284124,174.238507 Z M149.088822,177.020891 L44.750371,177.020891 C44.0269513,177.020891 43.4241016,176.467196 43.3638166,175.746559 L37.7981223,109.896818 C37.7656611,109.509139 37.8964332,109.12517 38.1607596,108.838585 C38.4241585,108.551999 38.795143,108.388766 39.1846767,108.388766 L153.727055,108.388766 C154.112879,108.388766 154.481081,108.549217 154.74448,108.832093 C155.006951,109.113113 155.141433,109.492445 155.114537,109.877341 L150.476304,175.727082 C150.425293,176.456067 149.819661,177.020891 149.088822,177.020891 L149.088822,177.020891 Z" id="Fill-25" fill="#1B2635"></path>
                <path d="M124.872626,38.7938446 L124.872626,65.3804456 L124.739072,65.3804456 C123.371066,79.606772 111.388268,90.7307409 96.803942,90.7307409 C82.2186881,90.7307409 70.2358902,79.606772 68.867885,65.3804456 L68.735258,65.3804456 L68.735258,38.7938446 C68.735258,38.7938446 93.1886984,21.4809275 124.872626,38.7938446" id="Fill-27" fill="#FCE7DB"></path>
                <path d="M69.6623482,64.9013192 C69.7319078,65.0172518 69.7773534,65.1498788 69.7912653,65.2917803 C71.134229,79.2649098 82.7469699,89.8036508 96.803571,89.8036508 C110.859245,89.8036508 122.471985,79.2649098 123.815877,65.2917803 C123.829789,65.1489513 123.875234,65.0163244 123.944794,64.9003917 L123.944794,39.3460549 C95.4995606,24.0902466 72.8815658,37.2416456 69.6623482,39.2931896 L69.6623482,64.9013192 Z M96.803571,91.6585731 C81.9447161,91.6585731 69.6410166,80.6347699 67.9938456,65.9382207 C67.8769855,65.7824073 67.8074259,65.5894953 67.8074259,65.3808166 L67.8074259,38.7942155 C67.8074259,38.4927907 67.9530373,38.2108425 68.1988145,38.0364798 C68.4483016,37.8611896 93.4925347,20.5909358 125.317436,37.9799047 C125.615151,38.1422104 125.799716,38.4547648 125.799716,38.7942155 L125.799716,65.3808166 C125.799716,65.5894953 125.731084,65.7833347 125.613296,65.9382207 C123.966125,80.6347699 111.662426,91.6585731 96.803571,91.6585731 L96.803571,91.6585731 Z" id="Fill-29" fill="#1B2635"></path>
                <path d="M97.0555622,82.4035311 C93.1861943,82.4035311 87.4609767,80.2388368 87.4609767,75.591329 C87.4609767,75.0793705 87.8764793,74.6638679 88.3884378,74.6638679 C88.9003964,74.6638679 89.315899,75.0793705 89.315899,75.591329 C89.315899,78.7836503 93.8919922,80.5486088 97.0555622,80.5486088 C100.219132,80.5486088 104.795225,78.7836503 104.795225,75.591329 C104.795225,75.0793705 105.209801,74.6638679 105.722687,74.6638679 C106.234645,74.6638679 106.650148,75.0793705 106.650148,75.591329 C106.650148,80.2388368 100.92493,82.4035311 97.0555622,82.4035311" id="Fill-31" fill="#1B2635"></path>
                <path d="M88.7088756,53.6313679 L83.3639171,53.6313679 C82.8519585,53.6313679 82.436456,53.2167927 82.436456,52.7039067 C82.436456,52.1910207 82.8519585,51.7764456 83.3639171,51.7764456 L88.7088756,51.7764456 C89.2208342,51.7764456 89.6363368,52.1910207 89.6363368,52.7039067 C89.6363368,53.2167927 89.2208342,53.6313679 88.7088756,53.6313679" id="Fill-33" fill="#1B2635"></path>
                <path d="M110.554481,53.6313679 L105.209522,53.6313679 C104.697564,53.6313679 104.282061,53.2167927 104.282061,52.7039067 C104.282061,52.1910207 104.697564,51.7764456 105.209522,51.7764456 L110.554481,51.7764456 C111.066439,51.7764456 111.481942,52.1910207 111.481942,52.7039067 C111.481942,53.2167927 111.066439,53.6313679 110.554481,53.6313679" id="Fill-35" fill="#1B2635"></path>
                <path d="M96.4886052,69.4118409 C94.1690249,69.4118409 92.1898228,67.7897114 91.9570301,65.5990482 L93.8026777,65.4033539 C93.9436518,66.7416803 95.2986725,67.7016026 96.8206363,67.5392969 C97.5737347,67.4595352 98.2507813,67.1210119 98.7265689,66.5877218 C99.1791699,66.0785456 99.3915585,65.4506544 99.3247813,64.8190534 L101.169502,64.6233591 C101.291926,65.781758 100.916305,66.9169705 100.112196,67.8212451 C99.3294187,68.6995508 98.2294497,69.2551 97.0154031,69.3840171 C96.838258,69.4025663 96.6620404,69.4118409 96.4886052,69.4118409" id="Fill-37" fill="#1B2635"></path>
                <path d="M67.4324534,36.8085212 C67.4324534,36.8085212 68.8505415,48.1893969 97.7316813,36.8085212 L117.198163,29.7514694 L87.3023808,26.659314 L76.2628109,31.0220912 L67.4324534,36.8085212 Z" id="Fill-39" fill="#282524"></path>
                <path d="M107.24632,40.1044399 L90.4546358,40.1044399 C90.1986565,40.1044399 89.9909052,39.8966886 89.9909052,39.6407093 C89.9909052,39.3847301 90.1986565,39.1769788 90.4546358,39.1769788 L107.24632,39.1769788 C107.502299,39.1769788 107.71005,39.3847301 107.71005,39.6407093 C107.71005,39.8966886 107.502299,40.1044399 107.24632,40.1044399" id="Fill-41" fill="#EDC7B2"></path>
                <path d="M97.9707808,41.9565798 L81.1790969,41.9565798 C80.9231176,41.9565798 80.7153663,41.7488285 80.7153663,41.4928492 C80.7153663,41.2368699 80.9231176,41.0291187 81.1790969,41.0291187 L97.9707808,41.0291187 C98.2267601,41.0291187 98.4345114,41.2368699 98.4345114,41.4928492 C98.4345114,41.7488285 98.2267601,41.9565798 97.9707808,41.9565798" id="Fill-43" fill="#EDC7B2"></path>
                <path d="M90.2427109,26.658943 C90.2427109,26.658943 87.6272705,25.5116736 86.5328663,22.9593005" id="Fill-45" fill="#755444"></path>
                <path d="M90.2413197,27.5864041 C90.1170399,27.5864041 89.9909052,27.5613627 89.8703352,27.5084974 C89.7497653,27.4547047 86.905242,26.1803731 85.6809933,23.3237927 C85.4788067,22.8535699 85.6976876,22.3091503 86.1679104,22.1069637 C86.6381332,21.9029223 87.1844078,22.1218031 87.3856668,22.5938808 C88.3159104,24.7632124 90.5946824,25.800114 90.6178689,25.8112435 C91.0843819,26.0199223 91.2967705,26.5661969 91.0899466,27.0336373 C90.9359881,27.3795803 90.5974648,27.5864041 90.2413197,27.5864041" id="Fill-47" fill="#1B2635"></path>
                <path d="M68.734887,40.591728 C68.734887,40.591728 78.4945606,48.9963808 115.884229,29.6152254" id="Fill-49" fill="#282524"></path>
                <path d="M76.8270782,43.3279238 C70.6381301,43.3279238 68.3241145,41.461872 68.1302751,41.294929 C67.7416689,40.9601155 67.6980782,40.3739601 68.0319642,39.9862813 C68.3630679,39.6004575 68.9427311,39.5550119 69.3313373,39.8814782 C69.4843684,40.0011207 79.4851819,47.4375041 115.45769,28.7918254 C115.914001,28.5562503 116.47326,28.7343228 116.707907,29.1887788 C116.943482,29.6432347 116.766337,30.2034212 116.310954,30.4389964 C96.2277104,40.8488202 83.956472,43.3279238 76.8270782,43.3279238" id="Fill-51" fill="#1B2635"></path>
                <polyline id="Fill-53" fill="#282524" points="118.954125 34.8131813 122.703851 54.7146425 124.872255 56.1058342 126.838473 38.3495907"></polyline>
                <path d="M124.872626,57.0332953 C124.698263,57.0332953 124.523901,56.9832124 124.371797,56.8867565 L122.203393,55.4955648 C121.988222,55.3573731 121.839828,55.1375648 121.792527,54.8871503 L118.042802,34.9856891 C117.948201,34.4820777 118.279305,33.9960881 118.782916,33.9024145 C119.28931,33.8078135 119.770662,34.1379896 119.866191,34.6406736 L123.540792,54.1498187 L124.115818,54.5180207 L125.916947,38.2466425 C125.973522,37.7383938 126.443745,37.3803938 126.940864,37.4267668 C127.45004,37.483342 127.817315,37.9424352 127.76074,38.4516114 L125.794522,56.2078549 C125.759279,56.5269016 125.56173,56.8051399 125.272362,56.9424041 C125.145299,57.0036166 125.008963,57.0332953 124.872626,57.0332953" id="Fill-55" fill="#1B2635"></path>
                <polyline id="Fill-57" fill="#282524" points="73.0457264 42.1214824 71.3067368 54.2897725 68.734887 55.2172337 68.734887 38.7937518"></polyline>
                <path d="M68.734887,56.1447876 C68.5466124,56.1447876 68.3601927,56.087285 68.2015969,55.9759896 C67.9548922,55.8025544 67.8074259,55.5196788 67.8074259,55.2173264 L67.8074259,38.7938446 C67.8074259,38.2809585 68.2229285,37.8663834 68.734887,37.8663834 C69.2468456,37.8663834 69.6623482,38.2809585 69.6623482,38.7938446 L69.6623482,53.8966218 L70.4683119,53.6072539 L72.1275399,41.9898756 C72.1998819,41.4816269 72.6682497,41.1291917 73.1774259,41.2033886 C73.6838197,41.2757306 74.0362549,41.7459534 73.963913,42.2523472 L72.2249233,54.4215648 C72.1766953,54.7610155 71.9448301,55.0457461 71.6220736,55.1616788 L69.0492964,56.0891399 C68.9472756,56.1262383 68.8406176,56.1447876 68.734887,56.1447876" id="Fill-59" fill="#1B2635"></path>
                <path d="M69.1624466,26.1671104 C69.1624466,14.9411207 83.0344829,1.85464404 97.3943637,1.85464404 C111.754245,1.85464404 125.200576,14.9411207 125.200576,26.1671104" id="Fill-61" fill="#52DB72"></path>
                <g id="Group-65" transform="translate(67.704663, 0.613052)">
                    <mask id="mask-2" fill="white">
                        <use xlink:href="#path-1"></use>
                    </mask>
                    <g id="Clip-64"></g>
                    <path d="M57.4962839,26.4815197 C56.9843254,26.4815197 56.5688228,26.0669446 56.5688228,25.5540585 C56.5688228,15.2462554 43.9136155,2.16905337 29.6900715,2.16905337 C15.2411544,2.16905337 2.38561554,15.2462554 2.38561554,25.5540585 C2.38561554,26.0669446 1.97011295,26.4815197 1.4581544,26.4815197 C0.945268394,26.4815197 0.530693264,26.0669446 0.530693264,25.5540585 C0.530693264,13.2874575 15.5193927,0.314131088 29.6900715,0.314131088 C45.1647606,0.314131088 58.4237451,14.1926596 58.4237451,25.5540585 C58.4237451,26.0669446 58.0082425,26.4815197 57.4962839,26.4815197" id="Fill-63" fill="#1B2635" mask="url(#mask-2)"></path>
                </g>
                <path d="M96.935085,21.181172 C96.4138518,21.181172 95.9909295,20.7582497 95.9909295,20.2370166 L95.9909295,5.9188715 C95.9909295,5.39763834 96.4138518,4.97471606 96.935085,4.97471606 C97.4563181,4.97471606 97.8792404,5.39763834 97.8792404,5.9188715 L97.8792404,20.2370166 C97.8792404,20.7582497 97.4563181,21.181172 96.935085,21.181172" id="Fill-66" fill="#1B2635"></path>
                <path d="M74.9490622,25.2677513 C74.8665181,25.2677513 74.7830466,25.2566218 74.6986477,25.2343627 C74.1959637,25.096171 73.9010311,24.5777202 74.0382953,24.0750363 C77.734228,10.5897513 84.0975389,9.1002487 84.3665026,9.04460104 C84.8775337,8.93423316 85.3774352,9.2625544 85.4840933,9.77265803 C85.5916788,10.2790518 85.2698497,10.776171 84.7662383,10.8883938 C84.654943,10.9162176 79.1931244,12.4066477 75.8589016,24.5730829 C75.7438964,24.9922953 75.3636373,25.2677513 74.9490622,25.2677513" id="Fill-68" fill="#1B2635"></path>
                <path d="M119.118101,25.0693674 C118.703525,25.0693674 118.323266,24.7939114 118.208261,24.374699 C114.867546,12.1869321 109.365847,10.7048492 109.311126,10.6927922 C108.801023,10.5861342 108.475484,10.0853052 108.583069,9.57520155 C108.689727,9.06509793 109.187774,8.7339943 109.70066,8.84714456 C109.969624,8.90279223 116.332935,10.3922948 120.028867,23.8766523 C120.166132,24.3793363 119.871199,24.897787 119.368515,25.0359788 C119.284116,25.0582378 119.200645,25.0693674 119.118101,25.0693674" id="Fill-70" fill="#1B2635"></path>
                <path d="M127.999561,36.228858 L132.047929,31.9820135 C132.047929,31.9820135 133.697882,30.0807181 131.29854,28.1961171 C95.7517373,10.2877699 62.4809238,28.1961171 62.4809238,28.1961171 C60.0825093,30.0807181 61.7315352,31.9820135 61.7315352,31.9820135 L65.7799031,36.228858 C65.7799031,36.228858 95.901986,23.5031637 127.999561,36.228858" id="Fill-72" fill="#ACE2B1"></path>
                <path d="M97.7085876,29.6876601 C106.860774,29.6876601 117.21495,31.0556653 127.758328,35.1383492 L131.375427,31.3431782 L131.374499,31.3441057 C131.37079,31.3441057 131.72879,30.8775927 131.665722,30.3053492 C131.617494,29.8592404 131.324417,29.4140591 130.794836,28.9809347 C96.8877845,11.9555306 64.715085,28.0840798 62.9909347,28.9753699 C62.4576446,29.4103492 62.1627119,29.8573855 62.1135565,30.3053492 C62.0486342,30.8998518 62.4353855,31.3784218 62.4400228,31.3830591 L66.0209503,35.1374218 C68.8506342,34.0606394 81.3546653,29.6876601 97.7085876,29.6876601 M127.999468,37.1565047 C127.884463,37.1565047 127.768531,37.1342456 127.658163,37.0906549 C96.3025565,24.6598933 66.4383078,36.958028 66.1405927,37.0832352 C65.7853751,37.2353389 65.3745098,37.1472301 65.109256,36.8689917 L61.0599606,32.6221472 C60.9384632,32.4839554 60.1343544,31.5129036 60.2651264,30.1458259 C60.3597275,29.1497326 60.9134218,28.2482404 61.9085876,27.4663907 C61.9503233,27.4330021 61.9948415,27.4042508 62.0412145,27.3792093 C62.3797378,27.1974269 96.1523078,9.45231295 131.715805,27.3671523 C131.770525,27.3949762 131.822463,27.4283648 131.870691,27.4663907 C132.866784,28.2482404 133.419551,29.1497326 133.514152,30.1458259 C133.644924,31.5129036 132.840816,32.4839554 132.748997,32.589686 L128.67095,36.8689917 C128.49195,37.0554114 128.248028,37.1565047 127.999468,37.1565047" id="Fill-74" fill="#1B2635"></path>
                <polygon id="Fill-76" fill="#262C4F" points="93.7921974 137.879155 94.1409228 136.972098 94.2262492 136.972098 93.8756689 137.879155"></polygon>
                <polygon id="Fill-78" fill="#262C4F" points="94.2210554 137.879155 94.5697808 136.972098 94.6551073 136.972098 94.3045269 137.879155"></polygon>
                <path d="M104.559001,132.252712 C104.46069,132.332474 104.374436,132.402034 104.301167,132.461391 L104.082286,132.637609 C104.009944,132.696966 103.92369,132.766526 103.824452,132.846288 L103.828162,132.864837 L104.725017,133.160697 L104.76397,133.37494 L103.643597,132.97335 L103.612991,132.810117 L104.520048,132.038469 L104.559001,132.252712 Z" id="Fill-80" fill="#454F87"></path>
                <path d="M105.240128,132.127783 C105.231781,132.08512 105.225289,132.049877 105.220652,132.021125 C105.215087,131.992374 105.208595,131.956203 105.201175,131.914467 L106.321548,132.315131 L106.351227,132.478364 L105.445097,133.250011 L105.406144,133.035768 L106.139766,132.442193 L106.136983,132.423644 L105.240128,132.127783 Z" id="Fill-82" fill="#454F87"></path>
                <path d="M96.3227751,152.751088 C96.3227751,153.212036 95.9499358,153.584875 95.4889876,153.584875 C95.0280394,153.584875 94.6552,153.212036 94.6552,152.751088 C94.6552,152.291067 95.0280394,151.9173 95.4889876,151.9173 C95.9499358,151.9173 96.3227751,152.291067 96.3227751,152.751088" id="Fill-84" fill="#262C4F"></path>
                <path d="M98.4825539,145.840389 L96.8845383,145.840389 C96.7528389,145.840389 96.6443259,145.731876 96.6443259,145.599249 C96.6443259,145.46755 96.7528389,145.358109 96.8845383,145.358109 L98.4825539,145.358109 C98.6151808,145.358109 98.7227663,145.46755 98.7227663,145.599249 C98.7227663,145.731876 98.6151808,145.840389 98.4825539,145.840389" id="Fill-86" fill="#454F87"></path>
                <path d="M97.9245933,144.800612 L97.9245933,146.398628 C97.9245933,146.530327 97.8160803,146.63884 97.6834534,146.63884 C97.5508264,146.63884 97.4423135,146.530327 97.4423135,146.398628 L97.4423135,144.800612 C97.4423135,144.667985 97.5508264,144.559473 97.6834534,144.559473 C97.8160803,144.559473 97.9245933,144.667985 97.9245933,144.800612" id="Fill-88" fill="#454F87"></path>
                <path d="M106.366808,136.576722 C106.381648,136.503452 106.396487,136.429255 106.410399,136.354131 L106.402052,136.352276 C106.504073,136.002623 106.675653,134.693048 106.720171,134.185727 C106.857435,132.638722 106.731301,131.657468 106.342694,131.268862 C105.459751,130.385919 101.684984,131.115831 101.253715,131.203012 L101.077497,131.242893 L101.063585,131.245675 C101.515259,132.455084 102.951896,135.456349 106.366808,136.576722" id="Fill-90" fill="#FFFFFF"></path>
                <polygon id="Fill-92" fill="#A2C7F4" points="96.7231601 148.850186 95.3078544 150.266419 97.6905021 152.649994"></polygon>
                <polygon id="Fill-94" fill="#A2C7F4" points="95.1064098 142.505517 88.4620782 140.794351 87.1487933 142.107636 94.8838192 149.842662 96.5513943 148.175087"></polygon>
                <polygon id="Fill-96" fill="#A2C7F4" points="84.9242777 139.883492 86.7244798 141.683694 87.7882777 140.620823"></polygon>
                <path d="M97.9871041,152.96663 L96.8945549,148.678977 L96.808301,148.765231 L97.8860109,152.991671 L95.233472,150.34006 L95.1602026,150.413329 L97.8127415,153.065868 C97.8452026,153.099256 97.896213,153.105749 97.9370212,153.082562 C97.9778295,153.060303 97.9982337,153.012075 97.9871041,152.96663" id="Fill-98" fill="#101338"></path>
                <path d="M95.1920145,142.420376 L96.636999,148.089019 L96.7223254,148.003692 L95.2931078,142.394407 C95.2838332,142.358236 95.2550819,142.328558 95.2179834,142.319283 L88.6330093,140.623884 L88.5476829,140.708283 L95.1920145,142.420376 Z" id="Fill-100" fill="#101338"></path>
                <path d="M84.5805606,139.686963 L87.8739751,140.53559 L87.9593016,140.449336 L84.6065295,139.586797 C84.5610839,139.57474 84.5137834,139.594217 84.4896694,139.635025 C84.4664829,139.675833 84.4739026,139.727771 84.5072912,139.76116 L86.5773845,141.83218 L86.6506539,141.757056 L84.5805606,139.686963 Z" id="Fill-102" fill="#101338"></path>
                <polygon id="Fill-104" fill="#101338" points="87.0749674 142.181277 87.0016979 142.255474 94.7357964 149.989572 94.8099933 149.916303"></polygon>
                <polygon id="Fill-106" fill="#101338" points="97.6908731 152.649623 95.3072979 150.266976 95.2340285 150.340245 97.8856399 152.991856 96.8088575 148.765416 96.7235311 148.849815"></polygon>
                <polygon id="Fill-108" fill="#101338" points="84.9242777 139.883492 87.7882777 140.620823 87.8736041 140.535497 84.5801896 139.68687 86.6512104 141.757891 86.7244798 141.683694"></polygon>
                <polygon id="Fill-110" fill="#101338" points="87.0749674 142.181277 94.8099933 149.916303 94.8832627 149.843033 87.1491642 142.108007"></polygon>
                <polygon id="Fill-112" fill="#101338" points="95.1064098 142.505517 96.5513943 148.175087 96.6367207 148.089761 95.1917363 142.420191 88.5474047 140.709025 88.4620782 140.794351"></polygon>
                <polygon id="Fill-114" fill="#82AEDB" points="96.5510233 148.175365 94.8834482 149.84294 95.3072979 150.26679 96.7235311 148.850557"></polygon>
                <polygon id="Fill-116" fill="#06091C" points="96.5510233 148.175365 96.7235311 148.850557 96.8088575 148.765231 96.8941839 148.678977 96.7226036 148.002858 96.6363497 148.089111"></polygon>
                <polygon id="Fill-118" fill="#06091C" points="95.3074834 150.266697 94.8836337 149.842848 94.8094368 149.916117 94.7361674 149.989387 95.1600171 150.413236 95.2332865 150.339967"></polygon>
                <polygon id="Fill-120" fill="#82AEDB" points="86.7248508 141.684065 87.1487005 142.107915 88.4619855 140.79463 87.7877212 140.621194"></polygon>
                <polygon id="Fill-122" fill="#06091C" points="86.7248508 141.684065 86.6506539 141.757334 86.5773845 141.831531 87.0012342 142.255381 87.0745036 142.181184 87.1487005 142.107915"></polygon>
                <polygon id="Fill-124" fill="#06091C" points="87.9593943 140.449521 87.8740679 140.535775 87.787814 140.621102 88.4620782 140.794537 88.5474047 140.708283 88.6336585 140.622956"></polygon>
                <path d="M105.172146,139.394349 C105.845482,138.636613 106.119083,137.758307 106.32498,136.782618 C104.953265,136.336509 103.891322,135.596395 103.079793,134.784867 C101.797115,133.503116 101.13769,132.045147 100.859451,131.292976 C99.8976741,131.512784 98.9915446,131.753924 98.218042,132.440245 C98.2032026,132.447665 98.1883632,132.457867 98.1763062,132.469924 L85.6713477,144.97581 C85.6101352,145.036095 85.6101352,145.134406 85.6713477,145.196546 L92.4167725,151.941043 C92.4770575,152.002255 92.5762959,152.002255 92.6375083,151.941043 L105.142467,139.436084 C105.154524,139.4231 105.164726,139.410116 105.172146,139.394349" id="Fill-126" fill="#FFFFFF"></path>
                <path d="M99.8510228,131.557117 C99.8510228,131.557117 101.355365,136.251925 106.068722,137.773889 L106.362727,136.744407 C106.362727,136.744407 103.087862,136.177728 100.859173,131.29279 L99.8510228,131.557117 Z" id="Fill-128" fill="#A2C7F4"></path>
                <path d="M106.374042,136.316754 L106.365695,136.315827 C106.467716,135.966174 106.638369,134.655672 106.682887,134.149278 C106.821079,132.601345 106.694017,131.621019 106.306338,131.23334 C106.219156,131.146159 106.104151,131.076599 105.968742,131.018169 C106.182985,131.522708 106.238633,132.385247 106.131048,133.595583 C106.085602,134.102905 105.914022,135.41248 105.812928,135.762133 L105.821276,135.763988 C105.77212,136.022749 105.720182,136.274091 105.661752,136.519868 C105.963177,136.645076 106.183913,136.706288 106.291498,136.73133 C106.319322,136.594993 106.347146,136.456801 106.374042,136.316754" id="Fill-130" fill="#EDEDED"></path>
                <path d="M105.135511,139.358178 C105.56678,138.873116 105.833889,138.33797 106.024019,137.76109 C105.794936,137.685038 105.5742,137.602494 105.360884,137.513458 C105.179102,137.975333 104.937034,138.406603 104.582744,138.804483 C104.575324,138.82025 104.565122,138.83509 104.553065,138.846219 L92.0481067,151.352105 C91.9868943,151.41239 91.887656,151.41239 91.8264435,151.352105 L92.3801378,151.903945 C92.4404228,151.966084 92.5396611,151.966084 92.6008736,151.903945 L105.105832,139.399913 C105.117889,139.386929 105.128091,139.373017 105.135511,139.358178" id="Fill-132" fill="#EDEDED"></path>
                <path d="M106.071134,137.776764 L106.366066,136.748209 C106.366066,136.748209 106.33917,136.742645 106.290942,136.731515 C106.216745,137.088588 106.132346,137.431748 106.023833,137.760997 C106.0396,137.765634 106.055367,137.771199 106.071134,137.776764" id="Fill-134" fill="#589ADB"></path>
                <path d="M106.29122,136.731515 C106.183635,136.706474 105.962899,136.644334 105.662402,136.519126 C105.580785,136.865069 105.485256,137.196173 105.360977,137.513365 C105.574293,137.602401 105.795028,137.684945 106.024111,137.760997 C106.132624,137.431748 106.216096,137.088588 106.29122,136.731515" id="Fill-136" fill="#589ADB"></path>
                <path d="M101.281168,140.113502 C100.236847,141.157823 98.5433026,141.157823 97.4989813,140.113502 C96.4546601,139.069181 96.4546601,137.375637 97.4989813,136.331316 C98.5433026,135.286994 100.236847,135.286994 101.281168,136.331316 C102.325489,137.375637 102.325489,139.069181 101.281168,140.113502" id="Fill-138" fill="#A2C7F4"></path>
                <path d="M101.299346,136.350236 C101.224222,136.275111 101.146315,136.206479 101.065626,136.141557 C101.895704,137.191443 101.826144,138.720826 100.856947,139.690023 C99.8877503,140.65922 98.3592943,140.72878 97.3094083,139.897775 C97.3734031,139.978464 97.4420352,140.057298 97.5171596,140.131495 C98.5614808,141.176744 100.255025,141.176744 101.299346,140.131495 C102.343667,139.087174 102.343667,137.394557 101.299346,136.350236" id="Fill-140" fill="#589ADB"></path>
                <path d="M101.207342,136.405512 C100.204756,135.402927 98.5742798,135.402927 97.5726218,136.405512 C96.5700363,137.40717 96.5700363,139.037647 97.5726218,140.040233 C98.5742798,141.041891 100.204756,141.041891 101.207342,140.040233 C102.209927,139.037647 102.209927,137.40717 101.207342,136.405512 M97.4251554,140.187699 C96.3418808,139.103497 96.3418808,137.341321 97.4251554,136.258046 C98.5084301,135.174772 100.271534,135.174772 101.354808,136.258046 C102.438083,137.341321 102.438083,139.103497 101.354808,140.187699 C100.271534,141.270974 98.5084301,141.270974 97.4251554,140.187699" id="Fill-142" fill="#101338"></path>
                <path d="M88.6006409,139.648009 C89.1710295,139.078548 89.1710295,138.153869 88.6006409,137.583481 C88.0311798,137.01402 87.106501,137.01402 86.5361124,137.583481 L82.9978482,141.122673 L85.0623767,143.186274 L88.6006409,139.648009 Z" id="Fill-144" fill="#FFFFFF"></path>
                <polygon id="Fill-146" fill="#A2C7F4" points="85.0560699 143.192951 82.9915415 141.128423 83.8772668 140.243625 85.9408679 142.308153"></polygon>
                <path d="M83.1454073,141.122487 L85.0624694,143.038622 L88.5265368,139.574554 C89.0551896,139.045902 89.0551896,138.186145 88.5265368,137.657492 C87.9988114,137.128839 87.1390549,137.128839 86.6104021,137.657492 L83.1454073,141.122487 Z M84.9882725,143.260285 L82.9246715,141.195756 C82.8838632,141.154948 82.8838632,141.089098 82.9246715,141.04829 L86.4629358,137.510026 C87.0722777,136.899756 88.0646611,136.899756 88.6740031,137.510026 C89.2842725,138.120295 89.2842725,139.111751 88.6740031,139.721093 L85.1357389,143.260285 C85.095858,143.301093 85.0290808,143.301093 84.9882725,143.260285 L84.9882725,143.260285 Z" id="Fill-148" fill="#101338"></path>
                <path d="M99.9892145,151.036583 C100.559603,150.467122 100.559603,149.542443 99.9892145,148.972054 C99.4188259,148.402593 98.4950746,148.402593 97.924686,148.972054 L94.3864218,152.511246 L96.4509503,154.574847 L99.9892145,151.036583 Z" id="Fill-150" fill="#FFFFFF"></path>
                <polygon id="Fill-152" fill="#A2C7F4" points="96.4446435 154.58069 94.380115 152.516162 95.264913 151.632291 97.3294415 153.69682"></polygon>
                <path d="M94.5339808,152.511061 L96.4501155,154.427195 L99.9151104,150.962201 C100.443763,150.434475 100.443763,149.574719 99.9151104,149.046066 C99.3864575,148.517413 98.5276285,148.517413 97.9989756,149.046066 L94.5339808,152.511061 Z M96.3768461,154.648859 L94.3132451,152.58433 C94.2724368,152.543522 94.2724368,152.477672 94.3132451,152.436864 L97.8515093,148.897672 C98.4608513,148.28833 99.4532347,148.28833 100.062577,148.897672 C100.672846,149.508869 100.672846,150.500325 100.062577,151.109667 L96.5243124,154.648859 C96.4835041,154.689667 96.4176544,154.689667 96.3768461,154.648859 L96.3768461,154.648859 Z" id="Fill-154" fill="#101338"></path>
                <path d="M85.1145,147.536808 C84.9225155,147.74085 84.9262254,148.062679 85.1256295,148.262083 L89.4030803,152.540461 C89.6024845,152.738938 89.9252409,152.742648 90.1292824,152.550663 L90.6607176,151.511907 L86.1532565,147.005373 L85.1145,147.536808 Z" id="Fill-156" fill="#A2C7F4"></path>
                <path d="M90.2136813,152.613452 C89.9706865,152.857375 89.5728057,152.857375 89.3288834,152.613452 L85.0514326,148.336929 C84.8084378,148.093007 84.8084378,147.694198 85.0514326,147.452131 L86.0753497,146.927188 L85.9983705,146.849281 L85.0041321,147.358458 C84.9948575,147.364022 84.9855829,147.370515 84.9781632,147.377934 C84.6934326,147.662665 84.6934326,148.125468 84.9781632,148.410198 L89.255614,152.687649 C89.5394171,152.97238 90.0031477,152.97238 90.2878782,152.687649 C90.2952979,152.679302 90.3017902,152.670955 90.3064275,152.66168 L90.8156036,151.666515 L90.7376969,151.589535 L90.2136813,152.613452 Z" id="Fill-158" fill="#101338"></path>
                <path d="M90.1290041,152.550941 C89.9249627,152.742926 89.6022062,152.739216 89.4028021,152.539812 L85.1253513,148.262361 C84.9259472,148.062957 84.9222373,147.740201 85.1142218,147.537087 L86.1529782,147.005651 L86.0750715,146.927745 L85.0511544,147.45176 C84.8081596,147.694755 84.8081596,148.092636 85.0511544,148.336558 L89.3295326,152.613081 C89.5725275,152.857004 89.9704083,152.857004 90.2134031,152.613081 L90.7383461,151.590092 L90.6604394,151.512185 L90.1290041,152.550941 Z" id="Fill-160" fill="#101338"></path>
                <path d="M86.1528855,147.005188 L90.6603466,151.511721 L90.8949943,151.054483 C90.9599166,150.909799 91.0035073,150.794794 91.0266938,150.698338 L86.964414,146.636985 C86.8661031,146.65739 86.7510979,146.702835 86.6082689,146.771467 L86.1528855,147.005188 Z" id="Fill-162" fill="#82AEDB"></path>
                <path d="M91.1945642,150.867228 L91.1101653,150.78283 C91.0823415,150.878358 91.0415332,150.981306 90.9877404,151.102804 L90.7382534,151.589721 L90.8152326,151.6667 L91.0832689,151.144539 C91.1268596,151.046228 91.1648855,150.955337 91.1945642,150.867228" id="Fill-164" fill="#06091C"></path>
                <path d="M86.5631943,146.67733 C86.677272,146.621682 86.7811477,146.579947 86.8794585,146.552123 L86.7950596,146.466796 C86.6995311,146.499258 86.6058575,146.540993 86.5158938,146.584584 L85.9983705,146.849838 L86.0753497,146.927745 L86.5631943,146.67733 Z" id="Fill-166" fill="#06091C"></path>
                <path d="M86.6084544,146.771467 C86.750356,146.702835 86.8662886,146.65739 86.9645995,146.636058 L86.8792731,146.552587 C86.7818896,146.579483 86.6770865,146.622146 86.5630088,146.676866 L86.0751642,146.927281 L86.153071,147.005188 L86.6084544,146.771467 Z" id="Fill-168" fill="#06091C"></path>
                <path d="M90.8952725,151.054668 L90.6606249,151.511907 L90.7385316,151.589813 L90.9880187,151.102896 C91.0418114,150.981399 91.0826197,150.878451 91.1104435,150.782922 L91.026972,150.698523 C91.0037855,150.794979 90.9592674,150.909984 90.8952725,151.054668" id="Fill-170" fill="#06091C"></path>
                <path d="M106.324702,136.782247 C106.339541,136.714542 106.353453,136.646838 106.366437,136.576351 C102.951525,135.455978 101.514888,132.454713 101.064142,131.245304 C100.99551,131.261071 100.926878,131.276838 100.859173,131.292605 C101.138339,132.045703 101.797764,133.503672 103.079515,134.785423 C103.891044,135.596952 104.952987,136.337066 106.324702,136.782247" id="Fill-172" fill="#101338"></path>
                <path d="M101.894405,131.191233 C101.822063,131.20329 101.752504,131.215347 101.682944,131.227404 C102.036307,132.026876 102.662343,133.159306 103.683478,134.181368 C104.382783,134.879746 105.268509,135.525259 106.375897,135.975078 C106.387954,135.910155 106.399084,135.839668 106.412068,135.764544 C103.808685,134.688689 102.482416,132.502663 101.894405,131.191233" id="Fill-174" fill="#101338"></path>
                <path d="M106.375897,135.975263 C106.44082,136.001232 106.507597,136.028128 106.573447,136.052242 C106.585504,135.988248 106.597561,135.917761 106.609618,135.843564 C106.54284,135.817595 106.476991,135.791626 106.412068,135.763802 C106.399084,135.839854 106.387954,135.910341 106.375897,135.975263" id="Fill-176" fill="#101338"></path>
                <path d="M101.894405,131.191233 C101.863799,131.122601 101.835048,131.056751 101.809079,130.993684 C101.733954,131.007596 101.663467,131.018725 101.598545,131.030782 C101.624514,131.09385 101.653265,131.159699 101.682944,131.227404 C101.752504,131.215347 101.822063,131.20329 101.894405,131.191233" id="Fill-178" fill="#101338"></path>
                <path d="M101.643991,131.726564 C101.59298,131.777574 101.509509,131.777574 101.458498,131.726564 C101.407488,131.674626 101.407488,131.592082 101.458498,131.541072 C101.509509,131.489134 101.59298,131.489134 101.643991,131.541072 C101.695001,131.592082 101.695001,131.674626 101.643991,131.726564" id="Fill-180" fill="#589ADB"></path>
                <path d="M102.055598,132.552561 C102.00366,132.604498 101.921116,132.604498 101.870106,132.552561 C101.819095,132.500623 101.819095,132.418079 101.870106,132.367068 C101.921116,132.316058 102.00366,132.316058 102.055598,132.367068 C102.106608,132.418079 102.106608,132.500623 102.055598,132.552561" id="Fill-182" fill="#589ADB"></path>
                <path d="M102.543813,133.301578 C102.492803,133.353516 102.409332,133.353516 102.358321,133.301578 C102.307311,133.250568 102.307311,133.167096 102.358321,133.117013 C102.409332,133.065076 102.492803,133.065076 102.543813,133.117013 C102.594824,133.167096 102.594824,133.250568 102.543813,133.301578" id="Fill-184" fill="#589ADB"></path>
                <path d="M103.08137,134.001719 C103.03036,134.053656 102.946888,134.053656 102.895878,134.001719 C102.844867,133.950708 102.844867,133.867237 102.895878,133.817154 C102.946888,133.765216 103.03036,133.765216 103.08137,133.817154 C103.13238,133.867237 103.13238,133.950708 103.08137,134.001719" id="Fill-186" fill="#589ADB"></path>
                <path d="M103.688579,134.632114 C103.637568,134.684052 103.554097,134.684052 103.503087,134.632114 C103.452076,134.581104 103.452076,134.497632 103.503087,134.447549 C103.554097,134.395611 103.637568,134.395611 103.688579,134.447549 C103.739589,134.497632 103.739589,134.581104 103.688579,134.632114" id="Fill-188" fill="#589ADB"></path>
                <path d="M104.342995,135.216322 C104.291985,135.267332 104.208513,135.267332 104.157503,135.216322 C104.106493,135.164384 104.106493,135.080912 104.157503,135.03083 C104.208513,134.978892 104.291985,134.978892 104.342995,135.03083 C104.394006,135.080912 104.394006,135.164384 104.342995,135.216322" id="Fill-190" fill="#589ADB"></path>
                <path d="M105.101102,135.686359 C105.067713,135.750354 104.988879,135.776323 104.924884,135.743862 C104.859962,135.709546 104.834921,135.629784 104.868309,135.565789 C104.901698,135.501794 104.980532,135.475825 105.044527,135.510141 C105.109449,135.54353 105.134491,135.622364 105.101102,135.686359" id="Fill-192" fill="#589ADB"></path>
                <path d="M105.906695,136.11837 C105.873306,136.182365 105.794472,136.208334 105.730477,136.174946 C105.665555,136.141557 105.640513,136.061795 105.673902,135.997801 C105.707291,135.933806 105.786125,135.907837 105.85012,135.942153 C105.915042,135.975541 105.940083,136.054376 105.906695,136.11837" id="Fill-194" fill="#589ADB"></path>
                <path d="M106.269054,131.34343 C106.520396,131.594772 106.783795,132.28944 106.616852,134.176823 C106.585318,134.530186 106.496282,135.240621 106.411883,135.764637 C106.476805,135.791533 106.542655,135.817502 106.61036,135.844398 C106.698468,135.303689 106.791215,134.557082 106.824603,134.194445 C106.966505,132.593647 106.83295,131.612393 106.41652,131.195963 C105.666204,130.445647 103.071168,130.778606 101.808893,130.993777 C101.834862,131.056844 101.863613,131.122694 101.89422,131.191326 C103.462556,130.927927 105.668059,130.742435 106.269054,131.34343" id="Fill-196" fill="#101338"></path>
                <path d="M105.258214,139.45417 C106.040991,138.568445 106.283059,137.531543 106.507504,136.370362 C106.509359,136.359232 106.514924,136.35274 106.513069,136.342538 C106.531618,136.269268 106.55295,136.17003 106.573354,136.052242 C106.507504,136.028128 106.440727,136.001232 106.375805,135.975263 C106.348908,136.125512 106.323867,136.248864 106.301608,136.323061 C106.297898,136.337901 106.289551,136.351812 106.293261,136.367579 C106.076235,137.487952 105.839732,138.485901 105.094053,139.325253 C105.087561,139.331745 105.082924,139.340092 105.078287,139.348439 C105.076432,139.354004 105.072722,139.357714 105.068084,139.362351 L92.5631259,151.86731 C92.5436492,151.887714 92.5102606,151.887714 92.4898565,151.86731 L85.7444316,145.121885 C85.7249549,145.102408 85.7249549,145.06902 85.7444316,145.048616 L98.2493902,132.544584 C98.2540275,132.539947 98.2586648,132.536237 98.2633021,132.533455 C98.2725767,132.529745 98.2809238,132.52418 98.2874161,132.517688 C99.0989446,131.797978 100.070924,131.57817 101.100406,131.34445 L101.273841,131.305496 C101.401831,131.279527 101.540022,131.252631 101.683779,131.22759 C101.653173,131.159885 101.625349,131.093108 101.598452,131.030968 C101.441711,131.058792 101.315577,131.084761 101.23025,131.100527 L101.054033,131.141336 C100.002292,131.379693 99.0080534,131.604139 98.158499,132.354455 C98.1380948,132.365584 98.1195456,132.379496 98.1028513,132.397118 L85.5978927,144.901149 C85.495872,145.002242 85.495872,145.168258 85.5978927,145.270279 L92.3423902,152.014776 C92.4444109,152.115869 92.609499,152.115869 92.7115197,152.014776 L105.216478,139.510745 C105.232245,139.493123 105.247084,139.474574 105.258214,139.45417" id="Fill-198" fill="#101338"></path>
            </g>
        </g>
    </g>
</svg>