<?xml version="1.0" encoding="utf-8"?>
<!-- Generator: Adobe Illustrator 21.0.0, SVG Export Plug-In . SVG Version: 6.00 Build 0)  -->
<svg version="1.1" id="Layer_1" xmlns="http://www.w3.org/2000/svg" xmlns:xlink="http://www.w3.org/1999/xlink" x="0px" y="0px"
	 viewBox="0 0 1440 365" style="enable-background:new 0 0 1440 365;" xml:space="preserve">
<style type="text/css">
	.st0{fill:none;}
	.st1{fill:#393C5B;}
	.st2{fill:#C64242;}
	.st3{fill:#252B51;}
	.st4{fill:#262C4F;}
	.st5{fill:#D85959;}
	.st6{fill:#FFFFFF;}
	.st7{fill:#A2C7F4;}
	.st8{fill:#101338;}
	.st9{fill:#82AEDB;}
	.st10{fill:#06091C;}
	.st11{fill:#EDEDED;}
	.st12{fill:#589ADB;}
	.st13{fill:none;stroke:#262C4F;stroke-width:2;stroke-miterlimit:10;}
</style>
<g>
	<path class="st0" d="M1269.1,365c0,0.1,0,0.1,0,0.2h0.1C1269.1,365.1,1269.2,365.1,1269.1,365L1269.1,365z"/>
	<path class="st1" d="M1271.8,345.5C1271.8,345.6,1271.7,345.6,1271.8,345.5c-4.5,4.1-5,10.9-1,15.4c-0.8,1.2-1.4,2.6-1.7,4.1h0.1
		c0.3-1.5,1-2.9,1.7-4.2C1266.9,356.3,1267.4,349.5,1271.8,345.5z"/>
	<path class="st1" d="M1279.6,333.3c-2-3.4-2.1-9.3-0.2-15.8c-1.2-0.6-2.3-1.4-3.2-2.5c-3.9-4.4-3.5-11,0.7-15
		c-2.9-6-2-13.2,2.4-18.4l-5.7-8.5c0,0-0.1,0-0.1,0.1l5.7,8.5c-4.4,5.2-5.3,12.4-2.4,18.4c-4.2,4-4.6,10.6-0.7,15
		c0.9,1.1,2,1.9,3.2,2.5C1277.4,324.1,1277.5,330,1279.6,333.3c-2.7,2.7-3.6,6.3-2.8,9.7c0,0,0.1,0,0.1,0
		C1276.1,339.6,1277,335.9,1279.6,333.3z"/>
	<path class="st1" d="M1369.2,97.9c0-0.2-0.2-0.4-0.3-0.7l-4.5,6.9l0,0.1l4.5-6.9C1369,97.5,1369.1,97.7,1369.2,97.9z"/>
	<path class="st1" d="M1157.1,62L1157.1,62c-4.5,11.7-17.2,37.2-45.5,49.3c0,0,0,0,0,0.1C1139.9,99.2,1152.6,73.6,1157.1,62z"/>
	<path class="st1" d="M1329.5,244c2.6-2.5,6.2-3.5,9.6-2.9C1335.7,240.5,1332,241.4,1329.5,244c-0.5,0.3-0.8,0.7-1.1,1l0.1,0.1
		C1328.8,244.7,1329.1,244.3,1329.5,244z"/>
	<polygon class="st1" points="1258.7,251.1 1258.7,251 1258.7,251 1258.7,251.1 	"/>
	<path class="st1" d="M1384.9,236.8c2.5-2.4,5.9-3.3,9-2.7C1390.8,233.4,1387.3,234.4,1384.9,236.8c-0.3,0.2-0.5,0.5-0.7,0.7
		c0,0,0.1,0,0.1,0C1384.5,237.3,1384.7,237,1384.9,236.8z"/>
	<path class="st1" d="M1150.7,176.9l-34.3-34.2c-0.1-0.2-0.3-0.4-0.4-0.6c-7.7-8.7-10.1-19-12.3-30.5c0-0.1-0.1-0.2-0.1-0.3
		c-0.2-0.7-0.4-1.6-0.6-2.7c0,0,0,0,0,0c-0.1-0.6-0.2-1.3-0.4-2.1c-0.9-5.3-1.8-12.7-2.1-16.3c-1.4-15.8-0.1-25.5,4-29.6
		c7.4-7.4,33-4.1,45.5-2c0.7,0.1,1.4,0.2,2.1,0.4c-0.1,0.3-0.3,0.6-0.4,0.9c0,0,0,0,0.1,0c0.2-0.3,0.3-0.7,0.4-1
		c1.5,0.3,2.8,0.5,3.6,0.7l1.7,0.4c10.4,2.4,20.2,4.6,28.6,12c0.2,0.1,0.4,0.3,0.6,0.4l33.8,33.8c25.1-13.9,54-21.8,84.8-21.8
		c26,0,50.6,5.7,72.8,15.8l-1.3,1.8l0.7,1.3l0,0l-0.7-1.3l1.3-1.8c0.4,0.2,0.7,0.3,1.1,0.4l0,0c23.6,11,44.3,27.1,60.8,46.9V0H0v365
		h1165c-22-29.3-35.1-65.7-35.1-105.2C1129.9,229.8,1137.4,201.6,1150.7,176.9z"/>
	<path class="st1" d="M1348.8,244c-1.4-0.2-2.8-0.2-4.1,0.1c0,0,0,0,0,0C1346,243.8,1347.4,243.8,1348.8,244z"/>
	<path class="st1" d="M1272.9,272.3L1272.9,272.3c0.1,0,0.1,0,0.1,0L1272.9,272.3C1273,272.3,1272.9,272.3,1272.9,272.3z"/>
	<path class="st1" d="M1416.2,235.3c1.9,0,3.7,0.2,5.5,0.5C1419.9,235.5,1418,235.3,1416.2,235.3c-5.7,0-10.8,1.4-15.3,3.8
		c0,0,0,0,0,0.1C1405.4,236.7,1410.6,235.3,1416.2,235.3z"/>
	<path class="st1" d="M1149.6,59.5c0.1-0.3,0.3-0.6,0.4-0.9C1149.9,58.9,1149.7,59.2,1149.6,59.5
		C1149.6,59.5,1149.6,59.5,1149.6,59.5z"/>
	<path class="st1" d="M1364.4,239c6.2-2.3,12.4-3,17-2.2C1376.8,236,1370.6,236.7,1364.4,239c-4.7,1.7-8.7,4-11.7,6.5c0,0,0,0,0.1,0
		C1355.8,243,1359.8,240.7,1364.4,239z"/>
	<path class="st1" d="M1165,365c0,0.1,0.1,0.1,0.1,0.2h18.1c0-0.1,0-0.1-0.1-0.2H1165z"/>
	<path class="st1" d="M1185.2,365c0,0.1,0,0.1,0,0.2h83.8c0-0.1,0-0.1,0-0.2H1185.2z"/>
	<path class="st1" d="M1441,248.1v-99.4c-0.3-0.4-0.7-0.8-1-1.2v99.4C1440.3,247.2,1440.7,247.7,1441,248.1z"/>
	<path class="st1" d="M1257.9,256.7c-0.6-1.4-1.1-2.6-1.3-3.5l2.1-2.1l0-0.1l-2.2,2.2C1256.8,254.2,1257.2,255.3,1257.9,256.7
		l2.2,4.5l0.1-0.1L1257.9,256.7z"/>
	<path class="st1" d="M1299.2,213.9c0.3,0.1,0.6,0.3,1,0.5l0,0l0,0C1299.9,214.2,1299.5,214.1,1299.2,213.9z"/>
	<path class="st1" d="M1264.6,272l-5.2-10.1L1264.6,272c2.3,2.4,5.9,2.5,8.4,0.4l0-0.1C1270.5,274.4,1266.9,274.3,1264.6,272z"/>
	<path class="st1" d="M1312.3,233L1312.3,233l3.2-3.1c1.2-1.2,1.8-2.8,1.8-4.4c0,1.6-0.6,3.1-1.8,4.3L1312.3,233z"/>
	<path class="st1" d="M1379.2,100.6L1379.2,100.6c0,0.1,0.1,0.1,0.1,0.1l-1.7,2.7l-0.1-0.1l0,0l-0.7-1.3l1.3-1.8
		c-22.2-10.1-46.8-15.8-72.8-15.8c-30.8,0-59.7,7.9-84.8,21.8l12.8,12.8c0-0.2-0.2-0.4-0.4-0.5l0.5-0.8c0.4,0.2,0.7,0.3,1-0.1
		c0.4-0.6,0.3-2,0.9-2.9c0.6-1,1.6-1,2.5-0.4l0.1,0.1l-0.5,0.8l-0.1-0.1c-0.4-0.3-0.9-0.2-1.2,0.3c-0.4,0.7-0.3,1.9-0.9,2.8
		c-0.3,0.5-0.8,0.7-1.3,0.5c0.3,0.3,0.4,0.7,0.2,1.1l36.4,36.4l9.5-2.5l0.7,0.7l0.2,0l-0.8-0.8l6.6-1.7l0.9,0.8l-0.8-0.8l0.1,0
		l-7.2-7.2c-6-6-6-15.8,0-21.8s15.8-6,21.8,0l34.9,34.9c0.4,0.4,0.4,1.1,0,1.5l-1.1,1.1h2.4v-2.4c0-0.6,0.4-1.1,1-1c0.5,0,1,0.4,1,1
		v2.4h2.4c0.5,0,1,0.4,1,1c0,0.5-0.4,1-1,1h-2.4v2.4c0,0.5-0.4,1-1,1c-0.5,0-1-0.4-1-1v-2.4h-2.4c-0.6,0-1-0.4-1-1l-18.3,18.3
		c-0.3,0.3-1,0.3-1.4-0.1l-14.8-14.8l-0.1-0.1l0,0.1l0.7,0.7l-4.2,4.2l-6.1,6.1l17.5,17.5l-0.7-1.8h0.6l1,2.7l1.6,1.6
		c1,1,1,2.6,0,3.6l-18.3,18.3l0.1,0l4.7-4.7l0.8-0.8l0.8-0.8c0.9,0.3,1.9,0.7,2.8,1.2l5,2.6l0.1-0.1l9.8,5c0.1,0,0.2,0.1,0.3,0.2
		c2.8,2.8,2.8,7.4,0,10.2l-3.1,3.1l15.2,11.4c0.3-0.4,0.6-0.8,1-1.1c2.6-2.6,6.3-3.5,9.7-2.9c2,0.4,4,1.4,5.6,2.9
		c1.3-0.3,2.7-0.3,4.1-0.1c1.4,0.2,2.7,0.7,3.9,1.5c3-2.5,7-4.8,11.6-6.5c6.3-2.3,12.5-3,17.1-2.2c1,0.2,2,0.4,2.8,0.7
		c0.2-0.2,0.4-0.5,0.6-0.7c2.5-2.4,6-3.4,9.1-2.7c1.9,0.4,3.8,1.3,5.3,2.8c0.7,0.7,1.3,1.5,1.7,2.2c4.5-2.5,9.7-3.9,15.2-3.9
		c1.9,0,3.8,0.2,5.6,0.6c7.3,1.4,13.7,5.4,18.3,11v-99.4C1423.5,127.7,1402.8,111.6,1379.2,100.6z M1279.7,105.5h-3.8v3.9
		c0,0.9-0.8,1.7-1.7,1.7c-0.9,0-1.7-0.8-1.7-1.7v-3.9h-3.9c-0.9,0-1.7-0.7-1.7-1.7c0-0.9,0.8-1.7,1.7-1.7h3.9v-3.8
		c0-0.9,0.8-1.7,1.7-1.7c0.9,0,1.7,0.8,1.7,1.7v3.8h3.8c0.9,0,1.7,0.8,1.7,1.7C1281.4,104.7,1280.6,105.5,1279.7,105.5z
		 M1335.8,113.9l-2.5-6.3h0.6l2.4,6.3H1335.8z M1338.7,113.9l-2.4-6.3h0.6l2.4,6.3H1338.7z M1312.4,197.9l-2.5-6.3h0.6l2.5,6.3
		H1312.4z M1369.8,213.6c-2,1-3.9,0.9-5-1.2c-1-2-0.7-4.7-1.4-6c-0.5-0.9-1.2-0.8-2-0.4l-0.9-1.7c0.8-0.4,1.3-1,0.8-1.8
		c-0.7-1.3-3.2-2.6-4.2-4.5c-1.1-2.1-0.2-3.8,1.8-4.8l0.2-0.1l0.9,1.6l-0.2,0.1c-0.9,0.5-1.3,1.3-0.7,2.3c0.8,1.5,3,2.5,4,4.3
		c0.6,1.1,0.4,2.1-0.4,2.9c1-0.3,2,0.1,2.6,1.2c1,1.8,0.5,4.2,1.3,5.7c0.5,1,1.4,1.2,2.3,0.7c0.2-0.1,0.2-0.2,0.2-0.2l0.9,1.6
		L1369.8,213.6z M1364.9,105.2l-0.5-1l0,0l0-0.1l4.5-6.9c0.1,0.3,0.3,0.5,0.3,0.7c0.1,0.2,0.2,0.4,0.3,0.7l-3.7,5.4l0.1,0.1l6.6,0.2
		l0.7,1.3L1364.9,105.2z M1392.9,124.8c1.6,0,2.9,1.3,2.9,2.9c0,1.6-1.3,2.9-2.9,2.9s-2.9-1.3-2.9-2.9
		C1390,126.1,1391.3,124.8,1392.9,124.8z M1388.4,165.7l0.2,0.4l-8.3-0.4l-0.5-1l4.5-6.9c0.1,0.3,0.3,0.5,0.3,0.7
		c0.1,0.2,0.2,0.4,0.3,0.7l-3.7,5.3l0.1,0.1l5.6,0.2l2.1-5.7c0.2,0.2,0.3,0.3,0.4,0.5c0.1,0.1,0.2,0.3,0.4,0.5l-2,4.7l0,0l5.1-0.9
		l0.8,0.9L1388.4,165.7z M1396.6,162.4l-0.8-0.9l1.9-4.8l-0.1-0.1c-0.2,0-0.3,0.1-0.5,0.1l0.2,0.3l-4.5,6.9l-0.7-1.3l3.7-5.4
		l-0.1-0.1c-0.1,0-0.3,0-0.4,0c-0.3,0.1-0.7,0.1-1,0.2c-0.5,0.1-1.1,0.2-1.8,0.4l-0.5-0.8l-0.6,0c-0.7,0-1.4,0-2.3-0.1l-0.6-1.2
		l7.7,0.4l2.1-0.4l0.6,0.7L1396.6,162.4z M1416.7,212.2c-3.2,0-5.8-2.6-5.8-5.8c0-3.2,2.6-5.8,5.8-5.8s5.8,2.6,5.8,5.8
		C1422.5,209.6,1419.9,212.2,1416.7,212.2z M1425.8,176.7c-0.8,1.1-2.3,1.4-3.2,0.7c-0.2-0.2-0.4-0.3-0.5-0.6h-0.1
		c-0.9,1.7-0.5,3,0.5,4.3l-1.2,1.1c-2.3-2-2.2-5.4-0.7-7.4c1.4-2,3-2.6,4.6-1.5C1426.3,174.1,1426.6,175.7,1425.8,176.7z
		 M1431.2,159.9c0.9-1.3,2.7-1.5,4-0.6c1.3,0.9,1.6,2.7,0.7,4c-1.1,1.2-2.9,1.5-4.1,0.6C1430.5,163,1430.2,161.2,1431.2,159.9z"/>
	<path class="st1" d="M1297.5,212.3c1,0.3,2,0.7,3.1,1.2C1299.5,213,1298.4,212.5,1297.5,212.3z"/>
	<path class="st1" d="M1178.9,360.5c-1.1-2.1-0.2-3.8,1.8-4.8l0.2-0.1l0.9,1.6l-0.2,0.1c-0.9,0.5-1.3,1.3-0.7,2.3
		c0.8,1.5,3,2.5,4,4.3c0.2,0.4,0.3,0.7,0.3,1.1h83.8c0.3-1.5,1-2.9,1.7-4.1c-4-4.5-3.5-11.3,0.9-15.3c0,0,0.1,0,0.1-0.1c0,0,0,0,0,0
		c1.5-1.3,3.1-2.1,5-2.5c-0.8-3.4,0.1-7.1,2.7-9.6c-2-3.4-2.1-9.3-0.2-15.8c-1.2-0.6-2.3-1.4-3.2-2.5c-3.9-4.4-3.5-11,0.7-15
		c-2.9-6-2-13.2,2.4-18.4l-5.7-8.5c-2.8,2.4-7.1,2.2-9.7-0.4c-0.1-0.1-0.1-0.2-0.2-0.3l-4.9-9.7l-0.1,0.1l-2.6-5.2
		c-0.4-1.1-0.8-2-1.1-2.8l0.7-0.7c0,0,0-0.1,0-0.1l-10.6,10.6c0.1,0.2,0.2,0.5,0.2,0.7c0,0.9-0.8,1.7-1.7,1.7h-3.8v3.8
		c0,0.9-0.8,1.7-1.7,1.7c-0.9,0-1.7-0.8-1.7-1.7v-3.8h-3.9c-0.9,0-1.7-0.8-1.7-1.7c0-0.9,0.8-1.7,1.7-1.7h3.9v-1.3l-16.3-16.3
		l-0.1,0.1l-4.2,4.2l0-0.1l-5.8,5.8l14.2,14.2c0.4,0.4,0.4,1.1,0,1.5l-3.8,3.8c-0.8,2.7-2.9,4.9-5.7,5.7l-10.9,10.9
		c-0.4,0.3-1,0.3-1.4-0.1l-34.9-34.9c-6-6-6-15.8,0-21.8s15.8-6,21.8,0l7,7l2.4-9.2l0.8,0.8l-0.8-0.9l1.7-6.6l0-0.1l-37.6-37.6
		c0,0.1,0,0.1,0,0.2c0,1.6-1.3,2.9-2.9,2.9c-1.6,0-2.9-1.3-2.9-2.9c0-1.6,1.3-2.9,2.9-2.9c0.1,0,0.1,0,0.2,0l-9.3-9.3
		c-13.3,24.7-20.8,52.9-20.8,82.9c0,39.5,13,75.9,35.1,105.2h18.1C1182.4,363.7,1179.9,362.4,1178.9,360.5z M1253.2,322.6
		c0,3.2-2.6,5.8-5.8,5.8s-5.8-2.6-5.8-5.8s2.6-5.8,5.8-5.8S1253.2,319.4,1253.2,322.6z M1243.9,290.8l2.4,6.3h-0.6l-2.4-6.3H1243.9z
		 M1240.9,290.8l2.4,6.3h-0.5l-2.5-6.3H1240.9z M1216,342.4l2.4,6.3h-0.6l-2.4-6.3H1216z M1215.5,348.7h-0.6l-2.5-6.3h0.6
		L1215.5,348.7z M1207.4,305.6c0.6-0.9,1.8-1.5,2.2-2.1c0.3-0.4,0-0.7-0.3-0.9l0.5-0.8c0.4,0.2,0.7,0.3,1-0.1c0.4-0.6,0.3-2,0.9-2.9
		c0.6-1,1.6-1,2.5-0.4l0.1,0.1l-0.5,0.8l-0.1-0.1c-0.4-0.3-0.9-0.2-1.2,0.3c-0.4,0.7-0.3,1.9-0.9,2.8c-0.3,0.5-0.8,0.7-1.3,0.5
		c0.4,0.4,0.4,0.9,0.1,1.4c-0.5,0.9-1.7,1.3-2.1,2c-0.3,0.5-0.2,0.9,0.3,1.2c0.1,0.1,0.1,0.1,0.1,0.1l-0.6,0.5
		C1207.2,307.4,1206.8,306.6,1207.4,305.6z M1153.7,232.2l2.4,6.3h-0.6l-2.4-6.3H1153.7z M1150.7,232.2l2.4,6.3h-0.6l-2.4-6.3
		H1150.7z M1156.6,285.7c0,0.2-0.1,0.4-0.1,0.7l-6.3,2.2v0.1l5.1,4.1l-0.3,1.5l-6.3-5.4l0.2-1.1l7.8-2.8
		C1156.6,285.3,1156.6,285.5,1156.6,285.7z M1167.6,292.4l-7.8,2.8l0.3-1.5l6.2-2.1v-0.1c-0.7-0.6-1.3-1-1.8-1.4
		c-0.5-0.4-1-0.8-1.5-1.2c-0.5-0.4-1.1-0.9-1.8-1.4l0.3-1.6l6.3,5.4L1167.6,292.4z M1176.8,329.5v-2.3h-2.4c-0.6,0-1.1-0.5-1-1
		c0-0.5,0.4-1,1-1h2.4v-2.5c0-0.6,0.5-1,1-1s1,0.4,1,1v2.5h2.4c0.5,0,1,0.4,1,1c0,0.5-0.4,1-1,1h-2.4v2.3c0,0.5-0.5,1-1,1
		S1176.8,330.1,1176.8,329.5z"/>
	<path class="st1" d="M1396.2,156l-7.7-0.4l0.6,1.2c0.9,0.1,1.6,0.1,2.3,0.1l0.6,0l-0.1-0.2L1396.2,156z"/>
	<path class="st1" d="M1395.3,157.1c0.1,0,0.3,0,0.4,0l0.1,0.1l-3.7,5.4l0.7,1.3l4.5-6.9l-0.2-0.3c-0.5,0.1-1,0.2-1.3,0.3
		C1395.6,157,1395.5,157.1,1395.3,157.1z"/>
	<path class="st1" d="M1386.7,165.2l0.2-0.4l-5.6-0.2l-0.1-0.1l3.7-5.3c-0.1-0.3-0.2-0.5-0.3-0.7c0-0.2-0.2-0.4-0.3-0.7l-4.5,6.9
		l0.5,1l8.3,0.4l-0.2-0.4l-1.1,0.2L1386.7,165.2z"/>
	<polygon class="st1" points="1387.8,164.8 1387.8,164.8 1387.8,164.8 	"/>
	<path class="st2" d="M1440.9,248.1c-0.3-0.4-0.6-0.8-0.9-1.2v3.8c0.3,0.4,0.7,0.8,1,1.2L1440.9,248.1
		C1441,248.1,1440.9,248.1,1440.9,248.1z"/>
	<path class="st2" d="M1269.2,365c0,0.1,0,0.1,0,0.2h10.9c0-0.1,0-0.1,0-0.2H1269.2z"/>
	<polygon class="st2" points="1309.6,235.7 1309.6,235.8 1312.3,233.1 1312.3,233 	"/>
	<path class="st2" d="M1276.6,268.8L1276.6,268.8l-3.3,3.2c-0.1,0.1-0.2,0.2-0.3,0.3l0,0.1c0.1-0.1,0.2-0.1,0.3-0.2L1276.6,268.8z"
		/>
	<path class="st2" d="M1281.6,344.5c1.4-1.4,3.1-2.3,4.9-2.8c-1-3.3-0.3-7.1,2.1-9.8c-2.2-3.3-2.6-9.2-1.2-15.8
		c-1.2-0.5-2.4-1.3-3.3-2.3c-4.1-4.1-4.2-10.8-0.2-15c-3.2-5.8-2.8-13.1,1.3-18.5l-8-10.7l-3.2,3.2c-0.1,0.1-0.3,0.2-0.4,0.4
		l5.7,8.5c-4.4,5.2-5.3,12.4-2.4,18.4c-4.2,4-4.6,10.6-0.7,15c0.9,1.1,2,1.9,3.2,2.5c-1.9,6.5-1.8,12.4,0.2,15.8
		c-2.6,2.6-3.5,6.3-2.7,9.7c0,0-0.1,0-0.1,0c0,0,0,0,0,0.1c-1.9,0.4-3.5,1.2-5,2.4c-4.4,4-4.9,10.8-0.9,15.3
		c-0.8,1.3-1.4,2.7-1.7,4.2h10.9c0.1-1.9,0.7-3.7,1.5-5.2C1277.4,355.6,1277.4,348.7,1281.6,344.5z"/>
	<path class="st2" d="M1313.2,233.7l-2.7,2.7l18.6,14.3c0.3-0.4,0.6-0.8,1-1.1c4.2-4.2,11-4.2,15.2-0.1c2.7-0.6,5.6-0.2,8.1,1.3
		c2.9-2.5,6.9-4.9,11.5-6.6c7.7-2.9,15.2-3.4,19.9-1.7c0.2-0.2,0.4-0.5,0.6-0.7c4-4,10.4-4,14.3,0c0.7,0.7,1.3,1.5,1.7,2.3
		c4.5-2.5,9.7-4,15.2-4c9.3,0,17.7,4.1,23.4,10.6v-3.8c-4.5-5.6-10.9-9.6-18.3-11.1c-1.8-0.3-3.6-0.5-5.5-0.5
		c-5.6,0-10.8,1.4-15.3,3.9c0,0,0,0,0-0.1c0,0,0,0-0.1,0c-0.4-0.8-1-1.6-1.7-2.3c-1.5-1.5-3.3-2.4-5.2-2.8c-3.2-0.6-6.6,0.3-9,2.7
		c-0.2,0.2-0.4,0.5-0.6,0.7c0,0-0.1,0-0.1,0c0,0,0,0,0,0c-0.9-0.3-1.8-0.5-2.8-0.7c-4.6-0.7-10.7,0-17,2.2c-4.6,1.7-8.6,4-11.6,6.5
		c0,0,0,0-0.1,0c0,0,0,0,0,0c-1.2-0.7-2.6-1.2-3.9-1.5c-1.4-0.2-2.7-0.2-4.1,0.1c0,0,0,0,0,0c0,0,0,0-0.1,0c-1.6-1.6-3.5-2.5-5.5-3
		c-3.4-0.6-7,0.3-9.6,2.9c-0.4,0.3-0.7,0.7-1,1.1l-0.1-0.1c0,0,0,0,0,0L1313.2,233.7z"/>
	<polygon class="st2" points="1289.5,220.3 1292,217.8 1291.9,217.8 1289.4,220.3 	"/>
	<polygon class="st2" points="1261.3,248.4 1258.7,251 1258.7,251.1 1261.4,248.4 	"/>
	<path class="st2" d="M1440.9,248.1C1440.9,248.1,1441,248.1,1440.9,248.1c-0.2-0.4-0.6-0.9-0.9-1.3v0.1
		C1440.3,247.3,1440.6,247.7,1440.9,248.1z"/>
	<path class="st2" d="M1440,246.9v-0.1c-4.5-5.6-10.9-9.6-18.3-11C1429.1,237.3,1435.5,241.3,1440,246.9z"/>
	<path class="st2" d="M1344.7,244.1c-1.6-1.6-3.5-2.6-5.6-2.9C1341.1,241.6,1343,242.5,1344.7,244.1
		C1344.6,244.1,1344.6,244.1,1344.7,244.1z"/>
	<polygon class="st2" points="1312.3,233 1312.3,233.1 1312.3,233.1 1312.3,233 	"/>
	<path class="st2" d="M1276.8,343c-1.9,0.4-3.5,1.2-5,2.5c0,0,0,0,0,0C1273.3,344.3,1274.9,343.5,1276.8,343
		C1276.8,343.1,1276.8,343.1,1276.8,343z"/>
	<path class="st2" d="M1328.4,245.1C1328.4,245.1,1328.4,245.1,1328.4,245.1l-15.2-11.4l0,0L1328.4,245.1z"/>
	<path class="st2" d="M1352.7,245.5c-1.2-0.7-2.6-1.2-3.9-1.5C1350.1,244.3,1351.5,244.8,1352.7,245.5
		C1352.7,245.5,1352.7,245.5,1352.7,245.5z"/>
	<path class="st2" d="M1384.2,237.5c-0.9-0.3-1.8-0.5-2.8-0.7C1382.4,237,1383.3,237.2,1384.2,237.5
		C1384.2,237.5,1384.2,237.5,1384.2,237.5z"/>
	<path class="st2" d="M1400.8,239.2C1400.8,239.2,1400.8,239.2,1400.8,239.2c-0.3-0.8-0.9-1.6-1.6-2.3c-1.5-1.5-3.3-2.5-5.3-2.8
		c1.9,0.4,3.7,1.3,5.2,2.8C1399.8,237.6,1400.4,238.4,1400.8,239.2z"/>
	<polygon class="st2" points="1292,217.8 1292,217.8 1291.9,217.8 1291.9,217.8 	"/>
	<path class="st3" d="M1378.1,100.2l-1.3,1.8l0.7,1.3l1.6-2.6C1378.8,100.5,1378.5,100.4,1378.1,100.2z"/>
	<path class="st3" d="M1379.3,100.7c0,0-0.1,0-0.1-0.1l-1.6,2.6l0.1,0.1L1379.3,100.7z"/>
	<path class="st3" d="M1365.9,104.1L1365.9,104.1l3.6-5.5c-0.1-0.3-0.2-0.5-0.3-0.7c-0.1-0.2-0.2-0.4-0.3-0.6l-4.5,6.9l0.5,1
		l8.3,0.4l-0.7-1.3L1365.9,104.1z"/>
	<polygon class="st3" points="1372.5,104.3 1365.9,104.1 1365.8,104 1365.9,104.1 	"/>
	<polygon class="st3" points="1364.4,104.2 1364.9,105.2 1364.4,104.2 	"/>
	<path class="st3" d="M1161.2,287.5c0.7,0.5,1.3,1,1.8,1.4c0.5,0.4,1,0.8,1.5,1.2c0.5,0.4,1.1,0.8,1.8,1.4v0.1l-6.2,2.1l-0.3,1.5
		l7.8-2.8l0.2-1.1l-6.3-5.4L1161.2,287.5z"/>
	<path class="st3" d="M1148.7,288.9l6.3,5.4l0.3-1.5l-5.1-4.1v-0.1l6.3-2.2c0-0.3,0.1-0.5,0.1-0.7s0-0.4,0.1-0.7l-7.8,2.8
		L1148.7,288.9z"/>
	<circle class="st4" cx="1416.7" cy="206.4" r="5.8"/>
	<circle class="st4" cx="1247.4" cy="322.6" r="5.8"/>
	<path class="st4" d="M1159.8,186.2c-1.6,0-2.9,1.3-2.9,2.9c0,1.6,1.3,2.9,2.9,2.9c1.6,0,2.9-1.3,2.9-2.9c0-0.1,0-0.1,0-0.2
		l-2.7-2.7C1159.9,186.2,1159.9,186.2,1159.8,186.2z"/>
	<circle class="st4" cx="1392.9" cy="127.7" r="2.9"/>
	<path class="st4" d="M1240,266.1l-0.3-0.3v1.3h3.8c0.9,0,1.7-0.8,1.7-1.7c0-0.3-0.1-0.5-0.2-0.7l-1.4,1.4
		C1242.6,267.1,1241,267.1,1240,266.1z"/>
	<path class="st4" d="M1232.4,263.7c-0.9,0-1.7,0.8-1.7,1.7c0,0.9,0.8,1.7,1.7,1.7h3.9v-3.4H1232.4z"/>
	<polygon class="st4" points="1236.3,262.4 1236.3,263.7 1237.6,263.7 	"/>
	<path class="st4" d="M1236.3,270.9c0,0.9,0.8,1.7,1.7,1.7c0.9,0,1.7-0.8,1.7-1.7v-3.8h-3.4V270.9z"/>
	<polygon class="st4" points="1237.6,263.7 1236.3,263.7 1236.3,267.1 1239.7,267.1 1239.7,265.8 	"/>
	<path class="st4" d="M1268.6,102.1c-0.9,0-1.7,0.8-1.7,1.7c0,1,0.8,1.7,1.7,1.7h3.9v-3.4H1268.6z"/>
	<path class="st4" d="M1279.7,102.1h-3.8v3.4h3.8c0.9,0,1.7-0.8,1.7-1.7C1281.4,102.9,1280.6,102.1,1279.7,102.1z"/>
	<path class="st4" d="M1272.5,109.4c0,0.9,0.8,1.7,1.7,1.7c0.9,0,1.7-0.8,1.7-1.7v-3.9h-3.4V109.4z"/>
	<path class="st4" d="M1275.9,98.3c0-0.9-0.8-1.7-1.7-1.7c-0.9,0-1.7,0.8-1.7,1.7v3.8h3.4V98.3z"/>
	<rect x="1272.5" y="102.1" class="st4" width="3.4" height="3.4"/>
	<path class="st4" d="M1335.4,162.5h2.4v-2h-2.4l-1,1C1334.4,162.1,1334.8,162.5,1335.4,162.5z"/>
	<path class="st4" d="M1342.2,162.5c0.6,0,1-0.5,1-1c0-0.6-0.5-1-1-1h-2.4v2H1342.2z"/>
	<path class="st4" d="M1339.8,158.1c0-0.6-0.5-1-1-1c-0.6-0.1-1,0.4-1,1v2.4h2V158.1z"/>
	<path class="st4" d="M1337.8,164.9c0,0.6,0.5,1,1,1c0.6,0,1-0.5,1-1v-2.4h-2V164.9z"/>
	<rect x="1337.8" y="160.5" class="st4" width="2" height="2"/>
	<path class="st4" d="M1174.4,325.2c-0.6,0-1,0.5-1,1c-0.1,0.5,0.4,1,1,1h2.4v-2H1174.4z"/>
	<path class="st4" d="M1181.2,327.2c0.6,0,1-0.5,1-1c0-0.6-0.5-1-1-1h-2.4v2H1181.2z"/>
	<path class="st4" d="M1178.8,329.5v-2.3h-2v2.3c0,0.6,0.5,1,1,1S1178.8,330,1178.8,329.5z"/>
	<path class="st4" d="M1178.8,322.7c0-0.6-0.5-1-1-1s-1,0.4-1,1v2.5h2V322.7z"/>
	<rect x="1176.8" y="325.2" class="st4" width="2" height="2"/>
	<polygon class="st4" points="1218.4,348.7 1216,342.4 1215.4,342.4 1217.8,348.7 	"/>
	<polygon class="st4" points="1212.4,342.4 1214.9,348.7 1215.5,348.7 1213,342.4 	"/>
	<polygon class="st4" points="1156.1,238.5 1153.7,232.2 1153.1,232.2 1155.5,238.5 	"/>
	<polygon class="st4" points="1153.1,238.5 1150.7,232.2 1150.1,232.2 1152.5,238.5 	"/>
	<polygon class="st4" points="1336.3,107.6 1338.7,113.9 1339.3,113.9 1336.9,107.6 	"/>
	<polygon class="st4" points="1333.3,107.6 1335.8,113.9 1336.3,113.9 1333.9,107.6 	"/>
	<polygon class="st4" points="1246.3,297.1 1243.9,290.8 1243.3,290.8 1245.7,297.1 	"/>
	<polygon class="st4" points="1243.3,297.1 1240.9,290.8 1240.3,290.8 1242.8,297.1 	"/>
	<polygon class="st4" points="1309.9,191.6 1312.4,197.9 1313,197.9 1310.5,191.6 	"/>
	<polygon class="st4" points="1307.6,191.6 1307,191.6 1307.7,193.4 1308.6,194.3 	"/>
	<path class="st5" d="M1440,333.7l1-0.4V252c-0.3-0.4-0.6-0.8-1-1.2V333.7z"/>
	<path class="st5" d="M1440,336.8V365h-12.9c-0.1,0.1-0.1,0.1-0.2,0.2h14.1v-27.5L1440,336.8z"/>
	<polygon class="st5" points="1440,335.8 1441,336.7 1441,334 1440,334.4 	"/>
	<path class="st5" d="M1280.1,365c0,0.1,0,0.1,0,0.2h28.2c0-0.1-0.1-0.1-0.1-0.2H1280.1z"/>
	<path class="st5" d="M1313.6,365c0.1,0.1,0.1,0.1,0.2,0.2h109.9c0.1-0.1,0.1-0.1,0.2-0.2H1313.6z"/>
	<polygon class="st5" points="1261.4,248.4 1289.5,220.3 1289.4,220.3 1261.3,248.4 	"/>
	<path class="st5" d="M1438,334.4l2-0.7v-82.9c-5.7-6.5-14.1-10.6-23.4-10.6c-5.5,0-10.7,1.5-15.2,4c-0.4-0.8-1-1.6-1.7-2.3
		c-3.9-4-10.3-4-14.3,0c-0.2,0.2-0.4,0.5-0.6,0.7c-4.7-1.7-12.2-1.2-19.9,1.7c-4.6,1.7-8.6,4.1-11.5,6.6c-2.5-1.5-5.4-1.9-8.1-1.3
		c-4.2-4.1-11-4.1-15.2,0.1c-0.4,0.3-0.7,0.7-1,1.1l-18.6-14.3l-33.3,33.2l8,10.7c-4.1,5.4-4.5,12.7-1.3,18.5
		c-4,4.2-3.9,10.9,0.2,15c0.9,1,2.1,1.8,3.3,2.3c-1.4,6.6-1,12.5,1.2,15.8c-2.4,2.7-3.1,6.5-2.1,9.8c-1.8,0.5-3.5,1.4-4.9,2.8
		c-4.2,4.2-4.2,11.1,0,15.3c-0.8,1.5-1.4,3.3-1.5,5.2h28c-0.6-0.7-1.2-1.4-1.6-2.2c-2.1-3.9-0.3-7,3.3-8.9l0.4-0.2l1.6,3.1l-0.4,0.2
		c-1.7,0.9-2.4,2.3-1.3,4.3c0.7,1.4,2.1,2.5,3.5,3.7h110.2c1-1,2.3-1.8,2.9-2.9c0.6-1.1,0.2-1.8-0.7-2.3l-0.2-0.1l0.9-1.6l0.2,0.1
		c1.9,1,2.9,2.7,1.8,4.8c-0.4,0.8-1,1.4-1.6,2h12.9v-28.2l-2.1-1.8L1438,334.4z M1288.9,269.6l7.7-3.5l1,2.2l-7.7,3.5L1288.9,269.6z
		 M1292,276.3l-1-2.2l7.7-3.5l1,2.2L1292,276.3z M1301.7,250.1l-0.4-0.4l1.4-3.8c0.1,0.1,0.2,0.2,0.2,0.3c0,0.1,0.1,0.2,0.2,0.3
		l-1.1,2.9l3.2-0.6l0.5,0.6L1301.7,250.1z M1307,247.2l1.2-3c-0.4,0.1-0.8,0.2-1.1,0.2c-0.3,0.1-0.6,0.1-0.9,0.2
		c-0.3,0.1-0.7,0.1-1.1,0.2l-0.6-0.5l4-0.7l0.4,0.4l-1.4,3.8L1307,247.2z M1307.7,307.3l4.4-1.6c0,0.2-0.1,0.3-0.1,0.4
		s0,0.2-0.1,0.4l-3.4,1.2l2.8,2.4l-0.2,0.8l-3.5-3L1307.7,307.3z M1311.8,331.6l-2.4-6.3h0.6l2.4,6.3H1311.8z M1314.8,331.6
		l-2.4-6.3h0.5l2.5,6.3H1314.8z M1318.2,309.8l-4.4,1.6l0.2-0.8l3.5-1.2v-0.1c-0.4-0.3-0.7-0.6-1-0.8s-0.6-0.5-0.9-0.7
		c-0.3-0.2-0.6-0.5-1-0.8l0.2-0.8l3.5,3L1318.2,309.8z M1325.3,270.1c-1,2-3.5,3.2-4.2,4.5c-0.5,0.9,0,1.4,0.8,1.8l-0.9,1.7
		c-0.8-0.4-1.5-0.5-2,0.4c-0.7,1.3-0.3,4.1-1.4,6c-1.1,2.1-3,2.3-5,1.2l-0.2-0.3l0.9-1.6c0,0,0.1,0.1,0.2,0.2
		c0.9,0.5,1.8,0.2,2.3-0.7c0.8-1.5,0.4-3.9,1.3-5.7c0.6-1.1,1.6-1.6,2.6-1.2c-0.8-0.7-1-1.7-0.4-2.9c1-1.8,3.2-2.8,4-4.3
		c0.6-1.1,0.2-1.8-0.7-2.3l-0.2-0.1l0.9-1.6l0.2,0.1C1325.4,266.3,1326.4,268,1325.3,270.1z M1342.2,279c0.9-0.5,2-0.2,2.5,0.7
		c0.6,0.9,0.2,2-0.7,2.5c-0.9,0.5-2,0.2-2.5-0.7C1341,280.6,1341.3,279.5,1342.2,279z M1333.9,322.2l12.3-5.6l1.6,3.5l-12.3,5.6
		L1333.9,322.2z M1347.6,354.9c-0.5,0.9-1.7,1.1-2.6,0.6c-0.9-0.5-1.1-1.7-0.6-2.5c0.5-0.9,1.7-1.1,2.5-0.6
		C1347.9,352.9,1348.1,354,1347.6,354.9z M1338.8,332.8l-1.6-3.5l12.3-5.6l1.6,3.5L1338.8,332.8z M1347.5,291.5
		c-0.8-1.4-0.7-2.5,0.4-3.1c0.8-0.5,1.7-0.2,2.2,0.6s0.2,1.7-0.4,2.1c-0.1,0.1-0.3,0.1-0.5,0.1v0.1c0.7,1,1.6,1.1,2.7,0.8l0.1,1
		C1350.3,293.9,1348.3,293,1347.5,291.5z M1355.1,361.5c-1.3-0.8-1.8-1.8-1.2-2.9c0.5-0.8,1.5-1,2.2-0.5c0.8,0.5,1,1.4,0.6,2
		c-0.1,0.1-0.2,0.3-0.4,0.3v0.1c1.1,0.5,1.9,0.2,2.8-0.6l0.7,0.8C1358.6,362.2,1356.5,362.4,1355.1,361.5z M1426.7,278.8l2.4,6.3
		h-0.5l-2.5-6.3H1426.7z M1408.6,263.7l0.6,0.7l-2.3,6.1l-0.8-0.9l1.9-4.8l-0.1-0.1c-0.7,0.1-1.3,0.3-1.8,0.3l-1.5,0.3
		c-0.5,0.1-1.1,0.2-1.8,0.4l-0.6-0.9L1408.6,263.7z M1399.3,267.2c0.2,0.2,0.3,0.3,0.4,0.5c0.1,0.1,0.2,0.3,0.4,0.5l-2,4.7l5.1-0.9
		l0.8,0.9l-6.4,1.1l-0.6-0.7L1399.3,267.2z M1370,261.3l-2.5-6.3h0.6l2.4,6.3H1370z M1372.9,261.3l-2.4-6.3h0.6l2.4,6.3H1372.9z
		 M1390.6,311.4c-2,1-3.9,0.9-5-1.2c-1-2-0.7-4.7-1.4-6c-0.5-0.9-1.2-0.8-2-0.4l-0.9-1.7c0.8-0.4,1.3-1,0.8-1.8
		c-0.7-1.3-3.2-2.6-4.2-4.5c-1.1-2.1-0.2-3.8,1.8-4.8l0.2-0.1l0.9,1.7l-0.2,0.1c-0.9,0.5-1.3,1.3-0.7,2.3c0.8,1.5,3,2.5,4,4.3
		c0.6,1.1,0.4,2.1-0.4,2.9c1-0.3,2,0.1,2.6,1.2c1,1.8,0.5,4.2,1.3,5.7c0.5,1,1.4,1.2,2.3,0.7c0.2-0.1,0.2-0.2,0.2-0.2l0.9,1.7
		L1390.6,311.4z M1392,247.5h-11.1c-1,0-1.7-0.8-1.7-1.7c0-0.9,0.8-1.7,1.7-1.7h11.1c0.9,0,1.7,0.8,1.7,1.7
		C1393.7,246.7,1392.9,247.5,1392,247.5z M1393.7,350.9l7.7-11.1l3.1,2.2l-7.7,11.1L1393.7,350.9z M1403.2,357.6l-3.1-2.2l7.7-11.1
		l3.1,2.2L1403.2,357.6z M1418.7,303.8c-1.4,0.8-3.1,0.3-3.9-1.1c-0.8-1.4-0.3-3.1,1.1-3.9s3.1-0.3,3.9,1
		C1420.5,301.3,1420,303,1418.7,303.8z M1424,318.4c-1.2-2.1-1.2-3.8,0.6-4.8c1.2-0.7,2.7-0.3,3.4,0.9s0.3,2.7-0.7,3.2
		c-0.2,0.1-0.5,0.2-0.7,0.2l-0.1,0.1c1.2,1.5,2.5,1.7,4.2,1.3l0.4,1.5C1428.4,322.1,1425.3,320.6,1424,318.4z M1431.5,285.1
		l-2.4-6.3h0.6l2.4,6.3H1431.5z"/>
	<polygon class="st5" points="1276.6,268.7 1276.6,268.8 1309.6,235.8 1309.6,235.7 	"/>
	<polygon class="st5" points="1440,335.8 1440,334.4 1438.8,334.8 	"/>
	<path class="st5" d="M1392,244.1h-11.1c-0.9,0-1.7,0.8-1.7,1.7c0,0.9,0.7,1.7,1.7,1.7h11.1c0.9,0,1.7-0.8,1.7-1.7
		C1393.7,244.9,1392.9,244.1,1392,244.1z"/>
	<path class="st2" d="M1426.5,318L1426.5,318c0.3-0.1,0.6-0.2,0.8-0.3c1-0.5,1.4-2,0.7-3.2s-2.2-1.6-3.4-0.9c-1.8,1-1.8,2.7-0.6,4.8
		c1.3,2.2,4.4,3.7,7.1,2.4l-0.4-1.5C1429,319.7,1427.7,319.5,1426.5,318z"/>
	<path class="st2" d="M1415.9,298.8c-1.4,0.8-1.9,2.5-1.1,3.9c0.8,1.4,2.5,1.9,3.9,1.1c1.3-0.8,1.8-2.5,1.1-4
		C1419,298.5,1417.3,298,1415.9,298.8z"/>
	<path class="st4" d="M1425.2,173.3c-1.6-1.1-3.2-0.5-4.6,1.5c-1.5,2-1.6,5.4,0.7,7.4l1.2-1.1c-1-1.3-1.4-2.6-0.5-4.3h0.1
		c0.1,0.3,0.3,0.4,0.5,0.6c0.9,0.7,2.4,0.4,3.2-0.7C1426.6,175.7,1426.3,174.1,1425.2,173.3z"/>
	<path class="st4" d="M1431.8,163.9c1.2,0.9,3,0.6,4.1-0.6c0.9-1.3,0.6-3.1-0.7-4c-1.3-0.9-3.1-0.7-4,0.6
		C1430.2,161.2,1430.5,163,1431.8,163.9z"/>
	<path class="st2" d="M1346.9,352.4c-0.8-0.5-2-0.3-2.5,0.6c-0.5,0.8-0.3,2,0.6,2.5c0.9,0.5,2.1,0.3,2.6-0.6
		C1348.1,354,1347.9,352.9,1346.9,352.4z"/>
	<path class="st2" d="M1356.3,360.5v-0.1c0.2,0,0.3-0.2,0.4-0.3c0.4-0.6,0.2-1.5-0.6-2c-0.7-0.5-1.7-0.3-2.2,0.5
		c-0.6,1.1-0.1,2.1,1.2,2.9c1.4,0.9,3.5,0.7,4.7-0.8l-0.7-0.8C1358.2,360.7,1357.4,361,1356.3,360.5z"/>
	<path class="st2" d="M1349.2,291.3L1349.2,291.3c0.2-0.1,0.4-0.1,0.5-0.2c0.6-0.4,0.9-1.3,0.4-2.1s-1.4-1.1-2.2-0.6
		c-1.1,0.6-1.2,1.7-0.4,3.1c0.8,1.5,2.8,2.4,4.5,1.6l-0.1-1C1350.8,292.4,1349.9,292.3,1349.2,291.3z"/>
	<path class="st2" d="M1344,282.2c0.9-0.5,1.3-1.6,0.7-2.5c-0.5-0.9-1.6-1.2-2.5-0.7c-0.9,0.5-1.2,1.6-0.7,2.5
		C1342,282.4,1343.1,282.7,1344,282.2z"/>
	<path class="st2" d="M1308.1,365c0,0.1,0.1,0.1,0.1,0.2h5.6c-0.1-0.1-0.1-0.1-0.2-0.2H1308.1z"/>
	<path class="st2" d="M1310.1,361.3c-1.1-2-0.4-3.4,1.3-4.3l0.4-0.2l-1.6-3.1l-0.4,0.2c-3.6,1.9-5.4,5-3.3,8.9
		c0.4,0.8,1,1.5,1.6,2.2h5.5C1312.2,363.8,1310.8,362.7,1310.1,361.3z"/>
	<path class="st2" d="M1323.5,265.3l-0.2-0.1l-0.9,1.6l0.2,0.1c0.9,0.5,1.3,1.2,0.7,2.3c-0.8,1.5-3,2.5-4,4.3
		c-0.6,1.2-0.4,2.2,0.4,2.9c-1-0.4-2,0.1-2.6,1.2c-0.9,1.8-0.5,4.2-1.3,5.7c-0.5,0.9-1.4,1.2-2.3,0.7c-0.1-0.1-0.2-0.2-0.2-0.2
		l-0.9,1.6l0.2,0.3c2,1.1,3.9,0.9,5-1.2c1.1-1.9,0.7-4.7,1.4-6c0.5-0.9,1.2-0.8,2-0.4l0.9-1.7c-0.8-0.4-1.3-0.9-0.8-1.8
		c0.7-1.3,3.2-2.5,4.2-4.5C1326.4,268,1325.4,266.3,1323.5,265.3z"/>
	<path class="st2" d="M1423.8,365c-0.1,0.1-0.1,0.1-0.2,0.2h3.2c0.1-0.1,0.1-0.1,0.2-0.2H1423.8z"/>
	<path class="st2" d="M1428.7,363c1.1-2.1,0.1-3.8-1.8-4.8l-0.2-0.1l-0.9,1.6l0.2,0.1c0.9,0.5,1.3,1.2,0.7,2.3
		c-0.6,1.1-1.8,1.9-2.9,2.9h3.2C1427.7,364.4,1428.3,363.8,1428.7,363z"/>
	<path class="st2" d="M1389.7,309.8c-0.9,0.5-1.8,0.3-2.3-0.7c-0.8-1.5-0.3-3.9-1.3-5.7c-0.6-1.1-1.6-1.5-2.6-1.2
		c0.8-0.8,1-1.8,0.4-2.9c-1-1.8-3.2-2.8-4-4.3c-0.6-1-0.2-1.8,0.7-2.3l0.2-0.1l-0.9-1.7l-0.2,0.1c-2,1-2.9,2.7-1.8,4.8
		c1,1.9,3.5,3.2,4.2,4.5c0.5,0.8,0,1.4-0.8,1.8l0.9,1.7c0.8-0.4,1.5-0.5,2,0.4c0.7,1.3,0.4,4,1.4,6c1.1,2.1,3,2.2,5,1.2l0.2-0.1
		l-0.9-1.7C1389.9,309.6,1389.9,309.7,1389.7,309.8z"/>
	<path class="st4" d="M1368.9,211.9c-0.9,0.5-1.8,0.3-2.3-0.7c-0.8-1.5-0.3-3.9-1.3-5.7c-0.6-1.1-1.6-1.5-2.6-1.2
		c0.8-0.8,1-1.8,0.4-2.9c-1-1.8-3.2-2.8-4-4.3c-0.6-1-0.2-1.8,0.7-2.3l0.2-0.1l-0.9-1.6l-0.2,0.1c-2,1-2.9,2.7-1.8,4.8
		c1,1.9,3.5,3.2,4.2,4.5c0.5,0.8,0,1.4-0.8,1.8l0.9,1.7c0.8-0.4,1.5-0.5,2,0.4c0.7,1.3,0.4,4,1.4,6c1.1,2.1,3,2.2,5,1.2l0.2-0.3
		l-0.9-1.6C1369.1,211.7,1369.1,211.8,1368.9,211.9z"/>
	<path class="st4" d="M1183.1,365c0,0.1,0.1,0.1,0.1,0.2h2.1c0-0.1,0-0.1,0-0.2H1183.1z"/>
	<path class="st4" d="M1180.9,359.6c-0.6-1-0.2-1.8,0.7-2.3l0.2-0.1l-0.9-1.6l-0.2,0.1c-2,1-2.9,2.7-1.8,4.8c1,1.9,3.5,3.2,4.2,4.5
		h2.1c0-0.4-0.1-0.7-0.3-1.1C1183.9,362.1,1181.7,361.1,1180.9,359.6z"/>
	<path class="st4" d="M1208.1,308l0.6-0.5c0,0,0,0-0.1-0.1c-0.5-0.3-0.6-0.7-0.3-1.2c0.4-0.7,1.6-1.1,2.1-2c0.3-0.5,0.3-1-0.1-1.4
		c0.5,0.2,1,0,1.3-0.5c0.6-0.9,0.5-2.1,0.9-2.8c0.3-0.5,0.8-0.6,1.2-0.3l0.1,0.1l0.5-0.8l-0.1-0.1c-0.9-0.6-1.9-0.6-2.5,0.4
		c-0.6,0.9-0.5,2.3-0.9,2.9c-0.3,0.4-0.6,0.3-1,0.1l-0.5,0.8c0.3,0.2,0.6,0.5,0.3,0.9c-0.4,0.6-1.6,1.2-2.2,2.1
		C1206.8,306.6,1207.2,307.4,1208.1,308z"/>
	<path class="st4" d="M1233.9,118.7c0.5,0.2,1,0,1.3-0.5c0.6-0.9,0.5-2.1,0.9-2.8c0.3-0.5,0.8-0.6,1.2-0.3l0.1,0.1l0.5-0.8l-0.1-0.1
		c-0.9-0.6-1.9-0.6-2.5,0.4c-0.6,0.9-0.5,2.3-0.9,2.9c-0.3,0.4-0.6,0.3-1,0.1l-0.5,0.8c0.2,0.1,0.4,0.3,0.4,0.5l0.8,0.8
		C1234.3,119.4,1234.2,119,1233.9,118.7z"/>
	<polygon class="st2" points="1346.2,316.6 1333.9,322.2 1335.5,325.7 1347.8,320.1 	"/>
	<polygon class="st2" points="1337.2,329.3 1338.8,332.8 1351.1,327.2 1349.5,323.7 	"/>
	<polygon class="st2" points="1400.1,355.4 1403.2,357.6 1410.9,346.5 1407.8,344.3 	"/>
	<polygon class="st2" points="1401.4,339.8 1393.7,350.9 1396.8,353.1 1404.5,342 	"/>
	
		<rect x="1291.1" y="272.2" transform="matrix(0.9104 -0.4138 0.4138 0.9104 2.9518 560.5272)" class="st2" width="8.5" height="2.4"/>
	<rect x="1289" y="267.7" transform="matrix(0.9104 -0.4138 0.4138 0.9104 4.627 559.2607)" class="st2" width="8.5" height="2.4"/>
	<path class="st2" d="M1314.6,307c0.4,0.3,0.7,0.6,1,0.8c0.3,0.2,0.6,0.5,0.9,0.7s0.6,0.5,1,0.8v0.1l-3.5,1.2l-0.2,0.8l4.4-1.6
		l0.1-0.6l-3.5-3L1314.6,307z"/>
	<path class="st2" d="M1311.3,310.1l-2.8-2.4l3.4-1.2c0.1-0.2,0.1-0.3,0.1-0.4s0.1-0.2,0.1-0.4l-4.4,1.6l-0.1,0.6l3.5,3
		L1311.3,310.1z"/>
	<polygon class="st2" points="1440,334.4 1441,334 1441,333.3 1440,333.7 	"/>
	<polygon class="st2" points="1440,336.8 1441,337.6 1441,336.7 1440,335.8 	"/>
	<polygon class="st2" points="1438.8,334.8 1440,334.4 1440,333.7 1438,334.4 1437.9,335 1440,336.8 1440,335.8 	"/>
	<path class="st2" d="M1404.6,265.3l1.5-0.3c0.5,0,1.1-0.2,1.8-0.3l0.1,0.1l-1.9,4.8l0.8,0.9l2.3-6.1l-0.6-0.7l-6.4,1.1l0.6,0.9
		C1403.5,265.5,1404.1,265.4,1404.6,265.3z"/>
	<path class="st2" d="M1404,272.9l-0.8-0.9l-5.1,0.9l2-4.7c-0.2-0.2-0.3-0.4-0.4-0.5c-0.1-0.2-0.2-0.3-0.4-0.5l-2.3,6.1l0.6,0.7
		L1404,272.9z"/>
	<path class="st4" d="M1396.2,156l0.6,0l0.3,0.7c0.2,0,0.3-0.1,0.5-0.1l0.1,0.1l-1.9,4.8l0.8,0.9l2.3-6.1l-0.6-0.7L1396.2,156z"/>
	<path class="st4" d="M1392,156.9l0.5,0.8c0.7-0.2,1.3-0.3,1.8-0.4c0.3-0.1,0.7-0.1,1-0.2c-0.7,0-1.3,0-1.9-0.1L1392,156.9z"/>
	<path class="st4" d="M1396.2,156l-4.3,0.7l0.1,0.2l1.4,0.1c0.6,0.1,1.2,0.1,1.9,0.1c0.2,0,0.3-0.1,0.5-0.1c0.4-0.1,0.8-0.2,1.3-0.3
		l-0.3-0.7L1396.2,156z"/>
	<polygon class="st4" points="1387.8,164.8 1387.9,164.8 1388.4,165.7 1393.7,164.8 1392.9,163.9 	"/>
	<path class="st4" d="M1389.8,160.1c-0.2-0.2-0.3-0.4-0.4-0.5c-0.1-0.2-0.2-0.3-0.4-0.5l-2.1,5.7l0.9,0L1389.8,160.1z"/>
	<polygon class="st4" points="1387.8,164.8 1387.8,164.8 1387.8,164.8 1386.9,164.8 1386.7,165.2 1387.3,165.9 1388.4,165.7 
		1387.9,164.8 	"/>
	<path class="st2" d="M1308.5,243.6l-4,0.7l0.6,0.5c0.4-0.1,0.8-0.1,1.1-0.2c0.3-0.1,0.6-0.1,0.9-0.2c0.3,0,0.7-0.1,1.1-0.2l-1.2,3
		l0.5,0.6l1.4-3.8L1308.5,243.6z"/>
	<path class="st2" d="M1302,249.4l1.1-2.9c-0.1-0.1-0.2-0.2-0.2-0.3c0-0.1-0.1-0.2-0.2-0.3l-1.4,3.8l0.4,0.4l4-0.7l-0.5-0.6
		L1302,249.4z"/>
	<polygon class="st2" points="1312.4,325.3 1314.8,331.6 1315.4,331.6 1312.9,325.3 	"/>
	<polygon class="st2" points="1309.4,325.3 1311.8,331.6 1312.4,331.6 1310,325.3 	"/>
	<polygon class="st2" points="1429.1,278.8 1431.5,285.1 1432.1,285.1 1429.7,278.8 	"/>
	<polygon class="st2" points="1429.1,285.1 1426.7,278.8 1426.1,278.8 1428.6,285.1 	"/>
	<polygon class="st2" points="1370.5,255 1372.9,261.3 1373.5,261.3 1371.1,255 	"/>
	<polygon class="st2" points="1367.5,255 1370,261.3 1370.5,261.3 1368.1,255 	"/>
	<path class="st4" d="M1220.3,275.7l-5.7,5.7C1217.3,280.6,1219.5,278.4,1220.3,275.7z"/>
	<path class="st6" d="M1149.6,59.5C1149.6,59.5,1149.6,59.5,1149.6,59.5c-0.1,0.3-0.3,0.7-0.4,1
		C1149.3,60.2,1149.5,59.8,1149.6,59.5z"/>
	<path class="st6" d="M1108.5,60.4c-0.9,2.8-1.4,6.4-1.6,10.8l9.6-3.5c-0.1,0.4-0.1,0.8-0.2,1.1c-0.1,0.3-0.1,0.6-0.2,1.1l-8.8,2.8
		v0.2l7.2,5.9l-0.4,2.1l-7.2-6.1c0,2.9,0.2,6.1,0.5,9.6c0.3,4.1,1.6,13.7,2.5,18.8c22.2-11.2,33.9-30.7,39.3-42.7
		C1135.4,58.2,1116.6,56.5,1108.5,60.4z M1132,78.1l-11.1,4l0.4-2.1l8.9-2.9v-0.2c-1-0.8-1.8-1.5-2.5-2.1c-0.7-0.6-1.4-1.2-2.2-1.7
		s-1.6-1.3-2.5-2.1l0.3-2.1l9,7.6L1132,78.1z"/>
	<path class="st6" d="M1131.5,90.1c-5.6,5.7-12.7,11-21.1,15.2c0,0.2,0.1,0.3,0.1,0.5h-0.1c0.1,0.5,0.2,1.1,0.3,1.6
		c0.5,0,1,0.3,1.2,0.7c0.3,0.6,0,1.4-0.6,1.7c0,0-0.1,0-0.1,0c0.1,0.5,0.2,1,0.3,1.5c28.3-12.1,41-37.6,45.5-49.3l-1.6-0.4
		c-1.3-0.3-2.6-0.5-4-0.8c0.1-0.3,0.3-0.6,0.4-0.9c0,0,0,0-0.1,0c-0.1,0.3-0.3,0.7-0.4,1C1147.8,68.8,1141.6,80,1131.5,90.1z
		 M1119.3,105.5c-0.6,0.3-1.4,0-1.7-0.6c-0.4-0.6-0.1-1.4,0.6-1.7c0.6-0.3,1.4,0,1.7,0.6C1120.2,104.4,1119.9,105.2,1119.3,105.5z
		 M1126.8,100.3c-0.5,0.5-1.3,0.5-1.8,0s-0.5-1.3,0-1.8s1.3-0.5,1.8,0S1127.3,99.8,1126.8,100.3z M1133.3,94.5
		c-0.5,0.5-1.3,0.5-1.8,0s-0.5-1.3,0-1.8s1.3-0.5,1.8,0S1133.8,94,1133.3,94.5z M1139.3,88.3c-0.5,0.5-1.3,0.5-1.8,0s-0.5-1.3,0-1.8
		s1.3-0.5,1.8,0S1139.8,87.8,1139.3,88.3z M1144.6,81.4c-0.5,0.5-1.3,0.5-1.8,0s-0.5-1.3,0-1.8s1.3-0.5,1.8,0
		S1145.1,80.9,1144.6,81.4z M1149.4,74c-0.5,0.5-1.3,0.5-1.8,0s-0.5-1.3,0-1.8s1.3-0.5,1.8,0S1149.9,73.5,1149.4,74z M1151.7,64
		c0.5-0.5,1.3-0.5,1.8,0s0.5,1.3,0,1.8s-1.3,0.5-1.8,0S1151.2,64.5,1151.7,64z"/>
	<path class="st6" d="M1123,71c0.9,0.8,1.7,1.6,2.5,2.1s1.5,1.1,2.2,1.7c0.7,0.6,1.5,1.3,2.5,2.1v0.2l-8.9,2.9l-0.4,2.1l11.1-4
		l0.3-1.6l-9-7.6L1123,71z"/>
	<path class="st6" d="M1106.9,74.8l7.2,6.1l0.4-2.1l-7.2-5.9v-0.2l8.8-2.8c0.1-0.5,0.1-0.8,0.2-1.1c0.1-0.3,0.1-0.7,0.2-1.1
		l-9.6,3.5C1106.9,72.3,1106.9,73.5,1106.9,74.8z"/>
	<polygon class="st7" points="1197.9,244.2 1208.4,254.8 1214.3,248.9 1200.3,234.9 	"/>
	<polygon class="st7" points="1202,228.2 1202,228.3 1218.5,244.7 1218.5,244.7 	"/>
	<polygon class="st7" points="1294.8,168.4 1281.9,155.4 1272.2,157.9 1288.8,174.5 	"/>
	<polygon class="st7" points="1299.1,164.1 1288.7,153.7 1288.5,153.7 1299,164.2 	"/>
	<polygon class="st8" points="1199.4,234.1 1198.6,233.3 1196.2,242.5 1197,243.3 	"/>
	<polygon class="st8" points="1209.2,255.4 1209.9,256.1 1215.7,250.3 1215,249.6 	"/>
	<polygon class="st8" points="1201.1,227.3 1200.3,226.5 1200.3,226.6 1201.1,227.4 	"/>
	<polygon class="st8" points="1280.8,154.5 1280.1,153.8 1270.6,156.3 1271.3,157 	"/>
	<polygon class="st8" points="1287,152 1286.9,152 1287.7,152.8 1287.8,152.8 	"/>
	
		<rect x="1288.6" y="172" transform="matrix(0.7071 -0.7071 0.7071 0.7071 256.7057 964.7424)" class="st8" width="8.6" height="1"/>
	
		<rect x="1219.5" y="245.3" transform="matrix(0.7071 -0.7071 0.7071 0.7071 183.4275 934.4224)" class="st8" width="0.1" height="1"/>
	<polygon class="st8" points="1197.9,244.2 1200.3,234.9 1199.4,234.1 1197,243.3 	"/>
	
		<rect x="1207.6" y="251.7" transform="matrix(0.7071 -0.7071 0.7071 0.7071 176.5914 930.6793)" class="st8" width="8.3" height="1"/>
	<polygon class="st8" points="1299,164.2 1299.8,164.9 1299.8,164.8 1299.1,164.1 	"/>
	<polygon class="st8" points="1288.7,153.7 1287.8,152.8 1287.7,152.8 1288.5,153.7 	"/>
	<polygon class="st8" points="1218.5,244.7 1219.2,245.5 1219.3,245.4 1218.5,244.7 	"/>
	<polygon class="st8" points="1289.5,175.2 1295.6,169.1 1294.8,168.4 1288.8,174.5 	"/>
	<polygon class="st8" points="1271.3,157 1272.2,157.9 1281.9,155.4 1281,154.5 1280.8,154.5 1280.9,154.6 	"/>
	<polygon class="st8" points="1201.1,227.3 1201.1,227.4 1202,228.3 1202,228.2 	"/>
	<polygon class="st8" points="1271.3,157 1280.9,154.6 1280.8,154.5 1271.3,157 	"/>
	<polygon class="st9" points="1200.3,234.9 1214.3,248.9 1218.5,244.7 1202,228.3 	"/>
	<polygon class="st10" points="1202,228.3 1201.1,227.4 1200.3,226.6 1198.6,233.2 1199.4,234.1 1200.3,234.9 	"/>
	<polygon class="st10" points="1218.5,244.7 1214.3,248.9 1215,249.6 1215.7,250.3 1215.7,250.3 1215.7,250.4 1219.9,246.2 
		1219.2,245.5 	"/>
	<polygon class="st10" points="1215,249.6 1215.7,250.3 1215.7,250.3 	"/>
	<polygon class="st9" points="1299,164.2 1288.5,153.7 1281.9,155.4 1294.8,168.4 	"/>
	<polygon class="st10" points="1294.8,168.4 1295.6,169.1 1296.3,169.8 1300.5,165.6 1299.8,164.9 1299,164.2 	"/>
	<polygon class="st10" points="1288.5,153.7 1287.7,152.8 1286.8,152 1280.2,153.7 1281,154.5 1281.9,155.4 	"/>
	<path class="st6" d="M1115,123c1.8,4.6,4.2,8.8,7.7,12.8c0.1,0.1,0.2,0.3,0.3,0.4l32.4,32.4c2.7-4.5,5.7-8.8,8.8-13
		c-3.5-1.3-6.8-3.4-9.6-6.2c-10.7-10.7-10.7-28.1,0-38.8c10.7-10.7,28.1-10.7,38.8,0c2.7,2.7,4.8,5.9,6.1,9.3
		c6.1-4.6,12.5-8.8,19.1-12.6l-33.4-33.4l-0.1-0.1c-0.1,0-0.2-0.1-0.2-0.2c-4.8-4.2-10.1-6.7-15.8-8.5
		C1166.9,71.1,1152.5,107.3,1115,123z"/>
	<polygon class="st6" points="1246.2,226.6 1246.2,226.6 1271.7,202.7 1285.4,212.9 1271.7,202.7 	"/>
	<polygon class="st6" points="1257.4,249.1 1257.4,249.1 1247.6,234.5 	"/>
	<polygon class="st6" points="1245.1,230.8 1247.7,228.5 1247.7,228.5 1245.1,230.8 	"/>
	<path class="st6" d="M1193.4,149.4c-7.9,7.9-19.4,10-29.2,6.2c-3.1,4.2-6,8.5-8.8,13l31.8,31.8h1.2v-5.5c0-1.3,1.1-2.4,2.4-2.4
		s2.4,1.1,2.4,2.4v5.5h5.5c1.3,0,2.4,1.1,2.4,2.4s-1.1,2.4-2.4,2.4h-5.5v1.2l9.8,9.8l11.4-45c0.1-0.4,0.4-0.6,0.7-0.7l53.2-13.7
		l-35.6-35.5c-0.3,0.2-0.7,0.5-0.8,0.8c-0.3,0.5-0.2,0.9,0.3,1.2c0.1,0,0.1,0.1,0.1,0.1l-0.6,0.5c-0.9-0.6-1.3-1.4-0.7-2.4
		c0.2-0.4,0.6-0.7,0.9-1l-13.3-13.3c-6.7,3.8-13.1,8-19.1,12.6C1203.4,129.7,1201.4,141.4,1193.4,149.4z M1225.8,117.6l3.4,9h-0.8
		l-3.4-9H1225.8z M1221.6,117.6l3.4,9h-0.8l-3.5-9H1221.6z"/>
	<path class="st6" d="M1245.1,230.8L1245.1,230.8L1245.1,230.8l2.6-2.3l-1.5-1.9l0,0l0,0l25.5-23.9l13.7,10.2l4.7,3.5l18.6-18.6
		c0.2-0.2,0.2-0.5,0-0.7l-19.9-19.8l-62.4,62.4l20.1,20c0.1,0.1,0.1,0.1,0.2,0.1l10.7-10.7l-9.8-14.6L1245.1,230.8z"/>
	<polygon class="st6" points="1249,231.8 1273,207.7 1287.6,218.9 1290.1,216.4 1285.4,212.9 1271.7,202.7 1246.2,226.6 
		1247.7,228.5 1247.7,228.5 1247.7,228.5 1245.1,230.8 1247.6,234.5 1257.4,249.1 1260,246.5 	"/>
	<polygon class="st6" points="1247.7,228.5 1247.7,228.5 1246.2,226.6 1246.2,226.6 	"/>
	<polygon class="st6" points="1247.6,234.5 1245.1,230.8 1245.1,230.8 	"/>
	<polygon class="st6" points="1290.1,216.4 1290.1,216.4 1285.4,212.9 	"/>
	<polygon class="st6" points="1249,231.8 1260,246.5 1287.6,218.9 1273,207.7 	"/>
	<path class="st6" d="M1231,121.5c-0.6,1-0.2,1.8,0.7,2.4l0.6-0.5c0,0,0-0.1-0.1-0.1c-0.5-0.3-0.6-0.7-0.3-1.2
		c0.2-0.3,0.5-0.5,0.8-0.8l-0.8-0.8C1231.6,120.8,1231.2,121.1,1231,121.5z"/>
	<polygon class="st6" points="1229.2,126.6 1225.8,117.6 1225,117.6 1228.4,126.6 	"/>
	<polygon class="st6" points="1225,126.6 1221.6,117.6 1220.7,117.6 1224.2,126.6 	"/>
	<path class="st6" d="M1198.7,205.2c1.3,0,2.4-1.1,2.4-2.4s-1.1-2.4-2.4-2.4h-5.5v4.8H1198.7z"/>
	<polygon class="st6" points="1188.4,200.4 1187.2,200.4 1188.4,201.6 	"/>
	<path class="st6" d="M1193.2,194.9c0-1.3-1.1-2.4-2.4-2.4s-2.4,1.1-2.4,2.4v5.5h4.8V194.9z"/>
	<polygon class="st6" points="1193.2,206.4 1193.2,205.2 1192,205.2 	"/>
	<polygon class="st6" points="1192,205.2 1193.2,205.2 1193.2,200.4 1188.4,200.4 1188.4,201.6 	"/>
	<polygon class="st6" points="1216.3,172.3 1204.7,217.9 1225,238.2 1287.4,175.8 1270,158.5 	"/>
	<path class="st6" d="M1214.4,171.2l-11.4,45l0.8,0.8l11.6-45.6l53.7-13.8l-0.7-0.7l-53.2,13.7
		C1214.8,170.6,1214.5,170.8,1214.4,171.2z"/>
	
		<rect x="1213.2" y="207.6" transform="matrix(0.7071 -0.7071 0.7071 0.7071 221.0931 949.9908)" class="st6" width="88.2" height="1"/>
	
		<rect x="1212.5" y="206.9" transform="matrix(0.7071 -0.7071 0.7071 0.7071 221.3933 949.2662)" class="st6" width="88.2" height="1.1"/>
	<polygon class="st6" points="1203.8,217 1204.7,217.9 1216.3,172.3 1270,158.5 1269.1,157.6 1215.4,171.4 	"/>
	<polygon class="st6" points="1269.1,157.6 1269.1,157.6 1215.4,171.4 	"/>
	<path class="st7" d="M1137.5,96.1c6.4-6.3,11.1-13.1,14.7-19.2C1148.6,83,1143.9,89.7,1137.5,96.1c-6.7,6.6-15.1,12.8-25.5,17.2
		c0,0,0,0,0,0C1122.4,108.9,1130.8,102.8,1137.5,96.1z"/>
	<path class="st7" d="M1109.1,125.2C1109.1,125.2,1109.1,125.2,1109.1,125.2c0.4-0.1,0.8-0.3,1.2-0.4
		C1109.9,124.9,1109.5,125,1109.1,125.2z"/>
	<path class="st7" d="M1152.2,76.8c-3.6,6.1-8.3,12.9-14.7,19.2c-6.7,6.7-15.1,12.8-25.5,17.2c0.8,3.3,1.7,6.6,3,9.7c0,0,0,0,0,0
		c37.5-15.7,51.9-51.9,54.1-57.9c-3.2-1-6.6-1.8-10-2.6C1157.7,66.1,1155.5,71.2,1152.2,76.8z"/>
	<path class="st11" d="M1106.2,113.4c1.8-0.6,3.6-1.3,5.4-2.1c0,0,0,0,0-0.1C1109.8,112,1108,112.7,1106.2,113.4
		C1106.2,113.4,1106.2,113.4,1106.2,113.4z"/>
	<path class="st11" d="M1105.7,111c0,0.1,0.1,0.3,0.1,0.4c0.1,0.6,0.2,1.3,0.4,1.9c1.8-0.6,3.6-1.3,5.4-2c-0.1-0.5-0.2-1-0.3-1.5
		c-0.6,0.2-1.3,0-1.6-0.6c-0.3-0.6-0.1-1.4,0.6-1.7c0.2-0.1,0.3-0.1,0.5-0.1c-0.1-0.5-0.2-1-0.3-1.6h0.1c0-0.1-0.1-0.3-0.1-0.5
		c-1.7,0.9-3.5,1.7-5.3,2.5C1105.3,109.2,1105.5,110.3,1105.7,111z"/>
	<path class="st11" d="M1107.4,84.4c-0.3-3.5-0.5-6.7-0.5-9.6l-1.8-1.5l0.3-1.6l1.5-0.5c0.1-4.4,0.7-8,1.6-10.8
		c-1,0.5-1.8,1-2.5,1.6c-2.5,2.5-5.1,9.3-3.4,28c0.3,3.5,1.2,10.5,2,15.7c1.8-0.8,3.6-1.6,5.3-2.5
		C1109,98.1,1107.7,88.5,1107.4,84.4z"/>
	<path class="st11" d="M1105,107.6c-0.1-0.6-0.2-1.2-0.4-1.9C1104.7,106.4,1104.9,107,1105,107.6C1105,107.6,1105,107.6,1105,107.6z
		"/>
	<path class="st11" d="M1105.1,73.3l1.8,1.5c0-1.3,0-2.5,0-3.6l-1.5,0.5L1105.1,73.3z"/>
	<path class="st11" d="M1123,136.2c-0.1-0.1-0.2-0.3-0.3-0.4c-3.5-4-5.9-8.2-7.7-12.8c-1.9,0.8-3.9,1.5-5.9,2.2
		c1.8,5.6,4.4,10.7,8.5,15.4c0.1,0.1,0.1,0.1,0.2,0.2l0.1,0.1l33.9,33.9c1.2-2.1,2.4-4.2,3.6-6.2L1123,136.2z"/>
	<path class="st11" d="M1182.9,200.4h4.3l-31.8-31.8c-1.2,2-2.4,4.1-3.6,6.2l28.9,28.9c-0.1-0.3-0.2-0.6-0.2-0.9
		C1180.5,201.5,1181.6,200.4,1182.9,200.4z"/>
	<path class="st11" d="M1226.4,239.7l-4.9,4.9l14.8,14.8c0.2-0.7,0.9-1.3,1.6-1.3c0.9,0,1.7,0.8,1.7,1.7v2.9l1,1h2.1l3.9-3.9
		c-0.1,0-0.1-0.1-0.2-0.1L1226.4,239.7z"/>
	<path class="st11" d="M1188.4,205.2h-5.5c-0.3,0-0.6-0.1-0.9-0.2l6.6,6.6c-0.1-0.3-0.2-0.6-0.2-0.9V205.2z"/>
	<path class="st11" d="M1193.2,206.4v4.3c0,1.3-1.1,2.4-2.4,2.4c-0.3,0-0.6-0.1-0.9-0.2l11,11l2-7.8L1193.2,206.4z"/>
	<path class="st11" d="M1241.4,264.4c0.2,0.2,0.5,0.2,0.7,0l0.7-0.7h-2.1L1241.4,264.4z"/>
	<path class="st11" d="M1239.7,259.8c0-0.9-0.8-1.7-1.7-1.7c-0.8,0-1.4,0.6-1.6,1.3l3.3,3.3V259.8z"/>
	<path class="st11" d="M1188.4,205.2v-3.6l-1.2-1.2h-4.3c-1.3,0-2.4,1.1-2.4,2.4c0,0.3,0.1,0.6,0.2,0.9l1.3,1.3
		c0.3,0.1,0.6,0.2,0.9,0.2H1188.4z"/>
	<path class="st11" d="M1193.2,210.7v-4.3l-1.2-1.2h-3.6v5.5c0,0.3,0.1,0.6,0.2,0.9l1.3,1.3c0.3,0.1,0.6,0.2,0.9,0.2
		C1192.1,213.1,1193.2,212,1193.2,210.7z"/>
	<polygon class="st11" points="1188.4,205.2 1192,205.2 1188.4,201.6 	"/>
	<polygon class="st11" points="1204.7,217.9 1202.7,225.7 1220.1,243.1 1225,238.2 	"/>
	<polygon class="st11" points="1203,216.2 1201,224 1201.8,224.8 1203.8,217 	"/>
	
		<rect x="1220.2" y="241.3" transform="matrix(0.7071 -0.7071 0.7071 0.7071 187.4255 936.013)" class="st11" width="6.9" height="1"/>
	
		<rect x="1219.5" y="240.5" transform="matrix(0.7071 -0.7071 0.7071 0.7071 187.7604 935.3396)" class="st11" width="6.9" height="1.1"/>
	<polygon class="st11" points="1203.8,217 1201.8,224.8 1202.7,225.7 1204.7,217.9 	"/>
	<path class="st11" d="M1115,123c-1.5,0.7-3.1,1.2-4.7,1.8c-0.4,0.1-0.8,0.3-1.2,0.4c0,0,0,0,0,0.1
		C1111.1,124.5,1113.1,123.8,1115,123C1115,123,1115,123,1115,123z"/>
	<path class="st12" d="M1112,113.3C1112,113.3,1112,113.3,1112,113.3c-1.3,0.6-2.7,1.1-4,1.6C1109.4,114.4,1110.7,113.9,1112,113.3z
		"/>
	<path class="st12" d="M1115,123c-1.3-3.1-2.2-6.3-3-9.7c-1.3,0.6-2.7,1.1-4,1.6c-0.5,0.2-0.9,0.3-1.4,0.5c0.7,3.4,1.5,6.6,2.5,9.7
		c0.4-0.1,0.8-0.3,1.2-0.4C1111.9,124.2,1113.4,123.6,1115,123z"/>
	<path class="st12" d="M1115,123c-1.6,0.6-3.1,1.2-4.7,1.8C1111.9,124.2,1113.5,123.7,1115,123z"/>
	<path class="st7" d="M1159.5,144.4c2.6,2.6,5.6,4.5,8.8,5.8c8.6-10.8,18.5-20.5,29.4-29c-1.2-3.4-3.2-6.5-5.9-9.2
		c-9.9-9.9-26-9.9-35.9,0c-0.3,0.3-0.7,0.7-1,1.1C1149.5,123.1,1151,136,1159.5,144.4z"/>
	<path class="st7" d="M1168.3,150.2c7.3,2.9,15.5,2.5,22.4-1.3c0.4-0.3,0.8-0.7,1.1-1.1c7.2-7.2,9.2-17.7,5.9-26.7
		C1186.9,129.7,1177,139.4,1168.3,150.2z"/>
	<path class="st12" d="M1156,147.9c2.8,2.8,6,4.8,9.5,6c0.9-1.2,1.9-2.4,2.8-3.7c-3.2-1.3-6.2-3.2-8.8-5.8
		c-8.5-8.4-10-21.3-4.5-31.3C1146.1,123,1146.4,138.3,1156,147.9z"/>
	<path class="st12" d="M1168.3,150.2c-1,1.2-1.9,2.4-2.8,3.7c8.5,3,18.2,1.3,25.3-4.9C1183.8,152.7,1175.6,153.2,1168.3,150.2z"/>
	<path class="st8" d="M1155,148.8c-10.2-10.3-10.2-27,0.1-37.3c0,0,0.1-0.1,0.1-0.1c0,0,0.1-0.1,0.1-0.1c0.1-0.1,0.2-0.2,0.3-0.3
		c0.4-0.4,0.8-0.7,1.2-1.1c0.2-0.2,0.4-0.4,0.7-0.6c0,0,0,0,0,0.1c10.4-8.4,25.7-7.9,35.3,1.8c2.7,2.7,4.7,5.9,6,9.2
		c0.3-0.2,0.6-0.4,0.8-0.6c-1.3-3.4-3.4-6.6-6.1-9.3c-10.7-10.7-28.1-10.7-38.8,0c-10.7,10.7-10.7,28.1,0,38.8
		c2.8,2.8,6.1,4.9,9.6,6.2c0.2-0.2,0.3-0.5,0.5-0.7C1161.2,153.7,1157.8,151.6,1155,148.8z"/>
	<path class="st8" d="M1193.4,149.4c8-8,10-19.7,6.1-29.5c-0.3,0.2-0.6,0.4-0.8,0.6c3.6,9.5,1.6,20.6-6,28.2
		c-2.6,2.6-5.7,4.5-8.9,5.8c-6.1,2.5-12.9,2.6-19.1,0.4c-0.2,0.2-0.3,0.5-0.5,0.7C1174,159.4,1185.5,157.3,1193.4,149.4z"/>
	<path class="st8" d="M1157.4,109.5c-0.9,1.2-1.7,2.4-2.4,3.6c0.3-0.4,0.7-0.7,1-1.1c9.9-9.9,26-9.9,35.9,0c2.7,2.7,4.6,5.8,5.9,9.2
		c0.3-0.2,0.6-0.5,0.9-0.7c-1.3-3.4-3.3-6.5-6-9.2C1183.1,101.6,1167.8,101,1157.4,109.5z"/>
	<path class="st8" d="M1155.3,111.3c0,0-0.1,0.1-0.1,0.1c0.1-0.1,0.3-0.3,0.4-0.4C1155.5,111.1,1155.4,111.2,1155.3,111.3z"/>
	<path class="st8" d="M1191.9,147.9c-0.4,0.4-0.8,0.7-1.1,1.1c1.3-0.7,2.6-1.5,3.7-2.5c-0.6,0.8-1.3,1.6-2.1,2.3
		c-2.5,2.5-5.5,4.4-8.6,5.7c3.2-1.3,6.3-3.2,8.9-5.8c7.6-7.6,9.6-18.7,6-28.2c-0.3,0.2-0.6,0.5-0.9,0.7
		C1201.1,130.2,1199.1,140.7,1191.9,147.9z"/>
	<path class="st8" d="M1157.4,109.4c-0.2,0.2-0.4,0.4-0.7,0.6C1157,109.8,1157.2,109.6,1157.4,109.4
		C1157.4,109.4,1157.4,109.4,1157.4,109.4z"/>
	<path class="st8" d="M1155.3,148.7c-10.3-10.4-10.4-27-0.1-37.3c0,0-0.1,0.1-0.1,0.1c-10.3,10.3-10.3,27-0.1,37.3
		c2.8,2.8,6.2,4.9,9.7,6.1c0,0,0.1-0.1,0.1-0.1C1161.3,153.5,1158.1,151.5,1155.3,148.7z"/>
	<path class="st8" d="M1164.8,154.8c0,0-0.1,0.1-0.1,0.1c6.2,2.2,13,2.1,19.1-0.4C1177.7,157,1170.9,157,1164.8,154.8z"/>
	<path class="st8" d="M1155.3,148.7c2.8,2.8,6,4.8,9.5,6.1c0.2-0.3,0.5-0.6,0.7-0.9c-3.5-1.2-6.7-3.2-9.5-6
		c-9.6-9.6-9.9-24.9-1-34.8c0.7-1.3,1.5-2.5,2.4-3.6c-0.2,0.2-0.4,0.3-0.6,0.5c-0.4,0.3-0.8,0.7-1.2,1.1c-0.1,0.1-0.3,0.3-0.4,0.4
		C1144.9,121.7,1145,138.3,1155.3,148.7z"/>
	<path class="st8" d="M1155.6,111c0.4-0.4,0.8-0.7,1.2-1.1C1156.4,110.3,1156,110.7,1155.6,111z"/>
	<path class="st8" d="M1194.5,146.5c-1.2,0.9-2.4,1.8-3.7,2.5c-7.1,6.3-16.8,7.9-25.3,4.9c-0.2,0.3-0.5,0.6-0.7,0.9
		c6.1,2.3,12.9,2.2,19-0.2c3.1-1.3,6-3.2,8.6-5.7C1193.2,148.1,1193.9,147.3,1194.5,146.5z"/>
	<polygon class="st6" points="1301.3,163.3 1301.4,163.4 1320.2,144.4 	"/>
	<path class="st6" d="M1308.7,132.9c0.2,0.6,0.3,1.2,0.3,1.8c0,3.2-2.6,5.8-5.8,5.8c-3.2,0-5.8-2.6-5.8-5.8c0-3.2,2.6-5.8,5.8-5.8
		c0.6,0,1.2,0.1,1.8,0.3l-4.8-4.8c-5.2-5.2-13.7-5.2-18.9,0c-5.2,5.2-5.2,13.7,0,18.9l8.1,8.1l30.1-7.7L1308.7,132.9z"/>
	
		<rect x="1300.9" y="153.5" transform="matrix(0.7071 -0.7071 0.7071 0.7071 273.6626 975.4285)" class="st6" width="26.7" height="7.7"/>
	<path class="st6" d="M1297.4,134.7c0,3.2,2.6,5.8,5.8,5.8c3.2,0,5.8-2.6,5.8-5.8c0-0.6-0.1-1.2-0.3-1.8l-3.7-3.7
		c-0.6-0.2-1.2-0.3-1.8-0.3C1300,128.9,1297.4,131.5,1297.4,134.7z"/>
	<polygon class="st6" points="1316.8,146.4 1291,153 1300.6,162.6 	"/>
	<polygon class="st6" points="1301.4,163.4 1302.1,164.1 1321,145.2 1319.4,143.6 1289.4,151.4 1290.2,152.2 1320.2,144.4 	"/>
	<polygon class="st6" points="1300.6,162.6 1301.3,163.3 1320.2,144.4 1290.2,152.2 1291,153 1316.8,146.4 	"/>
	
		<rect x="1307.6" y="158.5" transform="matrix(0.7071 -0.7071 0.7071 0.7071 270.8861 982.1268)" class="st7" width="26.7" height="11.2"/>
	<polygon class="st8" points="1300.5,164.1 1299.8,164.8 1299.9,164.9 1300.6,164.2 	"/>
	<path class="st8" d="M1280.5,144.1c-5.6-5.6-5.6-14.8,0-20.4c5.6-5.6,14.8-5.6,20.4,0l20,20c0.1,0.1,0.2,0.2,0.3,0.3l6,6l0,0
		l8.7,8.8l-20.4,20.4l-0.1-0.1l0,0l-14.1-14.1l-0.7,0.7l-0.7-0.7l14.8,14.8c0.4,0.4,1.1,0.4,1.4,0.1l18.3-18.3c0-0.5,0.4-1,1-1
		l1.1-1.1c0.4-0.4,0.4-1.1,0-1.5l-34.9-34.9c-6-6-15.8-6-21.8,0s-6,15.8,0,21.8l7.2,7.2l1.1-0.3L1280.5,144.1z"/>
	<path class="st8" d="M1334.4,161.5l1-1C1334.8,160.5,1334.4,161,1334.4,161.5z"/>
	<polygon class="st8" points="1299.8,163.4 1289.8,153.4 1288.7,153.7 1299.1,164.1 	"/>
	
		<rect x="1300.1" y="164.4" transform="matrix(0.7071 -0.7071 0.7071 0.7071 264.3354 967.9604)" class="st8" width="1" height="1"/>
	<polygon class="st8" points="1288.9,152.5 1288.1,151.7 1287,152 1287.8,152.8 	"/>
	
		<rect x="1299.3" y="163.6" transform="matrix(0.7071 -0.7071 0.7071 0.7071 264.6913 967.2308)" class="st8" width="1" height="1.1"/>
	<polygon class="st8" points="1288.9,152.5 1287.8,152.8 1288.7,153.7 1289.8,153.4 	"/>
	<path class="st8" d="M1281.3,143.3c-5.2-5.2-5.2-13.7,0-18.9c5.2-5.2,13.7-5.2,18.9,0l4.8,4.8c1.8,0.6,3.2,2,3.7,3.7l10.7,10.7
		l0.6-0.1c0.3-0.1,0.7,0,0.9,0.2l-20-20c-5.6-5.6-14.8-5.6-20.4,0c-5.6,5.6-5.6,14.8,0,20.4l7.6,7.6l1.3-0.3L1281.3,143.3z"/>
	<path class="st8" d="M1321,145.2l5.4,5.5l0.7-0.7l-6-6C1321.4,144.4,1321.4,144.9,1321,145.2z"/>
	<polygon class="st8" points="1307.6,169.5 1302.1,164.1 1301.3,164.9 1315.4,179 1315.4,179 1306.8,170.3 	"/>
	<polygon class="st8" points="1301.3,163.3 1300.5,164.1 1300.6,164.2 1301.4,163.4 	"/>
	<path class="st8" d="M1305,129.2l3.7,3.7C1308.1,131.2,1306.7,129.8,1305,129.2z"/>
	<polygon class="st8" points="1291,153 1289.8,153.4 1299.8,163.4 1300.6,162.6 	"/>
	
		<rect x="1300.8" y="163.6" transform="matrix(0.7036 -0.7106 0.7106 0.7036 269.0559 973.3591)" class="st8" width="1.1" height="1"/>
	<polygon class="st8" points="1289.4,151.4 1288.1,151.7 1288.9,152.5 1290.2,152.2 	"/>
	<path class="st8" d="M1320,143.5l-0.6,0.1l1.6,1.6c0.4-0.3,0.4-0.8,0.2-1.2c-0.1-0.1-0.2-0.2-0.3-0.3
		C1320.7,143.5,1320.3,143.4,1320,143.5z"/>
	
		<rect x="1300" y="162.8" transform="matrix(0.7071 -0.7071 0.7071 0.7071 265.3759 967.4559)" class="st8" width="1.1" height="1.1"/>
	<polygon class="st8" points="1291,153 1290.2,152.2 1288.9,152.5 1289.8,153.4 	"/>
	<polygon class="st8" points="1315.4,179 1315.5,179.1 1335.9,158.7 1327.2,149.9 1327.2,150 1335.8,158.6 	"/>
	<polygon class="st8" points="1334.4,158.6 1315.5,177.5 1307.6,169.5 1306.8,170.3 1315.4,179 1335.8,158.6 1327.2,150 
		1326.4,150.7 	"/>
	<path class="st6" d="M1187.7,236.9c-5.2-5.2-13.7-5.2-18.9,0c-5.2,5.2-5.2,13.7,0,18.9L1188,275l7.7-30.1L1187.7,236.9z
		 M1185.8,259.3c-1.4,0.8-3.1,0.3-3.9-1.1c-0.8-1.4-0.3-3.1,1.1-3.9s3.1-0.3,3.9,1C1187.6,256.8,1187.1,258.5,1185.8,259.3z"/>
	<path class="st6" d="M1194.4,273.2c-0.2,0.1-0.5,0.2-0.7,0.2l-0.1,0.1c1.2,1.5,2.5,1.7,4.2,1.3l0.4,1.5c-2.4,1.2-5.2,0.1-6.7-1.8
		l-2,2l5.6,5.5l9.2-9.2c0.3-4.1,3.5-7.3,7.5-7.5l2.2-2.2l-5.5-5.5l-13,13C1195.6,271.7,1195.2,272.8,1194.4,273.2z"/>
	<path class="st6" d="M1198.2,276.3l-0.4-1.5c-1.7,0.4-3,0.2-4.2-1.3l0.1-0.1c0.2,0,0.5-0.1,0.7-0.2c0.8-0.4,1.2-1.5,1-2.6l-3.8,3.8
		C1193,276.4,1195.8,277.5,1198.2,276.3z"/>
	<path class="st6" d="M1183,254.3c-1.4,0.8-1.9,2.5-1.1,3.9c0.8,1.4,2.5,1.9,3.9,1.1c1.3-0.8,1.8-2.5,1.1-4
		C1186.1,254,1184.4,253.5,1183,254.3z"/>
	<path class="st6" d="M1204.2,272.9l7.5-7.5C1207.8,265.5,1204.5,268.8,1204.2,272.9z"/>
	<path class="st6" d="M1191.5,269.2c0.1,0,0.1-0.1,0.2-0.1c0.8-0.5,1.7-0.4,2.4,0l12.9-12.9l-9.7-9.7L1191.5,269.2z"/>
	<path class="st6" d="M1194.1,269.1c-0.7-0.4-1.6-0.4-2.4,0c-0.1,0-0.1,0.1-0.2,0.1l-0.8,3.3L1194.1,269.1z"/>
	<polygon class="st6" points="1196.5,245.7 1195.7,244.9 1188,275 1188.8,275.8 	"/>
	<path class="st6" d="M1195.1,270c0.1,0.2,0.2,0.4,0.3,0.6l13-13l-0.7-0.7l-12.8,12.8C1195,269.8,1195,269.9,1195.1,270z"/>
	<path class="st6" d="M1191.1,273.9c-0.1-0.1-0.1-0.2-0.1-0.3l-2.2,2.2l0.7,0.7l2-2C1191.4,274.3,1191.2,274.1,1191.1,273.9z"/>
	<path class="st6" d="M1191.1,273.9c0.1,0.2,0.3,0.4,0.4,0.6l3.8-3.8c-0.1-0.2-0.1-0.4-0.3-0.6c-0.1-0.1-0.1-0.2-0.2-0.3l-3.9,3.9
		C1191,273.7,1191,273.8,1191.1,273.9z"/>
	<path class="st6" d="M1194.9,269.7l12.8-12.8l-0.7-0.7l-12.9,12.9C1194.4,269.2,1194.7,269.4,1194.9,269.7z"/>
	<path class="st6" d="M1191,273.6c-1-1.9-1-3.5,0.6-4.4l5.8-22.7l-0.9-0.9l-7.7,30.1L1191,273.6z"/>
	<path class="st6" d="M1191,273.6l3.9-3.9c-0.2-0.3-0.5-0.5-0.8-0.6l-3.4,3.4l0.8-3.3C1190,270.2,1190,271.7,1191,273.6z"/>
	<path class="st7" d="M1212.4,265.3c4.2,0,7.6,3.2,8.1,7.2l1.4-1.4l-8-8l-2.2,2.2C1212,265.3,1212.2,265.3,1212.4,265.3z"/>
	<path class="st7" d="M1204.2,273.5c0-0.2,0-0.4,0-0.6l-9.2,9.2l7.9,8l8.4-8.4C1207.4,281.1,1204.2,277.7,1204.2,273.5z"/>
	<path class="st7" d="M1212.4,265.3c-0.2,0-0.4,0-0.6,0l-7.5,7.5c0,0.2,0,0.4,0,0.6c0,4.2,3.2,7.6,7.2,8.1l9.2-9.2
		C1220,268.5,1216.6,265.3,1212.4,265.3z"/>
	<path class="st8" d="M1214.7,262.4l8.6,8.6l0,0l0.1,0.1l-2.8,2.8c0,0.6-0.1,1.2-0.3,1.8l3.8-3.8c0.4-0.4,0.4-1.1,0-1.5l-14.2-14.2
		l-0.7,0.7L1214.7,262.4z"/>
	<path class="st8" d="M1203,291.5l-8.7-8.7l-26.3-26.3c-5.6-5.6-5.6-14.8,0-20.4c5.6-5.6,14.8-5.6,20.4,0l7.6,7.6l0.3-1.1l-7-7
		c-6-6-15.8-6-21.8,0s-6,15.8,0,21.8l34.9,34.9c0.4,0.4,1,0.4,1.4,0.1l10.9-10.9c-0.6,0.2-1.2,0.3-1.8,0.3L1203,291.5z"/>
	<path class="st8" d="M1212.8,281.7c0.6,0,1.2-0.1,1.8-0.3l5.7-5.7c0.2-0.6,0.3-1.2,0.3-1.8L1212.8,281.7z"/>
	<polygon class="st8" points="1207.8,255.4 1208.4,254.8 1197.9,244.2 1197.6,245.3 	"/>
	<polygon class="st8" points="1196.8,244.5 1197,243.3 1196.2,242.5 1196,243.7 	"/>
	
		<rect x="1208.7" y="255.7" transform="matrix(0.7071 -0.7071 0.7071 0.7071 173.0558 930.0679)" class="st8" width="1" height="1"/>
	<polygon class="st8" points="1197.9,244.2 1197,243.3 1196.8,244.5 1197.6,245.3 	"/>
	<rect x="1208" y="255" transform="matrix(0.7071 -0.7071 0.7071 0.7071 173.287 929.2776)" class="st8" width="1" height="1"/>
	
		<rect x="1211" y="256.1" transform="matrix(0.7071 -0.7071 0.7071 0.7071 171.007 932.8474)" class="st8" width="1.1" height="7.8"/>
	<path class="st8" d="M1189.5,276.5c-0.3,0.3-0.8,0.4-1.2,0.2c-0.4-0.2-0.6-0.7-0.5-1.1l0.2-0.6l-19.2-19.2
		c-5.2-5.2-5.2-13.7,0-18.9c5.2-5.2,13.7-5.2,18.9,0l8,8l0.3-1.2l-7.6-7.6c-5.6-5.6-14.8-5.6-20.4,0c-5.6,5.6-5.6,14.8,0,20.4
		l26.3,26.3l0.8-0.8L1189.5,276.5z"/>
	<polygon class="st8" points="1197.3,246.5 1207,256.2 1207.8,255.4 1197.6,245.3 	"/>
	<path class="st8" d="M1188,275l-0.2,0.6c-0.1,0.4,0.1,0.9,0.5,1.1c0.4,0.2,0.9,0.1,1.2-0.2l-0.7-0.7L1188,275z"/>
	
		<rect x="1207.9" y="256.4" transform="matrix(0.7071 -0.7071 0.7071 0.7071 172.3015 929.7224)" class="st8" width="1.1" height="1"/>
	<polygon class="st8" points="1196.5,245.7 1196.8,244.5 1196,243.7 1195.7,244.9 	"/>
	
		<rect x="1207.2" y="255.7" transform="matrix(0.7071 -0.7071 0.7071 0.7071 172.5621 928.9773)" class="st8" width="1.1" height="1"/>
	<polygon class="st8" points="1197.3,246.5 1197.6,245.3 1196.8,244.5 1196.5,245.7 	"/>
	<path class="st8" d="M1203,291.5l9.8-9.8c0,0-0.1,0-0.1,0L1203,291.5z"/>
	<path class="st8" d="M1220.6,273.9l2.8-2.8l-0.1-0.1l-2.7,2.7C1220.6,273.8,1220.6,273.9,1220.6,273.9z"/>
	<path class="st8" d="M1212.7,281.7c0,0,0.1,0,0.1,0l7.8-7.8c0-0.1,0-0.1,0-0.2L1212.7,281.7z"/>
	<path class="st8" d="M1212.4,281.7c-0.3,0-0.7,0-1-0.1l-8.4,8.4l-7.9-8l-0.8,0.8l8.7,8.7l9.7-9.8
		C1212.6,281.7,1212.5,281.7,1212.4,281.7z"/>
	<path class="st8" d="M1221.9,271.1l-1.4,1.4c0,0.3,0.1,0.7,0.1,1c0,0.1,0,0.2,0,0.2l2.7-2.7l-8.6-8.6l-0.8,0.8L1221.9,271.1z"/>
	<polygon class="st8" points="1223.3,271 1214.7,262.4 1223.3,271 	"/>
	<path class="st8" d="M1212.4,281.7c0.1,0,0.2,0,0.3,0l7.9-7.9c0-0.1,0-0.2,0-0.2c0-0.3,0-0.7-0.1-1l-9.2,9.2
		C1211.7,281.7,1212.1,281.7,1212.4,281.7z"/>
	<path class="st7" d="M1263.4,258L1263.4,258l9,13.6c0,0,0.1,0,0.1-0.1L1263.4,258z"/>
	<path class="st7" d="M1260.2,261.2l5.2,10.3c1.9,1.8,5,1.9,7,0.1l-9.1-13.5L1260.2,261.2z"/>
	<path class="st7" d="M1314.8,229.2c2-2,2-5.2,0.1-7.2l-10.2-5.3l-0.1,0.1l-6,6l12.9,9.7L1314.8,229.2z"/>
	<polygon class="st7" points="1311.5,232.5 1298.6,222.8 1296,225.4 1308.8,235.2 	"/>
	<path class="st7" d="M1263.4,258l9.1,13.5c0,0,0.1-0.1,0.1-0.1l3.4-3.4l-9.7-12.9L1263.4,258z"/>
	<polygon class="st7" points="1311.5,232.5 1298.6,222.8 1298.6,222.8 1311.5,232.5 	"/>
	<path class="st7" d="M1289.1,234.8c-0.1,0.9-1,1.7-2,1.6c-0.5-0.1-1-0.3-1.3-0.8l-19.4,19.4l9.7,12.9l32.8-32.8l-12.8-9.8l-7.8,7.8
		C1288.8,233.5,1289.2,234.1,1289.1,234.8z M1288,245.3c-0.1,0.9-0.8,1.5-1.5,1.4c-0.2,0-0.3-0.1-0.4-0.2h-0.1
		c0,1.2,0.7,1.8,1.7,2.2l-0.4,1.1c-1.9-0.3-2.9-2.2-2.8-3.9c0.1-1.5,0.8-2.4,2.1-2.3C1287.5,243.7,1288.1,244.5,1288,245.3z"/>
	<path class="st7" d="M1287.1,236.4c1,0.1,1.9-0.7,2-1.6c0.1-0.7-0.3-1.3-0.8-1.7l-2.5,2.5C1286.1,236.1,1286.6,236.3,1287.1,236.4z
		"/>
	<path class="st7" d="M1286.6,243.6c-1.3-0.1-2,0.8-2.1,2.3c-0.1,1.7,0.9,3.6,2.8,3.9l0.4-1.1c-1-0.4-1.7-1-1.7-2.2h0.1
		c0.1,0.1,0.2,0.2,0.4,0.2c0.7,0.1,1.4-0.5,1.5-1.4C1288.1,244.5,1287.5,243.7,1286.6,243.6z"/>
	<path class="st8" d="M1273,272.3C1273,272.3,1273,272.4,1273,272.3l0.5,0.9c0,0,0.1,0,0.1-0.1L1273,272.3z"/>
	<path class="st8" d="M1305.5,216l10,5.1c1.2,1.2,1.8,2.8,1.8,4.4c0,1.6-0.6,3.2-1.8,4.4l-3.2,3.2l0.9,0.6l3.1-3.1
		c2.8-2.8,2.8-7.4,0-10.2c-0.1-0.1-0.2-0.2-0.3-0.2l-9.8-5l-0.1,0.1l0.1,0L1305.5,216z"/>
	<path class="st8" d="M1264.6,272.1l-5.2-10.2l0,0.1l0,0l0.1,0.1l-0.7,0.7l4.9,9.7c0.1,0.1,0.1,0.2,0.2,0.3c2.6,2.6,6.9,2.8,9.7,0.4
		l-0.6-0.8C1270.5,274.5,1266.9,274.4,1264.6,272.1z"/>
	<path class="st8" d="M1273.3,272.1c-0.1,0.1-0.2,0.1-0.3,0.2l0.6,0.8c0.1-0.1,0.3-0.2,0.4-0.4l3.2-3.2l-0.6-0.8L1273.3,272.1z"/>
	<polygon class="st8" points="1312.3,233.1 1309.6,235.8 1310.5,236.4 1313.2,233.7 	"/>
	<polygon class="st8" points="1312.3,233.1 1313.2,233.7 1313.2,233.7 1312.3,233.1 	"/>
	<polygon class="st8" points="1276.6,268.8 1277.2,269.6 1310.5,236.4 1309.6,235.8 	"/>
	<path class="st8" d="M1272.4,271.6l0.5,0.8c0,0,0.1,0,0.1-0.1L1272.4,271.6C1272.5,271.5,1272.4,271.5,1272.4,271.6z"/>
	<path class="st8" d="M1305.5,216L1305.5,216l-0.1,0l-0.6,0.6l0,0l10.2,5.3c1.9,2,1.9,5.2-0.1,7.2l-3.3,3.3l0.7,0.6l3.2-3.2
		c1.2-1.2,1.8-2.7,1.8-4.3c0-1.6-0.6-3.1-1.8-4.3L1305.5,216z"/>
	<path class="st8" d="M1272.9,272.3l-0.5-0.8c-2,1.8-5.1,1.8-7-0.1l-5.3-10.3l-0.7,0.7l5.2,10.1
		C1266.9,274.3,1270.5,274.4,1272.9,272.3z"/>
	<path class="st8" d="M1272.6,271.4c0,0-0.1,0.1-0.1,0.1l0.5,0.8c0.1-0.1,0.2-0.2,0.3-0.3l3.3-3.3l-0.6-0.7L1272.6,271.4z"/>
	<polygon class="st8" points="1308.8,235.2 1309.6,235.7 1312.3,233 1311.5,232.5 	"/>
	<polygon class="st8" points="1312.3,233 1312.3,233 1311.5,232.5 1311.5,232.5 	"/>
	<polygon class="st8" points="1308.8,235.2 1276,268 1276.6,268.7 1309.6,235.7 	"/>
	<polygon class="st8" points="1260.1,261.2 1265.4,271.5 1260.2,261.2 1260.2,261.2 1260.2,261.1 1260.1,261.2 1260.1,261.2 	"/>
	<path class="st8" d="M1315.5,221.2c1.2,1.2,1.8,2.7,1.8,4.3c0-1.6-0.6-3.2-1.8-4.4l-10-5.1l-0.1,0.1L1315.5,221.2z"/>
	<polygon class="st9" points="1263.4,257.9 1258.7,251.1 1258.7,251.1 1263.3,258 	"/>
	<path class="st9" d="M1263.3,258l-4.6-6.9l-2.1,2.1c0.2,0.9,0.7,2.1,1.3,3.5l2.3,4.4l0,0L1263.3,258z"/>
	<path class="st9" d="M1304.5,216.8l-4.3-2.4l0,0c-0.3-0.2-0.7-0.3-1-0.5c-0.9-0.4-1.8-0.7-2.5-0.8l-4.7,4.7l6.6,4.9L1304.5,216.8z"
		/>
	<polygon class="st9" points="1296,225.3 1298.5,222.8 1292,217.8 1289.5,220.3 	"/>
	<polygon class="st9" points="1266.3,255 1261.4,248.4 1258.7,251.1 1263.4,257.9 	"/>
	<polygon class="st9" points="1298.5,222.8 1298.5,222.8 1292,217.8 1292,217.8 	"/>
	<path class="st9" d="M1266.3,255l19.4-19.4c-0.2-0.3-0.4-0.7-0.3-1.2c0.1-1,1-1.7,2-1.6c0.3,0,0.6,0.1,0.8,0.3l7.8-7.8l-6.5-5
		l-28.1,28.1L1266.3,255z"/>
	<path class="st9" d="M1287.4,232.8c-1-0.1-1.9,0.6-2,1.6c0,0.4,0.1,0.8,0.3,1.2l2.5-2.5C1288,232.9,1287.7,232.8,1287.4,232.8z"/>
	<polygon class="st9" points="1263.3,258 1263.4,258 1263.4,258 1263.4,257.9 	"/>
	<polygon class="st9" points="1304.6,216.8 1304.5,216.8 1298.5,222.8 1298.6,222.8 	"/>
	<polygon class="st9" points="1263.3,258 1260.2,261.1 1260.2,261.2 1263.4,258 	"/>
	<polygon class="st9" points="1296,225.4 1298.6,222.8 1298.5,222.8 1296,225.3 	"/>
	<polygon class="st9" points="1266.3,255 1263.4,257.9 1263.4,258 1266.3,255.1 	"/>
	<polygon class="st9" points="1298.6,222.8 1298.5,222.8 1298.5,222.8 1298.6,222.8 	"/>
	<path class="st9" d="M1288.3,233.1l7.8-7.8l-0.1,0L1288.3,233.1C1288.2,233.1,1288.3,233.1,1288.3,233.1z"/>
	<path class="st9" d="M1285.8,235.6C1285.8,235.6,1285.7,235.6,1285.8,235.6l-19.5,19.4l0,0.1L1285.8,235.6z"/>
	<path class="st9" d="M1288.3,233.1C1288.3,233.1,1288.2,233.1,1288.3,233.1l-2.5,2.4c0,0,0,0,0,0.1L1288.3,233.1z"/>
	<polygon class="st9" points="1260.2,261.1 1260.2,261.2 1260.2,261.2 1260.2,261.1 	"/>
	<path class="st10" d="M1259.3,262l-2.5-4.8c-0.5-1.1-0.9-2.1-1.2-3l-0.7,0.7c0.3,0.8,0.7,1.7,1.1,2.8l2.6,5.2l0.1-0.1l-0.1-0.1
		L1259.3,262z"/>
	<polygon class="st10" points="1259.3,262 1259.3,262 1259.3,262 1258.6,262.7 1258.7,262.8 1259.4,262.1 	"/>
	<path class="st10" d="M1305.3,216L1305.3,216l0.1,0l0.7-0.7l-5-2.6c-0.9-0.5-1.9-0.9-2.8-1.2l-0.8,0.8c0.9,0.2,2,0.7,3.1,1.2
		L1305.3,216z"/>
	<polygon class="st10" points="1305.5,216 1306.2,215.3 1306.1,215.3 1305.5,215.9 	"/>
	<polygon class="st10" points="1305.5,216 1305.4,216 1305.3,216.1 1305.4,216.1 	"/>
	<polygon class="st10" points="1305.5,215.9 1305.4,215.9 1305.3,216 1305.4,216 	"/>
	<polygon class="st10" points="1305.5,216 1305.5,216 1305.5,215.9 1305.4,216 	"/>
	<path class="st10" d="M1300.2,214.4L1300.2,214.4l4.4,2.3l0.6-0.6l-4.7-2.5c-1.1-0.5-2.1-0.9-3.1-1.2l-0.8,0.8
		c0.8,0.2,1.6,0.4,2.5,0.8C1299.5,214.1,1299.9,214.2,1300.2,214.4z"/>
	<polygon class="st10" points="1305.3,216.1 1305.3,216 1304.6,216.7 1304.7,216.7 	"/>
	<polygon class="st10" points="1304.6,216.7 1300.2,214.4 1304.5,216.8 1304.6,216.7 	"/>
	<polygon class="st10" points="1304.7,216.7 1304.6,216.7 1304.5,216.8 1304.6,216.8 	"/>
	<polygon class="st10" points="1304.7,216.7 1304.7,216.7 1304.6,216.7 1304.6,216.7 	"/>
	<polygon class="st10" points="1300.6,213.5 1305.3,216 1305.3,216 	"/>
	<polygon class="st10" points="1305.4,216 1305.3,216 1305.3,216 1305.3,216.1 	"/>
	<path class="st10" d="M1256.9,257.3l2.4,4.7l0,0l0-0.1l0.7-0.7l0,0l-2.3-4.5c-0.6-1.4-1-2.5-1.4-3.4l-0.8,0.8c0,0,0,0.1,0,0.1
		l0.1-0.1C1256,255,1256.4,256.1,1256.9,257.3z"/>
	<polygon class="st10" points="1260.1,261.2 1259.4,261.9 1260.1,261.2 	"/>
	<circle class="st10" cx="1260.1" cy="261.2" r="0"/>
	<path class="st10" d="M1259.3,262L1259.3,262l-2.4-4.7c-0.5-1.2-0.9-2.3-1.2-3.2l-0.1,0.1c0.3,1,0.7,1.9,1.2,3L1259.3,262z"/>
	<polygon class="st10" points="1259.3,262 1259.3,262 1259.3,262 	"/>
	<path class="st8" d="M1111.5,111.4c0.1,0.6,0.3,1.2,0.4,1.8c10.6-4.4,31.3-16.9,47-50.8c-0.6-0.1-1.3-0.3-1.9-0.4l0,0
		C1152.6,73.6,1139.9,99.2,1111.5,111.4z"/>
	<path class="st8" d="M1112,113.2c0,0,0,0.1,0,0.1c10.4-4.4,18.8-10.6,25.5-17.3c6.4-6.3,11.1-13,14.7-19.2
		c3.3-5.6,5.5-10.7,6.9-14.4c0,0,0,0,0,0C1143.3,96.3,1122.6,108.8,1112,113.2C1112,113.2,1112,113.2,1112,113.2
		C1112,113.2,1112,113.2,1112,113.2z"/>
	<path class="st8" d="M1159.1,62.4c-1.4,3.7-3.6,8.8-6.9,14.4C1155.5,71.2,1157.7,66.1,1159.1,62.4
		C1159.1,62.4,1159.1,62.4,1159.1,62.4z"/>
	<path class="st8" d="M1111.5,111.4c-1.7,0.7-3.5,1.4-5.4,2.1c0.1,0.6,0.2,1.1,0.3,1.7c1.2-0.3,3.1-0.9,5.5-1.9
		C1111.8,112.6,1111.7,112,1111.5,111.4z"/>
	<path class="st8" d="M1112,113.2C1112,113.2,1112,113.2,1112,113.2c-2.4,1-4.3,1.5-5.5,1.9c0,0,0,0,0,0
		C1107.7,114.8,1109.5,114.2,1112,113.2z"/>
	<path class="st8" d="M1112,113.3c0,0,0-0.1,0-0.1c0,0,0,0,0,0C1112,113.2,1112,113.3,1112,113.3c-2.4,0.9-4.3,1.5-5.5,1.8
		c0,0.1,0,0.2,0,0.2c0.5-0.2,0.9-0.3,1.4-0.5C1109.4,114.4,1110.7,113.9,1112,113.3z"/>
	<path class="st8" d="M1112,113.3C1112,113.3,1112,113.2,1112,113.3c-2.5,0.9-4.3,1.5-5.5,1.8c0,0,0,0.1,0,0.1
		C1107.7,114.8,1109.6,114.3,1112,113.3z"/>
	<path class="st8" d="M1109.9,103.2c0.2,0.8,0.3,1.5,0.4,2.1c8.4-4.2,15.5-9.5,21.1-15.2c10.1-10.1,16.3-21.3,19.8-29.2
		c-0.7-0.1-1.4-0.2-2.1-0.4C1143.8,72.6,1132.1,92,1109.9,103.2z"/>
	<path class="st8" d="M1104.6,105.7c0.2,0.7,0.3,1.4,0.4,1.9c0,0,0,0,0,0c0,0.1,0,0.1,0,0.2c1.8-0.8,3.6-1.6,5.3-2.5
		c-0.1-0.6-0.3-1.3-0.4-2.1C1108.2,104.1,1106.4,104.9,1104.6,105.7z"/>
	<path class="st8" d="M1104.1,108c-0.1-0.6-0.2-1.3-0.3-1.9c-0.4,0.1-0.7,0.3-1.1,0.4c0.2,0.8,0.3,1.5,0.4,2.1c0,0,0,0,0,0
		c0-0.1,0-0.1,0-0.2C1103.4,108.3,1103.7,108.2,1104.1,108z"/>
	<path class="st8" d="M1104,105.9c-0.1,0-0.2,0.1-0.3,0.1c0.1,0.7,0.2,1.3,0.3,1.9c0.1,0,0.2-0.1,0.3-0.1
		C1104.2,107.3,1104.1,106.6,1104,105.9z"/>
	<path class="st8" d="M1104.6,105.7c-0.2,0.1-0.4,0.2-0.6,0.2c0.1,0.7,0.2,1.3,0.3,1.9c0.2-0.1,0.4-0.2,0.6-0.3
		C1104.9,107,1104.7,106.4,1104.6,105.7z"/>
	<path class="st8" d="M1151.7,59.9c0.1-0.3,0.2-0.6,0.4-0.9c-0.7-0.2-1.4-0.3-2.1-0.4c-0.1,0.3-0.2,0.6-0.4,0.9
		C1150.4,59.7,1151.1,59.8,1151.7,59.9z"/>
	<path class="st8" d="M1149.2,60.5c0.7,0.1,1.4,0.2,2.1,0.4c0.2-0.3,0.3-0.7,0.4-1c-0.6-0.1-1.3-0.2-2.1-0.4
		C1149.5,59.8,1149.3,60.2,1149.2,60.5z"/>
	<path class="st8" d="M1149.2,60.5c0.7,0.2,1.4,0.3,2.1,0.4C1150.6,60.7,1149.9,60.6,1149.2,60.5z"/>
	
		<ellipse transform="matrix(0.7071 -0.7071 0.7071 0.7071 291.7105 834.0346)" class="st12" cx="1152.6" cy="64.9" rx="1.3" ry="1.3"/>
	
		<ellipse transform="matrix(0.7071 -0.7071 0.7071 0.7071 284.7112 833.5373)" class="st12" cx="1148.5" cy="73.1" rx="1.3" ry="1.3"/>
	
		<ellipse transform="matrix(0.7071 -0.7071 0.7071 0.7071 278.0344 832.2666)" class="st12" cx="1143.7" cy="80.5" rx="1.3" ry="1.3"/>
	
		<ellipse transform="matrix(0.7071 -0.7071 0.7071 0.7071 271.6411 830.5839)" class="st12" cx="1138.4" cy="87.4" rx="1.3" ry="1.3"/>
	
		<ellipse transform="matrix(0.7071 -0.7071 0.7071 0.7071 265.4995 828.1572)" class="st12" cx="1132.4" cy="93.6" rx="1.3" ry="1.3"/>
	
		<ellipse transform="matrix(0.7071 -0.7071 0.7071 0.7071 259.4944 825.2598)" class="st12" cx="1125.9" cy="99.4" rx="1.3" ry="1.3"/>
	<path class="st12" d="M1118.2,103.2c-0.7,0.3-1,1.1-0.6,1.7c0.3,0.6,1.1,0.9,1.7,0.6c0.6-0.3,0.9-1.1,0.6-1.7
		C1119.6,103.2,1118.8,102.9,1118.2,103.2z"/>
	<path class="st12" d="M1111.3,109.8c0.6-0.3,0.9-1.1,0.6-1.7c-0.2-0.4-0.7-0.7-1.2-0.7C1110.9,108.2,1111,109,1111.3,109.8
		C1111.2,109.8,1111.3,109.8,1111.3,109.8z"/>
	<path class="st12" d="M1109.6,109.2c0.3,0.6,1,0.9,1.6,0.6c-0.2-0.8-0.3-1.6-0.5-2.4c-0.2,0-0.4,0-0.5,0.1
		C1109.5,107.8,1109.3,108.6,1109.6,109.2z"/>
	<path class="st8" d="M1101.7,90.1c-1.5-15.3-0.2-25,3.6-28.8c0.3-0.3,0.6-0.6,1-0.8c0.8-0.6,1.7-1.2,2.7-1.6c0,0.1,0,0.1-0.1,0.2
		c9.8-3.9,30.2-1.2,40.7,0.5c0.1-0.3,0.2-0.6,0.4-0.9c-12.5-2.1-38.1-5.4-45.5,2c-4.1,4.1-5.4,13.8-4,29.6c0.3,3.6,1.2,11,2.1,16.3
		c0.4-0.2,0.8-0.3,1.1-0.5C1102.9,100.8,1102,93.6,1101.7,90.1z"/>
	<path class="st8" d="M1149.2,60.5c0.2-0.3,0.3-0.6,0.4-1c-10.4-1.7-30.9-4.4-40.7-0.5c-0.2,0.4-0.3,0.8-0.5,1.3
		C1116.6,56.5,1135.4,58.2,1149.2,60.5z"/>
	<path class="st8" d="M1101.9,89.8c-1.3-15.3-0.1-25,3.8-28.8c0.2-0.2,0.4-0.4,0.6-0.5c-0.4,0.3-0.7,0.5-1,0.8
		c-3.8,3.8-5.1,13.5-3.6,28.8c0.3,3.5,1.2,10.7,2,15.9c0.1,0,0.2-0.1,0.3-0.1C1103.2,100.6,1102.2,93.3,1101.9,89.8z"/>
	<path class="st8" d="M1109,58.9c-1,0.4-1.9,0.9-2.7,1.6c0.8-0.5,1.6-1,2.6-1.4C1109,59,1109,59,1109,58.9z"/>
	<path class="st8" d="M1101.9,89.8c0.3,3.5,1.3,10.8,2.1,16.1c0.2-0.1,0.4-0.1,0.6-0.2c-0.8-5.2-1.7-12.2-2-15.7
		c-1.7-18.7,0.9-25.5,3.4-28c0.6-0.6,1.5-1.2,2.5-1.6c0.1-0.5,0.3-0.9,0.5-1.3c-1,0.4-1.9,0.9-2.6,1.4c-0.2,0.2-0.4,0.3-0.6,0.5
		C1101.8,64.8,1100.6,74.5,1101.9,89.8z"/>
	<path class="st8" d="M1103.7,106c-0.4,0.1-0.7,0.3-1.1,0.5C1103,106.3,1103.4,106.2,1103.7,106
		C1103.7,106.1,1103.7,106.1,1103.7,106z"/>
	<path class="st8" d="M1104,105.9c-0.1,0-0.2,0.1-0.3,0.1c0,0,0,0,0,0C1103.8,106,1103.9,106,1104,105.9
		C1104,105.9,1104,105.9,1104,105.9z"/>
	<path class="st8" d="M1104,105.9C1104,105.9,1104,105.9,1104,105.9c0.2-0.1,0.4-0.1,0.6-0.2C1104.4,105.8,1104.2,105.9,1104,105.9z
		"/>
	<path class="st8" d="M1117.2,142c-0.2-0.2-0.3-0.3-0.3-0.4c-4.3-4.9-7-10.2-8.9-16c0,0,0,0,0,0l-0.2-0.7c-0.4-1.3-0.8-2.5-1.1-3.8
		l-1.6-5.7c0,0,0.1,0,0.3-0.1c-0.1-0.5-0.2-1-0.3-1.5c0.1,0,0.3-0.1,0.4-0.1c0,0,0-0.1,0-0.1c-0.1,0-0.2,0.1-0.4,0.1
		c-0.1-0.7-0.3-1.5-0.4-2.2h0.1c-0.2-0.7-0.5-1.9-0.7-3.3c-0.3,0.1-0.7,0.3-1.1,0.4c0.2,1.1,0.4,2.1,0.6,2.7c0,0.1,0.1,0.2,0.1,0.3
		c2.2,11.5,4.6,21.8,12.3,30.5c0.1,0.2,0.3,0.4,0.4,0.6l34.3,34.2c0.2-0.3,0.3-0.6,0.5-0.9L1117.2,142z"/>
	<polygon class="st8" points="1258.1,250.1 1258.1,250.1 1258.7,251 1258.7,251 	"/>
	<path class="st8" d="M1157.3,61L1157.3,61c0,0.3-0.1,0.6-0.3,1l0,0C1157.2,61.7,1157.3,61.4,1157.3,61c0.8,0.3,1.4,0.4,2.1,0.6
		c0,0,0-0.1,0-0.1c9.5,2.2,18.4,4.6,26.1,11.3c0.1,0.1,0.3,0.2,0.4,0.3l33.7,33.7c0.3-0.2,0.6-0.4,1-0.5l-33.8-33.8
		c-0.2-0.1-0.4-0.3-0.6-0.4c-8.4-7.4-18.2-9.6-28.6-12l-1.7-0.4c-0.8-0.2-2.1-0.4-3.6-0.7c-0.1,0.3-0.3,0.7-0.4,1
		c1.8,0.3,3.2,0.6,3.8,0.7L1157.3,61z"/>
	<path class="st8" d="M1233.5,120.7l35.9,35.9l1.2-0.3l-36.4-36.4c0,0.1-0.1,0.2-0.1,0.3C1233.9,120.3,1233.7,120.5,1233.5,120.7z"
		/>
	<polygon class="st8" points="1308.6,195.8 1307.7,193.4 1290.2,175.9 1289.4,176.6 	"/>
	<path class="st8" d="M1309.8,197.3l0.2,0.6h-0.2c0,0.3-0.2,0.7-0.4,0.9l-18.4,18.4l0.9,0.6l18.3-18.3c1-1,1-2.6,0-3.6l-1.6-1.6
		l1,2.6C1309.7,197.1,1309.7,197.2,1309.8,197.3z"/>
	<path class="st8" d="M1232.7,119.9c0.2-0.2,0.4-0.3,0.5-0.5c0.1-0.1,0.1-0.3,0.1-0.4l-12.8-12.8c-0.3,0.2-0.6,0.4-1,0.5
		L1232.7,119.9z"/>
	<path class="st8" d="M1256.4,253.2C1256.4,253.2,1256.4,253.2,1256.4,253.2l2.3-2.2l-0.6-0.9l-9.9,9.9c0.2-0.1,0.4-0.2,0.5-0.3
		l-4.3,4.3c0.3,0.2,0.5,0.4,0.6,0.7l10.6-10.6c0,0,0-0.1,0-0.1L1256.4,253.2z"/>
	<polygon class="st8" points="1220.7,245.5 1220,246.1 1236.3,262.4 1236.3,261.1 	"/>
	<path class="st8" d="M1151.2,176c-0.2,0.3-0.3,0.6-0.5,0.9l9.3,9.3c1.4,0.1,2.6,1.2,2.7,2.7l37.6,37.6l0.3-1.1L1151.2,176z"/>
	<polygon class="st8" points="1289.4,220.3 1291.9,217.8 1291,217.2 1288.6,219.6 	"/>
	<polygon class="st8" points="1260.7,247.5 1258.1,250.1 1258.7,251 1261.3,248.4 	"/>
	<polygon class="st8" points="1291,217.2 1291.9,217.8 1291.9,217.8 1291,217.2 	"/>
	<path class="st8" d="M1160,186.2l2.7,2.7C1162.6,187.5,1161.4,186.3,1160,186.2z"/>
	<path class="st8" d="M1244.4,264l-1.2,1.2c-0.2,0.2-0.4,0.3-0.6,0.4c-0.6,0.4-1.4,0.4-2-0.2l-0.9-0.9v1.3l0.3,0.3c1,1,2.6,1,3.6,0
		l1.4-1.4C1244.9,264.4,1244.7,264.2,1244.4,264z"/>
	<polygon class="st8" points="1238.9,263.7 1236.3,261.1 1236.3,262.4 1237.6,263.7 	"/>
	<polygon class="st8" points="1237.6,263.7 1239.7,265.8 1239.7,264.5 1238.9,263.7 	"/>
	<path class="st8" d="M1310,197.9l-0.2-0.6c0,0.2,0.1,0.4,0,0.6H1310z"/>
	<path class="st8" d="M1309.4,196.6c0.1,0.1,0.2,0.2,0.2,0.4l-1-2.6l-1-1l0.9,2.4L1309.4,196.6z"/>
	<polygon class="st8" points="1261.3,248.4 1289.4,220.3 1288.6,219.6 1260.7,247.5 	"/>
	<path class="st8" d="M1233.2,119.4c-0.1,0.2-0.3,0.3-0.5,0.5l0.8,0.8c0.2-0.2,0.4-0.4,0.5-0.6c0.1-0.1,0.1-0.2,0.1-0.3l-0.8-0.8
		C1233.3,119.1,1233.3,119.3,1233.2,119.4z"/>
	<path class="st8" d="M1155.4,61.6l1.6,0.4c0.1-0.3,0.3-0.7,0.4-1h-0.1l-1.7-0.4c-0.6-0.1-2-0.4-3.8-0.7c-0.1,0.3-0.3,0.6-0.4,0.9
		C1152.8,61.1,1154.1,61.3,1155.4,61.6z"/>
	<path class="st8" d="M1104.4,108.1c-0.1,0-0.2,0.1-0.3,0.1c0.3,1.4,0.5,2.6,0.7,3.3h-0.1c0.1,0.7,0.3,1.5,0.4,2.2
		c0.1,0,0.2-0.1,0.4-0.1c-0.1-0.8-0.3-1.6-0.5-2.4C1104.8,110.5,1104.6,109.4,1104.4,108.1z"/>
	<polygon class="st8" points="1202,228.2 1218.5,244.7 1219.2,244 1202.3,227.1 	"/>
	<polygon class="st8" points="1288,175.2 1288.8,174.5 1272.2,157.9 1271,158.2 	"/>
	<polygon class="st8" points="1270.1,157.3 1271.3,157 1270.6,156.3 1269.4,156.6 	"/>
	<polygon class="st8" points="1201.4,226.2 1200.6,225.4 1200.3,226.5 1201.1,227.3 	"/>
	
		<rect x="1288.9" y="175.4" transform="matrix(0.7071 -0.7071 0.7071 0.7071 253.2464 963.2786)" class="st8" width="1.1" height="1"/>
	
		<rect x="1219.5" y="244.9" transform="matrix(0.7071 -0.7071 0.7071 0.7071 183.7725 934.5325)" class="st8" width="0.9" height="1"/>
	
		<rect x="1288.2" y="174.7" transform="matrix(0.7071 -0.7071 0.7071 0.7071 253.581 962.5988)" class="st8" width="1.1" height="1.1"/>
	
		<rect x="1218.8" y="244.2" transform="matrix(0.7066 -0.7076 0.7076 0.7066 184.5775 934.5654)" class="st8" width="0.9" height="1.1"/>
	<polygon class="st8" points="1202.3,227.1 1201.4,226.2 1201.1,227.3 1202,228.2 	"/>
	<polygon class="st8" points="1271,158.2 1272.2,157.9 1271.3,157 1270.2,157.4 	"/>
	<polygon class="st8" points="1271.3,157 1271.3,157 1270.1,157.3 1270.2,157.4 	"/>
	<path class="st8" d="M1169.4,64.2c0,0-0.1,0.3-0.3,0.9c5.7,1.8,11,4.3,15.8,8.5c0,0.1,0.1,0.2,0.2,0.2l0.1,0.1l33.4,33.4
		c0.3-0.2,0.6-0.3,0.9-0.5l-33.7-33.7c-0.1-0.1-0.3-0.2-0.4-0.3c-7.7-6.7-16.6-9.1-26.1-11.3c0,0,0,0.1,0,0.1c0,0,0,0,0,0
		L1169.4,64.2z"/>
	<path class="st8" d="M1117.5,141.6c-0.1-0.1-0.2-0.3-0.3-0.4c-4.3-4.8-6.9-10.1-8.8-15.7c-0.1,0-0.3,0.1-0.4,0.1
		c1.9,5.8,4.5,11.1,8.9,16c0,0.1,0.1,0.2,0.3,0.4l34,34c0.1-0.1,0.2-0.3,0.2-0.4L1117.5,141.6z"/>
	<polygon class="st8" points="1257.4,249.1 1257.4,249.1 1258.1,250.1 1258.1,250.1 	"/>
	<path class="st8" d="M1151.4,175.5c-0.1,0.1-0.2,0.3-0.2,0.4l49.4,49.4l0.1-0.5L1151.4,175.5z"/>
	<path class="st8" d="M1231.9,120.5c0.3-0.2,0.5-0.4,0.8-0.6l-13.2-13.2c-0.3,0.2-0.6,0.3-0.9,0.5L1231.9,120.5z"/>
	<path class="st8" d="M1246.7,259.8c0.4,0.3,1,0.4,1.5,0.2l9.9-9.9l-0.7-1L1246.7,259.8z"/>
	<path class="st8" d="M1308.7,197.1c0.2,0.2,0.2,0.5,0,0.7l-18.6,18.6l1,0.7l18.4-18.4c0.2-0.2,0.4-0.6,0.4-0.9h-0.4l-0.8-2.1
		l-19.2-19.2l-0.6,0.6L1308.7,197.1z"/>
	<polygon class="st8" points="1221,245.1 1220.7,245.5 1236.3,261.1 1236.3,260.5 	"/>
	<path class="st8" d="M1268.3,156.8l1-0.3l-35.9-35.9c-0.2,0.2-0.5,0.4-0.8,0.6L1268.3,156.8z"/>
	<polygon class="st8" points="1287.6,218.9 1288.6,219.6 1291,217.2 1290.1,216.4 	"/>
	<polygon class="st8" points="1260,246.5 1257.4,249.1 1258.1,250.1 1260.7,247.5 	"/>
	<polygon class="st8" points="1290.1,216.4 1291,217.2 1291,217.2 1290.1,216.4 	"/>
	<path class="st8" d="M1241,265.2l-1.3-1.3v0.6l0.9,0.9c0.5,0.5,1.3,0.6,2,0.2C1242,265.7,1241.4,265.6,1241,265.2z"/>
	<polygon class="st8" points="1236.3,260.5 1236.3,261.1 1238.9,263.7 1239.5,263.7 	"/>
	<polygon class="st8" points="1239.5,263.7 1238.9,263.7 1239.7,264.5 1239.7,263.9 	"/>
	<path class="st8" d="M1309.8,197.9c0-0.2,0-0.4,0-0.6c0-0.1-0.1-0.2-0.1-0.3c-0.1-0.1-0.1-0.3-0.2-0.4l-0.8-0.8l0.8,2.1H1309.8z"/>
	<polygon class="st8" points="1260.7,247.5 1288.6,219.6 1287.6,218.9 1260,246.5 	"/>
	<path class="st8" d="M1232.7,121.3c0.3-0.2,0.5-0.4,0.8-0.6l-0.8-0.8c-0.2,0.2-0.5,0.4-0.8,0.6L1232.7,121.3z"/>
	<polygon class="st8" points="1287.4,175.8 1288,175.2 1271,158.2 1270,158.5 	"/>
	<polygon class="st8" points="1202.3,227.1 1219.2,244 1219.5,243.7 1202.4,226.6 	"/>
	<polygon class="st8" points="1269.1,157.6 1270.1,157.3 1269.4,156.6 1268.3,156.8 	"/>
	<polygon class="st8" points="1200.7,224.9 1200.6,225.4 1201.4,226.2 1201.5,225.7 	"/>
	
		<rect x="1220.2" y="244.5" transform="matrix(0.7072 -0.707 0.707 0.7072 184.1916 934.6318)" class="st8" width="0.4" height="1"/>
	
		<rect x="1288.3" y="176.1" transform="matrix(0.707 -0.7072 0.7072 0.707 252.6704 963.1404)" class="st8" width="0.9" height="1"/>
	
		<rect x="1219.5" y="243.7" transform="matrix(0.7072 -0.707 0.707 0.7072 184.424 933.8048)" class="st8" width="0.4" height="1.1"/>
	
		<rect x="1287.6" y="175.4" transform="matrix(0.7063 -0.7079 0.7079 0.7063 253.79 963.4928)" class="st8" width="0.9" height="1.1"/>
	<polygon class="st8" points="1271,158.2 1270.2,157.4 1269.1,157.6 1270,158.5 	"/>
	<polygon class="st8" points="1202.4,226.6 1201.5,225.7 1201.4,226.2 1202.3,227.1 	"/>
	<polygon class="st8" points="1269.1,157.6 1270.2,157.4 1270.1,157.3 1269.1,157.6 	"/>
	<path class="st8" d="M1105.4,115.3c-0.2,0-0.3,0.1-0.3,0.1S1105.2,115.4,1105.4,115.3C1105.4,115.3,1105.4,115.3,1105.4,115.3z"/>
	<path class="st8" d="M1108,125.6C1108,125.6,1108,125.6,1108,125.6C1108,125.6,1108,125.6,1108,125.6
		C1108,125.6,1108,125.6,1108,125.6z"/>
	<path class="st8" d="M1169.1,65.1c0.2-0.6,0.3-0.9,0.3-0.9l-10-2.6c-0.1,0.3-0.2,0.6-0.3,0.8C1162.5,63.2,1165.9,64,1169.1,65.1z"
		/>
	<path class="st8" d="M1108.4,125.4c0.2-0.1,0.5-0.2,0.7-0.2c0,0,0,0,0,0C1108.9,125.2,1108.6,125.3,1108.4,125.4z"/>
	<path class="st8" d="M1108.4,125.4c-0.1,0.1-0.3,0.1-0.4,0.2c0,0,0,0,0,0C1108.2,125.5,1108.3,125.5,1108.4,125.4
		C1108.4,125.4,1108.4,125.4,1108.4,125.4z"/>
	<path class="st8" d="M1106.2,113.3c-0.2,0.1-0.5,0.2-0.7,0.2c0,0,0,0.1,0,0.1C1105.7,113.6,1106,113.5,1106.2,113.3
		C1106.2,113.4,1106.2,113.4,1106.2,113.3z"/>
	<path class="st8" d="M1105,107.6c0,0.1,0,0.1,0,0.2C1105,107.7,1105,107.7,1105,107.6C1105,107.6,1105,107.6,1105,107.6z"/>
	<path class="st8" d="M1105.8,111.4c0-0.1-0.1-0.3-0.1-0.4c-0.2-0.7-0.4-1.8-0.7-3.2c0,0,0,0,0,0c-0.2,0.1-0.4,0.2-0.6,0.3
		c0.2,1.3,0.4,2.4,0.6,3.1c0.2,0.8,0.3,1.6,0.5,2.4c0.2-0.1,0.5-0.2,0.7-0.2C1106,112.7,1105.9,112,1105.8,111.4z"/>
	<path class="st8" d="M1244.4,264l4.3-4.3c-0.2,0.2-0.3,0.3-0.5,0.3l-3.9,3.9C1244.3,263.9,1244.4,264,1244.4,264z"/>
	<path class="st8" d="M1242.8,265.4c-0.1,0.1-0.2,0.1-0.2,0.2c0.2-0.1,0.5-0.2,0.6-0.4l1.2-1.2c0,0-0.1,0-0.1-0.1L1242.8,265.4z"/>
	<path class="st8" d="M1117.9,140.9l-0.1-0.1c-0.1-0.1-0.1-0.1-0.2-0.2c-4.1-4.7-6.7-9.8-8.5-15.4c-0.2,0.1-0.5,0.2-0.7,0.2
		c1.9,5.7,4.5,11,8.8,15.7c0.1,0.1,0.2,0.3,0.3,0.4l33.9,33.9c0.1-0.2,0.3-0.5,0.4-0.7L1117.9,140.9z"/>
	<path class="st8" d="M1246.7,259.8l-3.9,3.9h0.7c0.3,0,0.5,0.1,0.8,0.2l3.9-3.9C1247.7,260.2,1247.1,260.1,1246.7,259.8z"/>
	<path class="st8" d="M1236.4,259.4l-14.8-14.8l-0.6,0.6l15.3,15.4v-0.7C1236.3,259.7,1236.3,259.5,1236.4,259.4z"/>
	<path class="st8" d="M1189.9,212.9c-0.6-0.2-1.1-0.7-1.3-1.3l-6.6-6.6c-0.6-0.2-1.1-0.7-1.3-1.3l-28.9-28.9
		c-0.1,0.2-0.3,0.5-0.4,0.7l49.3,49.4l0.2-0.9L1189.9,212.9z"/>
	<polygon class="st8" points="1239.7,263.7 1240.7,263.7 1239.7,262.7 	"/>
	<path class="st8" d="M1244.3,263.9c-0.2-0.1-0.5-0.2-0.8-0.2h-0.7l-0.7,0.7c-0.2,0.2-0.5,0.2-0.7,0l-0.7-0.7h-1v0.2l1.3,1.3
		c0.4,0.4,1,0.5,1.6,0.4c0.1-0.1,0.2-0.1,0.2-0.2L1244.3,263.9z"/>
	<path class="st8" d="M1236.4,259.4c0,0.1-0.1,0.3-0.1,0.4v0.7l3.2,3.2h0.2v-1L1236.4,259.4z"/>
	<polygon class="st8" points="1239.7,263.9 1239.7,263.7 1239.5,263.7 	"/>
	<path class="st8" d="M1182,205l-1.3-1.3C1180.9,204.3,1181.4,204.8,1182,205z"/>
	<path class="st8" d="M1189.9,212.9l-1.3-1.3C1188.8,212.2,1189.3,212.7,1189.9,212.9z"/>
	<polygon class="st8" points="1202.7,225.7 1202.4,226.6 1219.5,243.7 1220.1,243.1 	"/>
	<polygon class="st8" points="1201,224 1200.7,224.9 1201.5,225.7 1201.8,224.8 	"/>
	
		<rect x="1220.5" y="244" transform="matrix(0.7071 -0.7071 0.7071 0.7071 184.6743 934.8674)" class="st8" width="0.8" height="1"/>
	
		<rect x="1219.8" y="243.2" transform="matrix(0.7071 -0.7071 0.7071 0.7071 185.0103 934.1959)" class="st8" width="0.8" height="1.1"/>
	<polygon class="st8" points="1201.8,224.8 1201.5,225.7 1202.4,226.6 1202.7,225.7 	"/>
	<path class="st8" d="M1109.1,125.2c-0.2,0.1-0.5,0.2-0.7,0.2c0,0,0,0,0,0c0,0,0,0,0,0.1C1108.7,125.4,1108.9,125.3,1109.1,125.2
		C1109.1,125.2,1109.1,125.2,1109.1,125.2z"/>
	<path class="st8" d="M1107.8,124.9l0.2,0.7c0,0,0,0,0,0C1107.9,125.4,1107.9,125.1,1107.8,124.9z"/>
	<path class="st8" d="M1105.4,115.3c-0.2,0-0.3,0.1-0.3,0.1l1.6,5.7c-0.4-1.7-0.8-3.5-1.2-5.3
		C1105.5,115.6,1105.4,115.5,1105.4,115.3z"/>
	<path class="st8" d="M1108.4,125.4c-1-3.1-1.8-6.4-2.5-9.7c-0.1,0-0.3,0.1-0.4,0.1c0.4,1.8,0.8,3.6,1.2,5.3
		c0.3,1.3,0.7,2.6,1.1,3.8c0.1,0.2,0.1,0.5,0.2,0.7C1108.1,125.5,1108.3,125.5,1108.4,125.4z"/>
	<path class="st8" d="M1108.4,125.4c0.2-0.1,0.5-0.2,0.7-0.2c-1-3.1-1.8-6.4-2.5-9.7c-0.2,0.1-0.5,0.2-0.7,0.2
		C1106.6,119,1107.4,122.2,1108.4,125.4L1108.4,125.4C1108.4,125.4,1108.4,125.4,1108.4,125.4z"/>
	<path class="st8" d="M1108.4,125.4L1108.4,125.4C1108.4,125.4,1108.4,125.4,1108.4,125.4C1108.4,125.4,1108.4,125.4,1108.4,125.4z"
		/>
	<path class="st8" d="M1105.9,115.7c0.7,3.4,1.6,6.6,2.5,9.7C1107.4,122.2,1106.6,119,1105.9,115.7
		C1105.9,115.7,1105.9,115.7,1105.9,115.7z"/>
	<path class="st8" d="M1256.4,253.2l-0.8,0.8c0,0,0,0.1,0,0.1L1256.4,253.2C1256.4,253.2,1256.4,253.2,1256.4,253.2z"/>
	<path class="st8" d="M1105.8,115.2c-0.1-0.5-0.2-1-0.3-1.5c-0.1,0-0.3,0.1-0.4,0.1c0.1,0.5,0.2,1,0.3,1.5c0,0,0.1,0,0.1,0
		C1105.6,115.3,1105.7,115.3,1105.8,115.2z"/>
	<path class="st8" d="M1159,62.4c0.1-0.1,0.1-0.3,0.2-0.4c0-0.1,0.1-0.3,0.1-0.4c-0.7-0.2-1.3-0.3-2-0.5c-0.1,0.3-0.2,0.6-0.3,0.9
		l0,0C1157.7,62.1,1158.4,62.3,1159,62.4z"/>
	<path class="st8" d="M1159.4,61.6C1159.4,61.6,1159.4,61.6,1159.4,61.6c-0.1,0.1-0.1,0.3-0.2,0.4
		C1159.3,61.9,1159.3,61.7,1159.4,61.6z"/>
	<path class="st8" d="M1105.5,115.3c0,0-0.1,0-0.1,0c0,0,0,0,0,0C1105.5,115.3,1105.5,115.3,1105.5,115.3z"/>
	<path class="st8" d="M1159.2,62c-0.1,0.1-0.1,0.3-0.2,0.4c0,0,0,0,0,0C1159.1,62.3,1159.2,62.1,1159.2,62z"/>
	<path class="st8" d="M1159.1,62.4c0.1-0.3,0.2-0.6,0.3-0.8c-0.1,0.1-0.1,0.3-0.2,0.4C1159.2,62.1,1159.1,62.3,1159.1,62.4
		C1159.1,62.4,1159.1,62.4,1159.1,62.4z"/>
	<path class="st8" d="M1105.8,115.2C1105.8,115.2,1105.8,115.2,1105.8,115.2c0.2,0,0.4-0.1,0.7-0.1c-0.1-0.5-0.2-1.1-0.3-1.7
		c-0.2,0.1-0.5,0.2-0.7,0.2C1105.6,114.2,1105.7,114.7,1105.8,115.2C1105.8,115.2,1105.8,115.2,1105.8,115.2z"/>
	<path class="st8" d="M1106.5,115.1C1106.5,115.1,1106.5,115.1,1106.5,115.1c-0.3,0-0.5,0.1-0.7,0.2c0,0,0,0,0,0
		C1106,115.2,1106.3,115.2,1106.5,115.1z"/>
	<path class="st8" d="M1105.8,115.2c-0.1,0-0.2,0.1-0.2,0.1C1105.6,115.3,1105.7,115.3,1105.8,115.2
		C1105.8,115.2,1105.8,115.2,1105.8,115.2z"/>
	<path class="st8" d="M1105.8,115.4c0,0,0-0.1,0-0.1c-0.1,0-0.2,0-0.2,0.1c0,0-0.1,0-0.1,0c0,0.2,0.1,0.3,0.1,0.5
		c0.1,0,0.3-0.1,0.4-0.1C1105.9,115.6,1105.8,115.5,1105.8,115.4C1105.8,115.4,1105.8,115.4,1105.8,115.4z"/>
	<path class="st8" d="M1105.8,115.2C1105.8,115.2,1105.8,115.2,1105.8,115.2C1105.8,115.2,1105.8,115.2,1105.8,115.2
		C1105.8,115.2,1105.8,115.2,1105.8,115.2C1105.8,115.3,1105.8,115.2,1105.8,115.2z"/>
	<path class="st8" d="M1105.8,115.4C1105.8,115.4,1105.8,115.4,1105.8,115.4c0,0,0-0.1,0-0.1c0,0,0,0,0,0c0,0,0,0,0,0c0,0,0,0,0,0
		C1105.8,115.3,1105.8,115.4,1105.8,115.4z"/>
	<path class="st8" d="M1105.8,115.4c0,0.1,0,0.2,0.1,0.3c0.2-0.1,0.5-0.2,0.7-0.2c0-0.1,0-0.2,0-0.2
		C1106.3,115.3,1106,115.3,1105.8,115.4z"/>
	<path class="st8" d="M1106.5,115.1c-0.3,0.1-0.5,0.1-0.7,0.2c0,0,0,0.1,0,0.1C1106,115.3,1106.3,115.3,1106.5,115.1
		C1106.5,115.2,1106.5,115.1,1106.5,115.1z"/>
	<path class="st8" d="M1105.8,115.4C1105.8,115.4,1105.8,115.4,1105.8,115.4c0,0.1,0,0.2,0,0.3c0,0,0,0,0,0
		C1105.9,115.6,1105.9,115.5,1105.8,115.4z"/>
	<path class="st8" d="M1105.8,115.3C1105.8,115.3,1105.8,115.4,1105.8,115.3C1105.8,115.4,1105.8,115.4,1105.8,115.3
		C1105.8,115.4,1105.8,115.3,1105.8,115.3C1105.8,115.3,1105.8,115.3,1105.8,115.3z"/>
	<path class="st8" d="M1105,107.6c0,0.1,0,0.1,0,0.2c0,0,0,0,0,0C1105,107.7,1105,107.7,1105,107.6
		C1105,107.6,1105,107.6,1105,107.6z"/>
	<path class="st8" d="M1104.1,108c-0.3,0.1-0.7,0.3-1.1,0.4c0,0.1,0,0.1,0,0.2c0.4-0.2,0.7-0.3,1.1-0.4
		C1104.1,108.1,1104.1,108.1,1104.1,108z"/>
	<path class="st8" d="M1104.3,107.9c-0.1,0-0.2,0.1-0.3,0.1c0,0.1,0,0.1,0,0.2c0.1,0,0.2-0.1,0.3-0.1
		C1104.4,108,1104.4,107.9,1104.3,107.9z"/>
	<path class="st8" d="M1104.3,107.9c0,0.1,0,0.1,0,0.2c0.2-0.1,0.4-0.2,0.6-0.3c0-0.1,0-0.1,0-0.2
		C1104.7,107.7,1104.5,107.8,1104.3,107.9z"/>
</g>
<title>Page 1</title>
<desc>Created with Sketch.</desc>
<g>
	<g transform="translate(1100.000000, 56.000000)">
		<g id="Clip-10">
		</g>
		<g id="Clip-89">
		</g>
	</g>
</g>
<circle class="st4" cx="1116.3" cy="303.7" r="5.8"/>
<g>
	<path class="st4" d="M1135.4,346.9c0.9,1.3,0.6,3.1-0.7,4s-3.1,0.7-4-0.6c-1-1.3-0.6-3.1,0.6-4
		C1132.7,345.4,1134.5,345.6,1135.4,346.9z M1122.2,329c-1.1,1.4-1.4,2.7-0.5,4.3h0.1c0.1-0.2,0.2-0.4,0.5-0.6
		c0.9-0.7,2.4-0.4,3.2,0.7c0.8,1.1,0.6,2.6-0.6,3.4c-1.6,1.2-3.2,0.5-4.6-1.5c-1.5-2.1-1.6-5.5,0.7-7.4L1122.2,329z"/>
</g>
<g>
	<path class="st4" d="M1089.6,296.7l-0.9,1.6c0,0-0.1-0.1-0.2-0.2c-0.9-0.5-1.8-0.2-2.3,0.7c-0.8,1.5-0.4,3.9-1.3,5.7
		c-0.6,1.1-1.6,1.5-2.6,1.2l0,0c0.8,0.7,1,1.7,0.4,2.9c-1,1.8-3.2,2.8-4,4.3c-0.6,1.1-0.2,1.8,0.7,2.3l0.2,0.1l-0.9,1.6l-0.2-0.1
		c-1.9-1-2.9-2.7-1.8-4.8c1-2,3.5-3.2,4.2-4.5c0.5-0.9,0-1.4-0.8-1.8l0.9-1.7c0.8,0.4,1.5,0.5,2-0.4c0.7-1.3,0.3-4.1,1.4-6
		c1.1-2.1,3-2.3,5-1.2L1089.6,296.7z"/>
</g>
<g>
	<path class="st4" d="M1092.2,352.5c0.7,0.1,1.3,0.3,1.8,0.4s1,0.2,1.5,0.3c0.5,0.1,1.1,0.2,1.8,0.4l0.1-0.1l-1.9-4.8l0.8-0.9
		l2.3,6.1l-0.6,0.7l-6.4-1.1L1092.2,352.5z"/>
	<path class="st4" d="M1089.3,350.1c-0.2,0.2-0.3,0.3-0.4,0.5c-0.1,0.1-0.2,0.3-0.4,0.5l-2.3-6.1l0.6-0.7l6.4,1.1l-0.8,0.9l-5.1-1
		l-0.1,0.1L1089.3,350.1z"/>
</g>
<circle class="st4" cx="1417.8" cy="93.3" r="5.8"/>
<circle class="st13" cx="1358.1" cy="131.1" r="5.8"/>
<circle class="st13" cx="1044" cy="353.8" r="5.8"/>
<circle class="st13" cx="1119.2" cy="254.7" r="2.9"/>
<circle class="st13" cx="1337.8" cy="207.6" r="2.9"/>
<circle class="st13" cx="1373.5" cy="71.8" r="2.9"/>
<g>
	<path class="st4" d="M1411.7,48.8c-0.9-1.3-0.6-3.1,0.7-4c1.3-0.9,3.1-0.7,4,0.6c1,1.3,0.6,3.1-0.6,4
		C1414.5,50.4,1412.7,50.1,1411.7,48.8z M1424.9,66.7c1.1-1.4,1.4-2.7,0.5-4.3h-0.1c-0.1,0.2-0.2,0.4-0.5,0.6
		c-0.9,0.7-2.4,0.4-3.2-0.7c-0.8-1.1-0.6-2.6,0.6-3.4c1.6-1.2,3.2-0.5,4.6,1.5c1.5,2.1,1.6,5.5-0.7,7.4L1424.9,66.7z"/>
</g>
<g>
	<path class="st4" d="M1422.4,130.3l0.9-1.6c0,0,0.1,0.1,0.2,0.2c0.9,0.5,1.8,0.2,2.3-0.7c0.8-1.5,0.4-3.9,1.3-5.7
		c0.6-1.1,1.6-1.5,2.6-1.2l0,0c-0.8-0.7-1-1.7-0.4-2.9c1-1.8,3.2-2.8,4-4.3c0.6-1.1,0.2-1.8-0.7-2.3l-0.2-0.1l0.9-1.6l0.2,0.1
		c1.9,1,2.9,2.7,1.8,4.8c-1,2-3.5,3.2-4.2,4.5c-0.5,0.9,0,1.4,0.8,1.8l-0.9,1.7c-0.8-0.4-1.5-0.5-2,0.4c-0.7,1.3-0.3,4.1-1.4,6
		c-1.1,2.1-3,2.3-5,1.2L1422.4,130.3z"/>
</g>
<g>
	<path class="st4" d="M1314.3,71.2c-0.7-0.1-1.3-0.3-1.8-0.4s-1-0.2-1.5-0.3c-0.5-0.1-1.1-0.2-1.8-0.4l-0.1,0.1l1.9,4.8l-0.8,0.9
		l-2.3-6.1l0.6-0.7l6.4,1.1L1314.3,71.2z"/>
	<path class="st4" d="M1317.2,73.6c0.2-0.2,0.3-0.3,0.4-0.5s0.2-0.3,0.4-0.5l2.3,6.1l-0.6,0.7l-6.4-1.1l0.8-0.9l5.1,1l0.1-0.1
		L1317.2,73.6z"/>
</g>
</svg>
