<?xml version="1.0" encoding="UTF-8"?>
<svg width="136px" height="84px" viewBox="0 0 136 84" version="1.1" xmlns="http://www.w3.org/2000/svg" xmlns:xlink="http://www.w3.org/1999/xlink">
    <!-- Generator: Sketch 44 (41411) - http://www.bohemiancoding.com/sketch -->
    <title>Page 1</title>
    <desc>Created with Sketch.</desc>
    <defs></defs>
    <g id="Page-1" stroke="none" stroke-width="1" fill="none" fill-rule="evenodd">
        <g id="Desktop-HD" transform="translate(-333.000000, -1596.000000)">
            <g id="Page-1" transform="translate(334.000000, 1597.000000)">
                <g id="Group-4" transform="translate(8.785714, 0.246732)">
                    <path d="M71.1369768,0.485483929 L1.9121375,0.485483929 C0.961816071,0.485483929 0.191601786,1.25643036 0.191601786,2.20675179 L2.38803036,74.4699839 C2.38803036,75.4203054 3.15824464,76.1905196 4.10929821,76.1905196 L112.240941,76.1905196 C113.191262,76.1905196 113.962209,75.4203054 113.962209,74.4699839 L116.158637,2.20675179 C116.158637,1.25643036 115.388423,0.485483929 114.438102,0.485483929 L71.1369768,0.485483929" id="Fill-1" fill="#D6D6D6"></path>
                    <path d="M71.1369768,0.485483929 L1.9121375,0.485483929 C0.961816071,0.485483929 0.191601786,1.25643036 0.191601786,2.20675179 L2.38803036,74.4699839 C2.38803036,75.4203054 3.15824464,76.1905196 4.10929821,76.1905196 L112.240941,76.1905196 C113.191262,76.1905196 113.962209,75.4203054 113.962209,74.4699839 L116.158637,2.20675179 C116.158637,1.25643036 115.388423,0.485483929 114.438102,0.485483929 L71.1369768,0.485483929" id="Stroke-3" stroke="#182642" stroke-width="2"></path>
                </g>
                <path d="M117.431029,7.19637857 L16.4904929,7.19637857 C15.599475,7.19637857 14.8761179,7.91900357 14.8761179,8.81075357 L17.0732786,79.7085393 C17.0732786,80.6002893 17.7959036,81.3221821 18.6869214,81.3221821 L115.2346,81.3221821 C116.125618,81.3221821 116.848975,80.6002893 116.848975,79.7085393 L119.045404,8.81075357 C119.045404,7.91900357 118.322046,7.19637857 117.431029,7.19637857" id="Fill-5" fill="#262C4F"></path>
                <path d="M117.431029,7.19637857 L16.4904929,7.19637857 C15.599475,7.19637857 14.8761179,7.91900357 14.8761179,8.81075357 L17.0732786,79.7085393 C17.0732786,80.6002893 17.7959036,81.3221821 18.6869214,81.3221821 L115.2346,81.3221821 C116.125618,81.3221821 116.848975,80.6002893 116.848975,79.7085393 L119.045404,8.81075357 C119.045404,7.91900357 118.322046,7.19637857 117.431029,7.19637857 Z" id="Stroke-7" stroke="#182642" stroke-width="2"></path>
                <path d="M132.264755,73.7991946 L1.65632679,73.7991946 C0.741880357,73.7991946 0.000219642857,74.5408554 0.000219642857,75.4560339 L0.000219642857,79.8576768 C0.000219642857,80.7728554 0.741880357,81.5145161 1.65632679,81.5145161 L132.264755,81.5145161 C133.179934,81.5145161 133.921595,80.7728554 133.921595,79.8576768 L133.921595,75.4560339 C133.921595,74.5408554 133.179934,73.7991946 132.264755,73.7991946" id="Fill-9" fill="#F1F1F1"></path>
                <path d="M132.264755,73.7991946 L1.65632679,73.7991946 C0.741880357,73.7991946 0.000219642857,74.5408554 0.000219642857,75.4560339 L0.000219642857,79.8576768 C0.000219642857,80.7728554 0.741880357,81.5145161 1.65632679,81.5145161 L132.264755,81.5145161 C133.179934,81.5145161 133.921595,80.7728554 133.921595,79.8576768 L133.921595,75.4560339 C133.921595,74.5408554 133.179934,73.7991946 132.264755,73.7991946 Z" id="Stroke-11" stroke="#182642" stroke-width="2"></path>
                <path d="M32.1903446,40.0419911 L53.2189518,29.0759554 L53.2189518,33.7484911 C53.2189518,34.1035804 53.1303625,34.4264554 52.9531839,34.7185804 C52.7767375,35.0107054 52.4846125,35.2632946 52.0775411,35.4748839 L42.4396125,40.4139196 C42.0318089,40.6262411 41.6027732,40.8078125 41.1517732,40.9579018 C40.7000411,41.1087232 40.2175589,41.2463661 39.7043268,41.3693661 C40.2175589,41.4930982 40.7000411,41.6314732 41.1517732,41.7808304 C41.6027732,41.9316518 42.0318089,42.1124911 42.4396125,42.3255446 L52.0775411,47.2902054 C52.4846125,47.5025268 52.7767375,47.7551161 52.9531839,48.0479732 C53.1303625,48.3393661 53.2189518,48.6622411 53.2189518,49.0165982 L53.2189518,53.6898661 L32.1903446,42.6967411 L32.1903446,40.0419911 Z" id="Fill-13" fill="#D85959"></path>
                <path d="M61.9011411,59.3450839 C61.7415339,59.7521554 61.5379982,60.1057804 61.2905339,60.4066911 C61.0423375,60.7076018 60.7589982,60.9601911 60.4405161,61.1637268 C60.1220339,61.3672625 59.7852482,61.5224768 59.4316232,61.6279054 C59.0772661,61.7347982 58.7324268,61.7875125 58.3963732,61.7875125 L55.6347304,61.7875125 L71.1407839,22.1192804 C71.4416946,21.3761554 71.8751232,20.8050839 72.4418018,20.4067982 C73.0084804,20.0085125 73.6901054,19.8093696 74.4866768,19.8093696 L77.2746768,19.8093696 L61.9011411,59.3450839 Z" id="Fill-15" fill="#D85959"></path>
                <path d="M79.5576446,53.6895732 L79.5576446,49.0163054 C79.5576446,48.6626804 79.6455018,48.3390732 79.8226804,48.0476804 C79.9998589,47.7555554 80.2919839,47.5029661 80.6990554,47.2906446 L90.3377161,42.3259839 C91.1159839,41.9357518 92.0275018,41.6180018 93.0722696,41.3698054 C92.5583054,41.2460732 92.0765554,41.1084304 91.6248232,40.9576089 C91.1738232,40.8075196 90.7440554,40.6259482 90.3377161,40.4136268 L80.6990554,35.4745911 C80.2919839,35.2630018 79.9998589,35.0104125 79.8226804,34.7182875 C79.6455018,34.4261625 79.5576446,34.1032875 79.5576446,33.7489304 L79.5576446,29.0763946 L100.586252,40.0416982 L100.586252,42.6964482 L79.5576446,53.6895732 Z" id="Fill-17" fill="#D85959"></path>
            </g>
        </g>
    </g>
</svg>